<svg width="1920" height="1080" viewBox="0 0 1920 1080" fill="none" xmlns="http://www.w3.org/2000/svg">
<g clip-path="url(#clip0_12_192)">
<rect width="1920" height="1080" fill="white"/>
<path d="M93 25C93 76.3625 51.3625 118 0 118C-51.3625 118 -93 76.3625 -93 25C-93 -26.3625 -51.3625 -68 0 -68C51.3625 -68 93 -26.3625 93 25ZM-61.975 25C-61.975 59.2278 -34.2278 86.975 0 86.975C34.2278 86.975 61.975 59.2278 61.975 25C61.975 -9.22783 34.2278 -36.975 0 -36.975C-34.2278 -36.975 -61.975 -9.22783 -61.975 25Z" fill="#FCBAD0"/>
<circle cx="1676.5" cy="475.5" r="32.5" fill="white"/>
<path d="M670 930.5C670 968.332 639.332 999 601.5 999C563.668 999 533 968.332 533 930.5C533 892.668 563.668 862 601.5 862C639.332 862 670 892.668 670 930.5ZM548 930.5C548 955.711 576.289 984.5 601.5 984.5C626.711 984.5 652.5 955.711 652.5 930.5C652.5 905.289 626.711 878.5 601.5 878.5C576.289 878.5 548 905.289 548 930.5Z" fill="white"/>
<path d="M1894 836C1894 870.794 1865.79 899 1831 899C1796.21 899 1768 870.794 1768 836C1768 801.206 1796.21 773 1831 773C1865.79 773 1894 801.206 1894 836ZM1789.02 836C1789.02 859.187 1807.81 877.983 1831 877.983C1854.19 877.983 1872.98 859.187 1872.98 836C1872.98 812.813 1854.19 794.017 1831 794.017C1807.81 794.017 1789.02 812.813 1789.02 836Z" fill="#FF74B3"/>
<circle cx="1584" cy="52" r="93" fill="#FF74B3"/>
<circle cx="1657.57" cy="1414" r="435" fill="#FF74B3"/>
<path fill-rule="evenodd" clip-rule="evenodd" d="M362.184 1562.43C296.871 1634.03 211.795 1684.64 117.715 1707.88C23.6348 1731.13 -75.2245 1725.95 -166.362 1693C-257.499 1660.06 -336.82 1600.83 -394.295 1522.8C-451.77 1444.78 -484.817 1351.46 -489.257 1254.66C-493.698 1157.85 -469.332 1061.9 -419.241 978.942C-369.15 895.983 -295.584 829.741 -207.846 788.592C-120.107 747.444 -22.137 733.236 73.6759 747.767C168.329 762.122 256.676 803.887 327.825 867.865L327.833 867.856C328.097 868.096 328.359 868.338 328.619 868.581C329.225 869.128 329.83 869.677 330.433 870.228L330.389 870.276C347.29 886.893 357.333 909.316 358.423 933.079C359.567 958.016 350.757 982.387 333.933 1000.83C317.108 1019.27 293.647 1030.27 268.71 1031.42C243.772 1032.56 219.402 1023.75 200.96 1006.93L201.438 1006.4C157.693 967.418 103.542 941.961 45.5578 933.167C-13.5864 924.198 -74.0622 932.967 -128.222 958.368C-182.382 983.769 -227.794 1024.66 -258.714 1075.87C-289.635 1127.08 -304.675 1186.31 -301.934 1246.06C-299.193 1305.82 -278.794 1363.42 -243.315 1411.59C-207.837 1459.75 -158.872 1496.31 -102.615 1516.65C-46.3567 1536.99 14.668 1540.18 72.7427 1525.84C130.817 1511.49 183.334 1480.24 223.651 1436.05L223.111 1435.56C239.936 1417.12 263.397 1406.11 288.335 1404.97C313.272 1403.83 337.642 1412.64 356.084 1429.46C374.526 1446.28 385.53 1469.75 386.674 1494.68C387.818 1519.62 379.008 1543.99 362.184 1562.43L328.419 1531.63C337.074 1522.14 341.605 1509.61 341.017 1496.78C340.429 1483.95 334.768 1471.88 325.281 1463.22C315.794 1454.57 303.257 1450.04 290.429 1450.63C277.6 1451.22 265.531 1456.88 256.876 1466.36L256.905 1466.39C210.588 1517.16 150.256 1553.05 83.538 1569.54C16.8204 1586.02 -53.2863 1582.34 -117.917 1558.98C-182.547 1535.62 -238.798 1493.62 -279.557 1438.29C-320.316 1382.95 -343.751 1316.78 -346.9 1248.13C-350.049 1179.48 -332.77 1111.43 -297.248 1052.6C-261.726 993.771 -209.556 946.795 -147.335 917.614C-85.1151 888.433 -15.639 878.358 52.3073 888.663C119.693 898.883 182.572 928.692 233.129 974.363C242.436 982.235 254.393 986.322 266.615 985.762C279.444 985.173 291.513 979.513 300.168 970.026C308.823 960.538 313.355 948.002 312.766 935.173C312.232 923.522 307.513 912.497 299.544 904.087L299.125 904.546C234.32 845.426 153.439 806.85 66.7103 793.696C-20.0187 780.543 -108.7 793.403 -188.121 830.65C-267.541 867.898 -334.132 927.86 -379.474 1002.95C-424.816 1078.05 -446.872 1164.9 -442.852 1252.53C-438.833 1340.16 -408.919 1424.63 -356.893 1495.25C-304.867 1565.88 -233.066 1619.49 -150.57 1649.32C-68.0731 1679.14 21.4135 1683.82 106.574 1662.79C191.735 1641.75 268.745 1595.93 327.865 1531.12L362.184 1562.43Z" fill="#FEDFEA"/>
<path fill-rule="evenodd" clip-rule="evenodd" d="M2455.18 330.433C2389.87 402.026 2304.8 452.643 2210.72 475.884C2116.63 499.125 2017.78 493.946 1926.64 461.002C1835.5 428.059 1756.18 368.829 1698.71 290.804C1641.23 212.779 1608.18 119.463 1603.74 22.6567C1599.3 -74.15 1623.67 -170.099 1673.76 -253.058C1723.85 -336.017 1797.42 -402.259 1885.15 -443.408C1972.89 -484.556 2070.86 -498.764 2166.68 -484.233C2261.33 -469.878 2349.68 -428.113 2420.83 -364.135L2420.83 -364.144C2421.1 -363.904 2421.36 -363.662 2421.62 -363.419C2422.23 -362.872 2422.83 -362.323 2423.43 -361.772L2423.39 -361.724C2440.29 -345.107 2450.33 -322.684 2451.42 -298.921C2452.57 -273.984 2443.76 -249.613 2426.93 -231.171C2410.11 -212.729 2386.65 -201.726 2361.71 -200.582C2336.77 -199.438 2312.4 -208.247 2293.96 -225.072L2294.44 -225.596C2250.69 -264.582 2196.54 -290.039 2138.56 -298.833C2079.41 -307.802 2018.94 -299.033 1964.78 -273.632C1910.62 -248.231 1865.21 -207.341 1834.29 -156.131C1803.37 -104.922 1788.32 -45.6934 1791.07 14.0643C1793.81 73.8219 1814.21 131.425 1849.68 179.589C1885.16 227.753 1934.13 264.314 1990.39 284.65C2046.64 304.986 2107.67 308.183 2165.74 293.836C2223.82 279.49 2276.33 248.244 2316.65 204.051L2316.11 203.559C2332.94 185.117 2356.4 174.114 2381.33 172.97C2406.27 171.826 2430.64 180.635 2449.08 197.46C2467.53 214.284 2478.53 237.746 2479.67 262.683C2480.82 287.62 2472.01 311.991 2455.18 330.433L2421.42 299.63C2430.07 290.142 2434.61 277.606 2434.02 264.777C2433.43 251.949 2427.77 239.88 2418.28 231.225C2408.79 222.57 2396.26 218.038 2383.43 218.627C2370.6 219.215 2358.53 224.875 2349.88 234.362L2349.9 234.388C2303.59 285.159 2243.26 321.054 2176.54 337.536C2109.82 354.017 2039.71 350.345 1975.08 326.982C1910.45 303.62 1854.2 261.617 1813.44 206.285C1772.68 150.953 1749.25 84.7779 1746.1 16.1268C1742.95 -52.5243 1760.23 -120.567 1795.75 -179.398C1831.27 -238.229 1883.44 -285.205 1945.66 -314.386C2007.88 -343.567 2077.36 -353.642 2145.31 -343.337C2212.69 -333.117 2275.57 -303.308 2326.13 -257.637C2335.44 -249.765 2347.39 -245.678 2359.62 -246.238C2372.44 -246.827 2384.51 -252.487 2393.17 -261.974C2401.82 -271.462 2406.35 -283.998 2405.77 -296.827C2405.23 -308.478 2400.51 -319.503 2392.54 -327.913L2392.13 -327.454C2327.32 -386.574 2246.44 -425.15 2159.71 -438.304C2072.98 -451.457 1984.3 -438.597 1904.88 -401.35C1825.46 -364.102 1758.87 -304.14 1713.53 -229.047C1668.18 -153.953 1646.13 -67.1004 1650.15 20.5282C1654.17 108.157 1684.08 192.626 1736.11 263.253C1788.13 333.881 1859.93 387.495 1942.43 417.315C2024.93 447.136 2114.41 451.823 2199.57 430.786C2284.74 409.748 2361.74 363.93 2420.87 299.125L2455.18 330.433Z" fill="#FEDFEA"/>
<path d="M98.12 110.44C98.12 108.477 98.1627 107.027 98.248 106.088C98.4187 105.064 98.8453 103.912 99.528 102.632C100.723 100.328 104.051 99.176 109.512 99.176C115.485 99.176 119.027 100.755 120.136 103.912C120.563 105.363 120.776 107.581 120.776 110.568V181.736C120.776 183.784 120.691 185.277 120.52 186.216C120.435 187.155 120.051 188.264 119.368 189.544C118.173 191.848 114.845 193 109.384 193C103.411 193 99.912 191.379 98.888 188.136C98.376 186.771 98.12 184.595 98.12 181.608V110.44ZM163.37 105.064C163.37 103.101 163.413 101.651 163.498 100.712C163.669 99.688 164.053 98.536 164.65 97.256C165.845 94.952 169.173 93.8 174.634 93.8C179.839 93.8 183.082 94.952 184.362 97.256C185.045 98.536 185.429 99.688 185.514 100.712C185.685 101.736 185.77 103.229 185.77 105.192V164.456C185.77 167.528 186.026 169.491 186.538 170.344C187.05 171.112 188.159 171.496 189.866 171.496C191.658 171.496 192.853 171.581 193.45 171.752C194.047 171.837 194.773 172.179 195.626 172.776C197.333 173.885 198.186 176.915 198.186 181.864C198.186 187.24 197.333 190.525 195.626 191.72C193.407 193.256 188.117 193.512 179.754 192.488C173.183 191.635 168.917 189.459 166.954 185.96C164.565 181.779 163.37 175.123 163.37 165.992V105.064ZM203.325 159.336C203.325 149.096 206.909 140.648 214.077 133.992C221.245 127.336 229.437 124.008 238.653 124.008C247.869 124.008 256.018 127.336 263.101 133.992C270.184 140.563 273.725 148.968 273.725 159.208C273.725 166.291 271.89 172.605 268.221 178.152C264.552 183.613 260.072 187.667 254.781 190.312C249.576 192.872 244.157 194.152 238.525 194.152C232.893 194.152 227.432 192.787 222.141 190.056C216.85 187.24 212.37 183.144 208.701 177.768C205.117 172.307 203.325 166.163 203.325 159.336ZM230.077 168.552C232.808 170.6 235.581 171.624 238.397 171.624C241.213 171.624 244.029 170.557 246.845 168.424C249.661 166.291 251.069 163.133 251.069 158.952C251.069 154.771 249.746 151.656 247.101 149.608C244.456 147.56 241.597 146.536 238.525 146.536C235.453 146.536 232.594 147.603 229.949 149.736C227.304 151.869 225.981 155.027 225.981 159.208C225.981 163.304 227.346 166.419 230.077 168.552ZM346.088 127.08C350.525 129.725 352.744 132.541 352.744 135.528C352.744 137.235 351.891 139.581 350.184 142.568L323.688 188.008C322.835 189.459 321.469 190.781 319.592 191.976C317.715 193.085 315.837 193.64 313.96 193.64C312.168 193.64 310.419 193.213 308.712 192.36C307.091 191.421 305.939 190.483 305.256 189.544L304.104 188.136L277.48 142.568C275.773 139.752 274.92 137.448 274.92 135.656C274.92 132.584 277.139 129.725 281.576 127.08C284.819 125.203 287.379 124.264 289.256 124.264C291.133 124.264 292.584 124.861 293.608 126.056C294.717 127.165 295.869 128.872 297.064 131.176L313.832 163.432L330.6 131.176C331.539 129.555 332.221 128.403 332.648 127.72C333.16 126.952 333.928 126.227 334.952 125.544C335.976 124.776 337.341 124.392 339.048 124.392C340.755 124.392 343.101 125.288 346.088 127.08ZM420.894 151.272C420.894 156.477 419.571 160.36 416.926 162.92C414.366 165.395 411.507 166.632 408.35 166.632H378.014C378.014 169.021 379.422 171.027 382.238 172.648C385.054 174.269 387.87 175.08 390.686 175.08C395.635 175.08 399.518 174.568 402.334 173.544L403.742 173.032C405.79 172.093 407.497 171.624 408.862 171.624C411.593 171.624 413.939 173.544 415.902 177.384C417.011 179.688 417.566 181.651 417.566 183.272C417.566 190.867 408.478 194.664 390.302 194.664C383.987 194.664 378.355 193.597 373.406 191.464C368.542 189.245 364.745 186.344 362.014 182.76C356.638 175.848 353.95 168.125 353.95 159.592C353.95 148.84 357.406 140.264 364.318 133.864C371.315 127.379 380.019 124.136 390.43 124.136C402.291 124.136 410.995 128.317 416.542 136.68C419.443 141.117 420.894 145.981 420.894 151.272ZM393.886 154.984C397.129 154.984 398.75 153.619 398.75 150.888C398.75 148.925 397.982 147.347 396.446 146.152C394.995 144.957 392.862 144.36 390.046 144.36C387.315 144.36 384.585 145.512 381.854 147.816C379.123 150.035 377.758 152.424 377.758 154.984H393.886ZM449.085 171.88C450.536 173.331 451.261 176.317 451.261 180.84V181.352C451.261 183.4 451.176 184.936 451.005 185.96C450.92 186.899 450.493 188.051 449.725 189.416C448.445 191.891 445.202 193.128 439.997 193.128C434.877 193.128 431.464 192.317 429.757 190.696C428.136 189.075 427.325 186.003 427.325 181.48V180.968C427.325 179.005 427.368 177.512 427.453 176.488C427.624 175.464 428.05 174.312 428.733 173.032C430.013 170.472 433.213 169.192 438.333 169.192C443.538 169.192 447.122 170.088 449.085 171.88ZM479.46 171.88C480.911 173.331 481.636 176.317 481.636 180.84V181.352C481.636 183.4 481.551 184.936 481.38 185.96C481.295 186.899 480.868 188.051 480.1 189.416C478.82 191.891 475.577 193.128 470.372 193.128C465.252 193.128 461.839 192.317 460.132 190.696C458.511 189.075 457.7 186.003 457.7 181.48V180.968C457.7 179.005 457.743 177.512 457.828 176.488C457.999 175.464 458.425 174.312 459.108 173.032C460.388 170.472 463.588 169.192 468.708 169.192C473.913 169.192 477.497 170.088 479.46 171.88ZM509.835 171.88C511.286 173.331 512.011 176.317 512.011 180.84V181.352C512.011 183.4 511.926 184.936 511.755 185.96C511.67 186.899 511.243 188.051 510.475 189.416C509.195 191.891 505.952 193.128 500.747 193.128C495.627 193.128 492.214 192.317 490.507 190.696C488.886 189.075 488.075 186.003 488.075 181.48V180.968C488.075 179.005 488.118 177.512 488.203 176.488C488.374 175.464 488.8 174.312 489.483 173.032C490.763 170.472 493.963 169.192 499.083 169.192C504.288 169.192 507.872 170.088 509.835 171.88Z" fill="#FF74B3"/>
<path d="M602.675 419.411C607.434 419.411 609.814 421.791 609.814 426.55C609.814 431.309 607.434 433.688 602.675 433.688C597.916 433.688 595.537 431.309 595.537 426.55C595.537 421.791 597.916 419.411 602.675 419.411ZM641.834 436.964C640.987 435.921 640.563 434.992 640.563 434.177C640.563 433.33 641.264 432.221 642.665 430.852C643.48 430.07 644.344 429.679 645.257 429.679C646.169 429.679 647.441 430.494 649.07 432.123C649.527 432.678 650.179 433.215 651.026 433.737C651.874 434.226 652.656 434.47 653.373 434.47C656.404 434.47 657.92 433.232 657.92 430.754C657.92 430.005 657.496 429.385 656.649 428.896C655.834 428.375 654.807 428 653.569 427.772C652.33 427.544 650.994 427.185 649.559 426.696C648.125 426.175 646.789 425.572 645.55 424.887C644.311 424.203 643.268 423.127 642.421 421.66C641.606 420.161 641.199 418.368 641.199 416.282C641.199 413.413 642.258 410.92 644.377 408.801C646.528 406.65 649.445 405.574 653.129 405.574C655.084 405.574 656.861 405.835 658.458 406.356C660.088 406.845 661.212 407.351 661.832 407.872L663.054 408.801C664.064 409.746 664.57 410.545 664.57 411.197C664.57 411.849 664.179 412.745 663.396 413.886C662.288 415.516 661.147 416.331 659.974 416.331C659.289 416.331 658.442 416.005 657.431 415.353C657.333 415.288 657.138 415.125 656.844 414.864C656.584 414.603 656.339 414.391 656.111 414.228C655.427 413.805 654.546 413.593 653.471 413.593C652.428 413.593 651.548 413.854 650.831 414.375C650.146 414.864 649.804 415.565 649.804 416.477C649.804 417.358 650.211 418.075 651.026 418.629C651.874 419.183 652.917 419.558 654.155 419.753C655.394 419.949 656.747 420.259 658.214 420.682C659.68 421.073 661.033 421.562 662.272 422.149C663.51 422.736 664.537 423.763 665.352 425.229C666.199 426.664 666.623 428.44 666.623 430.559C666.623 432.678 666.199 434.552 665.352 436.182C664.505 437.779 663.396 439.017 662.027 439.898C659.387 441.625 656.567 442.489 653.569 442.489C652.037 442.489 650.586 442.31 649.217 441.951C647.848 441.56 646.74 441.087 645.892 440.533C644.165 439.49 642.959 438.48 642.274 437.502L641.834 436.964ZM669.068 429.141C669.068 425.229 670.437 422.002 673.175 419.46C675.913 416.918 679.043 415.646 682.563 415.646C686.083 415.646 689.196 416.918 691.902 419.46C694.607 421.97 695.96 425.181 695.96 429.092C695.96 431.798 695.259 434.21 693.857 436.328C692.456 438.414 690.744 439.963 688.724 440.973C686.735 441.951 684.665 442.44 682.514 442.44C680.363 442.44 678.277 441.919 676.256 440.875C674.235 439.8 672.523 438.235 671.122 436.182C669.753 434.096 669.068 431.749 669.068 429.141ZM679.287 432.661C680.33 433.444 681.39 433.835 682.465 433.835C683.541 433.835 684.616 433.427 685.692 432.612C686.768 431.798 687.306 430.591 687.306 428.994C687.306 427.397 686.8 426.207 685.79 425.425C684.779 424.643 683.688 424.252 682.514 424.252C681.341 424.252 680.249 424.659 679.238 425.474C678.228 426.289 677.722 427.495 677.722 429.092C677.722 430.657 678.244 431.846 679.287 432.661ZM731.926 424.887L728.748 424.692V431.439C728.748 432.319 728.879 432.955 729.14 433.346C729.433 433.737 729.954 433.933 730.704 433.933C731.486 433.933 732.073 433.965 732.464 434.03C732.888 434.063 733.312 434.21 733.736 434.47C734.518 434.894 734.909 435.986 734.909 437.746C734.909 439.8 734.453 441.055 733.54 441.511C733.051 441.739 732.611 441.886 732.22 441.951C731.861 441.984 731.323 442 730.606 442C727.412 442 724.886 441.104 723.028 439.311C721.17 437.518 720.241 435.057 720.241 431.928V424.692C718.481 424.789 716.981 424.838 715.743 424.838L711 424.643V437.746C711 438.985 710.837 439.914 710.511 440.533C710.218 441.12 709.745 441.511 709.093 441.707C708.474 441.902 707.659 442 706.648 442C705.638 442 704.823 441.902 704.204 441.707C703.617 441.478 703.193 441.136 702.933 440.68C702.672 440.191 702.509 439.751 702.444 439.36C702.411 438.969 702.395 438.398 702.395 437.648V424.692C701.743 424.789 701.058 424.838 700.341 424.838C699.657 424.838 699.07 424.561 698.581 424.007C698.125 423.453 697.896 422.508 697.896 421.171C697.896 419.835 697.978 418.873 698.141 418.287C698.304 417.667 698.532 417.227 698.825 416.966C699.347 416.543 699.999 416.331 700.781 416.331L702.395 416.526V413.935C702.395 411.425 703.291 409.16 705.084 407.139C706.877 405.085 709.468 404.058 712.858 404.058C713.608 404.058 714.162 404.091 714.52 404.156C714.911 404.189 715.352 404.319 715.84 404.547C716.721 405.004 717.161 406.275 717.161 408.361C717.161 409.926 716.884 411.034 716.329 411.686C715.873 412.24 715.156 412.533 714.178 412.566C713.885 412.599 713.428 412.615 712.809 412.615C711.603 412.615 711 413.022 711 413.837V416.526C712.793 416.396 714.357 416.331 715.694 416.331L720.241 416.526V411.49C720.241 410.741 720.257 410.187 720.29 409.828C720.355 409.469 720.502 409.078 720.73 408.654C721.186 407.84 722.457 407.432 724.544 407.432C726.76 407.432 728.064 408.035 728.455 409.241C728.651 409.763 728.748 410.594 728.748 411.735V416.526C730.183 416.396 731.258 416.331 731.975 416.331C732.725 416.331 733.279 416.363 733.638 416.429C734.029 416.461 734.453 416.608 734.909 416.869C735.789 417.292 736.229 418.547 736.229 420.633C736.229 422.687 735.789 423.942 734.909 424.398C734.42 424.626 733.98 424.773 733.589 424.838C733.23 424.871 732.676 424.887 731.926 424.887ZM771.895 416.429C773.981 417.341 775.024 418.466 775.024 419.802C775.024 420.356 774.763 421.253 774.242 422.491C773.72 423.697 773.28 424.757 772.922 425.67L767.543 438.773C767.054 440.207 766.239 441.218 765.099 441.804C764.61 442.033 763.99 442.147 763.241 442.147C762.491 442.147 761.758 441.87 761.04 441.315C760.356 440.729 759.9 440.142 759.671 439.555L759.28 438.724C759.019 438.072 758.058 435.53 756.395 431.097C756.07 431.879 755.581 433.167 754.929 434.959C754.309 436.719 753.902 437.828 753.706 438.284C753.543 438.708 753.429 439.001 753.364 439.164C753.331 439.295 753.201 439.555 752.973 439.946C752.745 440.338 752.484 440.68 752.191 440.973C751.408 441.756 750.512 442.147 749.501 442.147C748.491 442.147 747.644 441.87 746.959 441.315C746.274 440.729 745.818 440.142 745.59 439.555L738.207 421.562C737.881 420.585 737.718 419.949 737.718 419.656C737.718 418.352 738.647 417.325 740.505 416.575C741.548 416.152 742.396 415.94 743.048 415.94C743.699 415.94 744.221 416.086 744.612 416.38C745.036 416.64 745.329 416.918 745.492 417.211C745.655 417.472 745.786 417.749 745.883 418.042C746.437 419.346 747.595 422.41 749.355 427.234L752.24 419.313C752.435 418.661 752.794 418.091 753.315 417.602C754.26 416.657 755.222 416.184 756.2 416.184C757.178 416.184 758.009 416.445 758.693 416.966C759.411 417.488 759.9 418.009 760.16 418.531L760.551 419.362C762.181 423.926 763.143 426.533 763.436 427.185L766.419 419.069C767.201 416.983 768.374 415.94 769.939 415.94C770.558 415.94 771.21 416.103 771.895 416.429ZM793.478 418.971C793.674 417.146 794.961 416.233 797.341 416.233C798.612 416.233 799.557 416.331 800.177 416.526C800.796 416.722 801.22 417.064 801.448 417.553C801.709 418.042 801.855 418.482 801.888 418.873C801.953 419.232 801.986 419.786 801.986 420.536V437.648C801.986 438.398 801.953 438.969 801.888 439.36C801.855 439.718 801.725 440.142 801.497 440.631C801.041 441.478 799.916 441.902 798.123 441.902C796.363 441.902 795.173 441.69 794.554 441.267C793.967 440.81 793.625 440.158 793.527 439.311C792.321 441.038 790.3 441.902 787.464 441.902C784.661 441.902 782.053 440.615 779.641 438.04C777.229 435.465 776.023 432.482 776.023 429.092C776.023 425.67 777.229 422.687 779.641 420.145C782.086 417.569 784.759 416.282 787.66 416.282C788.768 416.282 789.779 416.477 790.691 416.869C791.604 417.26 792.24 417.635 792.598 417.993C792.957 418.319 793.25 418.645 793.478 418.971ZM784.58 429.141C784.58 430.217 785.003 431.194 785.851 432.075C786.698 432.922 787.725 433.346 788.931 433.346C790.137 433.346 791.131 432.906 791.914 432.026C792.729 431.146 793.136 430.184 793.136 429.141C793.136 428.065 792.745 427.071 791.963 426.158C791.213 425.246 790.186 424.789 788.882 424.789C787.611 424.789 786.568 425.246 785.753 426.158C784.971 427.071 784.58 428.065 784.58 429.141ZM823.387 416.526C824.006 416.722 824.511 417.064 824.902 417.553C825.326 418.009 825.538 418.759 825.538 419.802C825.538 420.845 825.228 421.986 824.609 423.225C823.99 424.463 823.093 425.083 821.92 425.083C821.333 425.083 820.763 424.952 820.209 424.692C819.687 424.431 818.986 424.3 818.106 424.3C817.226 424.3 816.395 424.61 815.613 425.229C814.863 425.849 814.488 426.598 814.488 427.479V437.746C814.488 438.496 814.455 439.066 814.39 439.458C814.358 439.816 814.211 440.24 813.95 440.729C813.461 441.576 812.19 442 810.137 442C808.572 442 807.447 441.723 806.763 441.169C806.241 440.712 805.948 440.012 805.883 439.066C805.883 438.74 805.883 438.268 805.883 437.648V420.487C805.883 419.737 805.899 419.183 805.932 418.824C805.997 418.433 806.144 418.009 806.372 417.553C806.828 416.673 808.099 416.233 810.185 416.233C812.141 416.233 813.364 416.608 813.852 417.358C814.211 417.879 814.39 418.417 814.39 418.971C814.553 418.743 814.781 418.466 815.075 418.14C815.401 417.814 816.069 417.374 817.079 416.82C818.09 416.266 818.97 415.989 819.72 415.989C820.502 415.989 821.154 416.037 821.675 416.135C822.197 416.2 822.767 416.331 823.387 416.526ZM851.587 426.061C851.587 428.049 851.081 429.532 850.071 430.51C849.093 431.455 848.001 431.928 846.795 431.928H835.207C835.207 432.841 835.745 433.607 836.821 434.226C837.896 434.845 838.972 435.155 840.048 435.155C841.938 435.155 843.421 434.959 844.497 434.568L845.035 434.373C845.817 434.014 846.469 433.835 846.991 433.835C848.034 433.835 848.93 434.568 849.68 436.035C850.103 436.915 850.315 437.665 850.315 438.284C850.315 441.185 846.844 442.636 839.901 442.636C837.489 442.636 835.338 442.228 833.447 441.413C831.589 440.566 830.139 439.458 829.095 438.089C827.042 435.448 826.015 432.498 826.015 429.239C826.015 425.132 827.335 421.856 829.976 419.411C832.648 416.934 835.973 415.695 839.95 415.695C844.481 415.695 847.805 417.292 849.924 420.487C851.032 422.182 851.587 424.04 851.587 426.061ZM841.27 427.479C842.509 427.479 843.128 426.957 843.128 425.914C843.128 425.164 842.835 424.561 842.248 424.105C841.694 423.649 840.879 423.42 839.803 423.42C838.76 423.42 837.717 423.86 836.674 424.741C835.631 425.588 835.109 426.501 835.109 427.479H841.27ZM861.426 442.391C861.165 442.945 860.953 443.353 860.79 443.613C860.66 443.874 860.416 444.119 860.057 444.347C859.731 444.608 859.291 444.738 858.737 444.738C858.183 444.738 857.368 444.494 856.292 444.005C855.217 443.516 854.483 443.076 854.092 442.685C853.733 442.326 853.554 441.919 853.554 441.462C853.554 441.006 853.75 440.191 854.141 439.017L869.885 406.112C870.504 404.873 871.058 404.156 871.547 403.961C871.808 403.83 872.183 403.765 872.672 403.765C873.193 403.765 874.024 404.026 875.165 404.547C876.925 405.395 877.805 406.324 877.805 407.334C877.805 407.758 877.577 408.573 877.121 409.779L861.426 442.391ZM880.513 448.992V420.438C880.513 419.688 880.529 419.134 880.561 418.775C880.627 418.417 880.773 418.009 881.001 417.553C881.458 416.673 882.55 416.233 884.277 416.233C886.005 416.233 887.162 416.461 887.749 416.918C888.368 417.341 888.727 417.977 888.824 418.824C890.063 417.129 892.003 416.282 894.643 416.282C897.316 416.282 899.842 417.537 902.221 420.047C904.601 422.557 905.791 425.474 905.791 428.799C905.791 432.123 904.601 435.041 902.221 437.551C899.874 440.061 897.365 441.315 894.692 441.315C892.019 441.315 890.079 440.566 888.873 439.066V448.943C888.873 449.693 888.841 450.247 888.776 450.605C888.743 450.964 888.596 451.371 888.336 451.828C888.107 452.317 887.7 452.659 887.113 452.854C886.526 453.05 885.728 453.148 884.717 453.148C883.707 453.148 882.892 453.05 882.273 452.854C881.686 452.659 881.262 452.333 881.001 451.877C880.773 451.42 880.627 451.013 880.561 450.654C880.529 450.296 880.513 449.742 880.513 448.992ZM890.193 425.963C889.444 426.843 889.069 427.805 889.069 428.848C889.069 429.891 889.444 430.852 890.193 431.732C890.976 432.58 891.954 433.004 893.127 433.004C894.333 433.004 895.344 432.58 896.158 431.732C897.006 430.885 897.43 429.923 897.43 428.848C897.43 427.772 897.039 426.81 896.256 425.963C895.474 425.083 894.447 424.643 893.176 424.643C891.937 424.643 890.943 425.083 890.193 425.963ZM926.474 416.526C927.093 416.722 927.599 417.064 927.99 417.553C928.414 418.009 928.625 418.759 928.625 419.802C928.625 420.845 928.316 421.986 927.696 423.225C927.077 424.463 926.181 425.083 925.007 425.083C924.421 425.083 923.85 424.952 923.296 424.692C922.775 424.431 922.074 424.3 921.194 424.3C920.314 424.3 919.482 424.61 918.7 425.229C917.95 425.849 917.575 426.598 917.575 427.479V437.746C917.575 438.496 917.543 439.066 917.478 439.458C917.445 439.816 917.298 440.24 917.038 440.729C916.549 441.576 915.277 442 913.224 442C911.659 442 910.535 441.723 909.85 441.169C909.329 440.712 909.035 440.012 908.97 439.066C908.97 438.74 908.97 438.268 908.97 437.648V420.487C908.97 419.737 908.986 419.183 909.019 418.824C909.084 418.433 909.231 418.009 909.459 417.553C909.915 416.673 911.187 416.233 913.273 416.233C915.229 416.233 916.451 416.608 916.94 417.358C917.298 417.879 917.478 418.417 917.478 418.971C917.641 418.743 917.869 418.466 918.162 418.14C918.488 417.814 919.156 417.374 920.167 416.82C921.177 416.266 922.057 415.989 922.807 415.989C923.589 415.989 924.241 416.037 924.763 416.135C925.284 416.2 925.855 416.331 926.474 416.526ZM929.103 429.141C929.103 425.229 930.472 422.002 933.21 419.46C935.948 416.918 939.077 415.646 942.597 415.646C946.118 415.646 949.23 416.918 951.936 419.46C954.641 421.97 955.994 425.181 955.994 429.092C955.994 431.798 955.293 434.21 953.892 436.328C952.49 438.414 950.779 439.963 948.758 440.973C946.769 441.951 944.7 442.44 942.548 442.44C940.397 442.44 938.311 441.919 936.29 440.875C934.269 439.8 932.558 438.235 931.156 436.182C929.787 434.096 929.103 431.749 929.103 429.141ZM939.321 432.661C940.364 433.444 941.424 433.835 942.499 433.835C943.575 433.835 944.651 433.427 945.726 432.612C946.802 431.798 947.34 430.591 947.34 428.994C947.34 427.397 946.835 426.207 945.824 425.425C944.814 424.643 943.722 424.252 942.548 424.252C941.375 424.252 940.283 424.659 939.272 425.474C938.262 426.289 937.757 427.495 937.757 429.092C937.757 430.657 938.278 431.846 939.321 432.661ZM975.484 438.773C974.245 440.403 972.273 441.218 969.567 441.218C966.862 441.218 964.32 439.979 961.94 437.502C959.593 434.992 958.42 432.075 958.42 428.75C958.42 425.425 959.609 422.508 961.989 419.998C964.368 417.488 966.976 416.233 969.812 416.233C970.92 416.233 971.931 416.445 972.843 416.869C973.756 417.26 974.375 417.635 974.701 417.993C975.06 418.319 975.337 418.629 975.532 418.922C975.63 418.009 975.956 417.325 976.51 416.869C977.097 416.38 978.026 416.135 979.297 416.135C980.569 416.135 981.497 416.233 982.084 416.429C982.671 416.624 983.078 416.966 983.307 417.455C983.567 417.912 983.714 418.319 983.747 418.678C983.812 419.036 983.844 419.59 983.844 420.34V440.582C983.844 444.331 982.541 447.346 979.933 449.627C977.325 451.942 974.392 453.099 971.132 453.099C968.655 453.099 966.292 452.496 964.042 451.29C961.793 450.084 960.669 448.992 960.669 448.014C960.669 446.743 961.158 445.618 962.136 444.64C962.755 443.956 963.228 443.483 963.554 443.222C963.912 442.962 964.32 442.831 964.776 442.831C965.232 442.831 965.705 443.027 966.194 443.418C967.758 444.624 969.453 445.227 971.279 445.227C972.517 445.227 973.528 444.738 974.31 443.76C975.092 442.782 975.484 441.609 975.484 440.24V438.773ZM966.78 428.799C966.78 429.842 967.188 430.787 968.003 431.635C968.85 432.482 969.861 432.906 971.034 432.906C972.24 432.906 973.234 432.482 974.017 431.635C974.799 430.754 975.19 429.809 975.19 428.799C975.19 427.756 974.815 426.794 974.066 425.914C973.316 425.001 972.305 424.545 971.034 424.545C969.763 424.545 968.736 424.985 967.954 425.865C967.172 426.745 966.78 427.723 966.78 428.799ZM1005.26 416.526C1005.88 416.722 1006.38 417.064 1006.77 417.553C1007.2 418.009 1007.41 418.759 1007.41 419.802C1007.41 420.845 1007.1 421.986 1006.48 423.225C1005.86 424.463 1004.96 425.083 1003.79 425.083C1003.2 425.083 1002.63 424.952 1002.08 424.692C1001.56 424.431 1000.86 424.3 999.977 424.3C999.097 424.3 998.266 424.61 997.484 425.229C996.734 425.849 996.359 426.598 996.359 427.479V437.746C996.359 438.496 996.327 439.066 996.261 439.458C996.229 439.816 996.082 440.24 995.821 440.729C995.332 441.576 994.061 442 992.008 442C990.443 442 989.319 441.723 988.634 441.169C988.113 440.712 987.819 440.012 987.754 439.066C987.754 438.74 987.754 438.268 987.754 437.648V420.487C987.754 419.737 987.77 419.183 987.803 418.824C987.868 418.433 988.015 418.009 988.243 417.553C988.699 416.673 989.97 416.233 992.057 416.233C994.012 416.233 995.235 416.608 995.724 417.358C996.082 417.879 996.261 418.417 996.261 418.971C996.424 418.743 996.653 418.466 996.946 418.14C997.272 417.814 997.94 417.374 998.951 416.82C999.961 416.266 1000.84 415.989 1001.59 415.989C1002.37 415.989 1003.03 416.037 1003.55 416.135C1004.07 416.2 1004.64 416.331 1005.26 416.526ZM1025.34 418.971C1025.54 417.146 1026.82 416.233 1029.2 416.233C1030.48 416.233 1031.42 416.331 1032.04 416.526C1032.66 416.722 1033.08 417.064 1033.31 417.553C1033.57 418.042 1033.72 418.482 1033.75 418.873C1033.82 419.232 1033.85 419.786 1033.85 420.536V437.648C1033.85 438.398 1033.82 438.969 1033.75 439.36C1033.72 439.718 1033.59 440.142 1033.36 440.631C1032.9 441.478 1031.78 441.902 1029.99 441.902C1028.23 441.902 1027.04 441.69 1026.42 441.267C1025.83 440.81 1025.49 440.158 1025.39 439.311C1024.18 441.038 1022.16 441.902 1019.33 441.902C1016.52 441.902 1013.92 440.615 1011.5 438.04C1009.09 435.465 1007.89 432.482 1007.89 429.092C1007.89 425.67 1009.09 422.687 1011.5 420.145C1013.95 417.569 1016.62 416.282 1019.52 416.282C1020.63 416.282 1021.64 416.477 1022.55 416.869C1023.47 417.26 1024.1 417.635 1024.46 417.993C1024.82 418.319 1025.11 418.645 1025.34 418.971ZM1016.44 429.141C1016.44 430.217 1016.87 431.194 1017.71 432.075C1018.56 432.922 1019.59 433.346 1020.79 433.346C1022 433.346 1022.99 432.906 1023.78 432.026C1024.59 431.146 1025 430.184 1025 429.141C1025 428.065 1024.61 427.071 1023.83 426.158C1023.08 425.246 1022.05 424.789 1020.75 424.789C1019.47 424.789 1018.43 425.246 1017.62 426.158C1016.83 427.071 1016.44 428.065 1016.44 429.141ZM1046.16 419.656C1047.69 417.341 1049.53 416.184 1051.68 416.184C1055.01 416.184 1057.48 417.602 1059.11 420.438C1059.47 419.949 1059.89 419.444 1060.38 418.922C1060.91 418.368 1061.72 417.781 1062.83 417.162C1063.94 416.51 1065.08 416.184 1066.25 416.184C1068.86 416.184 1071.04 417.195 1072.8 419.216C1074.56 421.204 1075.44 424.512 1075.44 429.141V437.697C1075.44 438.447 1075.41 439.017 1075.35 439.409C1075.31 439.767 1075.17 440.191 1074.91 440.68C1074.48 441.56 1073.23 442 1071.14 442C1069.09 442 1067.83 441.544 1067.38 440.631C1067.15 440.142 1067 439.718 1066.94 439.36C1066.9 438.969 1066.89 438.398 1066.89 437.648V429.092C1066.89 426.256 1065.88 424.838 1063.86 424.838C1062.71 424.838 1061.93 425.213 1061.51 425.963C1061.12 426.713 1060.92 427.772 1060.92 429.141V437.697C1060.92 438.48 1060.89 439.05 1060.82 439.409C1060.79 439.767 1060.64 440.191 1060.38 440.68C1059.93 441.56 1058.66 442 1056.57 442C1054.52 442 1053.26 441.544 1052.81 440.631C1052.58 440.142 1052.43 439.718 1052.37 439.36C1052.33 438.969 1052.32 438.398 1052.32 437.648V429.092C1052.32 426.256 1051.31 424.838 1049.28 424.838C1047.33 424.838 1046.35 426.256 1046.35 429.092V437.746C1046.35 438.496 1046.32 439.066 1046.25 439.458C1046.22 439.816 1046.07 440.24 1045.81 440.729C1045.32 441.576 1044.05 442 1042 442C1039.95 442 1038.69 441.56 1038.23 440.68C1038.01 440.191 1037.86 439.767 1037.79 439.409C1037.76 439.05 1037.75 438.48 1037.75 437.697V420.487C1037.75 419.737 1037.76 419.183 1037.79 418.824C1037.86 418.433 1038.02 418.009 1038.28 417.553C1038.77 416.673 1039.93 416.233 1041.76 416.233C1043.58 416.233 1044.77 416.526 1045.32 417.113C1045.88 417.7 1046.16 418.547 1046.16 419.656ZM1087.74 419.656C1089.28 417.341 1091.12 416.184 1093.27 416.184C1096.59 416.184 1099.07 417.602 1100.7 420.438C1101.06 419.949 1101.48 419.444 1101.97 418.922C1102.49 418.368 1103.31 417.781 1104.42 417.162C1105.52 416.51 1106.67 416.184 1107.84 416.184C1110.45 416.184 1112.63 417.195 1114.39 419.216C1116.15 421.204 1117.03 424.512 1117.03 429.141V437.697C1117.03 438.447 1117 439.017 1116.93 439.409C1116.9 439.767 1116.75 440.191 1116.49 440.68C1116.07 441.56 1114.81 442 1112.73 442C1110.68 442 1109.42 441.544 1108.96 440.631C1108.74 440.142 1108.59 439.718 1108.52 439.36C1108.49 438.969 1108.47 438.398 1108.47 437.648V429.092C1108.47 426.256 1107.46 424.838 1105.44 424.838C1104.3 424.838 1103.52 425.213 1103.1 425.963C1102.71 426.713 1102.51 427.772 1102.51 429.141V437.697C1102.51 438.48 1102.48 439.05 1102.41 439.409C1102.38 439.767 1102.23 440.191 1101.97 440.68C1101.52 441.56 1100.24 442 1098.16 442C1096.1 442 1094.85 441.544 1094.39 440.631C1094.17 440.142 1094.02 439.718 1093.95 439.36C1093.92 438.969 1093.9 438.398 1093.9 437.648V429.092C1093.9 426.256 1092.89 424.838 1090.87 424.838C1088.92 424.838 1087.94 426.256 1087.94 429.092V437.746C1087.94 438.496 1087.91 439.066 1087.84 439.458C1087.81 439.816 1087.66 440.24 1087.4 440.729C1086.91 441.576 1085.64 442 1083.59 442C1081.53 442 1080.28 441.56 1079.82 440.68C1079.59 440.191 1079.45 439.767 1079.38 439.409C1079.35 439.05 1079.33 438.48 1079.33 437.697V420.487C1079.33 419.737 1079.35 419.183 1079.38 418.824C1079.45 418.433 1079.61 418.009 1079.87 417.553C1080.36 416.673 1081.52 416.233 1083.34 416.233C1085.17 416.233 1086.36 416.526 1086.91 417.113C1087.47 417.7 1087.74 418.547 1087.74 419.656ZM1120.92 420.536C1120.92 419.786 1120.94 419.232 1120.97 418.873C1121.04 418.482 1121.18 418.042 1121.41 417.553C1121.87 416.706 1123.14 416.282 1125.23 416.282C1126.79 416.282 1127.9 416.559 1128.55 417.113C1129.1 417.569 1129.4 418.27 1129.43 419.216C1129.46 419.541 1129.48 420.014 1129.48 420.633V437.746C1129.48 438.496 1129.45 439.066 1129.38 439.458C1129.35 439.816 1129.2 440.24 1128.94 440.729C1128.52 441.576 1127.26 442 1125.18 442C1123.12 442 1121.87 441.56 1121.41 440.68C1121.18 440.191 1121.04 439.767 1120.97 439.409C1120.94 439.05 1120.92 438.48 1120.92 437.697V420.536ZM1128.94 411.49C1128.71 411.947 1128.29 412.273 1127.67 412.468C1127.05 412.664 1126.22 412.762 1125.18 412.762C1124.17 412.762 1123.35 412.664 1122.73 412.468C1122.11 412.273 1121.67 411.93 1121.41 411.441C1121.18 410.953 1121.04 410.529 1120.97 410.17C1120.94 409.779 1120.92 409.209 1120.92 408.459C1120.92 407.709 1120.94 407.155 1120.97 406.797C1121.04 406.405 1121.18 405.982 1121.41 405.525C1121.87 404.645 1123.14 404.205 1125.23 404.205C1127.28 404.205 1128.52 404.645 1128.94 405.525C1129.2 406.014 1129.35 406.454 1129.38 406.845C1129.45 407.204 1129.48 407.758 1129.48 408.508C1129.48 409.258 1129.45 409.828 1129.38 410.219C1129.35 410.578 1129.2 411.001 1128.94 411.49ZM1147.71 416.233C1150.97 416.233 1153.68 417.488 1155.83 419.998C1158.01 422.475 1159.1 425.507 1159.1 429.092V437.697C1159.1 438.447 1159.07 439.017 1159 439.409C1158.97 439.767 1158.84 440.175 1158.61 440.631C1158.16 441.511 1156.89 441.951 1154.8 441.951C1152.49 441.951 1151.15 441.348 1150.79 440.142C1150.6 439.588 1150.5 438.757 1150.5 437.648V429.043C1150.5 427.707 1150.11 426.664 1149.32 425.914C1148.57 425.164 1147.55 424.789 1146.24 424.789C1144.97 424.789 1143.93 425.181 1143.11 425.963C1142.33 426.745 1141.94 427.772 1141.94 429.043V437.697C1141.94 438.447 1141.91 439.017 1141.84 439.409C1141.81 439.767 1141.66 440.175 1141.4 440.631C1140.98 441.511 1139.72 441.951 1137.64 441.951C1135.58 441.951 1134.33 441.511 1133.87 440.631C1133.65 440.142 1133.5 439.718 1133.43 439.36C1133.4 438.969 1133.38 438.398 1133.38 437.648V420.34C1133.38 419.623 1133.4 419.085 1133.43 418.727C1133.5 418.335 1133.66 417.912 1133.92 417.455C1134.38 416.64 1135.63 416.233 1137.69 416.233C1139.68 416.233 1140.9 416.608 1141.35 417.358C1141.68 417.912 1141.84 418.58 1141.84 419.362C1141.97 419.134 1142.27 418.808 1142.72 418.384C1143.18 417.961 1143.62 417.618 1144.04 417.358C1145.15 416.608 1146.37 416.233 1147.71 416.233ZM1179.37 438.773C1178.13 440.403 1176.16 441.218 1173.45 441.218C1170.74 441.218 1168.2 439.979 1165.82 437.502C1163.48 434.992 1162.3 432.075 1162.3 428.75C1162.3 425.425 1163.49 422.508 1165.87 419.998C1168.25 417.488 1170.86 416.233 1173.69 416.233C1174.8 416.233 1175.81 416.445 1176.73 416.869C1177.64 417.26 1178.26 417.635 1178.58 417.993C1178.94 418.319 1179.22 418.629 1179.42 418.922C1179.51 418.009 1179.84 417.325 1180.39 416.869C1180.98 416.38 1181.91 416.135 1183.18 416.135C1184.45 416.135 1185.38 416.233 1185.97 416.429C1186.55 416.624 1186.96 416.966 1187.19 417.455C1187.45 417.912 1187.6 418.319 1187.63 418.678C1187.69 419.036 1187.73 419.59 1187.73 420.34V440.582C1187.73 444.331 1186.42 447.346 1183.82 449.627C1181.21 451.942 1178.27 453.099 1175.01 453.099C1172.54 453.099 1170.17 452.496 1167.93 451.29C1165.68 450.084 1164.55 448.992 1164.55 448.014C1164.55 446.743 1165.04 445.618 1166.02 444.64C1166.64 443.956 1167.11 443.483 1167.44 443.222C1167.79 442.962 1168.2 442.831 1168.66 442.831C1169.12 442.831 1169.59 443.027 1170.08 443.418C1171.64 444.624 1173.34 445.227 1175.16 445.227C1176.4 445.227 1177.41 444.738 1178.19 443.76C1178.98 442.782 1179.37 441.609 1179.37 440.24V438.773ZM1170.66 428.799C1170.66 429.842 1171.07 430.787 1171.89 431.635C1172.73 432.482 1173.74 432.906 1174.92 432.906C1176.12 432.906 1177.12 432.482 1177.9 431.635C1178.68 430.754 1179.07 429.809 1179.07 428.799C1179.07 427.756 1178.7 426.794 1177.95 425.914C1177.2 425.001 1176.19 424.545 1174.92 424.545C1173.65 424.545 1172.62 424.985 1171.84 425.865C1171.05 426.745 1170.66 427.723 1170.66 428.799ZM602.675 478.411C607.434 478.411 609.814 480.791 609.814 485.55C609.814 490.309 607.434 492.688 602.675 492.688C597.916 492.688 595.537 490.309 595.537 485.55C595.537 480.791 597.916 478.411 602.675 478.411ZM661.978 467.703L675.18 494.986C675.734 496.094 676.011 496.926 676.011 497.48C676.011 498.653 675.066 499.712 673.175 500.658C672.067 501.212 671.187 501.489 670.535 501.489C669.915 501.489 669.394 501.342 668.97 501.049C668.579 500.756 668.286 500.446 668.09 500.12C667.927 499.794 667.683 499.305 667.357 498.653L664.814 493.373H651.271L648.728 498.653C648.402 499.305 648.141 499.778 647.946 500.071C647.783 500.364 647.489 500.674 647.066 501C646.675 501.293 646.153 501.44 645.501 501.44C644.882 501.44 644.018 501.163 642.91 500.609C641.019 499.696 640.074 498.653 640.074 497.48C640.074 496.926 640.351 496.094 640.905 494.986L654.106 467.654C654.465 466.905 655.003 466.302 655.72 465.845C656.47 465.389 657.252 465.161 658.067 465.161C659.827 465.161 661.131 466.008 661.978 467.703ZM658.018 479.438L654.791 486.136H661.294L658.018 479.438ZM701.086 485.061C701.086 487.049 700.58 488.532 699.57 489.51C698.592 490.455 697.5 490.928 696.294 490.928H684.706C684.706 491.841 685.244 492.607 686.32 493.226C687.395 493.845 688.471 494.155 689.547 494.155C691.437 494.155 692.92 493.959 693.996 493.568L694.534 493.373C695.316 493.014 695.968 492.835 696.49 492.835C697.533 492.835 698.429 493.568 699.179 495.035C699.603 495.915 699.814 496.665 699.814 497.284C699.814 500.185 696.343 501.636 689.4 501.636C686.988 501.636 684.837 501.228 682.946 500.413C681.088 499.566 679.638 498.458 678.595 497.089C676.541 494.448 675.514 491.498 675.514 488.239C675.514 484.132 676.834 480.856 679.475 478.411C682.147 475.934 685.472 474.695 689.449 474.695C693.98 474.695 697.305 476.292 699.423 479.487C700.532 481.182 701.086 483.04 701.086 485.061ZM690.769 486.479C692.008 486.479 692.627 485.957 692.627 484.914C692.627 484.164 692.334 483.561 691.747 483.105C691.193 482.649 690.378 482.42 689.302 482.42C688.259 482.42 687.216 482.86 686.173 483.741C685.13 484.588 684.608 485.501 684.608 486.479H690.769ZM704.471 498.702C703.852 498.311 703.542 497.692 703.542 496.844C703.542 495.997 704.161 494.709 705.4 492.981C705.759 492.427 706.329 492.15 707.111 492.15C707.926 492.15 709.018 492.558 710.387 493.373C711.756 494.155 712.995 494.546 714.103 494.546C716.092 494.546 717.086 494.155 717.086 493.373C717.086 492.753 715.994 492.297 713.81 492.004C711.756 491.71 709.719 490.944 707.698 489.706C706.753 489.119 705.971 488.206 705.351 486.968C704.732 485.696 704.422 484.197 704.422 482.469C704.422 477.319 707.959 474.744 715.032 474.744C717.346 474.744 719.726 475.298 722.171 476.406C723.312 476.928 723.882 477.58 723.882 478.362C723.882 479.145 723.523 480.106 722.806 481.247C722.089 482.388 721.356 482.958 720.606 482.958C720.215 482.958 719.482 482.714 718.406 482.225C717.363 481.736 716.222 481.491 714.983 481.491C713.06 481.491 712.099 481.85 712.099 482.567C712.099 483.545 713.207 484.181 715.423 484.474C717.575 484.702 719.661 485.321 721.682 486.332C722.627 486.788 723.409 487.587 724.029 488.728C724.681 489.836 725.006 491.238 725.006 492.933C725.006 494.628 724.681 496.078 724.029 497.284C723.409 498.458 722.529 499.338 721.388 499.924C719.302 500.935 716.678 501.44 713.516 501.44C710.387 501.44 707.372 500.527 704.471 498.702ZM742.395 483.887L739.217 483.692V490.439C739.217 491.319 739.347 491.955 739.608 492.346C739.901 492.737 740.423 492.933 741.172 492.933C741.955 492.933 742.541 492.965 742.933 493.03C743.356 493.063 743.796 493.21 744.253 493.47C745.002 493.894 745.377 494.986 745.377 496.746C745.377 498.8 744.921 500.055 744.008 500.511C743.519 500.739 743.079 500.886 742.688 500.951C742.33 500.984 741.792 501 741.075 501C737.685 501 735.11 500.234 733.349 498.702C731.589 497.17 730.709 494.579 730.709 490.928V483.692C730.09 483.789 729.422 483.838 728.704 483.838C727.987 483.838 727.384 483.561 726.895 483.007C726.439 482.453 726.211 481.508 726.211 480.171C726.211 478.835 726.292 477.873 726.455 477.287C726.618 476.667 726.847 476.227 727.14 475.966C727.661 475.543 728.313 475.331 729.096 475.331L730.709 475.526V470.49C730.709 469.741 730.725 469.187 730.758 468.828C730.823 468.469 730.986 468.078 731.247 467.654C731.671 466.84 732.926 466.432 735.012 466.432C737.228 466.432 738.548 467.035 738.972 468.241C739.135 468.763 739.217 469.594 739.217 470.735V475.526C740.651 475.396 741.726 475.331 742.444 475.331C743.193 475.331 743.747 475.363 744.106 475.429C744.497 475.461 744.937 475.608 745.426 475.869C746.274 476.292 746.697 477.547 746.697 479.633C746.697 481.687 746.257 482.942 745.377 483.398C744.888 483.626 744.448 483.773 744.057 483.838C743.699 483.871 743.144 483.887 742.395 483.887ZM763.674 475.331C766.934 475.331 769.639 476.569 771.791 479.047C773.974 481.524 775.066 484.555 775.066 488.141V496.746C775.066 497.496 775.034 498.066 774.969 498.458C774.936 498.816 774.789 499.24 774.529 499.729C774.105 500.576 772.85 501 770.764 501C768.775 501 767.537 500.576 767.048 499.729C766.787 499.24 766.624 498.8 766.559 498.409C766.526 498.017 766.51 497.431 766.51 496.648V488.092C766.51 486.756 766.135 485.713 765.385 484.963C764.636 484.213 763.674 483.838 762.501 483.838C761.36 483.838 760.349 484.197 759.469 484.914C758.589 485.598 758.084 486.381 757.954 487.261V496.746C757.954 497.496 757.921 498.066 757.856 498.458C757.823 498.816 757.677 499.24 757.416 499.729C756.992 500.576 755.737 501 753.651 501C751.597 501 750.342 500.56 749.886 499.68C749.658 499.191 749.511 498.767 749.446 498.409C749.413 498.05 749.397 497.48 749.397 496.697V467.459C749.397 466.709 749.413 466.155 749.446 465.797C749.511 465.405 749.658 464.982 749.886 464.525C750.342 463.645 751.614 463.205 753.7 463.205C755.753 463.205 756.992 463.645 757.416 464.525C757.677 465.014 757.823 465.454 757.856 465.845C757.921 466.204 757.954 466.758 757.954 467.508V478.313C759.583 476.325 761.49 475.331 763.674 475.331ZM803.839 485.061C803.839 487.049 803.334 488.532 802.323 489.51C801.345 490.455 800.253 490.928 799.047 490.928H787.459C787.459 491.841 787.997 492.607 789.073 493.226C790.149 493.845 791.224 494.155 792.3 494.155C794.19 494.155 795.674 493.959 796.749 493.568L797.287 493.373C798.069 493.014 798.721 492.835 799.243 492.835C800.286 492.835 801.182 493.568 801.932 495.035C802.356 495.915 802.568 496.665 802.568 497.284C802.568 500.185 799.096 501.636 792.153 501.636C789.741 501.636 787.59 501.228 785.699 500.413C783.841 499.566 782.391 498.458 781.348 497.089C779.294 494.448 778.267 491.498 778.267 488.239C778.267 484.132 779.588 480.856 782.228 478.411C784.901 475.934 788.225 474.695 792.202 474.695C796.733 474.695 800.058 476.292 802.176 479.487C803.285 481.182 803.839 483.04 803.839 485.061ZM793.522 486.479C794.761 486.479 795.38 485.957 795.38 484.914C795.38 484.164 795.087 483.561 794.5 483.105C793.946 482.649 793.131 482.42 792.055 482.42C791.012 482.42 789.969 482.86 788.926 483.741C787.883 484.588 787.362 485.501 787.362 486.479H793.522ZM821.513 483.887L818.335 483.692V490.439C818.335 491.319 818.465 491.955 818.726 492.346C819.019 492.737 819.541 492.933 820.29 492.933C821.073 492.933 821.659 492.965 822.051 493.03C822.474 493.063 822.914 493.21 823.371 493.47C824.12 493.894 824.495 494.986 824.495 496.746C824.495 498.8 824.039 500.055 823.126 500.511C822.637 500.739 822.197 500.886 821.806 500.951C821.448 500.984 820.91 501 820.193 501C816.803 501 814.228 500.234 812.467 498.702C810.707 497.17 809.827 494.579 809.827 490.928V483.692C809.208 483.789 808.54 483.838 807.822 483.838C807.105 483.838 806.502 483.561 806.013 483.007C805.557 482.453 805.329 481.508 805.329 480.171C805.329 478.835 805.41 477.873 805.573 477.287C805.736 476.667 805.965 476.227 806.258 475.966C806.779 475.543 807.431 475.331 808.214 475.331L809.827 475.526V470.49C809.827 469.741 809.843 469.187 809.876 468.828C809.941 468.469 810.104 468.078 810.365 467.654C810.789 466.84 812.044 466.432 814.13 466.432C816.346 466.432 817.666 467.035 818.09 468.241C818.253 468.763 818.335 469.594 818.335 470.735V475.526C819.769 475.396 820.845 475.331 821.562 475.331C822.311 475.331 822.865 475.363 823.224 475.429C823.615 475.461 824.055 475.608 824.544 475.869C825.392 476.292 825.815 477.547 825.815 479.633C825.815 481.687 825.375 482.942 824.495 483.398C824.006 483.626 823.566 483.773 823.175 483.838C822.817 483.871 822.262 483.887 821.513 483.887ZM828.515 479.536C828.515 478.786 828.532 478.232 828.564 477.873C828.629 477.482 828.776 477.042 829.004 476.553C829.461 475.706 830.732 475.282 832.818 475.282C834.382 475.282 835.491 475.559 836.143 476.113C836.697 476.569 836.99 477.27 837.023 478.216C837.055 478.541 837.072 479.014 837.072 479.633V496.746C837.072 497.496 837.039 498.066 836.974 498.458C836.941 498.816 836.795 499.24 836.534 499.729C836.11 500.576 834.855 501 832.769 501C830.715 501 829.461 500.56 829.004 499.68C828.776 499.191 828.629 498.767 828.564 498.409C828.532 498.05 828.515 497.48 828.515 496.697V479.536ZM836.534 470.49C836.306 470.947 835.882 471.273 835.263 471.468C834.643 471.664 833.812 471.762 832.769 471.762C831.759 471.762 830.944 471.664 830.324 471.468C829.705 471.273 829.265 470.93 829.004 470.441C828.776 469.953 828.629 469.529 828.564 469.17C828.532 468.779 828.515 468.209 828.515 467.459C828.515 466.709 828.532 466.155 828.564 465.797C828.629 465.405 828.776 464.982 829.004 464.525C829.461 463.645 830.732 463.205 832.818 463.205C834.871 463.205 836.11 463.645 836.534 464.525C836.795 465.014 836.941 465.454 836.974 465.845C837.039 466.204 837.072 466.758 837.072 467.508C837.072 468.258 837.039 468.828 836.974 469.219C836.941 469.578 836.795 470.001 836.534 470.49ZM849.045 488.141C849.045 489.51 849.501 490.586 850.414 491.368C851.327 492.118 852.288 492.492 853.299 492.492C854.342 492.492 855.303 492.199 856.183 491.612C857.096 490.993 857.829 490.683 858.384 490.683C859.361 490.683 860.551 491.547 861.953 493.275C862.702 494.22 863.077 495.068 863.077 495.817C863.077 497.056 862.181 498.213 860.388 499.289C858.53 500.593 856.249 501.244 853.543 501.244C850.512 501.244 847.594 500.153 844.791 497.969C843.455 496.926 842.363 495.54 841.515 493.813C840.668 492.052 840.244 490.129 840.244 488.043C840.244 485.924 840.668 484.018 841.515 482.323C842.363 480.595 843.455 479.21 844.791 478.167C847.497 476.015 850.381 474.94 853.445 474.94C854.684 474.94 855.89 475.119 857.063 475.477C858.237 475.803 859.101 476.129 859.655 476.455L860.437 476.944C861.024 477.335 861.48 477.645 861.806 477.873C862.654 478.525 863.077 479.275 863.077 480.122C863.077 480.937 862.735 481.866 862.051 482.909C860.877 484.702 859.753 485.598 858.677 485.598C858.058 485.598 857.177 485.24 856.037 484.523C855.45 483.969 854.602 483.692 853.494 483.692C852.419 483.692 851.408 484.083 850.463 484.865C849.517 485.647 849.045 486.739 849.045 488.141ZM904.565 475.82C906.26 476.83 907.108 477.906 907.108 479.047C907.108 479.699 906.782 480.595 906.13 481.736L896.009 499.093C895.683 499.647 895.161 500.153 894.444 500.609C893.727 501.033 893.01 501.244 892.293 501.244C891.608 501.244 890.94 501.081 890.288 500.756C889.669 500.397 889.229 500.038 888.968 499.68L888.528 499.142L878.358 481.736C877.706 480.66 877.38 479.78 877.38 479.096C877.38 477.922 878.228 476.83 879.923 475.82C881.161 475.103 882.139 474.744 882.856 474.744C883.573 474.744 884.128 474.972 884.519 475.429C884.942 475.852 885.383 476.504 885.839 477.384L892.244 489.706L898.649 477.384C899.008 476.765 899.268 476.325 899.431 476.064C899.627 475.771 899.92 475.494 900.311 475.233C900.703 474.94 901.224 474.793 901.876 474.793C902.528 474.793 903.424 475.135 904.565 475.82ZM909.782 479.536C909.782 478.786 909.798 478.232 909.831 477.873C909.896 477.482 910.043 477.042 910.271 476.553C910.727 475.706 911.998 475.282 914.085 475.282C915.649 475.282 916.757 475.559 917.409 476.113C917.963 476.569 918.257 477.27 918.289 478.216C918.322 478.541 918.338 479.014 918.338 479.633V496.746C918.338 497.496 918.306 498.066 918.24 498.458C918.208 498.816 918.061 499.24 917.8 499.729C917.377 500.576 916.122 501 914.036 501C911.982 501 910.727 500.56 910.271 499.68C910.043 499.191 909.896 498.767 909.831 498.409C909.798 498.05 909.782 497.48 909.782 496.697V479.536ZM917.8 470.49C917.572 470.947 917.149 471.273 916.529 471.468C915.91 471.664 915.079 471.762 914.036 471.762C913.025 471.762 912.21 471.664 911.591 471.468C910.972 471.273 910.532 470.93 910.271 470.441C910.043 469.953 909.896 469.529 909.831 469.17C909.798 468.779 909.782 468.209 909.782 467.459C909.782 466.709 909.798 466.155 909.831 465.797C909.896 465.405 910.043 464.982 910.271 464.525C910.727 463.645 911.998 463.205 914.085 463.205C916.138 463.205 917.377 463.645 917.8 464.525C918.061 465.014 918.208 465.454 918.24 465.845C918.306 466.204 918.338 466.758 918.338 467.508C918.338 468.258 918.306 468.828 918.24 469.219C918.208 469.578 918.061 470.001 917.8 470.49ZM936.374 475.282C939.275 475.282 941.932 476.569 944.344 479.145C946.789 481.72 948.011 484.718 948.011 488.141C948.011 491.531 946.805 494.513 944.393 497.089C941.981 499.631 939.389 500.902 936.619 500.902C933.848 500.902 931.876 500.12 930.703 498.555C930.442 500.153 929.04 500.951 926.498 500.951C924.444 500.951 923.189 500.511 922.733 499.631C922.505 499.142 922.358 498.718 922.293 498.36C922.26 497.969 922.244 497.398 922.244 496.648V467.459C922.244 466.709 922.26 466.155 922.293 465.797C922.358 465.405 922.505 464.982 922.733 464.525C923.189 463.645 924.461 463.205 926.547 463.205C928.6 463.205 929.839 463.645 930.263 464.525C930.523 465.014 930.67 465.454 930.703 465.845C930.768 466.204 930.8 466.758 930.8 467.508V477.678C932.104 476.081 933.962 475.282 936.374 475.282ZM932.072 491.075C932.887 491.955 933.897 492.395 935.103 492.395C936.309 492.395 937.336 491.955 938.183 491.075C939.031 490.194 939.455 489.217 939.455 488.141C939.455 487.065 939.063 486.087 938.281 485.207C937.499 484.295 936.456 483.838 935.152 483.838C933.848 483.838 932.805 484.295 932.023 485.207C931.273 486.12 930.898 487.114 930.898 488.19C930.898 489.233 931.289 490.194 932.072 491.075ZM976.017 485.061C976.017 487.049 975.512 488.532 974.501 489.51C973.524 490.455 972.432 490.928 971.226 490.928H959.638C959.638 491.841 960.176 492.607 961.251 493.226C962.327 493.845 963.403 494.155 964.478 494.155C966.369 494.155 967.852 493.959 968.928 493.568L969.465 493.373C970.248 493.014 970.9 492.835 971.421 492.835C972.464 492.835 973.361 493.568 974.11 495.035C974.534 495.915 974.746 496.665 974.746 497.284C974.746 500.185 971.275 501.636 964.332 501.636C961.92 501.636 959.768 501.228 957.878 500.413C956.02 499.566 954.569 498.458 953.526 497.089C951.473 494.448 950.446 491.498 950.446 488.239C950.446 484.132 951.766 480.856 954.406 478.411C957.079 475.934 960.404 474.695 964.38 474.695C968.911 474.695 972.236 476.292 974.355 479.487C975.463 481.182 976.017 483.04 976.017 485.061ZM965.701 486.479C966.939 486.479 967.559 485.957 967.559 484.914C967.559 484.164 967.265 483.561 966.679 483.105C966.124 482.649 965.309 482.42 964.234 482.42C963.191 482.42 962.148 482.86 961.105 483.741C960.062 484.588 959.54 485.501 959.54 486.479H965.701ZM979.403 498.702C978.783 498.311 978.474 497.692 978.474 496.844C978.474 495.997 979.093 494.709 980.332 492.981C980.69 492.427 981.261 492.15 982.043 492.15C982.858 492.15 983.95 492.558 985.319 493.373C986.688 494.155 987.926 494.546 989.035 494.546C991.023 494.546 992.017 494.155 992.017 493.373C992.017 492.753 990.925 492.297 988.741 492.004C986.688 491.71 984.651 490.944 982.63 489.706C981.684 489.119 980.902 488.206 980.283 486.968C979.663 485.696 979.354 484.197 979.354 482.469C979.354 477.319 982.89 474.744 989.964 474.744C992.278 474.744 994.658 475.298 997.102 476.406C998.243 476.928 998.813 477.58 998.813 478.362C998.813 479.145 998.455 480.106 997.738 481.247C997.021 482.388 996.287 482.958 995.538 482.958C995.146 482.958 994.413 482.714 993.337 482.225C992.294 481.736 991.153 481.491 989.915 481.491C987.992 481.491 987.03 481.85 987.03 482.567C987.03 483.545 988.138 484.181 990.355 484.474C992.506 484.702 994.592 485.321 996.613 486.332C997.559 486.788 998.341 487.587 998.96 488.728C999.612 489.836 999.938 491.238 999.938 492.933C999.938 494.628 999.612 496.078 998.96 497.284C998.341 498.458 997.461 499.338 996.32 499.924C994.234 500.935 991.61 501.44 988.448 501.44C985.319 501.44 982.304 500.527 979.403 498.702ZM602.675 537.411C607.434 537.411 609.814 539.791 609.814 544.55C609.814 549.309 607.434 551.688 602.675 551.688C597.916 551.688 595.537 549.309 595.537 544.55C595.537 539.791 597.916 537.411 602.675 537.411ZM658.116 523.721C662.94 523.721 667.128 525.465 670.681 528.953C674.234 532.44 676.011 536.775 676.011 541.958C676.011 547.108 674.316 551.509 670.926 555.16C667.536 558.778 663.364 560.587 658.409 560.587C653.455 560.587 649.233 558.794 645.746 555.208C642.29 551.623 640.563 547.353 640.563 542.398C640.563 539.693 641.052 537.167 642.03 534.82C643.008 532.44 644.311 530.452 645.941 528.855C647.571 527.258 649.445 526.003 651.564 525.09C653.683 524.177 655.867 523.721 658.116 523.721ZM649.217 542.154C649.217 545.055 650.146 547.418 652.004 549.243C653.895 551.036 655.997 551.933 658.311 551.933C660.626 551.933 662.712 551.052 664.57 549.292C666.428 547.532 667.357 545.169 667.357 542.203C667.357 539.236 666.411 536.857 664.521 535.064C662.663 533.271 660.577 532.375 658.262 532.375C655.948 532.375 653.862 533.288 652.004 535.113C650.146 536.906 649.217 539.253 649.217 542.154ZM696.712 534.526C697.331 534.722 697.837 535.064 698.228 535.553C698.651 536.009 698.863 536.759 698.863 537.802C698.863 538.845 698.554 539.986 697.934 541.225C697.315 542.463 696.419 543.083 695.245 543.083C694.658 543.083 694.088 542.952 693.534 542.692C693.012 542.431 692.312 542.3 691.431 542.3C690.551 542.3 689.72 542.61 688.938 543.229C688.188 543.849 687.813 544.598 687.813 545.479V555.746C687.813 556.496 687.781 557.066 687.716 557.458C687.683 557.816 687.536 558.24 687.275 558.729C686.787 559.576 685.515 560 683.462 560C681.897 560 680.773 559.723 680.088 559.169C679.567 558.712 679.273 558.012 679.208 557.066C679.208 556.74 679.208 556.268 679.208 555.648V538.487C679.208 537.737 679.224 537.183 679.257 536.824C679.322 536.433 679.469 536.009 679.697 535.553C680.153 534.673 681.425 534.233 683.511 534.233C685.466 534.233 686.689 534.608 687.178 535.358C687.536 535.879 687.716 536.417 687.716 536.971C687.878 536.743 688.107 536.466 688.4 536.14C688.726 535.814 689.394 535.374 690.405 534.82C691.415 534.266 692.295 533.989 693.045 533.989C693.827 533.989 694.479 534.037 695.001 534.135C695.522 534.2 696.093 534.331 696.712 534.526ZM716.404 556.773C715.166 558.403 713.194 559.218 710.488 559.218C707.783 559.218 705.24 557.979 702.861 555.502C700.514 552.992 699.34 550.075 699.34 546.75C699.34 543.425 700.53 540.508 702.91 537.998C705.289 535.488 707.897 534.233 710.733 534.233C711.841 534.233 712.851 534.445 713.764 534.869C714.677 535.26 715.296 535.635 715.622 535.993C715.981 536.319 716.258 536.629 716.453 536.922C716.551 536.009 716.877 535.325 717.431 534.869C718.018 534.38 718.947 534.135 720.218 534.135C721.489 534.135 722.418 534.233 723.005 534.429C723.592 534.624 723.999 534.966 724.227 535.455C724.488 535.912 724.635 536.319 724.667 536.678C724.732 537.036 724.765 537.59 724.765 538.34V558.582C724.765 562.331 723.461 565.346 720.854 567.627C718.246 569.942 715.312 571.099 712.053 571.099C709.575 571.099 707.212 570.496 704.963 569.29C702.714 568.084 701.589 566.992 701.589 566.014C701.589 564.743 702.078 563.618 703.056 562.64C703.676 561.956 704.148 561.483 704.474 561.222C704.833 560.962 705.24 560.831 705.697 560.831C706.153 560.831 706.626 561.027 707.114 561.418C708.679 562.624 710.374 563.227 712.199 563.227C713.438 563.227 714.449 562.738 715.231 561.76C716.013 560.782 716.404 559.609 716.404 558.24V556.773ZM707.701 546.799C707.701 547.842 708.109 548.787 708.924 549.635C709.771 550.482 710.781 550.906 711.955 550.906C713.161 550.906 714.155 550.482 714.937 549.635C715.72 548.754 716.111 547.809 716.111 546.799C716.111 545.756 715.736 544.794 714.986 543.914C714.237 543.001 713.226 542.545 711.955 542.545C710.684 542.545 709.657 542.985 708.875 543.865C708.092 544.745 707.701 545.723 707.701 546.799ZM745.396 536.971C745.592 535.146 746.879 534.233 749.259 534.233C750.53 534.233 751.475 534.331 752.095 534.526C752.714 534.722 753.138 535.064 753.366 535.553C753.627 536.042 753.773 536.482 753.806 536.873C753.871 537.232 753.904 537.786 753.904 538.536V555.648C753.904 556.398 753.871 556.969 753.806 557.36C753.773 557.718 753.643 558.142 753.415 558.631C752.959 559.478 751.834 559.902 750.041 559.902C748.281 559.902 747.091 559.69 746.472 559.267C745.885 558.81 745.543 558.158 745.445 557.311C744.239 559.038 742.218 559.902 739.382 559.902C736.579 559.902 733.971 558.615 731.559 556.04C729.147 553.465 727.941 550.482 727.941 547.092C727.941 543.67 729.147 540.687 731.559 538.145C734.004 535.569 736.677 534.282 739.578 534.282C740.686 534.282 741.697 534.477 742.609 534.869C743.522 535.26 744.158 535.635 744.516 535.993C744.875 536.319 745.168 536.645 745.396 536.971ZM736.498 547.141C736.498 548.217 736.921 549.194 737.769 550.075C738.616 550.922 739.643 551.346 740.849 551.346C742.055 551.346 743.049 550.906 743.832 550.026C744.647 549.146 745.054 548.184 745.054 547.141C745.054 546.065 744.663 545.071 743.881 544.158C743.131 543.246 742.104 542.789 740.8 542.789C739.529 542.789 738.486 543.246 737.671 544.158C736.889 545.071 736.498 546.065 736.498 547.141ZM772.127 534.233C775.386 534.233 778.092 535.488 780.243 537.998C782.427 540.475 783.519 543.507 783.519 547.092V555.697C783.519 556.447 783.486 557.017 783.421 557.409C783.388 557.767 783.258 558.175 783.03 558.631C782.574 559.511 781.302 559.951 779.216 559.951C776.902 559.951 775.566 559.348 775.207 558.142C775.011 557.588 774.914 556.757 774.914 555.648V547.043C774.914 545.707 774.522 544.664 773.74 543.914C772.99 543.164 771.964 542.789 770.66 542.789C769.389 542.789 768.346 543.181 767.531 543.963C766.748 544.745 766.357 545.772 766.357 547.043V555.697C766.357 556.447 766.325 557.017 766.259 557.409C766.227 557.767 766.08 558.175 765.819 558.631C765.396 559.511 764.141 559.951 762.055 559.951C760.001 559.951 758.746 559.511 758.29 558.631C758.062 558.142 757.915 557.718 757.85 557.36C757.817 556.969 757.801 556.398 757.801 555.648V538.34C757.801 537.623 757.817 537.085 757.85 536.727C757.915 536.335 758.078 535.912 758.339 535.455C758.795 534.64 760.05 534.233 762.103 534.233C764.092 534.233 765.314 534.608 765.77 535.358C766.096 535.912 766.259 536.58 766.259 537.362C766.39 537.134 766.683 536.808 767.139 536.384C767.596 535.961 768.036 535.618 768.46 535.358C769.568 534.608 770.79 534.233 772.127 534.233ZM787.452 538.536C787.452 537.786 787.468 537.232 787.501 536.873C787.566 536.482 787.713 536.042 787.941 535.553C788.397 534.706 789.669 534.282 791.755 534.282C793.319 534.282 794.428 534.559 795.08 535.113C795.634 535.569 795.927 536.27 795.96 537.216C795.992 537.541 796.009 538.014 796.009 538.633V555.746C796.009 556.496 795.976 557.066 795.911 557.458C795.878 557.816 795.731 558.24 795.471 558.729C795.047 559.576 793.792 560 791.706 560C789.652 560 788.397 559.56 787.941 558.68C787.713 558.191 787.566 557.767 787.501 557.409C787.468 557.05 787.452 556.48 787.452 555.697V538.536ZM795.471 529.49C795.243 529.947 794.819 530.273 794.199 530.468C793.58 530.664 792.749 530.762 791.706 530.762C790.695 530.762 789.881 530.664 789.261 530.468C788.642 530.273 788.202 529.93 787.941 529.441C787.713 528.953 787.566 528.529 787.501 528.17C787.468 527.779 787.452 527.209 787.452 526.459C787.452 525.709 787.468 525.155 787.501 524.797C787.566 524.405 787.713 523.982 787.941 523.525C788.397 522.645 789.669 522.205 791.755 522.205C793.808 522.205 795.047 522.645 795.471 523.525C795.731 524.014 795.878 524.454 795.911 524.845C795.976 525.204 796.009 525.758 796.009 526.508C796.009 527.258 795.976 527.828 795.911 528.219C795.878 528.578 795.731 529.001 795.471 529.49ZM800.11 557.702C799.491 557.311 799.181 556.692 799.181 555.844C799.181 554.997 799.8 553.709 801.039 551.981C801.397 551.427 801.968 551.15 802.75 551.15C803.565 551.15 804.657 551.558 806.026 552.373C807.395 553.155 808.634 553.546 809.742 553.546C811.73 553.546 812.724 553.155 812.724 552.373C812.724 551.753 811.633 551.297 809.449 551.004C807.395 550.71 805.358 549.944 803.337 548.706C802.392 548.119 801.609 547.206 800.99 545.968C800.371 544.696 800.061 543.197 800.061 541.469C800.061 536.319 803.598 533.744 810.671 533.744C812.985 533.744 815.365 534.298 817.809 535.406C818.95 535.928 819.521 536.58 819.521 537.362C819.521 538.145 819.162 539.106 818.445 540.247C817.728 541.388 816.995 541.958 816.245 541.958C815.854 541.958 815.12 541.714 814.045 541.225C813.002 540.736 811.861 540.491 810.622 540.491C808.699 540.491 807.737 540.85 807.737 541.567C807.737 542.545 808.846 543.181 811.062 543.474C813.213 543.702 815.3 544.321 817.32 545.332C818.266 545.788 819.048 546.587 819.667 547.728C820.319 548.836 820.645 550.238 820.645 551.933C820.645 553.628 820.319 555.078 819.667 556.284C819.048 557.458 818.168 558.338 817.027 558.924C814.941 559.935 812.317 560.44 809.155 560.44C806.026 560.44 803.011 559.527 800.11 557.702ZM823.836 538.536C823.836 537.786 823.852 537.232 823.885 536.873C823.95 536.482 824.097 536.042 824.325 535.553C824.781 534.706 826.052 534.282 828.139 534.282C829.703 534.282 830.811 534.559 831.463 535.113C832.017 535.569 832.311 536.27 832.343 537.216C832.376 537.541 832.392 538.014 832.392 538.633V555.746C832.392 556.496 832.36 557.066 832.295 557.458C832.262 557.816 832.115 558.24 831.855 558.729C831.431 559.576 830.176 560 828.09 560C826.036 560 824.781 559.56 824.325 558.68C824.097 558.191 823.95 557.767 823.885 557.409C823.852 557.05 823.836 556.48 823.836 555.697V538.536ZM831.855 529.49C831.626 529.947 831.203 530.273 830.583 530.468C829.964 530.664 829.133 530.762 828.09 530.762C827.079 530.762 826.264 530.664 825.645 530.468C825.026 530.273 824.586 529.93 824.325 529.441C824.097 528.953 823.95 528.529 823.885 528.17C823.852 527.779 823.836 527.209 823.836 526.459C823.836 525.709 823.852 525.155 823.885 524.797C823.95 524.405 824.097 523.982 824.325 523.525C824.781 522.645 826.052 522.205 828.139 522.205C830.192 522.205 831.431 522.645 831.855 523.525C832.115 524.014 832.262 524.454 832.295 524.845C832.36 525.204 832.392 525.758 832.392 526.508C832.392 527.258 832.36 527.828 832.295 528.219C832.262 528.578 832.115 529.001 831.855 529.49ZM850.624 534.233C853.884 534.233 856.589 535.488 858.74 537.998C860.924 540.475 862.016 543.507 862.016 547.092V555.697C862.016 556.447 861.984 557.017 861.918 557.409C861.886 557.767 861.755 558.175 861.527 558.631C861.071 559.511 859.8 559.951 857.714 559.951C855.399 559.951 854.063 559.348 853.704 558.142C853.509 557.588 853.411 556.757 853.411 555.648V547.043C853.411 545.707 853.02 544.664 852.237 543.914C851.488 543.164 850.461 542.789 849.157 542.789C847.886 542.789 846.843 543.181 846.028 543.963C845.246 544.745 844.854 545.772 844.854 547.043V555.697C844.854 556.447 844.822 557.017 844.757 557.409C844.724 557.767 844.577 558.175 844.317 558.631C843.893 559.511 842.638 559.951 840.552 559.951C838.498 559.951 837.243 559.511 836.787 558.631C836.559 558.142 836.412 557.718 836.347 557.36C836.314 556.969 836.298 556.398 836.298 555.648V538.34C836.298 537.623 836.314 537.085 836.347 536.727C836.412 536.335 836.575 535.912 836.836 535.455C837.292 534.64 838.547 534.233 840.601 534.233C842.589 534.233 843.811 534.608 844.268 535.358C844.594 535.912 844.757 536.58 844.757 537.362C844.887 537.134 845.18 536.808 845.637 536.384C846.093 535.961 846.533 535.618 846.957 535.358C848.065 534.608 849.288 534.233 850.624 534.233ZM882.28 556.773C881.041 558.403 879.069 559.218 876.364 559.218C873.658 559.218 871.116 557.979 868.736 555.502C866.39 552.992 865.216 550.075 865.216 546.75C865.216 543.425 866.406 540.508 868.785 537.998C871.165 535.488 873.772 534.233 876.608 534.233C877.717 534.233 878.727 534.445 879.64 534.869C880.552 535.26 881.172 535.635 881.498 535.993C881.856 536.319 882.133 536.629 882.329 536.922C882.427 536.009 882.753 535.325 883.307 534.869C883.893 534.38 884.822 534.135 886.094 534.135C887.365 534.135 888.294 534.233 888.881 534.429C889.467 534.624 889.875 534.966 890.103 535.455C890.364 535.912 890.51 536.319 890.543 536.678C890.608 537.036 890.641 537.59 890.641 538.34V558.582C890.641 562.331 889.337 565.346 886.729 567.627C884.122 569.942 881.188 571.099 877.928 571.099C875.451 571.099 873.088 570.496 870.839 569.29C868.59 568.084 867.465 566.992 867.465 566.014C867.465 564.743 867.954 563.618 868.932 562.64C869.551 561.956 870.024 561.483 870.35 561.222C870.708 560.962 871.116 560.831 871.572 560.831C872.029 560.831 872.501 561.027 872.99 561.418C874.555 562.624 876.25 563.227 878.075 563.227C879.314 563.227 880.324 562.738 881.107 561.76C881.889 560.782 882.28 559.609 882.28 558.24V556.773ZM873.577 546.799C873.577 547.842 873.984 548.787 874.799 549.635C875.647 550.482 876.657 550.906 877.831 550.906C879.037 550.906 880.031 550.482 880.813 549.635C881.595 548.754 881.987 547.809 881.987 546.799C881.987 545.756 881.612 544.794 880.862 543.914C880.112 543.001 879.102 542.545 877.831 542.545C876.559 542.545 875.533 542.985 874.75 543.865C873.968 544.745 873.577 545.723 873.577 546.799ZM602.675 596.411C607.434 596.411 609.814 598.791 609.814 603.55C609.814 608.309 607.434 610.688 602.675 610.688C597.916 610.688 595.537 608.309 595.537 603.55C595.537 598.791 597.916 596.411 602.675 596.411ZM641.834 613.964C640.987 612.921 640.563 611.992 640.563 611.177C640.563 610.33 641.264 609.221 642.665 607.852C643.48 607.07 644.344 606.679 645.257 606.679C646.169 606.679 647.441 607.494 649.07 609.123C649.527 609.678 650.179 610.215 651.026 610.737C651.874 611.226 652.656 611.47 653.373 611.47C656.404 611.47 657.92 610.232 657.92 607.754C657.92 607.005 657.496 606.385 656.649 605.896C655.834 605.375 654.807 605 653.569 604.772C652.33 604.544 650.994 604.185 649.559 603.696C648.125 603.175 646.789 602.572 645.55 601.887C644.311 601.203 643.268 600.127 642.421 598.66C641.606 597.161 641.199 595.368 641.199 593.282C641.199 590.413 642.258 587.92 644.377 585.801C646.528 583.65 649.445 582.574 653.129 582.574C655.084 582.574 656.861 582.835 658.458 583.356C660.088 583.845 661.212 584.351 661.832 584.872L663.054 585.801C664.064 586.746 664.57 587.545 664.57 588.197C664.57 588.849 664.179 589.745 663.396 590.886C662.288 592.516 661.147 593.331 659.974 593.331C659.289 593.331 658.442 593.005 657.431 592.353C657.333 592.288 657.138 592.125 656.844 591.864C656.584 591.603 656.339 591.391 656.111 591.228C655.427 590.805 654.546 590.593 653.471 590.593C652.428 590.593 651.548 590.854 650.831 591.375C650.146 591.864 649.804 592.565 649.804 593.477C649.804 594.358 650.211 595.075 651.026 595.629C651.874 596.183 652.917 596.558 654.155 596.753C655.394 596.949 656.747 597.259 658.214 597.682C659.68 598.073 661.033 598.562 662.272 599.149C663.51 599.736 664.537 600.763 665.352 602.229C666.199 603.664 666.623 605.44 666.623 607.559C666.623 609.678 666.199 611.552 665.352 613.182C664.505 614.779 663.396 616.017 662.027 616.898C659.387 618.625 656.567 619.489 653.569 619.489C652.037 619.489 650.586 619.31 649.217 618.951C647.848 618.56 646.74 618.087 645.892 617.533C644.165 616.49 642.959 615.48 642.274 614.502L641.834 613.964ZM683.808 601.887L680.63 601.692V608.439C680.63 609.319 680.761 609.955 681.021 610.346C681.315 610.737 681.836 610.933 682.586 610.933C683.368 610.933 683.955 610.965 684.346 611.03C684.77 611.063 685.21 611.21 685.666 611.47C686.416 611.894 686.791 612.986 686.791 614.746C686.791 616.8 686.334 618.055 685.422 618.511C684.933 618.739 684.493 618.886 684.102 618.951C683.743 618.984 683.205 619 682.488 619C679.098 619 676.523 618.234 674.763 616.702C673.003 615.17 672.123 612.579 672.123 608.928V601.692C671.503 601.789 670.835 601.838 670.118 601.838C669.401 601.838 668.798 601.561 668.309 601.007C667.853 600.453 667.624 599.508 667.624 598.171C667.624 596.835 667.706 595.873 667.869 595.287C668.032 594.667 668.26 594.227 668.553 593.966C669.075 593.543 669.727 593.331 670.509 593.331L672.123 593.526V588.49C672.123 587.741 672.139 587.187 672.172 586.828C672.237 586.469 672.4 586.078 672.66 585.654C673.084 584.84 674.339 584.432 676.425 584.432C678.642 584.432 679.962 585.035 680.386 586.241C680.549 586.763 680.63 587.594 680.63 588.735V593.526C682.064 593.396 683.14 593.331 683.857 593.331C684.607 593.331 685.161 593.363 685.519 593.429C685.911 593.461 686.351 593.608 686.84 593.869C687.687 594.292 688.111 595.547 688.111 597.633C688.111 599.687 687.671 600.942 686.791 601.398C686.302 601.626 685.862 601.773 685.471 601.838C685.112 601.871 684.558 601.887 683.808 601.887ZM707.532 595.971C707.728 594.146 709.015 593.233 711.395 593.233C712.666 593.233 713.611 593.331 714.231 593.526C714.85 593.722 715.274 594.064 715.502 594.553C715.763 595.042 715.909 595.482 715.942 595.873C716.007 596.232 716.04 596.786 716.04 597.536V614.648C716.04 615.398 716.007 615.969 715.942 616.36C715.909 616.718 715.779 617.142 715.551 617.631C715.095 618.478 713.97 618.902 712.177 618.902C710.417 618.902 709.227 618.69 708.608 618.267C708.021 617.81 707.679 617.158 707.581 616.311C706.375 618.038 704.354 618.902 701.518 618.902C698.715 618.902 696.108 617.615 693.695 615.04C691.283 612.465 690.077 609.482 690.077 606.092C690.077 602.67 691.283 599.687 693.695 597.145C696.14 594.569 698.813 593.282 701.714 593.282C702.822 593.282 703.833 593.477 704.745 593.869C705.658 594.26 706.294 594.635 706.652 594.993C707.011 595.319 707.304 595.645 707.532 595.971ZM698.634 606.141C698.634 607.217 699.057 608.194 699.905 609.075C700.752 609.922 701.779 610.346 702.985 610.346C704.191 610.346 705.185 609.906 705.968 609.026C706.783 608.146 707.19 607.184 707.19 606.141C707.19 605.065 706.799 604.071 706.017 603.158C705.267 602.246 704.24 601.789 702.936 601.789C701.665 601.789 700.622 602.246 699.807 603.158C699.025 604.071 698.634 605.065 698.634 606.141ZM734.898 601.887L731.72 601.692V608.439C731.72 609.319 731.851 609.955 732.111 610.346C732.405 610.737 732.926 610.933 733.676 610.933C734.458 610.933 735.045 610.965 735.436 611.03C735.86 611.063 736.3 611.21 736.756 611.47C737.506 611.894 737.881 612.986 737.881 614.746C737.881 616.8 737.424 618.055 736.512 618.511C736.023 618.739 735.583 618.886 735.192 618.951C734.833 618.984 734.295 619 733.578 619C730.188 619 727.613 618.234 725.853 616.702C724.093 615.17 723.213 612.579 723.213 608.928V601.692C722.593 601.789 721.925 601.838 721.208 601.838C720.491 601.838 719.888 601.561 719.399 601.007C718.943 600.453 718.714 599.508 718.714 598.171C718.714 596.835 718.796 595.873 718.959 595.287C719.122 594.667 719.35 594.227 719.643 593.966C720.165 593.543 720.817 593.331 721.599 593.331L723.213 593.526V588.49C723.213 587.741 723.229 587.187 723.262 586.828C723.327 586.469 723.49 586.078 723.751 585.654C724.174 584.84 725.429 584.432 727.515 584.432C729.732 584.432 731.052 585.035 731.476 586.241C731.639 586.763 731.72 587.594 731.72 588.735V593.526C733.154 593.396 734.23 593.331 734.947 593.331C735.697 593.331 736.251 593.363 736.61 593.429C737.001 593.461 737.441 593.608 737.93 593.869C738.777 594.292 739.201 595.547 739.201 597.633C739.201 599.687 738.761 600.942 737.881 601.398C737.392 601.626 736.952 601.773 736.561 601.838C736.202 601.871 735.648 601.887 734.898 601.887ZM741.901 597.536C741.901 596.786 741.917 596.232 741.95 595.873C742.015 595.482 742.162 595.042 742.39 594.553C742.846 593.706 744.117 593.282 746.203 593.282C747.768 593.282 748.876 593.559 749.528 594.113C750.082 594.569 750.376 595.27 750.408 596.216C750.441 596.541 750.457 597.014 750.457 597.633V614.746C750.457 615.496 750.425 616.066 750.359 616.458C750.327 616.816 750.18 617.24 749.919 617.729C749.496 618.576 748.241 619 746.155 619C744.101 619 742.846 618.56 742.39 617.68C742.162 617.191 742.015 616.767 741.95 616.409C741.917 616.05 741.901 615.48 741.901 614.697V597.536ZM749.919 588.49C749.691 588.947 749.267 589.273 748.648 589.468C748.029 589.664 747.198 589.762 746.155 589.762C745.144 589.762 744.329 589.664 743.71 589.468C743.091 589.273 742.651 588.93 742.39 588.441C742.162 587.953 742.015 587.529 741.95 587.17C741.917 586.779 741.901 586.209 741.901 585.459C741.901 584.709 741.917 584.155 741.95 583.797C742.015 583.405 742.162 582.982 742.39 582.525C742.846 581.645 744.117 581.205 746.203 581.205C748.257 581.205 749.496 581.645 749.919 582.525C750.18 583.014 750.327 583.454 750.359 583.845C750.425 584.204 750.457 584.758 750.457 585.508C750.457 586.258 750.425 586.828 750.359 587.219C750.327 587.578 750.18 588.001 749.919 588.49ZM754.559 616.702C753.939 616.311 753.63 615.692 753.63 614.844C753.63 613.997 754.249 612.709 755.488 610.981C755.846 610.427 756.416 610.15 757.199 610.15C758.014 610.15 759.106 610.558 760.475 611.373C761.844 612.155 763.082 612.546 764.191 612.546C766.179 612.546 767.173 612.155 767.173 611.373C767.173 610.753 766.081 610.297 763.897 610.004C761.844 609.71 759.806 608.944 757.786 607.706C756.84 607.119 756.058 606.206 755.439 604.968C754.819 603.696 754.51 602.197 754.51 600.469C754.51 595.319 758.046 592.744 765.12 592.744C767.434 592.744 769.813 593.298 772.258 594.406C773.399 594.928 773.969 595.58 773.969 596.362C773.969 597.145 773.611 598.106 772.894 599.247C772.177 600.388 771.443 600.958 770.693 600.958C770.302 600.958 769.569 600.714 768.493 600.225C767.45 599.736 766.309 599.491 765.071 599.491C763.148 599.491 762.186 599.85 762.186 600.567C762.186 601.545 763.294 602.181 765.511 602.474C767.662 602.702 769.748 603.321 771.769 604.332C772.714 604.788 773.497 605.587 774.116 606.728C774.768 607.836 775.094 609.238 775.094 610.933C775.094 612.628 774.768 614.078 774.116 615.284C773.497 616.458 772.617 617.338 771.476 617.924C769.39 618.935 766.766 619.44 763.604 619.44C760.475 619.44 757.46 618.527 754.559 616.702ZM792.482 601.887L789.304 601.692V608.439C789.304 609.319 789.434 609.955 789.695 610.346C789.989 610.737 790.51 610.933 791.26 610.933C792.042 610.933 792.629 610.965 793.02 611.03C793.444 611.063 793.884 611.21 794.34 611.47C795.09 611.894 795.465 612.986 795.465 614.746C795.465 616.8 795.008 618.055 794.096 618.511C793.607 618.739 793.167 618.886 792.775 618.951C792.417 618.984 791.879 619 791.162 619C787.772 619 785.197 618.234 783.437 616.702C781.677 615.17 780.797 612.579 780.797 608.928V601.692C780.177 601.789 779.509 601.838 778.792 601.838C778.075 601.838 777.472 601.561 776.983 601.007C776.526 600.453 776.298 599.508 776.298 598.171C776.298 596.835 776.38 595.873 776.543 595.287C776.706 594.667 776.934 594.227 777.227 593.966C777.749 593.543 778.401 593.331 779.183 593.331L780.797 593.526V588.49C780.797 587.741 780.813 587.187 780.845 586.828C780.911 586.469 781.074 586.078 781.334 585.654C781.758 584.84 783.013 584.432 785.099 584.432C787.316 584.432 788.636 585.035 789.06 586.241C789.223 586.763 789.304 587.594 789.304 588.735V593.526C790.738 593.396 791.814 593.331 792.531 593.331C793.281 593.331 793.835 593.363 794.193 593.429C794.585 593.461 795.025 593.608 795.514 593.869C796.361 594.292 796.785 595.547 796.785 597.633C796.785 599.687 796.345 600.942 795.465 601.398C794.976 601.626 794.536 601.773 794.144 601.838C793.786 601.871 793.232 601.887 792.482 601.887ZM799.485 597.536C799.485 596.786 799.501 596.232 799.533 595.873C799.599 595.482 799.745 595.042 799.974 594.553C800.43 593.706 801.701 593.282 803.787 593.282C805.352 593.282 806.46 593.559 807.112 594.113C807.666 594.569 807.959 595.27 807.992 596.216C808.025 596.541 808.041 597.014 808.041 597.633V614.746C808.041 615.496 808.008 616.066 807.943 616.458C807.911 616.816 807.764 617.24 807.503 617.729C807.079 618.576 805.824 619 803.738 619C801.685 619 800.43 618.56 799.974 617.68C799.745 617.191 799.599 616.767 799.533 616.409C799.501 616.05 799.485 615.48 799.485 614.697V597.536ZM807.503 588.49C807.275 588.947 806.851 589.273 806.232 589.468C805.613 589.664 804.781 589.762 803.738 589.762C802.728 589.762 801.913 589.664 801.294 589.468C800.674 589.273 800.234 588.93 799.974 588.441C799.745 587.953 799.599 587.529 799.533 587.17C799.501 586.779 799.485 586.209 799.485 585.459C799.485 584.709 799.501 584.155 799.533 583.797C799.599 583.405 799.745 582.982 799.974 582.525C800.43 581.645 801.701 581.205 803.787 581.205C805.841 581.205 807.079 581.645 807.503 582.525C807.764 583.014 807.911 583.454 807.943 583.845C808.008 584.204 808.041 584.758 808.041 585.508C808.041 586.258 808.008 586.828 807.943 587.219C807.911 587.578 807.764 588.001 807.503 588.49ZM820.014 606.141C820.014 607.51 820.471 608.586 821.383 609.368C822.296 610.118 823.257 610.492 824.268 610.492C825.311 610.492 826.273 610.199 827.153 609.612C828.065 608.993 828.799 608.683 829.353 608.683C830.331 608.683 831.521 609.547 832.922 611.275C833.672 612.22 834.047 613.068 834.047 613.817C834.047 615.056 833.15 616.213 831.358 617.289C829.5 618.593 827.218 619.244 824.512 619.244C821.481 619.244 818.564 618.153 815.76 615.969C814.424 614.926 813.332 613.54 812.485 611.813C811.637 610.052 811.213 608.129 811.213 606.043C811.213 603.924 811.637 602.018 812.485 600.323C813.332 598.595 814.424 597.21 815.76 596.167C818.466 594.015 821.351 592.94 824.415 592.94C825.653 592.94 826.859 593.119 828.033 593.477C829.206 593.803 830.07 594.129 830.624 594.455L831.406 594.944C831.993 595.335 832.45 595.645 832.775 595.873C833.623 596.525 834.047 597.275 834.047 598.122C834.047 598.937 833.704 599.866 833.02 600.909C831.846 602.702 830.722 603.598 829.646 603.598C829.027 603.598 828.147 603.24 827.006 602.523C826.419 601.969 825.572 601.692 824.464 601.692C823.388 601.692 822.377 602.083 821.432 602.865C820.487 603.647 820.014 604.739 820.014 606.141ZM836.923 616.702C836.304 616.311 835.994 615.692 835.994 614.844C835.994 613.997 836.614 612.709 837.852 610.981C838.211 610.427 838.781 610.15 839.564 610.15C840.379 610.15 841.471 610.558 842.84 611.373C844.209 612.155 845.447 612.546 846.555 612.546C848.544 612.546 849.538 612.155 849.538 611.373C849.538 610.753 848.446 610.297 846.262 610.004C844.209 609.71 842.171 608.944 840.15 607.706C839.205 607.119 838.423 606.206 837.804 604.968C837.184 603.696 836.875 602.197 836.875 600.469C836.875 595.319 840.411 592.744 847.484 592.744C849.799 592.744 852.178 593.298 854.623 594.406C855.764 594.928 856.334 595.58 856.334 596.362C856.334 597.145 855.976 598.106 855.259 599.247C854.541 600.388 853.808 600.958 853.058 600.958C852.667 600.958 851.934 600.714 850.858 600.225C849.815 599.736 848.674 599.491 847.436 599.491C845.512 599.491 844.551 599.85 844.551 600.567C844.551 601.545 845.659 602.181 847.876 602.474C850.027 602.702 852.113 603.321 854.134 604.332C855.079 604.788 855.862 605.587 856.481 606.728C857.133 607.836 857.459 609.238 857.459 610.933C857.459 612.628 857.133 614.078 856.481 615.284C855.862 616.458 854.981 617.338 853.841 617.924C851.755 618.935 849.131 619.44 845.969 619.44C842.84 619.44 839.824 618.527 836.923 616.702ZM602.675 655.411C607.434 655.411 609.814 657.791 609.814 662.55C609.814 667.309 607.434 669.688 602.675 669.688C597.916 669.688 595.537 667.309 595.537 662.55C595.537 657.791 597.916 655.411 602.675 655.411ZM641.834 672.964C640.987 671.921 640.563 670.992 640.563 670.177C640.563 669.33 641.264 668.221 642.665 666.852C643.48 666.07 644.344 665.679 645.257 665.679C646.169 665.679 647.441 666.494 649.07 668.123C649.527 668.678 650.179 669.215 651.026 669.737C651.874 670.226 652.656 670.47 653.373 670.47C656.404 670.47 657.92 669.232 657.92 666.754C657.92 666.005 657.496 665.385 656.649 664.896C655.834 664.375 654.807 664 653.569 663.772C652.33 663.544 650.994 663.185 649.559 662.696C648.125 662.175 646.789 661.572 645.55 660.887C644.311 660.203 643.268 659.127 642.421 657.66C641.606 656.161 641.199 654.368 641.199 652.282C641.199 649.413 642.258 646.92 644.377 644.801C646.528 642.65 649.445 641.574 653.129 641.574C655.084 641.574 656.861 641.835 658.458 642.356C660.088 642.845 661.212 643.351 661.832 643.872L663.054 644.801C664.064 645.746 664.57 646.545 664.57 647.197C664.57 647.849 664.179 648.745 663.396 649.886C662.288 651.516 661.147 652.331 659.974 652.331C659.289 652.331 658.442 652.005 657.431 651.353C657.333 651.288 657.138 651.125 656.844 650.864C656.584 650.603 656.339 650.391 656.111 650.228C655.427 649.805 654.546 649.593 653.471 649.593C652.428 649.593 651.548 649.854 650.831 650.375C650.146 650.864 649.804 651.565 649.804 652.477C649.804 653.358 650.211 654.075 651.026 654.629C651.874 655.183 652.917 655.558 654.155 655.753C655.394 655.949 656.747 656.259 658.214 656.682C659.68 657.073 661.033 657.562 662.272 658.149C663.51 658.736 664.537 659.763 665.352 661.229C666.199 662.664 666.623 664.44 666.623 666.559C666.623 668.678 666.199 670.552 665.352 672.182C664.505 673.779 663.396 675.017 662.027 675.898C659.387 677.625 656.567 678.489 653.569 678.489C652.037 678.489 650.586 678.31 649.217 677.951C647.848 677.56 646.74 677.087 645.892 676.533C644.165 675.49 642.959 674.48 642.274 673.502L641.834 672.964ZM683.808 660.887L680.63 660.692V667.439C680.63 668.319 680.761 668.955 681.021 669.346C681.315 669.737 681.836 669.933 682.586 669.933C683.368 669.933 683.955 669.965 684.346 670.03C684.77 670.063 685.21 670.21 685.666 670.47C686.416 670.894 686.791 671.986 686.791 673.746C686.791 675.8 686.334 677.055 685.422 677.511C684.933 677.739 684.493 677.886 684.102 677.951C683.743 677.984 683.205 678 682.488 678C679.098 678 676.523 677.234 674.763 675.702C673.003 674.17 672.123 671.579 672.123 667.928V660.692C671.503 660.789 670.835 660.838 670.118 660.838C669.401 660.838 668.798 660.561 668.309 660.007C667.853 659.453 667.624 658.508 667.624 657.171C667.624 655.835 667.706 654.873 667.869 654.287C668.032 653.667 668.26 653.227 668.553 652.966C669.075 652.543 669.727 652.331 670.509 652.331L672.123 652.526V647.49C672.123 646.741 672.139 646.187 672.172 645.828C672.237 645.469 672.4 645.078 672.66 644.654C673.084 643.84 674.339 643.432 676.425 643.432C678.642 643.432 679.962 644.035 680.386 645.241C680.549 645.763 680.63 646.594 680.63 647.735V652.526C682.064 652.396 683.14 652.331 683.857 652.331C684.607 652.331 685.161 652.363 685.519 652.429C685.911 652.461 686.351 652.608 686.84 652.869C687.687 653.292 688.111 654.547 688.111 656.633C688.111 658.687 687.671 659.942 686.791 660.398C686.302 660.626 685.862 660.773 685.471 660.838C685.112 660.871 684.558 660.887 683.808 660.887ZM702.252 677.902C698.96 677.902 696.222 676.664 694.038 674.186C691.886 671.676 690.811 668.629 690.811 665.043V656.487C690.811 655.704 690.827 655.134 690.86 654.775C690.925 654.417 691.071 653.993 691.3 653.504C691.756 652.624 693.027 652.184 695.113 652.184C697.395 652.184 698.731 652.803 699.123 654.042C699.318 654.564 699.416 655.395 699.416 656.536V665.092C699.416 666.428 699.791 667.472 700.541 668.221C701.323 668.971 702.35 669.346 703.621 669.346C704.925 669.346 705.968 668.955 706.75 668.172C707.565 667.39 707.972 666.363 707.972 665.092V656.438C707.972 655.688 707.989 655.134 708.021 654.775C708.086 654.384 708.249 653.944 708.51 653.455C708.934 652.608 710.189 652.184 712.275 652.184C714.329 652.184 715.584 652.624 716.04 653.504C716.268 653.993 716.398 654.433 716.431 654.824C716.496 655.183 716.529 655.737 716.529 656.487V673.795C716.529 674.512 716.496 675.066 716.431 675.458C716.398 675.816 716.252 676.224 715.991 676.68C715.502 677.527 714.247 677.951 712.226 677.951C710.238 677.951 709.015 677.56 708.559 676.778C708.233 676.224 708.07 675.555 708.07 674.773C707.94 675.001 707.646 675.327 707.19 675.751C706.734 676.175 706.294 676.533 705.87 676.827C704.762 677.544 703.556 677.902 702.252 677.902ZM737.722 641.525C737.982 641.036 738.422 640.694 739.042 640.499C739.661 640.303 740.476 640.205 741.486 640.205C742.529 640.205 743.361 640.303 743.98 640.499C744.599 640.694 745.023 641.036 745.251 641.525C745.512 642.014 745.659 642.454 745.691 642.845C745.756 643.204 745.789 643.758 745.789 644.508V673.697C745.789 674.447 745.756 675.017 745.691 675.409C745.659 675.767 745.512 676.175 745.251 676.631C744.762 677.511 743.377 677.951 741.095 677.951C738.846 677.951 737.591 677.153 737.33 675.555C735.961 677.12 734.055 677.902 731.61 677.902C728.676 677.902 726.003 676.631 723.591 674.089C721.179 671.513 719.973 668.531 719.973 665.141C719.973 661.718 721.179 658.72 723.591 656.145C726.036 653.569 728.709 652.282 731.61 652.282C734.022 652.282 735.896 653.097 737.233 654.727V644.459C737.233 643.709 737.249 643.155 737.281 642.797C737.347 642.405 737.493 641.982 737.722 641.525ZM729.801 668.075C730.648 668.955 731.675 669.395 732.881 669.395C734.087 669.395 735.081 668.955 735.864 668.075C736.678 667.194 737.086 666.233 737.086 665.19C737.086 664.114 736.695 663.12 735.912 662.207C735.163 661.295 734.136 660.838 732.832 660.838C731.528 660.838 730.485 661.295 729.703 662.207C728.921 663.087 728.53 664.065 728.53 665.141C728.53 666.217 728.953 667.194 729.801 668.075ZM773.164 652.526C775.087 653.374 776.049 654.401 776.049 655.607C776.049 656.193 775.918 656.748 775.658 657.269C775.397 657.791 775.267 658.068 775.267 658.1L762.456 686.752C762.196 687.371 761.967 687.844 761.772 688.17C761.609 688.496 761.332 688.806 760.941 689.099C760.55 689.392 760.061 689.539 759.474 689.539C758.887 689.539 758.023 689.294 756.883 688.806C754.959 687.958 753.998 686.948 753.998 685.774C753.998 684.992 755.562 681.26 758.692 674.577L748.962 658.198C748.31 657.122 747.984 656.324 747.984 655.802C747.984 654.759 748.864 653.716 750.624 652.673C751.732 652.021 752.596 651.695 753.215 651.695C753.835 651.695 754.34 651.826 754.731 652.086C755.122 652.347 755.399 652.624 755.562 652.918C755.758 653.178 756.654 654.694 758.252 657.465C759.881 660.203 761.43 662.761 762.896 665.141C763.059 664.619 763.94 662.615 765.537 659.127C767.134 655.607 767.981 653.732 768.079 653.504C768.21 653.276 768.405 652.999 768.666 652.673C769.09 652.119 769.676 651.842 770.426 651.842C771.208 651.842 772.121 652.07 773.164 652.526ZM778.714 656.536C778.714 655.786 778.731 655.232 778.763 654.873C778.828 654.482 778.975 654.042 779.203 653.553C779.66 652.706 780.931 652.282 783.017 652.282C784.582 652.282 785.69 652.559 786.342 653.113C786.896 653.569 787.189 654.27 787.222 655.216C787.254 655.541 787.271 656.014 787.271 656.633V673.746C787.271 674.496 787.238 675.066 787.173 675.458C787.14 675.816 786.994 676.24 786.733 676.729C786.309 677.576 785.054 678 782.968 678C780.915 678 779.66 677.56 779.203 676.68C778.975 676.191 778.828 675.767 778.763 675.409C778.731 675.05 778.714 674.48 778.714 673.697V656.536ZM786.733 647.49C786.505 647.947 786.081 648.273 785.462 648.468C784.842 648.664 784.011 648.762 782.968 648.762C781.958 648.762 781.143 648.664 780.523 648.468C779.904 648.273 779.464 647.93 779.203 647.441C778.975 646.953 778.828 646.529 778.763 646.17C778.731 645.779 778.714 645.209 778.714 644.459C778.714 643.709 778.731 643.155 778.763 642.797C778.828 642.405 778.975 641.982 779.203 641.525C779.66 640.645 780.931 640.205 783.017 640.205C785.071 640.205 786.309 640.645 786.733 641.525C786.994 642.014 787.14 642.454 787.173 642.845C787.238 643.204 787.271 643.758 787.271 644.508C787.271 645.258 787.238 645.828 787.173 646.219C787.14 646.578 786.994 647.001 786.733 647.49ZM805.502 652.233C808.762 652.233 811.467 653.488 813.619 655.998C815.803 658.475 816.895 661.507 816.895 665.092V673.697C816.895 674.447 816.862 675.017 816.797 675.409C816.764 675.767 816.634 676.175 816.406 676.631C815.949 677.511 814.678 677.951 812.592 677.951C810.278 677.951 808.941 677.348 808.583 676.142C808.387 675.588 808.289 674.757 808.289 673.648V665.043C808.289 663.707 807.898 662.664 807.116 661.914C806.366 661.164 805.339 660.789 804.036 660.789C802.764 660.789 801.721 661.181 800.906 661.963C800.124 662.745 799.733 663.772 799.733 665.043V673.697C799.733 674.447 799.7 675.017 799.635 675.409C799.602 675.767 799.456 676.175 799.195 676.631C798.771 677.511 797.516 677.951 795.43 677.951C793.377 677.951 792.122 677.511 791.665 676.631C791.437 676.142 791.291 675.718 791.225 675.36C791.193 674.969 791.176 674.398 791.176 673.648V656.34C791.176 655.623 791.193 655.085 791.225 654.727C791.291 654.335 791.454 653.912 791.714 653.455C792.171 652.64 793.426 652.233 795.479 652.233C797.467 652.233 798.69 652.608 799.146 653.358C799.472 653.912 799.635 654.58 799.635 655.362C799.765 655.134 800.059 654.808 800.515 654.384C800.972 653.961 801.412 653.618 801.835 653.358C802.944 652.608 804.166 652.233 805.502 652.233ZM837.158 674.773C835.92 676.403 833.948 677.218 831.242 677.218C828.537 677.218 825.994 675.979 823.615 673.502C821.268 670.992 820.094 668.075 820.094 664.75C820.094 661.425 821.284 658.508 823.664 655.998C826.043 653.488 828.651 652.233 831.487 652.233C832.595 652.233 833.605 652.445 834.518 652.869C835.431 653.26 836.05 653.635 836.376 653.993C836.735 654.319 837.012 654.629 837.207 654.922C837.305 654.009 837.631 653.325 838.185 652.869C838.772 652.38 839.701 652.135 840.972 652.135C842.243 652.135 843.172 652.233 843.759 652.429C844.346 652.624 844.753 652.966 844.981 653.455C845.242 653.912 845.389 654.319 845.421 654.678C845.487 655.036 845.519 655.59 845.519 656.34V676.582C845.519 680.331 844.215 683.346 841.608 685.627C839 687.942 836.066 689.099 832.807 689.099C830.33 689.099 827.966 688.496 825.717 687.29C823.468 686.084 822.344 684.992 822.344 684.014C822.344 682.743 822.832 681.618 823.81 680.64C824.43 679.956 824.902 679.483 825.228 679.222C825.587 678.962 825.994 678.831 826.451 678.831C826.907 678.831 827.38 679.027 827.869 679.418C829.433 680.624 831.128 681.227 832.953 681.227C834.192 681.227 835.203 680.738 835.985 679.76C836.767 678.782 837.158 677.609 837.158 676.24V674.773ZM828.455 664.799C828.455 665.842 828.863 666.787 829.678 667.635C830.525 668.482 831.536 668.906 832.709 668.906C833.915 668.906 834.909 668.482 835.692 667.635C836.474 666.754 836.865 665.809 836.865 664.799C836.865 663.756 836.49 662.794 835.74 661.914C834.991 661.001 833.98 660.545 832.709 660.545C831.438 660.545 830.411 660.985 829.629 661.865C828.846 662.745 828.455 663.723 828.455 664.799Z" fill="#0E0A1D"/>
</g>
<defs>
<clipPath id="clip0_12_192">
<rect width="1920" height="1080" fill="white"/>
</clipPath>
</defs>
</svg>
