<svg width="1920" height="1080" viewBox="0 0 1920 1080" fill="none" xmlns="http://www.w3.org/2000/svg">
<g clip-path="url(#clip0_12_161)">
<rect width="1920" height="1080" fill="white"/>
<path d="M93 25C93 76.3625 51.3625 118 0 118C-51.3625 118 -93 76.3625 -93 25C-93 -26.3625 -51.3625 -68 0 -68C51.3625 -68 93 -26.3625 93 25ZM-61.975 25C-61.975 59.2278 -34.2278 86.975 0 86.975C34.2278 86.975 61.975 59.2278 61.975 25C61.975 -9.22783 34.2278 -36.975 0 -36.975C-34.2278 -36.975 -61.975 -9.22783 -61.975 25Z" fill="#FCBAD0"/>
<circle cx="1676.5" cy="475.5" r="32.5" fill="white"/>
<path d="M670 930.5C670 968.332 639.332 999 601.5 999C563.668 999 533 968.332 533 930.5C533 892.668 563.668 862 601.5 862C639.332 862 670 892.668 670 930.5ZM548 930.5C548 955.711 576.289 984.5 601.5 984.5C626.711 984.5 652.5 955.711 652.5 930.5C652.5 905.289 626.711 878.5 601.5 878.5C576.289 878.5 548 905.289 548 930.5Z" fill="white"/>
<path d="M1894 836C1894 870.794 1865.79 899 1831 899C1796.21 899 1768 870.794 1768 836C1768 801.206 1796.21 773 1831 773C1865.79 773 1894 801.206 1894 836ZM1789.02 836C1789.02 859.187 1807.81 877.983 1831 877.983C1854.19 877.983 1872.98 859.187 1872.98 836C1872.98 812.813 1854.19 794.017 1831 794.017C1807.81 794.017 1789.02 812.813 1789.02 836Z" fill="#FF74B3"/>
<circle cx="1584" cy="52" r="93" fill="#FF74B3"/>
<circle cx="1657.57" cy="1414" r="435" fill="#FF74B3"/>
<path fill-rule="evenodd" clip-rule="evenodd" d="M362.184 1562.43C296.871 1634.03 211.795 1684.64 117.715 1707.88C23.6349 1731.13 -75.2245 1725.95 -166.361 1693C-257.498 1660.06 -336.82 1600.83 -394.295 1522.8C-451.77 1444.78 -484.817 1351.46 -489.257 1254.66C-493.698 1157.85 -469.332 1061.9 -419.241 978.942C-369.15 895.983 -295.584 829.741 -207.846 788.592C-120.107 747.444 -22.1369 733.236 73.6759 747.767C168.329 762.122 256.676 803.887 327.825 867.865L327.834 867.856C328.097 868.096 328.359 868.338 328.619 868.581C329.225 869.128 329.83 869.677 330.434 870.228L330.389 870.276C347.29 886.893 357.333 909.316 358.423 933.079C359.567 958.016 350.757 982.387 333.933 1000.83C317.108 1019.27 293.647 1030.27 268.71 1031.42C243.772 1032.56 219.402 1023.75 200.96 1006.93L201.438 1006.4C157.693 967.418 103.542 941.961 45.5578 933.167C-13.5863 924.198 -74.0622 932.967 -128.222 958.368C-182.382 983.769 -227.794 1024.66 -258.714 1075.87C-289.635 1127.08 -304.675 1186.31 -301.934 1246.06C-299.193 1305.82 -278.794 1363.42 -243.315 1411.59C-207.836 1459.75 -158.872 1496.31 -102.614 1516.65C-46.3567 1536.99 14.668 1540.18 72.7428 1525.84C130.817 1511.49 183.334 1480.24 223.651 1436.05L223.111 1435.56C239.936 1417.12 263.397 1406.11 288.335 1404.97C313.272 1403.83 337.642 1412.64 356.084 1429.46C374.527 1446.28 385.53 1469.75 386.674 1494.68C387.818 1519.62 379.008 1543.99 362.184 1562.43L328.419 1531.63C337.074 1522.14 341.605 1509.61 341.017 1496.78C340.429 1483.95 334.768 1471.88 325.281 1463.22C315.794 1454.57 303.257 1450.04 290.429 1450.63C277.601 1451.22 265.531 1456.88 256.876 1466.36L256.905 1466.39C210.588 1517.16 150.256 1553.05 83.538 1569.54C16.8204 1586.02 -53.2863 1582.34 -117.917 1558.98C-182.547 1535.62 -238.798 1493.62 -279.557 1438.29C-320.316 1382.95 -343.751 1316.78 -346.9 1248.13C-350.049 1179.48 -332.77 1111.43 -297.248 1052.6C-261.725 993.771 -209.556 946.795 -147.335 917.614C-85.1151 888.433 -15.6389 878.358 52.3073 888.663C119.693 898.883 182.572 928.692 233.129 974.363C242.436 982.235 254.394 986.322 266.615 985.762C279.444 985.173 291.513 979.513 300.168 970.026C308.823 960.538 313.355 948.002 312.766 935.173C312.232 923.522 307.513 912.497 299.544 904.087L299.125 904.546C234.32 845.426 153.439 806.85 66.7104 793.696C-20.0186 780.543 -108.7 793.403 -188.121 830.65C-267.541 867.898 -334.132 927.86 -379.474 1002.95C-424.816 1078.05 -446.872 1164.9 -442.852 1252.53C-438.833 1340.16 -408.919 1424.63 -356.893 1495.25C-304.867 1565.88 -233.066 1619.49 -150.569 1649.32C-68.073 1679.14 21.4136 1683.82 106.574 1662.79C191.735 1641.75 268.745 1595.93 327.865 1531.12L362.184 1562.43Z" fill="#FEDFEA"/>
<path fill-rule="evenodd" clip-rule="evenodd" d="M2455.18 330.433C2389.87 402.026 2304.8 452.643 2210.72 475.884C2116.63 499.125 2017.78 493.946 1926.64 461.002C1835.5 428.059 1756.18 368.829 1698.71 290.804C1641.23 212.779 1608.18 119.463 1603.74 22.6567C1599.3 -74.15 1623.67 -170.099 1673.76 -253.058C1723.85 -336.017 1797.42 -402.259 1885.15 -443.408C1972.89 -484.556 2070.86 -498.764 2166.68 -484.233C2261.33 -469.878 2349.68 -428.113 2420.83 -364.135L2420.83 -364.144C2421.1 -363.904 2421.36 -363.662 2421.62 -363.419C2422.23 -362.872 2422.83 -362.323 2423.43 -361.772L2423.39 -361.724C2440.29 -345.107 2450.33 -322.684 2451.42 -298.921C2452.57 -273.984 2443.76 -249.613 2426.93 -231.171C2410.11 -212.729 2386.65 -201.726 2361.71 -200.582C2336.77 -199.438 2312.4 -208.247 2293.96 -225.072L2294.44 -225.596C2250.69 -264.582 2196.54 -290.039 2138.56 -298.833C2079.41 -307.802 2018.94 -299.033 1964.78 -273.632C1910.62 -248.231 1865.21 -207.341 1834.29 -156.131C1803.37 -104.922 1788.32 -45.6934 1791.07 14.0643C1793.81 73.8219 1814.21 131.425 1849.68 179.589C1885.16 227.753 1934.13 264.314 1990.39 284.65C2046.64 304.986 2107.67 308.183 2165.74 293.836C2223.82 279.49 2276.33 248.244 2316.65 204.051L2316.11 203.559C2332.94 185.117 2356.4 174.114 2381.33 172.97C2406.27 171.826 2430.64 180.635 2449.08 197.46C2467.53 214.284 2478.53 237.746 2479.67 262.683C2480.82 287.62 2472.01 311.991 2455.18 330.433L2421.42 299.63C2430.07 290.142 2434.61 277.606 2434.02 264.777C2433.43 251.949 2427.77 239.88 2418.28 231.225C2408.79 222.57 2396.26 218.038 2383.43 218.627C2370.6 219.215 2358.53 224.875 2349.88 234.362L2349.9 234.388C2303.59 285.159 2243.26 321.054 2176.54 337.536C2109.82 354.017 2039.71 350.345 1975.08 326.982C1910.45 303.62 1854.2 261.617 1813.44 206.285C1772.68 150.953 1749.25 84.7779 1746.1 16.1268C1742.95 -52.5243 1760.23 -120.567 1795.75 -179.398C1831.27 -238.229 1883.44 -285.205 1945.66 -314.386C2007.88 -343.567 2077.36 -353.642 2145.31 -343.337C2212.69 -333.117 2275.57 -303.308 2326.13 -257.637C2335.44 -249.765 2347.39 -245.678 2359.62 -246.238C2372.44 -246.827 2384.51 -252.487 2393.17 -261.974C2401.82 -271.462 2406.35 -283.998 2405.77 -296.827C2405.23 -308.478 2400.51 -319.503 2392.54 -327.913L2392.13 -327.454C2327.32 -386.574 2246.44 -425.15 2159.71 -438.304C2072.98 -451.457 1984.3 -438.597 1904.88 -401.35C1825.46 -364.102 1758.87 -304.14 1713.53 -229.047C1668.18 -153.953 1646.13 -67.1004 1650.15 20.5282C1654.17 108.157 1684.08 192.626 1736.11 263.253C1788.13 333.881 1859.93 387.495 1942.43 417.315C2024.93 447.136 2114.41 451.823 2199.57 430.786C2284.74 409.748 2361.74 363.93 2420.87 299.125L2455.18 330.433Z" fill="#FEDFEA"/>
<path d="M156.744 168.424L159.048 166.76C161.949 165.053 163.997 164.2 165.192 164.2C167.837 164.2 170.696 166.589 173.768 171.368C175.645 174.355 176.584 176.744 176.584 178.536C176.584 180.328 175.987 181.821 174.792 183.016C173.683 184.211 172.36 185.277 170.824 186.216C169.288 187.155 167.795 188.051 166.344 188.904C164.979 189.757 162.12 190.867 157.768 192.232C153.416 193.597 149.192 194.28 145.096 194.28C141.085 194.28 136.989 193.768 132.808 192.744C128.712 191.635 124.445 189.843 120.008 187.368C115.656 184.808 111.731 181.736 108.232 178.152C104.733 174.483 101.832 169.832 99.528 164.2C97.3093 158.483 96.2 152.296 96.2 145.64C96.2 138.984 97.3093 132.968 99.528 127.592C101.747 122.131 104.563 117.651 107.976 114.152C111.475 110.568 115.443 107.581 119.88 105.192C128.243 100.584 136.648 98.28 145.096 98.28C149.107 98.28 153.16 98.92 157.256 100.2C161.437 101.395 164.595 102.632 166.728 103.912L169.8 105.704C171.336 106.643 172.531 107.411 173.384 108.008C175.603 109.8 176.712 111.848 176.712 114.152C176.712 116.371 175.816 118.717 174.024 121.192C170.696 125.8 167.709 128.104 165.064 128.104C163.528 128.104 161.352 127.165 158.536 125.288C154.952 122.387 150.173 120.936 144.2 120.936C138.653 120.936 133.192 122.856 127.816 126.696C125.256 128.573 123.123 131.219 121.416 134.632C119.709 138.045 118.856 141.928 118.856 146.28C118.856 150.547 119.709 154.387 121.416 157.8C123.123 161.213 125.299 163.901 127.944 165.864C133.149 169.619 138.568 171.496 144.2 171.496C146.845 171.496 149.32 171.155 151.624 170.472C154.013 169.789 155.72 169.107 156.744 168.424ZM183.075 159.336C183.075 149.096 186.659 140.648 193.827 133.992C200.995 127.336 209.187 124.008 218.403 124.008C227.619 124.008 235.768 127.336 242.851 133.992C249.934 140.563 253.475 148.968 253.475 159.208C253.475 166.291 251.64 172.605 247.971 178.152C244.302 183.613 239.822 187.667 234.531 190.312C229.326 192.872 223.907 194.152 218.275 194.152C212.643 194.152 207.182 192.787 201.891 190.056C196.6 187.24 192.12 183.144 188.451 177.768C184.867 172.307 183.075 166.163 183.075 159.336ZM209.827 168.552C212.558 170.6 215.331 171.624 218.147 171.624C220.963 171.624 223.779 170.557 226.595 168.424C229.411 166.291 230.819 163.133 230.819 158.952C230.819 154.771 229.496 151.656 226.851 149.608C224.206 147.56 221.347 146.536 218.275 146.536C215.203 146.536 212.344 147.603 209.699 149.736C207.054 151.869 205.731 155.027 205.731 159.208C205.731 163.304 207.096 166.419 209.827 168.552ZM261.745 105.064C261.745 103.101 261.788 101.651 261.873 100.712C262.044 99.688 262.428 98.536 263.025 97.256C264.22 94.952 267.548 93.8 273.009 93.8C278.214 93.8 281.457 94.952 282.737 97.256C283.42 98.536 283.804 99.688 283.889 100.712C284.06 101.736 284.145 103.229 284.145 105.192V164.456C284.145 167.528 284.401 169.491 284.913 170.344C285.425 171.112 286.534 171.496 288.241 171.496C290.033 171.496 291.228 171.581 291.825 171.752C292.422 171.837 293.148 172.179 294.001 172.776C295.708 173.885 296.561 176.915 296.561 181.864C296.561 187.24 295.708 190.525 294.001 191.72C291.782 193.256 286.492 193.512 278.129 192.488C271.558 191.635 267.292 189.459 265.329 185.96C262.94 181.779 261.745 175.123 261.745 165.992V105.064ZM301.7 159.336C301.7 149.096 305.284 140.648 312.452 133.992C319.62 127.336 327.812 124.008 337.028 124.008C346.244 124.008 354.393 127.336 361.476 133.992C368.559 140.563 372.1 148.968 372.1 159.208C372.1 166.291 370.265 172.605 366.596 178.152C362.927 183.613 358.447 187.667 353.156 190.312C347.951 192.872 342.532 194.152 336.9 194.152C331.268 194.152 325.807 192.787 320.516 190.056C315.225 187.24 310.745 183.144 307.076 177.768C303.492 172.307 301.7 166.163 301.7 159.336ZM328.452 168.552C331.183 170.6 333.956 171.624 336.772 171.624C339.588 171.624 342.404 170.557 345.22 168.424C348.036 166.291 349.444 163.133 349.444 158.952C349.444 154.771 348.121 151.656 345.476 149.608C342.831 147.56 339.972 146.536 336.9 146.536C333.828 146.536 330.969 147.603 328.324 149.736C325.679 151.869 324.356 155.027 324.356 159.208C324.356 163.304 325.721 166.419 328.452 168.552ZM410.322 192.744C401.703 192.744 394.535 189.501 388.818 183.016C383.186 176.445 380.37 168.467 380.37 159.08V136.68C380.37 134.632 380.413 133.139 380.498 132.2C380.669 131.261 381.053 130.152 381.65 128.872C382.845 126.568 386.173 125.416 391.634 125.416C397.607 125.416 401.106 127.037 402.13 130.28C402.642 131.645 402.898 133.821 402.898 136.808V159.208C402.898 162.707 403.879 165.437 405.842 167.4C407.89 169.363 410.578 170.344 413.906 170.344C417.319 170.344 420.05 169.32 422.098 167.272C424.231 165.224 425.298 162.536 425.298 159.208V136.552C425.298 134.589 425.341 133.139 425.426 132.2C425.597 131.176 426.023 130.024 426.706 128.744C427.815 126.525 431.101 125.416 436.562 125.416C441.938 125.416 445.223 126.568 446.418 128.872C447.015 130.152 447.357 131.304 447.442 132.328C447.613 133.267 447.698 134.717 447.698 136.68V181.992C447.698 183.869 447.613 185.32 447.442 186.344C447.357 187.283 446.973 188.349 446.29 189.544C445.01 191.763 441.725 192.872 436.434 192.872C431.229 192.872 428.029 191.848 426.834 189.8C425.981 188.349 425.554 186.6 425.554 184.552C425.213 185.149 424.445 186.003 423.25 187.112C422.055 188.221 420.903 189.16 419.794 189.928C416.893 191.805 413.735 192.744 410.322 192.744ZM503.819 126.312C505.44 126.824 506.763 127.72 507.787 129C508.896 130.195 509.451 132.157 509.451 134.888C509.451 137.619 508.64 140.605 507.019 143.848C505.398 147.091 503.051 148.712 499.979 148.712C498.443 148.712 496.95 148.371 495.499 147.688C494.134 147.005 492.299 146.664 489.995 146.664C487.691 146.664 485.515 147.475 483.467 149.096C481.504 150.717 480.523 152.68 480.523 154.984V181.864C480.523 183.827 480.438 185.32 480.267 186.344C480.182 187.283 479.798 188.392 479.115 189.672C477.835 191.891 474.507 193 469.131 193C465.035 193 462.091 192.275 460.299 190.824C458.934 189.629 458.166 187.795 457.995 185.32C457.995 184.467 457.995 183.229 457.995 181.608V136.68C457.995 134.717 458.038 133.267 458.123 132.328C458.294 131.304 458.678 130.195 459.275 129C460.47 126.696 463.798 125.544 469.259 125.544C474.379 125.544 477.579 126.525 478.859 128.488C479.798 129.853 480.267 131.261 480.267 132.712C480.694 132.115 481.291 131.389 482.059 130.536C482.912 129.683 484.662 128.531 487.307 127.08C489.952 125.629 492.256 124.904 494.219 124.904C496.267 124.904 497.974 125.032 499.339 125.288C500.704 125.459 502.198 125.8 503.819 126.312ZM514.507 186.984C512.886 185.96 512.075 184.339 512.075 182.12C512.075 179.901 513.696 176.531 516.939 172.008C517.878 170.557 519.371 169.832 521.419 169.832C523.552 169.832 526.411 170.899 529.995 173.032C533.579 175.08 536.822 176.104 539.723 176.104C544.928 176.104 547.531 175.08 547.531 173.032C547.531 171.411 544.672 170.216 538.955 169.448C533.579 168.68 528.246 166.675 522.955 163.432C520.48 161.896 518.432 159.507 516.811 156.264C515.19 152.936 514.379 149.011 514.379 144.488C514.379 131.005 523.638 124.264 542.155 124.264C548.214 124.264 554.443 125.715 560.843 128.616C563.83 129.981 565.323 131.688 565.323 133.736C565.323 135.784 564.384 138.301 562.507 141.288C560.63 144.275 558.71 145.768 556.747 145.768C555.723 145.768 553.803 145.128 550.987 143.848C548.256 142.568 545.27 141.928 542.027 141.928C536.992 141.928 534.475 142.867 534.475 144.744C534.475 147.304 537.376 148.968 543.179 149.736C548.811 150.333 554.272 151.955 559.563 154.6C562.038 155.795 564.086 157.885 565.707 160.872C567.414 163.773 568.267 167.443 568.267 171.88C568.267 176.317 567.414 180.115 565.707 183.272C564.086 186.344 561.782 188.648 558.795 190.184C553.334 192.829 546.464 194.152 538.187 194.152C529.995 194.152 522.102 191.763 514.507 186.984Z" fill="#FF74B3"/>
<g filter="url(#filter0_d_12_161)">
<circle cx="574" cy="569" r="93" fill="white"/>
</g>
<circle cx="842" cy="569" r="93" fill="#FCBAD0"/>
<circle cx="1117" cy="569" r="93" fill="#FF74B3"/>
<circle cx="1379" cy="569" r="93" fill="#0E0A1D"/>
<path d="M474.146 410.549H476.64C477.259 410.549 477.699 410.581 477.96 410.646C478.253 410.679 478.53 410.842 478.791 411.135C479.052 411.429 479.182 411.869 479.182 412.455C479.182 413.009 479.117 413.629 478.987 414.313C478.889 414.965 478.644 415.536 478.253 416.025C477.862 416.514 477.487 416.791 477.129 416.856C476.77 416.921 476.232 416.954 475.515 416.954H473.07L472.19 422.332H474.684C475.303 422.332 475.743 422.364 476.004 422.43C476.297 422.462 476.574 422.625 476.835 422.919C477.096 423.212 477.226 423.652 477.226 424.239C477.226 424.793 477.177 425.347 477.08 425.901C476.982 426.455 476.819 426.96 476.591 427.417C476.395 427.873 476.118 428.199 475.76 428.395C475.238 428.655 474.505 428.786 473.559 428.786H471.115C470.789 430.807 470.593 432.062 470.528 432.551L470.43 433.089C470.3 433.806 470.186 434.311 470.088 434.604C470.023 434.898 469.86 435.256 469.599 435.68C469.077 436.43 467.871 436.804 465.981 436.804C464.09 436.804 463.145 436.201 463.145 434.995C463.145 434.963 463.275 434.115 463.536 432.453L464.123 428.786H456.838C456.512 430.807 456.316 432.062 456.251 432.551L456.153 433.089C456.023 433.806 455.909 434.311 455.811 434.604C455.746 434.898 455.583 435.256 455.322 435.68C454.8 436.43 453.594 436.804 451.704 436.804C449.813 436.804 448.868 436.201 448.868 434.995C448.868 434.963 448.998 434.115 449.259 432.453L449.846 428.786H446.619C445.25 428.786 444.435 428.492 444.174 427.906C444.076 427.645 444.028 427.27 444.028 426.781C444.028 426.26 444.076 425.673 444.174 425.021C444.305 424.337 444.565 423.75 444.957 423.261C445.38 422.772 445.771 422.495 446.13 422.43C446.489 422.364 447.026 422.332 447.743 422.332H450.922L451.802 416.954H448.575C447.173 416.954 446.358 416.677 446.13 416.122C446.032 415.829 445.983 415.438 445.983 414.949C445.983 414.46 446.032 413.89 446.13 413.238C446.26 412.553 446.521 411.966 446.912 411.477C447.336 410.989 447.727 410.711 448.086 410.646C448.444 410.581 448.982 410.549 449.699 410.549H452.877L453.709 405.512C453.741 405.317 453.774 405.007 453.806 404.583C453.871 404.127 453.92 403.817 453.953 403.654C454.018 403.459 454.1 403.198 454.197 402.872C454.295 402.546 454.426 402.318 454.589 402.188C454.784 402.057 455.029 401.894 455.322 401.699C455.778 401.405 456.61 401.259 457.816 401.259C459.022 401.259 459.853 401.438 460.309 401.797C460.798 402.122 461.043 402.628 461.043 403.312C461.043 403.41 460.961 403.98 460.798 405.024L459.869 410.549H467.154L467.985 405.512C468.018 405.317 468.051 405.007 468.083 404.583C468.148 404.127 468.197 403.817 468.23 403.654C468.295 403.459 468.377 403.198 468.474 402.872C468.572 402.546 468.703 402.318 468.866 402.188C469.061 402.057 469.306 401.894 469.599 401.699C470.055 401.405 470.886 401.259 472.093 401.259C473.299 401.259 474.13 401.438 474.586 401.797C475.075 402.122 475.32 402.628 475.32 403.312C475.32 403.41 475.238 403.98 475.075 405.024L474.146 410.549ZM465.199 422.332L466.079 416.954H458.842L457.913 422.332H465.199ZM505.586 401.161C506.336 401.161 506.89 401.194 507.248 401.259C507.639 401.291 508.063 401.438 508.519 401.699C509.008 401.96 509.351 402.4 509.546 403.019C509.742 403.638 509.84 404.469 509.84 405.512C509.84 406.556 509.742 407.387 509.546 408.006C509.351 408.625 509.008 409.065 508.519 409.326C508.031 409.554 507.591 409.701 507.199 409.766C506.841 409.799 506.27 409.815 505.488 409.815H490.527V414.753H500.159C500.941 414.753 501.511 414.786 501.87 414.851C502.261 414.884 502.701 415.03 503.19 415.291C504.038 415.78 504.461 417.068 504.461 419.154C504.461 421.436 503.842 422.788 502.603 423.212C502.082 423.375 501.251 423.456 500.11 423.456H490.527V432.697C490.527 433.48 490.494 434.05 490.429 434.409C490.396 434.767 490.25 435.191 489.989 435.68C489.532 436.56 488.261 437 486.175 437C483.893 437 482.557 436.381 482.166 435.142C481.97 434.621 481.872 433.789 481.872 432.648V405.464C481.872 403.801 482.182 402.677 482.801 402.09C483.421 401.471 484.594 401.161 486.322 401.161H505.586ZM536.717 401.161C537.467 401.161 538.021 401.194 538.38 401.259C538.771 401.291 539.195 401.438 539.651 401.699C540.14 401.96 540.482 402.4 540.678 403.019C540.873 403.638 540.971 404.469 540.971 405.512C540.971 406.556 540.873 407.387 540.678 408.006C540.482 408.625 540.14 409.065 539.651 409.326C539.162 409.554 538.722 409.701 538.331 409.766C537.972 409.799 537.402 409.815 536.62 409.815H521.658V414.753H531.29C532.072 414.753 532.643 414.786 533.001 414.851C533.393 414.884 533.833 415.03 534.322 415.291C535.169 415.78 535.593 417.068 535.593 419.154C535.593 421.436 534.974 422.788 533.735 423.212C533.213 423.375 532.382 423.456 531.241 423.456H521.658V432.697C521.658 433.48 521.626 434.05 521.56 434.409C521.528 434.767 521.381 435.191 521.12 435.68C520.664 436.56 519.393 437 517.307 437C515.025 437 513.688 436.381 513.297 435.142C513.102 434.621 513.004 433.789 513.004 432.648V405.464C513.004 403.801 513.314 402.677 513.933 402.09C514.552 401.471 515.726 401.161 517.453 401.161H536.717ZM567.849 401.161C568.599 401.161 569.153 401.194 569.511 401.259C569.902 401.291 570.326 401.438 570.783 401.699C571.271 401.96 571.614 402.4 571.809 403.019C572.005 403.638 572.103 404.469 572.103 405.512C572.103 406.556 572.005 407.387 571.809 408.006C571.614 408.625 571.271 409.065 570.783 409.326C570.294 409.554 569.854 409.701 569.462 409.766C569.104 409.799 568.533 409.815 567.751 409.815H552.79V414.753H562.422C563.204 414.753 563.774 414.786 564.133 414.851C564.524 414.884 564.964 415.03 565.453 415.291C566.301 415.78 566.724 417.068 566.724 419.154C566.724 421.436 566.105 422.788 564.866 423.212C564.345 423.375 563.514 423.456 562.373 423.456H552.79V432.697C552.79 433.48 552.757 434.05 552.692 434.409C552.659 434.767 552.513 435.191 552.252 435.68C551.795 436.56 550.524 437 548.438 437C546.156 437 544.82 436.381 544.429 435.142C544.233 434.621 544.135 433.789 544.135 432.648V405.464C544.135 403.801 544.445 402.677 545.064 402.09C545.684 401.471 546.857 401.161 548.585 401.161H567.849ZM598.98 401.161C599.73 401.161 600.284 401.194 600.643 401.259C601.034 401.291 601.458 401.438 601.914 401.699C602.403 401.96 602.745 402.4 602.941 403.019C603.136 403.638 603.234 404.469 603.234 405.512C603.234 406.556 603.136 407.387 602.941 408.006C602.745 408.625 602.403 409.065 601.914 409.326C601.425 409.554 600.985 409.701 600.594 409.766C600.235 409.799 599.665 409.815 598.883 409.815H583.921V414.753H593.553C594.336 414.753 594.906 414.786 595.265 414.851C595.656 414.884 596.096 415.03 596.585 415.291C597.432 415.78 597.856 417.068 597.856 419.154C597.856 421.436 597.237 422.788 595.998 423.212C595.476 423.375 594.645 423.456 593.504 423.456H583.921V432.697C583.921 433.48 583.889 434.05 583.823 434.409C583.791 434.767 583.644 435.191 583.383 435.68C582.927 436.56 581.656 437 579.57 437C577.288 437 575.952 436.381 575.56 435.142C575.365 434.621 575.267 433.789 575.267 432.648V405.464C575.267 403.801 575.577 402.677 576.196 402.09C576.815 401.471 577.989 401.161 579.716 401.161H598.98ZM630.112 401.161C630.862 401.161 631.416 401.194 631.774 401.259C632.166 401.291 632.589 401.438 633.046 401.699C633.535 401.96 633.877 402.4 634.072 403.019C634.268 403.638 634.366 404.469 634.366 405.512C634.366 406.556 634.268 407.387 634.072 408.006C633.877 408.625 633.535 409.065 633.046 409.326C632.557 409.554 632.117 409.701 631.725 409.766C631.367 409.799 630.796 409.815 630.014 409.815H615.053V414.753H624.685C625.467 414.753 626.038 414.786 626.396 414.851C626.787 414.884 627.227 415.03 627.716 415.291C628.564 415.78 628.987 417.068 628.987 419.154C628.987 421.436 628.368 422.788 627.129 423.212C626.608 423.375 625.777 423.456 624.636 423.456H615.053V432.697C615.053 433.48 615.02 434.05 614.955 434.409C614.922 434.767 614.776 435.191 614.515 435.68C614.059 436.56 612.787 437 610.701 437C608.419 437 607.083 436.381 606.692 435.142C606.496 434.621 606.399 433.789 606.399 432.648V405.464C606.399 403.801 606.708 402.677 607.328 402.09C607.947 401.471 609.12 401.161 610.848 401.161H630.112ZM661.244 401.161C661.993 401.161 662.547 401.194 662.906 401.259C663.297 401.291 663.721 401.438 664.177 401.699C664.666 401.96 665.008 402.4 665.204 403.019C665.399 403.638 665.497 404.469 665.497 405.512C665.497 406.556 665.399 407.387 665.204 408.006C665.008 408.625 664.666 409.065 664.177 409.326C663.688 409.554 663.248 409.701 662.857 409.766C662.498 409.799 661.928 409.815 661.146 409.815H646.184V414.753H655.816C656.599 414.753 657.169 414.786 657.528 414.851C657.919 414.884 658.359 415.03 658.848 415.291C659.695 415.78 660.119 417.068 660.119 419.154C660.119 421.436 659.5 422.788 658.261 423.212C657.739 423.375 656.908 423.456 655.767 423.456H646.184V432.697C646.184 433.48 646.152 434.05 646.086 434.409C646.054 434.767 645.907 435.191 645.646 435.68C645.19 436.56 643.919 437 641.833 437C639.551 437 638.215 436.381 637.823 435.142C637.628 434.621 637.53 433.789 637.53 432.648V405.464C637.53 403.801 637.84 402.677 638.459 402.09C639.078 401.471 640.252 401.161 641.979 401.161H661.244Z" fill="#0E0A1D"/>
<path d="M736.798 410.549H739.292C739.911 410.549 740.351 410.581 740.612 410.646C740.905 410.679 741.182 410.842 741.443 411.135C741.704 411.429 741.834 411.869 741.834 412.455C741.834 413.009 741.769 413.629 741.639 414.313C741.541 414.965 741.297 415.536 740.905 416.025C740.514 416.514 740.139 416.791 739.781 416.856C739.422 416.921 738.884 416.954 738.167 416.954H735.723L734.843 422.332H737.336C737.955 422.332 738.396 422.364 738.656 422.43C738.95 422.462 739.227 422.625 739.487 422.919C739.748 423.212 739.879 423.652 739.879 424.239C739.879 424.793 739.83 425.347 739.732 425.901C739.634 426.455 739.471 426.96 739.243 427.417C739.047 427.873 738.77 428.199 738.412 428.395C737.89 428.655 737.157 428.786 736.212 428.786H733.767C733.441 430.807 733.245 432.062 733.18 432.551L733.082 433.089C732.952 433.806 732.838 434.311 732.74 434.604C732.675 434.898 732.512 435.256 732.251 435.68C731.73 436.43 730.524 436.804 728.633 436.804C726.743 436.804 725.797 436.201 725.797 434.995C725.797 434.963 725.928 434.115 726.188 432.453L726.775 428.786H719.49C719.164 430.807 718.968 432.062 718.903 432.551L718.805 433.089C718.675 433.806 718.561 434.311 718.463 434.604C718.398 434.898 718.235 435.256 717.974 435.68C717.453 436.43 716.247 436.804 714.356 436.804C712.466 436.804 711.52 436.201 711.52 434.995C711.52 434.963 711.651 434.115 711.911 432.453L712.498 428.786H709.271C707.902 428.786 707.087 428.492 706.826 427.906C706.729 427.645 706.68 427.27 706.68 426.781C706.68 426.26 706.729 425.673 706.826 425.021C706.957 424.337 707.218 423.75 707.609 423.261C708.033 422.772 708.424 422.495 708.782 422.43C709.141 422.364 709.679 422.332 710.396 422.332H713.574L714.454 416.954H711.227C709.825 416.954 709.01 416.677 708.782 416.122C708.684 415.829 708.636 415.438 708.636 414.949C708.636 414.46 708.684 413.89 708.782 413.238C708.913 412.553 709.173 411.966 709.565 411.477C709.988 410.989 710.379 410.711 710.738 410.646C711.097 410.581 711.634 410.549 712.351 410.549H715.53L716.361 405.512C716.393 405.317 716.426 405.007 716.459 404.583C716.524 404.127 716.573 403.817 716.605 403.654C716.67 403.459 716.752 403.198 716.85 402.872C716.947 402.546 717.078 402.318 717.241 402.188C717.436 402.057 717.681 401.894 717.974 401.699C718.431 401.405 719.262 401.259 720.468 401.259C721.674 401.259 722.505 401.438 722.961 401.797C723.45 402.122 723.695 402.628 723.695 403.312C723.695 403.41 723.613 403.98 723.45 405.024L722.521 410.549H729.807L730.638 405.512C730.67 405.317 730.703 405.007 730.735 404.583C730.801 404.127 730.85 403.817 730.882 403.654C730.947 403.459 731.029 403.198 731.127 402.872C731.224 402.546 731.355 402.318 731.518 402.188C731.713 402.057 731.958 401.894 732.251 401.699C732.708 401.405 733.539 401.259 734.745 401.259C735.951 401.259 736.782 401.438 737.238 401.797C737.727 402.122 737.972 402.628 737.972 403.312C737.972 403.41 737.89 403.98 737.727 405.024L736.798 410.549ZM727.851 422.332L728.731 416.954H721.495L720.566 422.332H727.851ZM768.238 401.161C768.988 401.161 769.542 401.194 769.9 401.259C770.292 401.291 770.715 401.438 771.172 401.699C771.661 401.96 772.003 402.4 772.198 403.019C772.394 403.638 772.492 404.469 772.492 405.512C772.492 406.556 772.394 407.387 772.198 408.006C772.003 408.625 771.661 409.065 771.172 409.326C770.683 409.554 770.243 409.701 769.852 409.766C769.493 409.799 768.923 409.815 768.14 409.815H753.179V414.753H762.811C763.593 414.753 764.164 414.786 764.522 414.851C764.913 414.884 765.353 415.03 765.842 415.291C766.69 415.78 767.114 417.068 767.114 419.154C767.114 421.436 766.494 422.788 765.256 423.212C764.734 423.375 763.903 423.456 762.762 423.456H753.179V432.697C753.179 433.48 753.146 434.05 753.081 434.409C753.048 434.767 752.902 435.191 752.641 435.68C752.185 436.56 750.913 437 748.827 437C746.546 437 745.209 436.381 744.818 435.142C744.622 434.621 744.525 433.789 744.525 432.648V405.464C744.525 403.801 744.834 402.677 745.454 402.09C746.073 401.471 747.246 401.161 748.974 401.161H768.238ZM798.05 427.612L798.93 426.977C800.038 426.325 800.82 425.999 801.276 425.999C802.287 425.999 803.379 426.912 804.552 428.737C805.269 429.878 805.628 430.791 805.628 431.475C805.628 432.16 805.4 432.73 804.944 433.186C804.52 433.643 804.015 434.05 803.428 434.409C802.841 434.767 802.271 435.109 801.717 435.435C801.195 435.761 800.103 436.185 798.441 436.707C796.778 437.228 795.165 437.489 793.6 437.489C792.068 437.489 790.504 437.293 788.906 436.902C787.342 436.478 785.712 435.794 784.017 434.849C782.355 433.871 780.855 432.697 779.519 431.328C778.182 429.927 777.074 428.15 776.194 425.999C775.347 423.815 774.923 421.452 774.923 418.909C774.923 416.367 775.347 414.069 776.194 412.015C777.042 409.929 778.117 408.218 779.421 406.881C780.757 405.512 782.273 404.372 783.968 403.459C787.163 401.699 790.373 400.819 793.6 400.819C795.132 400.819 796.68 401.063 798.245 401.552C799.842 402.008 801.048 402.481 801.863 402.97L803.037 403.654C803.623 404.013 804.08 404.306 804.406 404.535C805.253 405.219 805.677 406.001 805.677 406.881C805.677 407.729 805.335 408.625 804.65 409.571C803.379 411.331 802.238 412.211 801.228 412.211C800.641 412.211 799.81 411.852 798.734 411.135C797.365 410.027 795.54 409.473 793.258 409.473C791.139 409.473 789.053 410.206 787 411.673C786.022 412.39 785.207 413.401 784.555 414.704C783.903 416.008 783.577 417.491 783.577 419.154C783.577 420.784 783.903 422.25 784.555 423.554C785.207 424.858 786.038 425.885 787.048 426.635C789.037 428.069 791.107 428.786 793.258 428.786C794.268 428.786 795.214 428.655 796.094 428.395C797.006 428.134 797.658 427.873 798.05 427.612ZM834.363 417.785C836.287 420.066 837.248 422.625 837.248 425.461C837.183 428.721 836.058 431.459 833.874 433.675C831.723 435.859 829.099 436.951 826.003 436.951H813.144C810.862 436.951 809.525 436.332 809.134 435.093C808.939 434.539 808.841 433.692 808.841 432.551V405.415C808.841 404.632 808.857 404.062 808.89 403.703C808.955 403.345 809.118 402.921 809.379 402.432C809.835 401.552 811.106 401.112 813.192 401.112H825.514C828.512 401.112 831.022 402.155 833.043 404.241C835.162 406.36 836.221 408.902 836.221 411.869C836.221 414.02 835.602 415.992 834.363 417.785ZM828.594 424.972C828.594 424.19 828.496 423.571 828.301 423.114C828.138 422.658 827.844 422.332 827.42 422.136C826.769 421.876 825.856 421.745 824.682 421.745C823.509 421.745 822.629 421.517 822.042 421.061C821.455 420.604 821.162 419.675 821.162 418.274C821.162 416.839 821.455 415.894 822.042 415.438C822.661 414.982 823.672 414.753 825.074 414.753C826.377 414.753 827.16 414.411 827.42 413.727C827.518 413.368 827.567 412.781 827.567 411.966C827.567 411.152 827.29 410.581 826.736 410.255C826.214 409.929 825.416 409.766 824.34 409.766H817.495V428.297H825.514C827.567 428.297 828.594 427.189 828.594 424.972ZM861.132 403.703L874.333 430.986C874.887 432.094 875.164 432.926 875.164 433.48C875.164 434.653 874.219 435.712 872.329 436.658C871.22 437.212 870.34 437.489 869.688 437.489C869.069 437.489 868.547 437.342 868.124 437.049C867.733 436.756 867.439 436.446 867.244 436.12C867.081 435.794 866.836 435.305 866.51 434.653L863.968 429.373H850.424L847.882 434.653C847.556 435.305 847.295 435.778 847.099 436.071C846.936 436.364 846.643 436.674 846.219 437C845.828 437.293 845.307 437.44 844.655 437.44C844.035 437.44 843.172 437.163 842.063 436.609C840.173 435.696 839.228 434.653 839.228 433.48C839.228 432.926 839.505 432.094 840.059 430.986L853.26 403.654C853.619 402.905 854.156 402.302 854.874 401.845C855.623 401.389 856.406 401.161 857.22 401.161C858.981 401.161 860.284 402.008 861.132 403.703ZM857.172 415.438L853.945 422.136H860.447L857.172 415.438ZM882.188 401.112L891.233 401.161C895.96 401.161 900.116 402.872 903.701 406.295C907.287 409.685 909.079 413.873 909.079 418.86C909.079 423.815 907.319 428.069 903.799 431.622C900.311 435.175 896.074 436.951 891.087 436.951H882.139C880.151 436.951 878.912 436.544 878.423 435.729C878.032 435.044 877.836 434.001 877.836 432.6V405.415C877.836 404.632 877.853 404.062 877.885 403.703C877.95 403.345 878.113 402.921 878.374 402.432C878.831 401.552 880.102 401.112 882.188 401.112ZM891.233 428.297C893.58 428.297 895.699 427.433 897.589 425.706C899.48 423.945 900.425 421.745 900.425 419.105C900.425 416.465 899.496 414.264 897.638 412.504C895.813 410.711 893.662 409.815 891.184 409.815H886.491V428.297H891.233ZM915.245 405.317C916.19 403.98 917.51 402.872 919.205 401.992C920.933 401.079 922.921 400.623 925.17 400.623C927.42 400.623 929.375 401.063 931.038 401.943C932.733 402.823 934.053 403.915 934.998 405.219C935.976 406.523 936.758 408.055 937.345 409.815C938.323 412.749 938.812 415.862 938.812 419.154C938.812 425.054 937.541 429.731 934.998 433.186C934.053 434.49 932.733 435.566 931.038 436.413C929.375 437.261 927.436 437.685 925.219 437.685C923.003 437.685 921.031 437.261 919.303 436.413C917.608 435.533 916.272 434.458 915.294 433.186C914.349 431.915 913.566 430.399 912.947 428.639C912.002 425.836 911.529 422.658 911.529 419.105C911.529 415.845 911.904 413.058 912.654 410.744C913.436 408.43 914.3 406.621 915.245 405.317ZM925.122 428.981C928.479 428.981 930.158 425.787 930.158 419.398V419.105C930.158 412.553 928.495 409.277 925.17 409.277C921.846 409.277 920.183 412.569 920.183 419.154C920.183 425.706 921.829 428.981 925.122 428.981Z" fill="#0E0A1D"/>
<path d="M1025.56 410.549H1028.05C1028.67 410.549 1029.11 410.581 1029.37 410.646C1029.67 410.679 1029.94 410.842 1030.2 411.135C1030.47 411.429 1030.6 411.869 1030.6 412.455C1030.6 413.009 1030.53 413.629 1030.4 414.313C1030.3 414.965 1030.06 415.536 1029.67 416.025C1029.28 416.514 1028.9 416.791 1028.54 416.856C1028.18 416.921 1027.65 416.954 1026.93 416.954H1024.48L1023.6 422.332H1026.1C1026.72 422.332 1027.16 422.364 1027.42 422.43C1027.71 422.462 1027.99 422.625 1028.25 422.919C1028.51 423.212 1028.64 423.652 1028.64 424.239C1028.64 424.793 1028.59 425.347 1028.49 425.901C1028.4 426.455 1028.23 426.96 1028 427.417C1027.81 427.873 1027.53 428.199 1027.17 428.395C1026.65 428.655 1025.92 428.786 1024.97 428.786H1022.53C1022.2 430.807 1022.01 432.062 1021.94 432.551L1021.84 433.089C1021.71 433.806 1021.6 434.311 1021.5 434.604C1021.44 434.898 1021.27 435.256 1021.01 435.68C1020.49 436.43 1019.29 436.804 1017.39 436.804C1015.5 436.804 1014.56 436.201 1014.56 434.995C1014.56 434.963 1014.69 434.115 1014.95 432.453L1015.54 428.786H1008.25C1007.93 430.807 1007.73 432.062 1007.66 432.551L1007.57 433.089C1007.44 433.806 1007.32 434.311 1007.22 434.604C1007.16 434.898 1007 435.256 1006.74 435.68C1006.21 436.43 1005.01 436.804 1003.12 436.804C1001.23 436.804 1000.28 436.201 1000.28 434.995C1000.28 434.963 1000.41 434.115 1000.67 432.453L1001.26 428.786H998.033C996.664 428.786 995.849 428.492 995.588 427.906C995.49 427.645 995.442 427.27 995.442 426.781C995.442 426.26 995.49 425.673 995.588 425.021C995.719 424.337 995.979 423.75 996.37 423.261C996.794 422.772 997.185 422.495 997.544 422.43C997.902 422.364 998.44 422.332 999.157 422.332H1002.34L1003.22 416.954H999.989C998.587 416.954 997.772 416.677 997.544 416.122C997.446 415.829 997.397 415.438 997.397 414.949C997.397 414.46 997.446 413.89 997.544 413.238C997.674 412.553 997.935 411.966 998.326 411.477C998.75 410.989 999.141 410.711 999.5 410.646C999.858 410.581 1000.4 410.549 1001.11 410.549H1004.29L1005.12 405.512C1005.16 405.317 1005.19 405.007 1005.22 404.583C1005.29 404.127 1005.33 403.817 1005.37 403.654C1005.43 403.459 1005.51 403.198 1005.61 402.872C1005.71 402.546 1005.84 402.318 1006 402.188C1006.2 402.057 1006.44 401.894 1006.74 401.699C1007.19 401.405 1008.02 401.259 1009.23 401.259C1010.44 401.259 1011.27 401.438 1011.72 401.797C1012.21 402.122 1012.46 402.628 1012.46 403.312C1012.46 403.41 1012.38 403.98 1012.21 405.024L1011.28 410.549H1018.57L1019.4 405.512C1019.43 405.317 1019.46 405.007 1019.5 404.583C1019.56 404.127 1019.61 403.817 1019.64 403.654C1019.71 403.459 1019.79 403.198 1019.89 402.872C1019.99 402.546 1020.12 402.318 1020.28 402.188C1020.48 402.057 1020.72 401.894 1021.01 401.699C1021.47 401.405 1022.3 401.259 1023.51 401.259C1024.71 401.259 1025.54 401.438 1026 401.797C1026.49 402.122 1026.73 402.628 1026.73 403.312C1026.73 403.41 1026.65 403.98 1026.49 405.024L1025.56 410.549ZM1016.61 422.332L1017.49 416.954H1010.26L1009.33 422.332H1016.61ZM1057 401.161C1057.75 401.161 1058.3 401.194 1058.66 401.259C1059.05 401.291 1059.48 401.438 1059.93 401.699C1060.42 401.96 1060.76 402.4 1060.96 403.019C1061.16 403.638 1061.25 404.469 1061.25 405.512C1061.25 406.556 1061.16 407.387 1060.96 408.006C1060.76 408.625 1060.42 409.065 1059.93 409.326C1059.44 409.554 1059 409.701 1058.61 409.766C1058.25 409.799 1057.68 409.815 1056.9 409.815H1041.94V414.753H1051.57C1052.35 414.753 1052.93 414.786 1053.28 414.851C1053.68 414.884 1054.12 415.03 1054.6 415.291C1055.45 415.78 1055.88 417.068 1055.88 419.154C1055.88 421.436 1055.26 422.788 1054.02 423.212C1053.5 423.375 1052.66 423.456 1051.52 423.456H1041.94V432.697C1041.94 433.48 1041.91 434.05 1041.84 434.409C1041.81 434.767 1041.66 435.191 1041.4 435.68C1040.95 436.56 1039.68 437 1037.59 437C1035.31 437 1033.97 436.381 1033.58 435.142C1033.38 434.621 1033.29 433.789 1033.29 432.648V405.464C1033.29 403.801 1033.6 402.677 1034.22 402.09C1034.83 401.471 1036.01 401.161 1037.74 401.161H1057ZM1088.13 401.161C1088.88 401.161 1089.44 401.194 1089.79 401.259C1090.18 401.291 1090.61 401.438 1091.06 401.699C1091.55 401.96 1091.9 402.4 1092.09 403.019C1092.29 403.638 1092.39 404.469 1092.39 405.512C1092.39 406.556 1092.29 407.387 1092.09 408.006C1091.9 408.625 1091.55 409.065 1091.06 409.326C1090.58 409.554 1090.14 409.701 1089.74 409.766C1089.39 409.799 1088.82 409.815 1088.03 409.815H1073.07V414.753H1082.7C1083.49 414.753 1084.06 414.786 1084.42 414.851C1084.81 414.884 1085.25 415.03 1085.74 415.291C1086.58 415.78 1087.01 417.068 1087.01 419.154C1087.01 421.436 1086.39 422.788 1085.15 423.212C1084.63 423.375 1083.8 423.456 1082.66 423.456H1073.07V432.697C1073.07 433.48 1073.04 434.05 1072.97 434.409C1072.94 434.767 1072.8 435.191 1072.53 435.68C1072.08 436.56 1070.81 437 1068.72 437C1066.44 437 1065.1 436.381 1064.71 435.142C1064.52 434.621 1064.42 433.789 1064.42 432.648V405.464C1064.42 403.801 1064.73 402.677 1065.35 402.09C1065.97 401.471 1067.14 401.161 1068.87 401.161H1088.13ZM1115.99 401.21C1118.27 401.21 1119.61 401.829 1120 403.068C1120.19 403.589 1120.29 404.502 1120.29 405.806C1120.29 407.11 1119.87 408.739 1119.02 410.695C1118.17 412.618 1117.14 414.525 1115.94 416.416C1114.76 418.306 1113.57 420.213 1112.37 422.136C1109.5 426.798 1108.07 430.546 1108.07 433.382C1108.07 434.099 1108.03 434.637 1107.97 434.995C1107.9 435.321 1107.74 435.68 1107.48 436.071C1107.22 436.43 1106.78 436.674 1106.16 436.804C1105.57 436.935 1104.76 437 1103.71 437C1102.67 437 1101.84 436.935 1101.22 436.804C1100.63 436.674 1100.21 436.413 1099.95 436.022C1099.69 435.631 1099.53 435.272 1099.46 434.946C1099.43 434.588 1099.41 434.034 1099.41 433.284C1099.41 431.165 1099.77 428.998 1100.49 426.781C1101.2 424.532 1102.07 422.527 1103.08 420.767C1104.09 419.007 1105.1 417.394 1106.11 415.927C1107.12 414.427 1107.98 413.156 1108.7 412.113C1109.42 411.037 1109.78 410.288 1109.78 409.864H1098.63C1097.33 409.864 1096.38 409.701 1095.79 409.375C1095.21 409.049 1094.82 408.576 1094.62 407.957C1094.42 407.338 1094.33 406.523 1094.33 405.512C1094.33 404.502 1094.42 403.687 1094.62 403.068C1094.82 402.448 1095.13 402.025 1095.55 401.797C1096.23 401.405 1097.18 401.21 1098.39 401.21H1115.99ZM1139.82 402.334C1140.09 401.878 1140.53 401.568 1141.15 401.405C1141.8 401.21 1142.63 401.112 1143.64 401.112C1144.68 401.112 1145.51 401.226 1146.13 401.454C1146.75 401.65 1147.19 401.992 1147.45 402.481C1147.71 402.937 1147.86 403.361 1147.89 403.752C1147.96 404.143 1147.99 404.714 1147.99 405.464V432.648C1147.99 433.92 1147.83 434.865 1147.5 435.484C1147.21 436.071 1146.74 436.462 1146.08 436.658C1145.46 436.853 1144.68 436.951 1143.74 436.951C1142.79 436.951 1142.04 436.87 1141.49 436.707C1140.93 436.544 1140.51 436.348 1140.22 436.12C1139.92 435.892 1139.71 435.566 1139.58 435.142C1139.38 434.588 1139.29 433.74 1139.29 432.6V426.635H1126.04C1123.76 426.635 1122.4 426.015 1121.98 424.777C1121.82 424.255 1121.73 423.554 1121.73 422.674C1121.73 421.794 1121.78 421.142 1121.88 420.718L1125.94 404.339C1126.13 403.589 1126.3 403.019 1126.43 402.628C1126.59 402.237 1126.88 401.862 1127.31 401.503C1127.76 401.145 1128.33 400.965 1129.02 400.965C1129.7 400.965 1130.45 401.079 1131.27 401.308C1133.55 401.927 1134.69 402.97 1134.69 404.437C1134.69 404.958 1134.58 405.643 1134.35 406.49C1134.32 406.556 1134.3 406.604 1134.3 406.637L1131.32 418.567H1139.29V405.219C1139.29 404.469 1139.3 403.915 1139.34 403.557C1139.4 403.198 1139.56 402.791 1139.82 402.334ZM1177.41 417.785C1179.34 420.066 1180.3 422.625 1180.3 425.461C1180.23 428.721 1179.11 431.459 1176.93 433.675C1174.77 435.859 1172.15 436.951 1169.05 436.951H1156.19C1153.91 436.951 1152.58 436.332 1152.19 435.093C1151.99 434.539 1151.89 433.692 1151.89 432.551V405.415C1151.89 404.632 1151.91 404.062 1151.94 403.703C1152.01 403.345 1152.17 402.921 1152.43 402.432C1152.89 401.552 1154.16 401.112 1156.24 401.112H1168.56C1171.56 401.112 1174.07 402.155 1176.09 404.241C1178.21 406.36 1179.27 408.902 1179.27 411.869C1179.27 414.02 1178.65 415.992 1177.41 417.785ZM1171.64 424.972C1171.64 424.19 1171.55 423.571 1171.35 423.114C1171.19 422.658 1170.9 422.332 1170.47 422.136C1169.82 421.876 1168.91 421.745 1167.73 421.745C1166.56 421.745 1165.68 421.517 1165.09 421.061C1164.51 420.604 1164.21 419.675 1164.21 418.274C1164.21 416.839 1164.51 415.894 1165.09 415.438C1165.71 414.982 1166.72 414.753 1168.12 414.753C1169.43 414.753 1170.21 414.411 1170.47 413.727C1170.57 413.368 1170.62 412.781 1170.62 411.966C1170.62 411.152 1170.34 410.581 1169.79 410.255C1169.27 409.929 1168.47 409.766 1167.39 409.766H1160.55V428.297H1168.56C1170.62 428.297 1171.64 427.189 1171.64 424.972ZM1196.31 400.623C1200.32 400.623 1203.48 401.764 1205.8 404.046C1208.11 406.327 1209.27 408.902 1209.27 411.771C1209.27 414.607 1208 416.66 1205.45 417.931V418.274C1205.78 418.437 1206.25 418.795 1206.87 419.349C1207.52 419.871 1208.05 420.392 1208.44 420.914C1209.51 422.283 1210.05 423.848 1210.05 425.608C1210.05 429.096 1208.75 431.98 1206.14 434.262C1203.53 436.511 1200.26 437.636 1196.31 437.636C1192.4 437.636 1189.14 436.495 1186.53 434.213C1185.55 433.333 1184.69 432.176 1183.94 430.742C1183.68 430.22 1183.5 429.796 1183.4 429.47L1183.31 428.981C1182.95 427.906 1182.77 427.026 1182.77 426.341C1182.77 424.451 1184.36 423.505 1187.56 423.505C1188.86 423.505 1189.73 423.668 1190.15 423.994C1190.7 424.418 1191.19 425.266 1191.62 426.537C1191.94 427.58 1192.84 428.362 1194.31 428.884C1194.93 429.079 1195.61 429.177 1196.36 429.177C1198.09 429.177 1199.36 428.835 1200.17 428.15C1200.99 427.433 1201.4 426.635 1201.4 425.754C1201.4 424.874 1200.99 424.108 1200.17 423.456C1199.39 422.772 1198.45 422.43 1197.34 422.43C1196.26 422.43 1195.53 422.397 1195.14 422.332C1194.75 422.267 1194.32 422.104 1193.87 421.843C1192.99 421.419 1192.55 420.164 1192.55 418.078C1192.55 415.796 1193.15 414.444 1194.36 414.02C1194.91 413.857 1195.76 413.775 1196.9 413.775C1199.37 413.775 1200.61 413.14 1200.61 411.869C1200.61 411.184 1200.29 410.532 1199.64 409.913C1198.98 409.294 1198.07 408.984 1196.9 408.984C1195.76 408.984 1194.84 409.179 1194.16 409.571C1193.48 409.962 1193.05 410.353 1192.89 410.744L1192.6 411.331C1191.85 412.961 1190.77 413.775 1189.37 413.775C1188.55 413.775 1187.66 413.482 1186.68 412.895C1185.05 411.95 1184.23 410.858 1184.23 409.62C1184.23 409.098 1184.61 407.99 1185.36 406.295C1185.49 406.001 1185.85 405.496 1186.43 404.779C1187.02 404.029 1187.69 403.377 1188.44 402.823C1189.22 402.269 1190.3 401.764 1191.67 401.308C1193.07 400.851 1194.62 400.623 1196.31 400.623Z" fill="#0E0A1D"/>
<path d="M1286.34 410.549H1288.84C1289.46 410.549 1289.9 410.581 1290.16 410.646C1290.45 410.679 1290.73 410.842 1290.99 411.135C1291.25 411.429 1291.38 411.869 1291.38 412.455C1291.38 413.009 1291.31 413.629 1291.18 414.313C1291.09 414.965 1290.84 415.536 1290.45 416.025C1290.06 416.514 1289.68 416.791 1289.32 416.856C1288.97 416.921 1288.43 416.954 1287.71 416.954H1285.27L1284.39 422.332H1286.88C1287.5 422.332 1287.94 422.364 1288.2 422.43C1288.49 422.462 1288.77 422.625 1289.03 422.919C1289.29 423.212 1289.42 423.652 1289.42 424.239C1289.42 424.793 1289.37 425.347 1289.28 425.901C1289.18 426.455 1289.02 426.96 1288.79 427.417C1288.59 427.873 1288.31 428.199 1287.96 428.395C1287.43 428.655 1286.7 428.786 1285.76 428.786H1283.31C1282.99 430.807 1282.79 432.062 1282.72 432.551L1282.63 433.089C1282.5 433.806 1282.38 434.311 1282.28 434.604C1282.22 434.898 1282.06 435.256 1281.8 435.68C1281.27 436.43 1280.07 436.804 1278.18 436.804C1276.29 436.804 1275.34 436.201 1275.34 434.995C1275.34 434.963 1275.47 434.115 1275.73 432.453L1276.32 428.786H1269.03C1268.71 430.807 1268.51 432.062 1268.45 432.551L1268.35 433.089C1268.22 433.806 1268.11 434.311 1268.01 434.604C1267.94 434.898 1267.78 435.256 1267.52 435.68C1267 436.43 1265.79 436.804 1263.9 436.804C1262.01 436.804 1261.06 436.201 1261.06 434.995C1261.06 434.963 1261.19 434.115 1261.46 432.453L1262.04 428.786H1258.82C1257.45 428.786 1256.63 428.492 1256.37 427.906C1256.27 427.645 1256.22 427.27 1256.22 426.781C1256.22 426.26 1256.27 425.673 1256.37 425.021C1256.5 424.337 1256.76 423.75 1257.15 423.261C1257.58 422.772 1257.97 422.495 1258.33 422.43C1258.68 422.364 1259.22 422.332 1259.94 422.332H1263.12L1264 416.954H1260.77C1259.37 416.954 1258.55 416.677 1258.33 416.122C1258.23 415.829 1258.18 415.438 1258.18 414.949C1258.18 414.46 1258.23 413.89 1258.33 413.238C1258.46 412.553 1258.72 411.966 1259.11 411.477C1259.53 410.989 1259.92 410.711 1260.28 410.646C1260.64 410.581 1261.18 410.549 1261.9 410.549H1265.07L1265.9 405.512C1265.94 405.317 1265.97 405.007 1266 404.583C1266.07 404.127 1266.12 403.817 1266.15 403.654C1266.21 403.459 1266.3 403.198 1266.39 402.872C1266.49 402.546 1266.62 402.318 1266.78 402.188C1266.98 402.057 1267.23 401.894 1267.52 401.699C1267.97 401.405 1268.81 401.259 1270.01 401.259C1271.22 401.259 1272.05 401.438 1272.51 401.797C1272.99 402.122 1273.24 402.628 1273.24 403.312C1273.24 403.41 1273.16 403.98 1272.99 405.024L1272.07 410.549H1279.35L1280.18 405.512C1280.21 405.317 1280.25 405.007 1280.28 404.583C1280.34 404.127 1280.39 403.817 1280.43 403.654C1280.49 403.459 1280.57 403.198 1280.67 402.872C1280.77 402.546 1280.9 402.318 1281.06 402.188C1281.26 402.057 1281.5 401.894 1281.8 401.699C1282.25 401.405 1283.08 401.259 1284.29 401.259C1285.49 401.259 1286.33 401.438 1286.78 401.797C1287.27 402.122 1287.52 402.628 1287.52 403.312C1287.52 403.41 1287.43 403.98 1287.27 405.024L1286.34 410.549ZM1277.39 422.332L1278.27 416.954H1271.04L1270.11 422.332H1277.39ZM1297.05 405.317C1298 403.98 1299.32 402.872 1301.01 401.992C1302.74 401.079 1304.73 400.623 1306.98 400.623C1309.23 400.623 1311.18 401.063 1312.84 401.943C1314.54 402.823 1315.86 403.915 1316.8 405.219C1317.78 406.523 1318.56 408.055 1319.15 409.815C1320.13 412.749 1320.62 415.862 1320.62 419.154C1320.62 425.054 1319.35 429.731 1316.8 433.186C1315.86 434.49 1314.54 435.566 1312.84 436.413C1311.18 437.261 1309.24 437.685 1307.03 437.685C1304.81 437.685 1302.84 437.261 1301.11 436.413C1299.41 435.533 1298.08 434.458 1297.1 433.186C1296.15 431.915 1295.37 430.399 1294.75 428.639C1293.81 425.836 1293.34 422.658 1293.34 419.105C1293.34 415.845 1293.71 413.058 1294.46 410.744C1295.24 408.43 1296.11 406.621 1297.05 405.317ZM1306.93 428.981C1310.29 428.981 1311.96 425.787 1311.96 419.398V419.105C1311.96 412.553 1310.3 409.277 1306.98 409.277C1303.65 409.277 1301.99 412.569 1301.99 419.154C1301.99 425.706 1303.64 428.981 1306.93 428.981ZM1332.47 428.346H1347.53C1348.28 428.346 1348.83 428.378 1349.19 428.444C1349.58 428.476 1350.02 428.623 1350.51 428.884C1351.39 429.34 1351.83 430.611 1351.83 432.697C1351.83 434.979 1351.23 436.315 1350.02 436.707C1349.47 436.902 1348.62 437 1347.48 437H1328.12C1325.84 437 1324.5 436.381 1324.11 435.142C1323.91 434.621 1323.82 433.789 1323.82 432.648V405.464C1323.82 403.801 1324.13 402.677 1324.74 402.09C1325.36 401.471 1326.54 401.161 1328.26 401.161H1347.53C1348.28 401.161 1348.83 401.194 1349.19 401.259C1349.58 401.291 1350.02 401.438 1350.51 401.699C1351.39 402.155 1351.83 403.426 1351.83 405.512C1351.83 407.794 1351.23 409.131 1350.02 409.522C1349.47 409.717 1348.62 409.815 1347.48 409.815H1332.47V414.753H1342.15C1342.9 414.753 1343.45 414.786 1343.81 414.851C1344.2 414.884 1344.64 415.03 1345.13 415.291C1346.01 415.748 1346.45 417.019 1346.45 419.105C1346.45 421.387 1345.83 422.723 1344.6 423.114C1344.04 423.31 1343.19 423.408 1342.05 423.408H1332.47V428.346ZM1357.98 405.317C1358.92 403.98 1360.24 402.872 1361.94 401.992C1363.67 401.079 1365.65 400.623 1367.9 400.623C1370.15 400.623 1372.11 401.063 1373.77 401.943C1375.47 402.823 1376.79 403.915 1377.73 405.219C1378.71 406.523 1379.49 408.055 1380.08 409.815C1381.06 412.749 1381.54 415.862 1381.54 419.154C1381.54 425.054 1380.27 429.731 1377.73 433.186C1376.79 434.49 1375.47 435.566 1373.77 436.413C1372.11 437.261 1370.17 437.685 1367.95 437.685C1365.74 437.685 1363.76 437.261 1362.04 436.413C1360.34 435.533 1359 434.458 1358.03 433.186C1357.08 431.915 1356.3 430.399 1355.68 428.639C1354.73 425.836 1354.26 422.658 1354.26 419.105C1354.26 415.845 1354.64 413.058 1355.39 410.744C1356.17 408.43 1357.03 406.621 1357.98 405.317ZM1367.85 428.981C1371.21 428.981 1372.89 425.787 1372.89 419.398V419.105C1372.89 412.553 1371.23 409.277 1367.9 409.277C1364.58 409.277 1362.92 412.569 1362.92 419.154C1362.92 425.706 1364.56 428.981 1367.85 428.981ZM1405.42 403.703L1418.63 430.986C1419.18 432.094 1419.46 432.926 1419.46 433.48C1419.46 434.653 1418.51 435.712 1416.62 436.658C1415.51 437.212 1414.63 437.489 1413.98 437.489C1413.36 437.489 1412.84 437.342 1412.42 437.049C1412.02 436.756 1411.73 436.446 1411.54 436.12C1411.37 435.794 1411.13 435.305 1410.8 434.653L1408.26 429.373H1394.72L1392.17 434.653C1391.85 435.305 1391.59 435.778 1391.39 436.071C1391.23 436.364 1390.93 436.674 1390.51 437C1390.12 437.293 1389.6 437.44 1388.95 437.44C1388.33 437.44 1387.46 437.163 1386.36 436.609C1384.46 435.696 1383.52 434.653 1383.52 433.48C1383.52 432.926 1383.8 432.094 1384.35 430.986L1397.55 403.654C1397.91 402.905 1398.45 402.302 1399.17 401.845C1399.92 401.389 1400.7 401.161 1401.51 401.161C1403.27 401.161 1404.58 402.008 1405.42 403.703ZM1401.46 415.438L1398.24 422.136H1404.74L1401.46 415.438ZM1430.83 402.383C1431.68 401.536 1432.59 401.112 1433.57 401.112C1434.58 401.112 1435.36 401.194 1435.92 401.356C1436.47 401.519 1436.89 401.715 1437.19 401.943C1437.48 402.139 1437.71 402.481 1437.87 402.97C1438.04 403.524 1438.12 404.388 1438.12 405.561V432.795C1438.12 433.545 1438.08 434.115 1438.02 434.506C1437.99 434.865 1437.84 435.289 1437.58 435.778C1437.12 436.658 1435.85 437.098 1433.76 437.098C1431.74 437.098 1430.49 436.674 1430 435.827C1429.74 435.338 1429.58 434.898 1429.51 434.506C1429.48 434.083 1429.46 433.48 1429.46 432.697V415.242L1428.83 415.829C1427.49 416.839 1426.35 417.345 1425.4 417.345C1424.46 417.345 1423.46 416.774 1422.42 415.633C1421.41 414.493 1420.91 413.482 1420.91 412.602C1420.91 411.722 1421.49 410.76 1422.67 409.717L1430.68 402.481L1430.83 402.383ZM1446.39 401.112L1455.44 401.161C1460.16 401.161 1464.32 402.872 1467.9 406.295C1471.49 409.685 1473.28 413.873 1473.28 418.86C1473.28 423.815 1471.52 428.069 1468 431.622C1464.51 435.175 1460.28 436.951 1455.29 436.951H1446.34C1444.35 436.951 1443.11 436.544 1442.63 435.729C1442.23 435.044 1442.04 434.001 1442.04 432.6V405.415C1442.04 404.632 1442.06 404.062 1442.09 403.703C1442.15 403.345 1442.32 402.921 1442.58 402.432C1443.03 401.552 1444.3 401.112 1446.39 401.112ZM1455.44 428.297C1457.78 428.297 1459.9 427.433 1461.79 425.706C1463.68 423.945 1464.63 421.745 1464.63 419.105C1464.63 416.465 1463.7 414.264 1461.84 412.504C1460.02 410.711 1457.86 409.815 1455.39 409.815H1450.69V428.297H1455.44Z" fill="#0E0A1D"/>
</g>
<defs>
<filter id="filter0_d_12_161" x="467" y="462" width="214" height="214" filterUnits="userSpaceOnUse" color-interpolation-filters="sRGB">
<feFlood flood-opacity="0" result="BackgroundImageFix"/>
<feColorMatrix in="SourceAlpha" type="matrix" values="0 0 0 0 0 0 0 0 0 0 0 0 0 0 0 0 0 0 127 0" result="hardAlpha"/>
<feOffset/>
<feGaussianBlur stdDeviation="7"/>
<feComposite in2="hardAlpha" operator="out"/>
<feColorMatrix type="matrix" values="0 0 0 0 0 0 0 0 0 0 0 0 0 0 0 0 0 0 0.25 0"/>
<feBlend mode="normal" in2="BackgroundImageFix" result="effect1_dropShadow_12_161"/>
<feBlend mode="normal" in="SourceGraphic" in2="effect1_dropShadow_12_161" result="shape"/>
</filter>
<clipPath id="clip0_12_161">
<rect width="1920" height="1080" fill="white"/>
</clipPath>
</defs>
</svg>
