<svg width="1920" height="1080" viewBox="0 0 1920 1080" fill="none" xmlns="http://www.w3.org/2000/svg">
<g clip-path="url(#clip0_25_70)">
<rect width="1920" height="1080" fill="white"/>
<path d="M93 25C93 76.3625 51.3625 118 0 118C-51.3625 118 -93 76.3625 -93 25C-93 -26.3625 -51.3625 -68 0 -68C51.3625 -68 93 -26.3625 93 25ZM-61.975 25C-61.975 59.2278 -34.2278 86.975 0 86.975C34.2278 86.975 61.975 59.2278 61.975 25C61.975 -9.22783 34.2278 -36.975 0 -36.975C-34.2278 -36.975 -61.975 -9.22783 -61.975 25Z" fill="#FCBAD0"/>
<circle cx="1676.5" cy="475.5" r="32.5" fill="white"/>
<path d="M670 930.5C670 968.332 639.332 999 601.5 999C563.668 999 533 968.332 533 930.5C533 892.668 563.668 862 601.5 862C639.332 862 670 892.668 670 930.5ZM548 930.5C548 955.711 576.289 984.5 601.5 984.5C626.711 984.5 652.5 955.711 652.5 930.5C652.5 905.289 626.711 878.5 601.5 878.5C576.289 878.5 548 905.289 548 930.5Z" fill="white"/>
<path fill-rule="evenodd" clip-rule="evenodd" d="M2455.18 330.433C2389.87 402.026 2304.8 452.643 2210.72 475.884C2116.63 499.125 2017.78 493.946 1926.64 461.002C1835.5 428.059 1756.18 368.829 1698.71 290.804C1641.23 212.779 1608.18 119.463 1603.74 22.6567C1599.3 -74.15 1623.67 -170.099 1673.76 -253.058C1723.85 -336.017 1797.42 -402.259 1885.15 -443.408C1972.89 -484.556 2070.86 -498.764 2166.68 -484.233C2261.33 -469.878 2349.68 -428.113 2420.83 -364.135L2420.83 -364.144C2421.1 -363.904 2421.36 -363.662 2421.62 -363.419C2422.23 -362.872 2422.83 -362.323 2423.43 -361.772L2423.39 -361.724C2440.29 -345.107 2450.33 -322.684 2451.42 -298.921C2452.57 -273.984 2443.76 -249.613 2426.93 -231.171C2410.11 -212.729 2386.65 -201.726 2361.71 -200.582C2336.77 -199.438 2312.4 -208.247 2293.96 -225.072L2294.44 -225.596C2250.69 -264.582 2196.54 -290.039 2138.56 -298.833C2079.41 -307.802 2018.94 -299.033 1964.78 -273.632C1910.62 -248.231 1865.21 -207.341 1834.29 -156.131C1803.37 -104.922 1788.32 -45.6934 1791.07 14.0643C1793.81 73.8219 1814.21 131.425 1849.68 179.589C1885.16 227.753 1934.13 264.314 1990.39 284.65C2046.64 304.986 2107.67 308.183 2165.74 293.836C2223.82 279.49 2276.33 248.244 2316.65 204.051L2316.11 203.559C2332.94 185.117 2356.4 174.114 2381.33 172.97C2406.27 171.826 2430.64 180.635 2449.08 197.46C2467.53 214.284 2478.53 237.746 2479.67 262.683C2480.82 287.62 2472.01 311.991 2455.18 330.433L2421.42 299.63C2430.07 290.142 2434.61 277.606 2434.02 264.777C2433.43 251.949 2427.77 239.88 2418.28 231.225C2408.79 222.57 2396.26 218.038 2383.43 218.627C2370.6 219.215 2358.53 224.875 2349.88 234.362L2349.9 234.388C2303.59 285.159 2243.26 321.054 2176.54 337.536C2109.82 354.017 2039.71 350.345 1975.08 326.982C1910.45 303.62 1854.2 261.617 1813.44 206.285C1772.68 150.953 1749.25 84.7779 1746.1 16.1268C1742.95 -52.5243 1760.23 -120.567 1795.75 -179.398C1831.27 -238.229 1883.44 -285.205 1945.66 -314.386C2007.88 -343.567 2077.36 -353.642 2145.31 -343.337C2212.69 -333.117 2275.57 -303.308 2326.13 -257.637C2335.44 -249.765 2347.39 -245.678 2359.62 -246.238C2372.44 -246.827 2384.51 -252.487 2393.17 -261.974C2401.82 -271.462 2406.35 -283.998 2405.77 -296.827C2405.23 -308.478 2400.51 -319.503 2392.54 -327.913L2392.13 -327.454C2327.32 -386.574 2246.44 -425.15 2159.71 -438.304C2072.98 -451.457 1984.3 -438.597 1904.88 -401.35C1825.46 -364.102 1758.87 -304.14 1713.53 -229.047C1668.18 -153.953 1646.13 -67.1004 1650.15 20.5282C1654.17 108.157 1684.08 192.626 1736.11 263.253C1788.13 333.881 1859.93 387.495 1942.43 417.315C2024.93 447.136 2114.41 451.823 2199.57 430.786C2284.74 409.748 2361.74 363.93 2420.87 299.125L2455.18 330.433Z" fill="#FEDFEA"/>
<path d="M160.2 99.176C162.163 99.176 163.613 99.2613 164.552 99.432C165.576 99.5173 166.685 99.9013 167.88 100.584C169.16 101.267 170.056 102.419 170.568 104.04C171.08 105.661 171.336 107.837 171.336 110.568C171.336 113.299 171.08 115.475 170.568 117.096C170.056 118.717 169.16 119.869 167.88 120.552C166.6 121.149 165.448 121.533 164.424 121.704C163.485 121.789 161.992 121.832 159.944 121.832H120.776V134.76H145.992C148.04 134.76 149.533 134.845 150.472 135.016C151.496 135.101 152.648 135.485 153.928 136.168C156.147 137.448 157.256 140.819 157.256 146.28C157.256 152.253 155.635 155.795 152.392 156.904C151.027 157.331 148.851 157.544 145.864 157.544H120.776V181.736C120.776 183.784 120.691 185.277 120.52 186.216C120.435 187.155 120.051 188.264 119.368 189.544C118.173 191.848 114.845 193 109.384 193C103.411 193 99.912 191.379 98.888 188.136C98.376 186.771 98.12 184.595 98.12 181.608V110.44C98.12 106.088 98.9307 103.144 100.552 101.608C102.173 99.9867 105.245 99.176 109.768 99.176H160.2ZM166.2 159.336C166.2 149.096 169.784 140.648 176.952 133.992C184.12 127.336 192.312 124.008 201.528 124.008C210.744 124.008 218.893 127.336 225.976 133.992C233.059 140.563 236.6 148.968 236.6 159.208C236.6 166.291 234.765 172.605 231.096 178.152C227.427 183.613 222.947 187.667 217.656 190.312C212.451 192.872 207.032 194.152 201.4 194.152C195.768 194.152 190.307 192.787 185.016 190.056C179.725 187.24 175.245 183.144 171.576 177.768C167.992 172.307 166.2 166.163 166.2 159.336ZM192.952 168.552C195.683 170.6 198.456 171.624 201.272 171.624C204.088 171.624 206.904 170.557 209.72 168.424C212.536 166.291 213.944 163.133 213.944 158.952C213.944 154.771 212.621 151.656 209.976 149.608C207.331 147.56 204.472 146.536 201.4 146.536C198.328 146.536 195.469 147.603 192.824 149.736C190.179 151.869 188.856 155.027 188.856 159.208C188.856 163.304 190.221 166.419 192.952 168.552ZM282.374 125.544C290.907 125.544 297.99 128.829 303.622 135.4C309.339 141.885 312.198 149.821 312.198 159.208V181.736C312.198 183.699 312.113 185.192 311.942 186.216C311.857 187.155 311.515 188.221 310.918 189.416C309.723 191.72 306.395 192.872 300.934 192.872C294.875 192.872 291.377 191.293 290.438 188.136C289.926 186.685 289.67 184.509 289.67 181.608V159.08C289.67 155.581 288.646 152.851 286.598 150.888C284.635 148.925 281.947 147.944 278.534 147.944C275.206 147.944 272.475 148.968 270.342 151.016C268.294 153.064 267.27 155.752 267.27 159.08V181.736C267.27 183.699 267.185 185.192 267.014 186.216C266.929 187.155 266.545 188.221 265.862 189.416C264.753 191.72 261.467 192.872 256.006 192.872C250.63 192.872 247.345 191.72 246.15 189.416C245.553 188.136 245.169 187.027 244.998 186.088C244.913 185.064 244.87 183.571 244.87 181.608V136.296C244.87 134.419 244.913 133.011 244.998 132.072C245.169 131.048 245.595 129.939 246.278 128.744C247.473 126.611 250.758 125.544 256.134 125.544C261.339 125.544 264.539 126.525 265.734 128.488C266.587 129.939 267.014 131.688 267.014 133.736C267.355 133.139 268.123 132.285 269.318 131.176C270.513 130.067 271.665 129.171 272.774 128.488C275.675 126.525 278.875 125.544 282.374 125.544ZM360.413 148.2L352.093 147.688V165.352C352.093 167.656 352.434 169.32 353.117 170.344C353.885 171.368 355.25 171.88 357.213 171.88C359.261 171.88 360.797 171.965 361.821 172.136C362.93 172.221 364.082 172.605 365.277 173.288C367.24 174.397 368.221 177.256 368.221 181.864C368.221 187.24 367.026 190.525 364.637 191.72C363.357 192.317 362.205 192.701 361.181 192.872C360.242 192.957 358.834 193 356.957 193C348.082 193 341.341 190.995 336.733 186.984C332.125 182.973 329.821 176.189 329.821 166.632V147.688C328.2 147.944 326.45 148.072 324.573 148.072C322.696 148.072 321.117 147.347 319.837 145.896C318.642 144.445 318.045 141.971 318.045 138.472C318.045 134.973 318.258 132.456 318.685 130.92C319.112 129.299 319.709 128.147 320.477 127.464C321.842 126.355 323.549 125.8 325.597 125.8L329.821 126.312V113.128C329.821 111.165 329.864 109.715 329.949 108.776C330.12 107.837 330.546 106.813 331.229 105.704C332.338 103.571 335.624 102.504 341.085 102.504C346.888 102.504 350.344 104.083 351.453 107.24C351.88 108.605 352.093 110.781 352.093 113.768V126.312C355.848 125.971 358.664 125.8 360.541 125.8C362.504 125.8 363.954 125.885 364.893 126.056C365.917 126.141 367.069 126.525 368.349 127.208C370.568 128.317 371.677 131.603 371.677 137.064C371.677 142.44 370.525 145.725 368.221 146.92C366.941 147.517 365.789 147.901 364.765 148.072C363.826 148.157 362.376 148.2 360.413 148.2ZM379.257 186.984C377.636 185.96 376.825 184.339 376.825 182.12C376.825 179.901 378.446 176.531 381.689 172.008C382.628 170.557 384.121 169.832 386.169 169.832C388.302 169.832 391.161 170.899 394.745 173.032C398.329 175.08 401.572 176.104 404.473 176.104C409.678 176.104 412.281 175.08 412.281 173.032C412.281 171.411 409.422 170.216 403.705 169.448C398.329 168.68 392.996 166.675 387.705 163.432C385.23 161.896 383.182 159.507 381.561 156.264C379.94 152.936 379.129 149.011 379.129 144.488C379.129 131.005 388.388 124.264 406.905 124.264C412.964 124.264 419.193 125.715 425.593 128.616C428.58 129.981 430.073 131.688 430.073 133.736C430.073 135.784 429.134 138.301 427.257 141.288C425.38 144.275 423.46 145.768 421.497 145.768C420.473 145.768 418.553 145.128 415.737 143.848C413.006 142.568 410.02 141.928 406.777 141.928C401.742 141.928 399.225 142.867 399.225 144.744C399.225 147.304 402.126 148.968 407.929 149.736C413.561 150.333 419.022 151.955 424.313 154.6C426.788 155.795 428.836 157.885 430.457 160.872C432.164 163.773 433.017 167.443 433.017 171.88C433.017 176.317 432.164 180.115 430.457 183.272C428.836 186.344 426.532 188.648 423.545 190.184C418.084 192.829 411.214 194.152 402.937 194.152C394.745 194.152 386.852 191.763 379.257 186.984Z" fill="#FF74B3"/>
<path d="M283.805 327.312H350.699L637.32 1007H535.758L466.91 836.102H165.152L96.793 1007H-2.81641L283.805 327.312ZM435.66 757.977L316.52 460.125L196.891 757.977H435.66Z" fill="#FCBAD0"/>
<path d="M328.516 935.125C319.922 920.281 313.021 902.833 307.812 882.781C302.865 862.729 300.391 836.557 300.391 804.266C300.391 771.974 307.292 742.286 321.094 715.203C335.156 687.859 353.385 665.464 375.781 648.016C419.271 614.422 473.307 597.625 537.891 597.625C571.484 597.625 596.875 598.406 614.062 599.969C614.062 599.969 626.693 601.271 651.953 603.875V1007H581.641L578.516 960.516C562.891 981.349 539.062 996.844 507.031 1007C494.792 1010.91 482.161 1012.86 469.141 1012.86C456.38 1012.86 443.75 1011.56 431.25 1008.95C418.75 1006.35 406.25 1002.05 393.75 996.062C381.51 990.073 369.792 982.13 358.594 972.234C347.396 962.078 337.37 949.708 328.516 935.125ZM573.828 661.297C557.161 659.214 540.495 658.172 523.828 658.172C507.422 658.172 489.844 661.167 471.094 667.156C452.344 672.885 436.328 682 423.047 694.5C395.443 720.542 381.641 760.255 381.641 813.641C381.641 864.161 393.49 901.531 417.188 925.75C435.156 943.719 456.771 952.703 482.031 952.703C514.583 952.703 541.406 940.854 562.5 917.156C567.708 911.167 571.484 905.828 573.828 901.141V661.297Z" fill="#FEDFEA"/>
<path d="M1920 887C1930 907 1935.33 924 1936 938C1936.67 952 1932.33 964.333 1923 975C1913.67 985.667 1898.67 996.333 1878 1007C1846 1022.33 1821.33 1027 1804 1021C1786.67 1015.67 1770.33 996.667 1755 964L1585 616L1417 965C1401 996.333 1384.33 1014.67 1367 1020C1349.67 1026 1325.33 1021.33 1294 1006C1273.33 996 1258 985.667 1248 975C1238.67 964.333 1234.33 952 1235 938C1235.67 924 1241 907 1251 887L1502 367C1510 351 1521.67 338.333 1537 329C1553 319 1569.33 314 1586 314C1598 314 1609 316.333 1619 321C1629.67 325 1639.33 331 1648 339C1656.67 347 1663.67 356.667 1669 368L1920 887ZM1427 869L1503 713H1668L1744 869H1427Z" fill="#FCBAD0"/>
<path d="M1848.8 1037.6C1824.8 1037.6 1806.93 1033.6 1795.2 1025.6C1784 1017.6 1778.67 1008.53 1779.2 998.4H1790.4C1787.73 1002.13 1782.4 1007.2 1774.4 1013.6C1766.93 1019.47 1756.8 1025.07 1744 1030.4C1731.2 1035.2 1715.47 1037.6 1696.8 1037.6C1672.8 1037.6 1649.6 1032.27 1627.2 1021.6C1605.33 1010.4 1585.6 995.2 1568 976C1550.93 956.8 1537.33 935.2 1527.2 911.2C1517.07 886.667 1512 861.067 1512 834.4C1512 808.267 1517.07 783.2 1527.2 759.2C1537.33 735.2 1551.2 713.867 1568.8 695.2C1586.4 676 1606.13 661.067 1628 650.4C1649.87 639.2 1672.8 633.6 1696.8 633.6C1714.93 633.6 1730.13 636.267 1742.4 641.6C1755.2 646.933 1765.33 652.8 1772.8 659.2C1780.8 665.6 1786.13 670.933 1788.8 675.2H1780C1779.47 661.867 1784.8 651.467 1796 644C1807.73 636.533 1825.6 632.8 1849.6 632.8C1873.6 632.8 1890.4 636.533 1900 644C1910.13 650.933 1916.27 660 1918.4 671.2C1920.53 682.4 1921.6 693.867 1921.6 705.6V965.6C1921.6 977.333 1920.53 988.8 1918.4 1000C1916.27 1011.2 1910.13 1020.27 1900 1027.2C1890.4 1034.13 1873.33 1037.6 1848.8 1037.6ZM1716.8 892.8C1726.93 892.8 1736 890.133 1744 884.8C1752.53 879.467 1759.2 872.533 1764 864C1769.33 854.933 1772 845.333 1772 835.2C1772 824.533 1769.33 814.933 1764 806.4C1759.2 797.867 1752.53 790.933 1744 785.6C1735.47 780.267 1725.87 777.6 1715.2 777.6C1704.53 777.6 1694.67 780.267 1685.6 785.6C1677.07 790.933 1670.13 798.133 1664.8 807.2C1659.47 815.733 1656.8 825.333 1656.8 836C1656.8 846.133 1659.47 855.467 1664.8 864C1670.67 872.533 1678.13 879.467 1687.2 884.8C1696.27 890.133 1706.13 892.8 1716.8 892.8Z" fill="#FEDFEA"/>
<path d="M437.819 327.44C436.352 327.44 435.309 327.228 434.689 326.804C434.07 326.348 433.695 325.778 433.565 325.093C433.434 324.376 433.369 323.659 433.369 322.942V297.662C433.369 296.945 433.434 296.244 433.565 295.56C433.695 294.875 434.07 294.321 434.689 293.897C435.309 293.441 436.368 293.213 437.868 293.213C439.367 293.213 440.41 293.441 440.997 293.897C441.616 294.321 441.991 294.875 442.121 295.56C442.252 296.244 442.317 296.962 442.317 297.711V322.991C442.317 323.708 442.252 324.409 442.121 325.093C441.991 325.778 441.616 326.348 440.997 326.804C440.378 327.228 439.318 327.44 437.819 327.44ZM449.566 327.391C448.099 327.391 447.056 327.179 446.437 326.756C445.818 326.299 445.443 325.729 445.312 325.044C445.215 324.36 445.166 323.659 445.166 322.942V306.855C445.166 306.138 445.231 305.453 445.361 304.801C445.492 304.149 445.866 303.628 446.486 303.237C447.105 302.813 448.148 302.601 449.615 302.601C450.952 302.601 451.913 302.78 452.5 303.139C453.119 303.465 453.511 303.872 453.674 304.361C453.837 304.85 453.902 305.306 453.869 305.73C453.869 306.121 453.902 306.366 453.967 306.464L453.576 306.757C453.543 306.268 453.722 305.779 454.114 305.29C454.537 304.801 455.075 304.361 455.727 303.97C456.412 303.546 457.129 303.22 457.879 302.992C458.661 302.731 459.394 302.601 460.079 302.601C461.709 302.601 463.143 302.911 464.382 303.53C465.62 304.149 466.647 305.029 467.462 306.17C468.31 307.279 468.945 308.583 469.369 310.082C469.793 311.581 470.005 313.211 470.005 314.972V322.991C470.005 323.708 469.94 324.409 469.809 325.093C469.679 325.778 469.304 326.332 468.685 326.756C468.098 327.179 467.055 327.391 465.555 327.391C464.056 327.391 462.996 327.179 462.377 326.756C461.758 326.299 461.383 325.729 461.252 325.044C461.122 324.36 461.057 323.659 461.057 322.942V314.972C461.057 314.222 460.91 313.586 460.617 313.065C460.356 312.543 459.965 312.152 459.443 311.891C458.954 311.598 458.335 311.451 457.585 311.451C456.868 311.451 456.232 311.598 455.678 311.891C455.157 312.185 454.749 312.592 454.456 313.114C454.162 313.635 454.016 314.254 454.016 314.972V322.991C454.016 323.708 453.951 324.409 453.82 325.093C453.69 325.778 453.315 326.332 452.696 326.756C452.109 327.179 451.066 327.391 449.566 327.391ZM483.422 327.342C481.955 327.342 480.537 327.016 479.168 326.364C477.832 325.68 476.626 324.767 475.55 323.626C474.507 322.453 473.676 321.116 473.056 319.617C472.437 318.117 472.127 316.553 472.127 314.923C472.127 313.358 472.437 311.842 473.056 310.375C473.676 308.908 474.523 307.605 475.599 306.464C476.674 305.29 477.881 304.361 479.217 303.677C480.586 302.992 481.988 302.65 483.422 302.65C484.987 302.65 486.34 302.992 487.48 303.677C488.621 304.329 489.567 305.225 490.316 306.366C491.066 307.507 491.62 308.811 491.979 310.278C492.37 311.744 492.582 313.26 492.615 314.825C492.647 316.422 492.484 317.971 492.126 319.47C491.767 320.937 491.213 322.273 490.463 323.479C489.713 324.653 488.752 325.598 487.578 326.315C486.437 327 485.052 327.342 483.422 327.342ZM484.596 318.541C485.215 318.541 485.785 318.378 486.307 318.052C486.829 317.726 487.252 317.302 487.578 316.781C487.904 316.227 488.067 315.64 488.067 315.02C488.067 314.369 487.904 313.782 487.578 313.26C487.285 312.739 486.877 312.315 486.356 311.989C485.834 311.663 485.231 311.5 484.547 311.5C483.895 311.5 483.292 311.663 482.738 311.989C482.216 312.282 481.792 312.706 481.466 313.26C481.173 313.782 481.026 314.369 481.026 315.02C481.026 315.64 481.189 316.227 481.515 316.781C481.841 317.302 482.281 317.726 482.835 318.052C483.39 318.378 483.976 318.541 484.596 318.541ZM492.615 327.391C491.311 327.391 490.333 327.196 489.681 326.804C489.029 326.413 488.589 325.794 488.361 324.946V295.853C488.361 295.136 488.393 294.435 488.458 293.751C488.556 293.066 488.898 292.512 489.485 292.088C490.072 291.632 491.099 291.404 492.566 291.404C494.065 291.404 495.108 291.616 495.695 292.039C496.314 292.463 496.689 293.017 496.82 293.702C496.95 294.354 497.015 295.055 497.015 295.804V322.942C497.015 323.659 496.95 324.36 496.82 325.044C496.689 325.729 496.314 326.299 495.695 326.756C495.108 327.179 494.081 327.391 492.615 327.391ZM512.55 327.978C510.105 327.978 508.035 327.587 506.34 326.804C504.645 325.989 503.276 324.946 502.233 323.675C501.19 322.371 500.424 320.969 499.935 319.47C499.446 317.971 499.201 316.52 499.201 315.118C499.201 312.543 499.772 310.278 500.913 308.322C502.054 306.366 503.635 304.834 505.656 303.726C507.677 302.617 509.991 302.063 512.599 302.063C514.62 302.063 516.348 302.389 517.782 303.041C519.216 303.693 520.373 304.524 521.253 305.535C522.166 306.545 522.834 307.621 523.258 308.762C523.682 309.903 523.894 310.962 523.894 311.94C523.894 313.798 523.437 315.216 522.525 316.194C521.612 317.172 520.439 317.661 519.004 317.661H508.589C508.72 318.182 508.981 318.639 509.372 319.03C509.796 319.389 510.317 319.682 510.936 319.91C511.556 320.106 512.224 320.203 512.941 320.203C513.658 320.203 514.294 320.171 514.848 320.106C515.402 320.008 515.875 319.894 516.266 319.763C516.69 319.633 517.065 319.503 517.391 319.372C517.749 319.242 518.059 319.144 518.32 319.079C518.613 318.981 518.89 318.932 519.151 318.932C519.738 318.932 520.276 319.128 520.765 319.519C521.253 319.91 521.694 320.497 522.085 321.279C522.313 321.703 522.476 322.11 522.574 322.502C522.671 322.86 522.72 323.202 522.72 323.528C522.72 324.506 522.313 325.321 521.498 325.973C520.716 326.625 519.575 327.114 518.075 327.44C516.576 327.799 514.734 327.978 512.55 327.978ZM508.589 313.065H514.066C514.522 313.065 514.848 312.967 515.044 312.771C515.272 312.576 515.386 312.282 515.386 311.891C515.386 311.467 515.256 311.109 514.995 310.815C514.767 310.522 514.441 310.31 514.017 310.18C513.593 310.017 513.088 309.935 512.501 309.935C511.719 309.935 511.034 310.098 510.447 310.424C509.861 310.718 509.404 311.109 509.078 311.598C508.785 312.054 508.622 312.543 508.589 313.065ZM530.502 327.44C529.036 327.44 527.992 327.228 527.373 326.804C526.754 326.348 526.379 325.778 526.248 325.093C526.151 324.376 526.102 323.659 526.102 322.942V307.002C526.102 306.252 526.167 305.551 526.297 304.899C526.428 304.214 526.803 303.66 527.422 303.237C528.041 302.813 529.084 302.601 530.551 302.601C531.986 302.601 532.996 302.796 533.583 303.188C534.202 303.579 534.577 304.019 534.707 304.508C534.838 304.964 534.903 305.323 534.903 305.584L534.121 305.29C534.121 305.29 534.251 305.144 534.512 304.85C534.773 304.557 535.148 304.214 535.637 303.823C536.158 303.432 536.761 303.09 537.446 302.796C538.163 302.503 538.961 302.356 539.842 302.356C540.135 302.356 540.494 302.389 540.917 302.454C541.374 302.487 541.846 302.568 542.335 302.699C542.857 302.829 543.329 303.025 543.753 303.285C544.21 303.546 544.568 303.889 544.829 304.312C545.122 304.736 545.269 305.258 545.269 305.877C545.269 307.507 544.91 308.892 544.193 310.033C543.509 311.174 542.596 311.744 541.455 311.744C540.836 311.744 540.396 311.712 540.135 311.647C539.874 311.549 539.679 311.467 539.548 311.402C539.45 311.304 539.32 311.223 539.157 311.158C539.027 311.06 538.766 311.011 538.375 311.011C537.886 311.011 537.429 311.076 537.006 311.207C536.614 311.304 536.256 311.467 535.93 311.696C535.637 311.924 535.408 312.201 535.245 312.527C535.082 312.82 535.001 313.146 535.001 313.505V323.039C535.001 323.757 534.936 324.457 534.805 325.142C534.675 325.826 534.3 326.381 533.681 326.804C533.061 327.228 532.002 327.44 530.502 327.44Z" fill="#0E0A1D"/>
<path d="M471.272 357.462H485.244V360.03H474.223V366.079H482.736V368.557H474.223V378H471.272V357.462ZM487.944 370.357C487.944 367.967 488.707 366.03 490.231 364.544C491.657 363.157 493.423 362.464 495.528 362.464C497.593 362.464 499.32 363.157 500.706 364.544C502.182 366.02 502.92 367.957 502.92 370.357C502.92 372.748 502.177 374.675 500.692 376.141C499.285 377.538 497.559 378.236 495.513 378.236C493.438 378.236 491.677 377.538 490.231 376.141C488.707 374.675 487.944 372.748 487.944 370.357ZM491.013 370.357C491.013 372.875 491.82 374.587 493.433 375.492C494.003 375.807 494.687 375.964 495.484 375.964C496.28 375.964 496.954 375.807 497.505 375.492C498.056 375.167 498.508 374.744 498.862 374.223C499.521 373.22 499.851 371.931 499.851 370.357C499.851 367.859 499.059 366.148 497.475 365.223C496.925 364.898 496.266 364.736 495.498 364.736C494.731 364.736 494.062 364.898 493.492 365.223C492.931 365.538 492.469 365.956 492.105 366.477C491.377 367.5 491.013 368.793 491.013 370.357ZM516.228 365.474C515.687 365.316 515.038 365.238 514.28 365.238C513.533 365.238 512.918 365.316 512.436 365.474C511.954 365.621 511.531 365.803 511.167 366.02C510.498 366.413 510.011 366.856 509.706 367.348V378H506.756V362.774H509.588L509.706 364.884C510.444 363.959 511.521 363.266 512.938 362.803C513.449 362.626 514.034 362.538 514.693 362.538C515.352 362.538 515.864 362.587 516.228 362.685V365.474ZM529.433 357.462H534.611C538.005 357.462 540.193 358.441 541.177 360.398C541.541 361.136 541.723 361.869 541.723 362.597C541.723 363.325 541.644 363.905 541.487 364.338C541.339 364.761 541.138 365.149 540.882 365.503C540.4 366.172 539.76 366.743 538.964 367.215V367.274C540.439 367.697 541.526 368.439 542.224 369.502C542.756 370.308 543.021 371.203 543.021 372.187C543.021 373.171 542.824 374.021 542.431 374.739C542.047 375.457 541.511 376.057 540.823 376.539C539.416 377.513 537.538 378 535.187 378H529.433V357.462ZM535.172 366.418C536.756 366.418 537.823 365.793 538.374 364.544C538.56 364.102 538.654 363.61 538.654 363.069C538.654 362.518 538.585 362.046 538.447 361.653C538.31 361.249 538.088 360.905 537.783 360.62C537.134 360.01 536.156 359.705 534.847 359.705H532.383V366.418H535.172ZM539.952 372.246C539.952 369.856 538.516 368.661 535.644 368.661H532.383V375.757H535.187C537.351 375.757 538.811 375.103 539.569 373.795C539.824 373.352 539.952 372.836 539.952 372.246ZM545.869 370.357C545.869 367.967 546.631 366.03 548.156 364.544C549.582 363.157 551.347 362.464 553.452 362.464C555.518 362.464 557.244 363.157 558.631 364.544C560.106 366.02 560.844 367.957 560.844 370.357C560.844 372.748 560.101 374.675 558.616 376.141C557.21 377.538 555.483 378.236 553.437 378.236C551.362 378.236 549.601 377.538 548.156 376.141C546.631 374.675 545.869 372.748 545.869 370.357ZM548.937 370.357C548.937 372.875 549.744 374.587 551.357 375.492C551.928 375.807 552.611 375.964 553.408 375.964C554.205 375.964 554.878 375.807 555.429 375.492C555.98 375.167 556.433 374.744 556.787 374.223C557.446 373.22 557.775 371.931 557.775 370.357C557.775 367.859 556.983 366.148 555.4 365.223C554.849 364.898 554.19 364.736 553.423 364.736C552.656 364.736 551.987 364.898 551.416 365.223C550.856 365.538 550.393 365.956 550.029 366.477C549.301 367.5 548.937 368.793 548.937 370.357ZM566.775 364.441C567.631 363.782 568.59 363.3 569.652 362.995C570.724 362.69 571.659 362.538 572.455 362.538C573.252 362.538 573.867 362.557 574.3 362.597V356.046H577.236V378H574.595L574.477 376.244C573.877 377.041 572.967 377.631 571.747 378.015C571.275 378.162 570.793 378.236 570.301 378.236C569.819 378.236 569.342 378.187 568.87 378.089C568.398 377.99 567.926 377.828 567.454 377.602C566.992 377.366 566.549 377.061 566.126 376.687C565.703 376.303 565.324 375.836 564.99 375.285C564.282 374.075 563.928 372.644 563.928 370.992C563.928 369.339 564.188 368.002 564.71 366.979C565.241 365.946 565.929 365.1 566.775 364.441ZM568.56 366.197C568.059 366.669 567.67 367.279 567.395 368.026C567.129 368.764 566.996 369.664 566.996 370.726C566.996 371.779 567.124 372.649 567.38 373.338C567.636 374.016 567.955 374.548 568.339 374.931C569.018 375.62 569.834 375.964 570.788 375.964C572.018 375.964 573.036 375.511 573.842 374.607C574.049 374.38 574.196 374.179 574.285 374.002V364.928L573.99 364.898C573.537 364.839 572.996 364.81 572.367 364.81C571.747 364.81 571.083 364.923 570.375 365.149C569.667 365.366 569.062 365.715 568.56 366.197ZM581.455 381.777C581.721 381.856 582.08 381.895 582.532 381.895C582.995 381.895 583.467 381.802 583.949 381.615C584.431 381.438 584.849 381.187 585.203 380.862C585.793 380.331 586.329 379.495 586.811 378.354L580.555 362.774H583.698L588.095 374.902L592.034 362.774H595.147L588.891 379.874C588.419 381.152 587.765 382.131 586.929 382.81C585.828 383.695 584.357 384.138 582.518 384.138C582.351 384.138 582.178 384.128 582.001 384.108L581.455 384.049V381.777Z" fill="#0E0A1D"/>
<path d="M1291.34 327.44C1289.88 327.44 1288.83 327.228 1288.21 326.804C1287.59 326.348 1287.22 325.778 1287.09 325.093C1286.96 324.376 1286.89 323.659 1286.89 322.942V297.662C1286.89 295.967 1287.22 294.81 1287.87 294.191C1288.56 293.539 1289.76 293.213 1291.49 293.213H1309.39C1310.14 293.213 1310.84 293.278 1311.49 293.408C1312.17 293.539 1312.73 293.914 1313.15 294.533C1313.57 295.152 1313.79 296.212 1313.79 297.711C1313.79 299.178 1313.56 300.221 1313.1 300.841C1312.68 301.46 1312.12 301.835 1311.44 301.965C1310.76 302.096 1310.04 302.161 1309.29 302.161H1295.84V306.513H1304.84C1305.59 306.513 1306.26 306.578 1306.84 306.708C1307.46 306.806 1307.94 307.132 1308.26 307.686C1308.62 308.208 1308.8 309.12 1308.8 310.424C1308.8 311.663 1308.62 312.543 1308.26 313.065C1307.9 313.586 1307.41 313.896 1306.79 313.994C1306.21 314.091 1305.54 314.14 1304.79 314.14H1295.84V322.991C1295.84 323.708 1295.78 324.409 1295.65 325.093C1295.52 325.778 1295.14 326.348 1294.52 326.804C1293.9 327.228 1292.84 327.44 1291.34 327.44ZM1317.98 327.44C1316.51 327.44 1315.47 327.228 1314.85 326.804C1314.23 326.348 1313.85 325.778 1313.72 325.093C1313.63 324.376 1313.58 323.659 1313.58 322.942V307.002C1313.58 306.252 1313.64 305.551 1313.77 304.899C1313.9 304.214 1314.28 303.66 1314.9 303.237C1315.52 302.813 1316.56 302.601 1318.03 302.601C1319.46 302.601 1320.47 302.796 1321.06 303.188C1321.68 303.579 1322.05 304.019 1322.18 304.508C1322.31 304.964 1322.38 305.323 1322.38 305.584L1321.6 305.29C1321.6 305.29 1321.73 305.144 1321.99 304.85C1322.25 304.557 1322.62 304.214 1323.11 303.823C1323.63 303.432 1324.24 303.09 1324.92 302.796C1325.64 302.503 1326.44 302.356 1327.32 302.356C1327.61 302.356 1327.97 302.389 1328.39 302.454C1328.85 302.487 1329.32 302.568 1329.81 302.699C1330.33 302.829 1330.8 303.025 1331.23 303.285C1331.68 303.546 1332.04 303.889 1332.3 304.312C1332.6 304.736 1332.74 305.258 1332.74 305.877C1332.74 307.507 1332.39 308.892 1331.67 310.033C1330.98 311.174 1330.07 311.744 1328.93 311.744C1328.31 311.744 1327.87 311.712 1327.61 311.647C1327.35 311.549 1327.15 311.467 1327.02 311.402C1326.93 311.304 1326.8 311.223 1326.63 311.158C1326.5 311.06 1326.24 311.011 1325.85 311.011C1325.36 311.011 1324.9 311.076 1324.48 311.207C1324.09 311.304 1323.73 311.467 1323.41 311.696C1323.11 311.924 1322.88 312.201 1322.72 312.527C1322.56 312.82 1322.48 313.146 1322.48 313.505V323.039C1322.48 323.757 1322.41 324.457 1322.28 325.142C1322.15 325.826 1321.78 326.381 1321.16 326.804C1320.54 327.228 1319.48 327.44 1317.98 327.44ZM1345.82 327.978C1343.37 327.978 1341.3 327.587 1339.61 326.804C1337.91 325.989 1336.54 324.946 1335.5 323.675C1334.46 322.371 1333.69 320.969 1333.2 319.47C1332.71 317.971 1332.47 316.52 1332.47 315.118C1332.47 312.543 1333.04 310.278 1334.18 308.322C1335.32 306.366 1336.9 304.834 1338.92 303.726C1340.94 302.617 1343.26 302.063 1345.87 302.063C1347.89 302.063 1349.61 302.389 1351.05 303.041C1352.48 303.693 1353.64 304.524 1354.52 305.535C1355.43 306.545 1356.1 307.621 1356.53 308.762C1356.95 309.903 1357.16 310.962 1357.16 311.94C1357.16 313.798 1356.7 315.216 1355.79 316.194C1354.88 317.172 1353.71 317.661 1352.27 317.661H1341.86C1341.99 318.182 1342.25 318.639 1342.64 319.03C1343.06 319.389 1343.58 319.682 1344.2 319.91C1344.82 320.106 1345.49 320.203 1346.21 320.203C1346.93 320.203 1347.56 320.171 1348.12 320.106C1348.67 320.008 1349.14 319.894 1349.53 319.763C1349.96 319.633 1350.33 319.503 1350.66 319.372C1351.02 319.242 1351.33 319.144 1351.59 319.079C1351.88 318.981 1352.16 318.932 1352.42 318.932C1353.01 318.932 1353.54 319.128 1354.03 319.519C1354.52 319.91 1354.96 320.497 1355.35 321.279C1355.58 321.703 1355.74 322.11 1355.84 322.502C1355.94 322.86 1355.99 323.202 1355.99 323.528C1355.99 324.506 1355.58 325.321 1354.77 325.973C1353.98 326.625 1352.84 327.114 1351.34 327.44C1349.84 327.799 1348 327.978 1345.82 327.978ZM1341.86 313.065H1347.33C1347.79 313.065 1348.12 312.967 1348.31 312.771C1348.54 312.576 1348.65 312.282 1348.65 311.891C1348.65 311.467 1348.52 311.109 1348.26 310.815C1348.03 310.522 1347.71 310.31 1347.28 310.18C1346.86 310.017 1346.36 309.935 1345.77 309.935C1344.99 309.935 1344.3 310.098 1343.71 310.424C1343.13 310.718 1342.67 311.109 1342.35 311.598C1342.05 312.054 1341.89 312.543 1341.86 313.065ZM1369.93 327.342C1368.46 327.342 1367.05 327.016 1365.68 326.364C1364.34 325.68 1363.13 324.767 1362.06 323.626C1361.02 322.453 1360.18 321.116 1359.56 319.617C1358.95 318.117 1358.64 316.553 1358.64 314.923C1358.64 313.358 1358.95 311.842 1359.56 310.375C1360.18 308.908 1361.03 307.605 1362.11 306.464C1363.18 305.29 1364.39 304.361 1365.73 303.677C1367.09 302.992 1368.5 302.65 1369.93 302.65C1371.5 302.65 1372.85 302.992 1373.99 303.677C1375.13 304.329 1376.08 305.225 1376.83 306.366C1377.57 307.507 1378.13 308.811 1378.49 310.278C1378.88 311.744 1379.09 313.26 1379.12 314.825C1379.16 316.422 1378.99 317.971 1378.63 319.47C1378.28 320.937 1377.72 322.273 1376.97 323.479C1376.22 324.653 1375.26 325.598 1374.09 326.315C1372.95 327 1371.56 327.342 1369.93 327.342ZM1371.1 318.541C1371.72 318.541 1372.29 318.378 1372.82 318.052C1373.34 317.726 1373.76 317.302 1374.09 316.781C1374.41 316.227 1374.58 315.64 1374.58 315.02C1374.58 314.369 1374.41 313.782 1374.09 313.26C1373.79 312.739 1373.39 312.315 1372.86 311.989C1372.34 311.663 1371.74 311.5 1371.06 311.5C1370.4 311.5 1369.8 311.663 1369.25 311.989C1368.72 312.282 1368.3 312.706 1367.97 313.26C1367.68 313.782 1367.53 314.369 1367.53 315.02C1367.53 315.64 1367.7 316.227 1368.02 316.781C1368.35 317.302 1368.79 317.726 1369.34 318.052C1369.9 318.378 1370.48 318.541 1371.1 318.541ZM1379.12 327.391C1377.82 327.391 1376.84 327.196 1376.19 326.804C1375.54 326.413 1375.1 325.794 1374.87 324.946V295.853C1374.87 295.136 1374.9 294.435 1374.97 293.751C1375.06 293.066 1375.41 292.512 1375.99 292.088C1376.58 291.632 1377.61 291.404 1379.07 291.404C1380.57 291.404 1381.62 291.616 1382.2 292.039C1382.82 292.463 1383.2 293.017 1383.33 293.702C1383.46 294.354 1383.52 295.055 1383.52 295.804V322.942C1383.52 323.659 1383.46 324.36 1383.33 325.044C1383.2 325.729 1382.82 326.299 1382.2 326.756C1381.62 327.179 1380.59 327.391 1379.12 327.391ZM1398.67 327.88C1397.17 327.88 1395.65 327.587 1394.12 327C1392.59 326.381 1391.17 325.517 1389.87 324.409C1388.59 323.268 1387.57 321.915 1386.79 320.35C1386.04 318.753 1385.66 316.976 1385.66 315.02C1385.66 313.228 1386 311.549 1386.69 309.984C1387.37 308.42 1388.3 307.05 1389.47 305.877C1390.68 304.671 1392.05 303.726 1393.58 303.041C1395.15 302.356 1396.81 302.014 1398.57 302.014C1400.98 302.014 1403.17 302.601 1405.12 303.774C1407.08 304.915 1408.64 306.464 1409.82 308.42C1410.99 310.375 1411.58 312.559 1411.58 314.972C1411.58 317.025 1411.18 318.851 1410.4 320.448C1409.62 322.045 1408.59 323.398 1407.32 324.506C1406.05 325.615 1404.65 326.446 1403.12 327C1401.62 327.587 1400.13 327.88 1398.67 327.88ZM1398.57 318.932C1399.06 318.932 1399.61 318.818 1400.23 318.59C1400.88 318.329 1401.44 317.905 1401.89 317.319C1402.38 316.732 1402.63 315.933 1402.63 314.923C1402.63 314.108 1402.45 313.407 1402.09 312.82C1401.76 312.233 1401.29 311.777 1400.67 311.451C1400.05 311.125 1399.34 310.962 1398.52 310.962C1397.8 310.962 1397.15 311.141 1396.56 311.5C1395.98 311.826 1395.51 312.299 1395.15 312.918C1394.79 313.505 1394.61 314.189 1394.61 314.972C1394.61 315.95 1394.84 316.732 1395.29 317.319C1395.75 317.905 1396.29 318.329 1396.91 318.59C1397.53 318.818 1398.08 318.932 1398.57 318.932ZM1434.88 319.372C1436.09 320.448 1436.72 321.475 1436.79 322.453C1436.89 323.398 1436.35 324.49 1435.17 325.729C1434.29 326.641 1433.53 327.228 1432.88 327.489C1432.26 327.782 1431.64 327.782 1431.02 327.489C1430.4 327.228 1429.67 326.723 1428.82 325.973L1422.8 320.35V323.039C1422.8 323.757 1422.74 324.457 1422.61 325.142C1422.48 325.826 1422.1 326.381 1421.48 326.804C1420.9 327.228 1419.85 327.44 1418.35 327.44C1416.89 327.44 1415.84 327.228 1415.22 326.804C1414.61 326.348 1414.23 325.778 1414.1 325.093C1414 324.409 1413.95 323.708 1413.95 322.991V295.755C1413.95 295.006 1414.02 294.305 1414.15 293.653C1414.28 292.968 1414.65 292.414 1415.27 291.99C1415.89 291.534 1416.94 291.306 1418.4 291.306C1419.87 291.306 1420.9 291.534 1421.48 291.99C1422.1 292.414 1422.48 292.968 1422.61 293.653C1422.74 294.337 1422.8 295.055 1422.8 295.804V309.3L1426.96 305.241C1427.74 304.492 1428.48 303.986 1429.16 303.726C1429.84 303.432 1430.51 303.416 1431.16 303.677C1431.85 303.905 1432.57 304.426 1433.32 305.241C1434.59 306.61 1435.19 307.719 1435.13 308.566C1435.09 309.414 1434.49 310.424 1433.32 311.598L1429.36 315.069L1434.88 319.372ZM1457.1 327.342C1455.63 327.342 1454.54 327.098 1453.83 326.609C1453.14 326.12 1452.81 325.566 1452.85 324.946H1453.53C1453.37 325.175 1453.04 325.484 1452.55 325.875C1452.1 326.234 1451.48 326.576 1450.7 326.902C1449.91 327.196 1448.95 327.342 1447.81 327.342C1446.34 327.342 1444.93 327.016 1443.56 326.364C1442.22 325.68 1441.01 324.751 1439.94 323.577C1438.9 322.404 1438.06 321.084 1437.44 319.617C1436.83 318.117 1436.52 316.553 1436.52 314.923C1436.52 313.325 1436.83 311.793 1437.44 310.326C1438.06 308.86 1438.91 307.556 1439.99 306.415C1441.06 305.241 1442.27 304.329 1443.61 303.677C1444.94 302.992 1446.34 302.65 1447.81 302.65C1448.92 302.65 1449.85 302.813 1450.6 303.139C1451.38 303.465 1452 303.823 1452.46 304.214C1452.95 304.606 1453.27 304.932 1453.43 305.192H1452.9C1452.86 304.377 1453.19 303.742 1453.87 303.285C1454.59 302.829 1455.68 302.601 1457.15 302.601C1458.62 302.601 1459.64 302.829 1460.23 303.285C1460.85 303.709 1461.22 304.263 1461.36 304.948C1461.49 305.632 1461.55 306.333 1461.55 307.05V322.942C1461.55 323.659 1461.49 324.36 1461.36 325.044C1461.22 325.729 1460.85 326.283 1460.23 326.707C1459.64 327.13 1458.6 327.342 1457.1 327.342ZM1449.03 318.492C1449.65 318.492 1450.21 318.329 1450.7 318.003C1451.22 317.677 1451.62 317.253 1451.92 316.732C1452.24 316.178 1452.41 315.591 1452.41 314.972C1452.41 314.32 1452.24 313.733 1451.92 313.211C1451.62 312.69 1451.22 312.266 1450.7 311.94C1450.17 311.614 1449.59 311.451 1448.94 311.451C1448.28 311.451 1447.68 311.614 1447.13 311.94C1446.6 312.266 1446.18 312.706 1445.86 313.26C1445.53 313.782 1445.37 314.369 1445.37 315.02C1445.37 315.64 1445.53 316.21 1445.86 316.732C1446.21 317.253 1446.67 317.677 1447.22 318.003C1447.78 318.329 1448.38 318.492 1449.03 318.492Z" fill="#0E0A1D"/>
<path d="M1216.27 357.462H1230.24V360.03H1219.22V366.079H1227.74V368.557H1219.22V378H1216.27V357.462ZM1232.94 370.357C1232.94 367.967 1233.71 366.03 1235.23 364.544C1236.66 363.157 1238.42 362.464 1240.53 362.464C1242.59 362.464 1244.32 363.157 1245.71 364.544C1247.18 366.02 1247.92 367.957 1247.92 370.357C1247.92 372.748 1247.18 374.675 1245.69 376.141C1244.29 377.538 1242.56 378.236 1240.51 378.236C1238.44 378.236 1236.68 377.538 1235.23 376.141C1233.71 374.675 1232.94 372.748 1232.94 370.357ZM1236.01 370.357C1236.01 372.875 1236.82 374.587 1238.43 375.492C1239 375.807 1239.69 375.964 1240.48 375.964C1241.28 375.964 1241.95 375.807 1242.5 375.492C1243.06 375.167 1243.51 374.744 1243.86 374.223C1244.52 373.22 1244.85 371.931 1244.85 370.357C1244.85 367.859 1244.06 366.148 1242.48 365.223C1241.92 364.898 1241.27 364.736 1240.5 364.736C1239.73 364.736 1239.06 364.898 1238.49 365.223C1237.93 365.538 1237.47 365.956 1237.1 366.477C1236.38 367.5 1236.01 368.793 1236.01 370.357ZM1261.23 365.474C1260.69 365.316 1260.04 365.238 1259.28 365.238C1258.53 365.238 1257.92 365.316 1257.44 365.474C1256.95 365.621 1256.53 365.803 1256.17 366.02C1255.5 366.413 1255.01 366.856 1254.71 367.348V378H1251.76V362.774H1254.59L1254.71 364.884C1255.44 363.959 1256.52 363.266 1257.94 362.803C1258.45 362.626 1259.03 362.538 1259.69 362.538C1260.35 362.538 1260.86 362.587 1261.23 362.685V365.474ZM1274.2 357.462H1277.15V365.577H1286.86V357.462H1289.81V378H1286.86V368.174H1277.15V378H1274.2V357.462ZM1301.48 378.236C1295.91 378.236 1293.13 375.516 1293.13 370.077C1293.13 367.736 1293.9 365.862 1295.44 364.456C1296.83 363.177 1298.41 362.538 1300.19 362.538C1302.13 362.538 1303.65 363.187 1304.74 364.485C1305.75 365.695 1306.26 367.313 1306.26 369.339V370.49H1296.19C1296.19 373.274 1297.33 374.975 1299.6 375.595C1300.14 375.743 1300.98 375.816 1302.1 375.816C1303.23 375.816 1304.33 375.664 1305.42 375.359V377.852C1304.33 378.108 1303.02 378.236 1301.48 378.236ZM1303.31 368.321C1303.31 367.377 1303.05 366.58 1302.52 365.931C1301.91 365.184 1301.07 364.81 1300 364.81C1298.87 364.81 1297.95 365.169 1297.24 365.887C1296.59 366.556 1296.27 367.367 1296.27 368.321H1303.31ZM1310.18 375.285C1309.86 374.725 1309.6 374.066 1309.4 373.308C1309.21 372.551 1309.12 371.562 1309.12 370.343C1309.12 369.123 1309.38 368.002 1309.9 366.979C1310.43 365.946 1311.12 365.1 1311.97 364.441C1313.61 363.172 1315.65 362.538 1318.09 362.538C1319.36 362.538 1320.32 362.567 1320.97 362.626C1320.97 362.626 1321.44 362.675 1322.4 362.774V378H1319.74L1319.62 376.244C1319.03 377.031 1318.13 377.616 1316.92 378C1316.46 378.148 1315.98 378.221 1315.49 378.221C1315.01 378.221 1314.53 378.172 1314.06 378.074C1313.59 377.975 1313.12 377.813 1312.65 377.587C1312.18 377.361 1311.74 377.061 1311.32 376.687C1310.89 376.303 1310.52 375.836 1310.18 375.285ZM1319.45 364.943C1318.82 364.864 1318.19 364.825 1317.56 364.825C1316.94 364.825 1316.28 364.938 1315.57 365.164C1314.86 365.38 1314.25 365.725 1313.75 366.197C1312.71 367.18 1312.19 368.68 1312.19 370.697C1312.19 372.605 1312.64 374.016 1313.53 374.931C1314.21 375.61 1315.03 375.949 1315.98 375.949C1317.21 375.949 1318.22 375.502 1319.02 374.607C1319.22 374.38 1319.36 374.179 1319.45 374.002V364.943ZM1329.42 364.441C1330.28 363.782 1331.24 363.3 1332.3 362.995C1333.37 362.69 1334.3 362.538 1335.1 362.538C1335.9 362.538 1336.51 362.557 1336.95 362.597V356.046H1339.88V378H1337.24L1337.12 376.244C1336.52 377.041 1335.61 377.631 1334.39 378.015C1333.92 378.162 1333.44 378.236 1332.95 378.236C1332.47 378.236 1331.99 378.187 1331.52 378.089C1331.04 377.99 1330.57 377.828 1330.1 377.602C1329.64 377.366 1329.19 377.061 1328.77 376.687C1328.35 376.303 1327.97 375.836 1327.64 375.285C1326.93 374.075 1326.57 372.644 1326.57 370.992C1326.57 369.339 1326.83 368.002 1327.36 366.979C1327.89 365.946 1328.58 365.1 1329.42 364.441ZM1331.21 366.197C1330.7 366.669 1330.32 367.279 1330.04 368.026C1329.78 368.764 1329.64 369.664 1329.64 370.726C1329.64 371.779 1329.77 372.649 1330.03 373.338C1330.28 374.016 1330.6 374.548 1330.98 374.931C1331.66 375.62 1332.48 375.964 1333.43 375.964C1334.66 375.964 1335.68 375.511 1336.49 374.607C1336.69 374.38 1336.84 374.179 1336.93 374.002V364.928L1336.64 364.898C1336.18 364.839 1335.64 364.81 1335.01 364.81C1334.39 364.81 1333.73 364.923 1333.02 365.149C1332.31 365.366 1331.71 365.715 1331.21 366.197ZM1348.17 358.348C1348.17 358.908 1347.99 359.341 1347.61 359.646C1347.25 359.941 1346.79 360.089 1346.24 360.089C1345.69 360.089 1345.23 359.941 1344.87 359.646C1344.51 359.341 1344.34 358.908 1344.34 358.348C1344.34 357.777 1344.51 357.344 1344.87 357.049C1345.23 356.754 1345.69 356.607 1346.24 356.607C1346.79 356.607 1347.25 356.754 1347.61 357.049C1347.99 357.344 1348.17 357.777 1348.17 358.348ZM1344.72 362.774H1347.67V378H1344.72V362.774ZM1359.18 365.075C1357.71 365.075 1356.41 365.572 1355.27 366.566V378H1352.32V362.774H1355.05L1355.26 364.426C1356.86 363.167 1358.52 362.538 1360.23 362.538C1362.04 362.538 1363.37 363.079 1364.21 364.161C1365.1 365.302 1365.54 367.141 1365.54 369.679V378H1362.59V369.679C1362.59 367.239 1361.93 365.784 1360.61 365.312C1360.19 365.154 1359.71 365.075 1359.18 365.075ZM1378.63 383.813C1377.77 384.029 1376.67 384.138 1375.32 384.138C1373.98 384.138 1373 384.039 1372.38 383.843V381.216C1373.16 381.551 1374.11 381.718 1375.23 381.718C1376.36 381.728 1377.19 381.654 1377.73 381.497C1378.26 381.339 1378.67 381.084 1378.98 380.73C1379.53 380.09 1379.81 378.934 1379.81 377.262V376.48C1379.06 377.228 1378.07 377.749 1376.86 378.044C1376.36 378.162 1375.87 378.221 1375.38 378.221C1374.89 378.221 1374.41 378.167 1373.93 378.059C1373.47 377.951 1373.01 377.779 1372.55 377.543C1372.08 377.297 1371.64 376.982 1371.22 376.598C1370.8 376.205 1370.42 375.718 1370.1 375.138C1369.37 373.879 1369.01 372.33 1369.01 370.49C1368.99 368.789 1369.48 367.293 1370.48 366.005C1371.35 364.884 1372.54 364.013 1374.05 363.393C1375.43 362.823 1376.92 362.538 1378.52 362.538C1380.13 362.538 1381.54 362.616 1382.76 362.774V377.262C1382.76 380.941 1381.38 383.125 1378.63 383.813ZM1379.81 364.928C1379.18 364.849 1378.56 364.81 1377.95 364.81C1377.34 364.81 1376.65 364.923 1375.9 365.149C1375.14 365.375 1374.48 365.72 1373.9 366.182C1372.66 367.195 1372.03 368.631 1372.03 370.49C1372.03 372.507 1372.52 373.977 1373.49 374.902C1374.22 375.6 1375.11 375.949 1376.16 375.949C1377.43 375.949 1378.5 375.502 1379.36 374.607C1379.57 374.38 1379.72 374.179 1379.81 374.002V364.928ZM1391.31 378.236C1390.08 378.236 1388.84 378.148 1387.58 377.97V375.359C1388.86 375.664 1390.16 375.816 1391.48 375.816C1394.11 375.816 1395.43 375.261 1395.43 374.149C1395.43 373.726 1395.33 373.411 1395.12 373.205C1394.82 372.88 1394.33 372.556 1393.67 372.231L1391.52 371.243C1390.12 370.544 1389.22 369.984 1388.81 369.561C1388.03 368.774 1387.64 367.839 1387.64 366.757C1387.64 365.538 1388.21 364.544 1389.34 363.777C1390.56 362.951 1392.27 362.538 1394.47 362.538C1395.58 362.538 1396.7 362.616 1397.84 362.774V365.297C1396.6 365.071 1395.51 364.957 1394.59 364.957C1393.67 364.957 1392.96 365.016 1392.45 365.134C1391.95 365.252 1391.57 365.4 1391.31 365.577C1390.91 365.852 1390.71 366.212 1390.71 366.654C1390.71 367.087 1390.85 367.441 1391.12 367.716C1391.41 367.982 1391.85 368.272 1392.45 368.587L1394.62 369.634C1396.04 370.372 1396.95 370.938 1397.35 371.331C1398.12 372.079 1398.5 373.018 1398.5 374.149C1398.5 375.359 1397.89 376.333 1396.67 377.07C1395.39 377.848 1393.61 378.236 1391.31 378.236Z" fill="#0E0A1D"/>
</g>
<defs>
<clipPath id="clip0_25_70">
<rect width="1920" height="1080" fill="white"/>
</clipPath>
</defs>
</svg>
