<svg width="1920" height="1080" viewBox="0 0 1920 1080" fill="none" xmlns="http://www.w3.org/2000/svg">
<g clip-path="url(#clip0_28_47)">
<rect width="1920" height="1080" fill="white"/>
<path d="M93 25C93 76.3625 51.3625 118 0 118C-51.3625 118 -93 76.3625 -93 25C-93 -26.3625 -51.3625 -68 0 -68C51.3625 -68 93 -26.3625 93 25ZM-61.975 25C-61.975 59.2278 -34.2278 86.975 0 86.975C34.2278 86.975 61.975 59.2278 61.975 25C61.975 -9.22783 34.2278 -36.975 0 -36.975C-34.2278 -36.975 -61.975 -9.22783 -61.975 25Z" fill="#FCBAD0"/>
<circle cx="1676.5" cy="475.5" r="32.5" fill="white"/>
<path d="M99.528 179.816C97.3093 177.085 96.2 174.653 96.2 172.52C96.2 170.301 98.0347 167.4 101.704 163.816C103.837 161.768 106.099 160.744 108.488 160.744C110.877 160.744 114.205 162.877 118.472 167.144C119.667 168.595 121.373 170.003 123.592 171.368C125.811 172.648 127.859 173.288 129.736 173.288C137.672 173.288 141.64 170.045 141.64 163.56C141.64 161.597 140.531 159.976 138.312 158.696C136.179 157.331 133.491 156.349 130.248 155.752C127.005 155.155 123.507 154.216 119.752 152.936C115.997 151.571 112.499 149.992 109.256 148.2C106.013 146.408 103.283 143.592 101.064 139.752C98.9307 135.827 97.864 131.133 97.864 125.672C97.864 118.163 100.637 111.635 106.184 106.088C111.816 100.456 119.453 97.64 129.096 97.64C134.216 97.64 138.867 98.3227 143.048 99.688C147.315 100.968 150.259 102.291 151.88 103.656L155.08 106.088C157.725 108.563 159.048 110.653 159.048 112.36C159.048 114.067 158.024 116.413 155.976 119.4C153.075 123.667 150.088 125.8 147.016 125.8C145.224 125.8 143.005 124.947 140.36 123.24C140.104 123.069 139.592 122.643 138.824 121.96C138.141 121.277 137.501 120.723 136.904 120.296C135.112 119.187 132.808 118.632 129.992 118.632C127.261 118.632 124.957 119.315 123.08 120.68C121.288 121.96 120.392 123.795 120.392 126.184C120.392 128.488 121.459 130.365 123.592 131.816C125.811 133.267 128.541 134.248 131.784 134.76C135.027 135.272 138.568 136.083 142.408 137.192C146.248 138.216 149.789 139.496 153.032 141.032C156.275 142.568 158.963 145.256 161.096 149.096C163.315 152.851 164.424 157.501 164.424 163.048C164.424 168.595 163.315 173.501 161.096 177.768C158.877 181.949 155.976 185.192 152.392 187.496C145.48 192.019 138.099 194.28 130.248 194.28C126.237 194.28 122.44 193.811 118.856 192.872C115.272 191.848 112.371 190.611 110.152 189.16C105.629 186.429 102.472 183.784 100.68 181.224L99.528 179.816ZM210.121 125.8C218.654 125.8 225.737 129.043 231.369 135.528C237.086 142.013 239.945 149.949 239.945 159.336V181.864C239.945 183.827 239.86 185.32 239.689 186.344C239.604 187.283 239.22 188.392 238.537 189.672C237.428 191.891 234.142 193 228.681 193C223.476 193 220.233 191.891 218.953 189.672C218.27 188.392 217.844 187.24 217.673 186.216C217.588 185.192 217.545 183.656 217.545 181.608V159.208C217.545 155.709 216.564 152.979 214.601 151.016C212.638 149.053 210.121 148.072 207.049 148.072C204.062 148.072 201.417 149.011 199.113 150.888C196.809 152.68 195.486 154.728 195.145 157.032V181.864C195.145 183.827 195.06 185.32 194.889 186.344C194.804 187.283 194.42 188.392 193.737 189.672C192.628 191.891 189.342 193 183.881 193C178.505 193 175.22 191.848 174.025 189.544C173.428 188.264 173.044 187.155 172.873 186.216C172.788 185.277 172.745 183.784 172.745 181.736V105.192C172.745 103.229 172.788 101.779 172.873 100.84C173.044 99.816 173.428 98.7067 174.025 97.512C175.22 95.208 178.548 94.056 184.009 94.056C189.385 94.056 192.628 95.208 193.737 97.512C194.42 98.792 194.804 99.944 194.889 100.968C195.06 101.907 195.145 103.357 195.145 105.32V133.608C199.412 128.403 204.404 125.8 210.121 125.8ZM294.021 132.712C294.533 127.933 297.904 125.544 304.133 125.544C307.461 125.544 309.936 125.8 311.557 126.312C313.178 126.824 314.288 127.72 314.885 129C315.568 130.28 315.952 131.432 316.037 132.456C316.208 133.395 316.293 134.845 316.293 136.808V181.608C316.293 183.571 316.208 185.064 316.037 186.088C315.952 187.027 315.61 188.136 315.013 189.416C313.818 191.635 310.874 192.744 306.181 192.744C301.573 192.744 298.458 192.189 296.837 191.08C295.301 189.885 294.405 188.179 294.149 185.96C290.992 190.483 285.701 192.744 278.277 192.744C270.938 192.744 264.112 189.373 257.797 182.632C251.482 175.891 248.325 168.083 248.325 159.208C248.325 150.248 251.482 142.44 257.797 135.784C264.197 129.043 271.194 125.672 278.789 125.672C281.69 125.672 284.336 126.184 286.725 127.208C289.114 128.232 290.778 129.213 291.717 130.152C292.656 131.005 293.424 131.859 294.021 132.712ZM270.725 159.336C270.725 162.152 271.834 164.712 274.053 167.016C276.272 169.235 278.96 170.344 282.117 170.344C285.274 170.344 287.877 169.192 289.925 166.888C292.058 164.584 293.125 162.067 293.125 159.336C293.125 156.52 292.101 153.917 290.053 151.528C288.09 149.139 285.402 147.944 281.989 147.944C278.661 147.944 275.93 149.139 273.797 151.528C271.749 153.917 270.725 156.52 270.725 159.336ZM326.495 211.304V136.552C326.495 134.589 326.538 133.139 326.623 132.2C326.794 131.261 327.178 130.195 327.775 129C328.97 126.696 331.828 125.544 336.351 125.544C340.874 125.544 343.903 126.141 345.439 127.336C347.06 128.445 347.999 130.109 348.255 132.328C351.498 127.891 356.575 125.672 363.487 125.672C370.484 125.672 377.098 128.957 383.327 135.528C389.556 142.099 392.671 149.736 392.671 158.44C392.671 167.144 389.556 174.781 383.327 181.352C377.183 187.923 370.612 191.208 363.615 191.208C356.618 191.208 351.54 189.245 348.383 185.32V211.176C348.383 213.139 348.298 214.589 348.127 215.528C348.042 216.467 347.658 217.533 346.975 218.728C346.378 220.008 345.311 220.904 343.775 221.416C342.239 221.928 340.148 222.184 337.503 222.184C334.858 222.184 332.724 221.928 331.103 221.416C329.567 220.904 328.458 220.051 327.775 218.856C327.178 217.661 326.794 216.595 326.623 215.656C326.538 214.717 326.495 213.267 326.495 211.304ZM351.839 151.016C349.876 153.32 348.895 155.837 348.895 158.568C348.895 161.299 349.876 163.816 351.839 166.12C353.887 168.339 356.447 169.448 359.519 169.448C362.676 169.448 365.322 168.339 367.455 166.12C369.674 163.901 370.783 161.384 370.783 158.568C370.783 155.752 369.759 153.235 367.711 151.016C365.663 148.712 362.975 147.56 359.647 147.56C356.404 147.56 353.802 148.712 351.839 151.016ZM466.019 151.272C466.019 156.477 464.696 160.36 462.051 162.92C459.491 165.395 456.632 166.632 453.475 166.632H423.139C423.139 169.021 424.547 171.027 427.363 172.648C430.179 174.269 432.995 175.08 435.811 175.08C440.76 175.08 444.643 174.568 447.459 173.544L448.867 173.032C450.915 172.093 452.622 171.624 453.987 171.624C456.718 171.624 459.064 173.544 461.027 177.384C462.136 179.688 462.691 181.651 462.691 183.272C462.691 190.867 453.603 194.664 435.427 194.664C429.112 194.664 423.48 193.597 418.531 191.464C413.667 189.245 409.87 186.344 407.139 182.76C401.763 175.848 399.075 168.125 399.075 159.592C399.075 148.84 402.531 140.264 409.443 133.864C416.44 127.379 425.144 124.136 435.555 124.136C447.416 124.136 456.12 128.317 461.667 136.68C464.568 141.117 466.019 145.981 466.019 151.272ZM439.011 154.984C442.254 154.984 443.875 153.619 443.875 150.888C443.875 148.925 443.107 147.347 441.571 146.152C440.12 144.957 437.987 144.36 435.171 144.36C432.44 144.36 429.71 145.512 426.979 147.816C424.248 150.035 422.883 152.424 422.883 154.984H439.011ZM474.882 186.984C473.261 185.96 472.45 184.339 472.45 182.12C472.45 179.901 474.071 176.531 477.314 172.008C478.253 170.557 479.746 169.832 481.794 169.832C483.927 169.832 486.786 170.899 490.37 173.032C493.954 175.08 497.197 176.104 500.098 176.104C505.303 176.104 507.906 175.08 507.906 173.032C507.906 171.411 505.047 170.216 499.33 169.448C493.954 168.68 488.621 166.675 483.33 163.432C480.855 161.896 478.807 159.507 477.186 156.264C475.565 152.936 474.754 149.011 474.754 144.488C474.754 131.005 484.013 124.264 502.53 124.264C508.589 124.264 514.818 125.715 521.218 128.616C524.205 129.981 525.698 131.688 525.698 133.736C525.698 135.784 524.759 138.301 522.882 141.288C521.005 144.275 519.085 145.768 517.122 145.768C516.098 145.768 514.178 145.128 511.362 143.848C508.631 142.568 505.645 141.928 502.402 141.928C497.367 141.928 494.85 142.867 494.85 144.744C494.85 147.304 497.751 148.968 503.554 149.736C509.186 150.333 514.647 151.955 519.938 154.6C522.413 155.795 524.461 157.885 526.082 160.872C527.789 163.773 528.642 167.443 528.642 171.88C528.642 176.317 527.789 180.115 526.082 183.272C524.461 186.344 522.157 188.648 519.17 190.184C513.709 192.829 506.839 194.152 498.562 194.152C490.37 194.152 482.477 191.763 474.882 186.984Z" fill="#FF74B3"/>
<g filter="url(#filter0_d_28_47)">
<path d="M502 636C502 687.362 460.362 729 409 729C357.638 729 316 687.362 316 636C316 584.638 357.638 543 409 543C460.362 543 502 584.638 502 636ZM347.025 636C347.025 670.228 374.772 697.975 409 697.975C443.228 697.975 470.975 670.228 470.975 636C470.975 601.772 443.228 574.025 409 574.025C374.772 574.025 347.025 601.772 347.025 636Z" fill="white"/>
</g>
<g filter="url(#filter1_d_28_47)">
<circle cx="409" cy="869" r="93" fill="white"/>
</g>
<g filter="url(#filter2_d_28_47)">
<circle cx="408.5" cy="295.5" r="32.5" fill="white"/>
</g>
<g filter="url(#filter3_d_28_47)">
<path d="M477 435.5C477 473.332 446.332 504 408.5 504C370.668 504 340 473.332 340 435.5C340 397.668 370.668 367 408.5 367C446.332 367 477 397.668 477 435.5ZM355 435.5C355 460.711 383.289 489.5 408.5 489.5C433.711 489.5 459.5 460.711 459.5 435.5C459.5 410.289 433.711 383.5 408.5 383.5C383.289 383.5 355 410.289 355 435.5Z" fill="white"/>
</g>
<path d="M752 636C752 687.362 710.362 729 659 729C607.638 729 566 687.362 566 636C566 584.638 607.638 543 659 543C710.362 543 752 584.638 752 636ZM597.025 636C597.025 670.228 624.772 697.975 659 697.975C693.228 697.975 720.975 670.228 720.975 636C720.975 601.772 693.228 574.025 659 574.025C624.772 574.025 597.025 601.772 597.025 636Z" fill="#FCBAD0"/>
<g filter="url(#filter4_d_28_47)">
<circle cx="659" cy="869" r="93" fill="#FCBAD0"/>
</g>
<g filter="url(#filter5_d_28_47)">
<circle cx="658.5" cy="295.5" r="32.5" fill="#FCBAD0"/>
</g>
<path d="M727 435.5C727 473.332 696.332 504 658.5 504C620.668 504 590 473.332 590 435.5C590 397.668 620.668 367 658.5 367C696.332 367 727 397.668 727 435.5ZM605 435.5C605 460.711 633.289 489.5 658.5 489.5C683.711 489.5 709.5 460.711 709.5 435.5C709.5 410.289 683.711 383.5 658.5 383.5C633.289 383.5 605 410.289 605 435.5Z" fill="#FCBAD0"/>
<path d="M1002 636C1002 687.362 960.362 729 909 729C857.638 729 816 687.362 816 636C816 584.638 857.638 543 909 543C960.362 543 1002 584.638 1002 636ZM847.025 636C847.025 670.228 874.772 697.975 909 697.975C943.228 697.975 970.975 670.228 970.975 636C970.975 601.772 943.228 574.025 909 574.025C874.772 574.025 847.025 601.772 847.025 636Z" fill="#FF74B3"/>
<g filter="url(#filter6_d_28_47)">
<circle cx="909" cy="869" r="93" fill="#FF74B3"/>
</g>
<g filter="url(#filter7_d_28_47)">
<path d="M1566.03 873.5C1575.4 873.5 1583.15 881.153 1581.53 890.381C1579.19 903.654 1574.12 916.361 1566.57 927.668C1555.85 943.702 1540.63 956.199 1522.81 963.578C1505 970.958 1485.39 972.889 1466.48 969.127C1447.57 965.365 1430.19 956.079 1416.56 942.443C1402.92 928.807 1393.64 911.434 1389.87 892.521C1386.11 873.608 1388.04 854.004 1395.42 836.188C1402.8 818.373 1415.3 803.145 1431.33 792.432C1442.64 784.877 1455.35 779.806 1468.62 777.472C1477.85 775.85 1485.5 783.596 1485.5 792.966C1485.5 802.337 1477.77 809.712 1468.73 812.184C1462.17 813.978 1455.9 816.825 1450.18 820.646C1439.73 827.631 1431.58 837.559 1426.77 849.174C1421.96 860.789 1420.7 873.57 1423.15 885.901C1425.61 898.232 1431.66 909.559 1440.55 918.449C1449.44 927.339 1460.77 933.393 1473.1 935.846C1485.43 938.298 1498.21 937.04 1509.83 932.228C1521.44 927.417 1531.37 919.27 1538.35 908.816C1542.18 903.097 1545.02 896.829 1546.82 890.266C1549.29 881.227 1556.66 873.5 1566.03 873.5Z" fill="#FF74B3"/>
</g>
<path fill-rule="evenodd" clip-rule="evenodd" d="M1604 598.5C1604 622.135 1596.99 645.239 1583.86 664.891C1570.73 684.542 1552.07 699.859 1530.23 708.904C1508.39 717.948 1484.37 720.315 1461.19 715.704C1438.01 711.093 1416.71 699.712 1400 682.999C1383.29 666.287 1371.91 644.994 1367.3 621.813C1362.69 598.633 1365.05 574.605 1374.1 552.769C1383.14 530.934 1398.46 512.27 1418.11 499.139C1437.52 486.168 1460.31 479.171 1483.64 479.003V479C1483.73 479 1483.82 479 1483.9 479.001C1484.1 479 1484.3 479 1484.5 479V479.016C1490.28 479.232 1495.77 481.621 1499.87 485.724C1504.18 490.029 1506.6 495.868 1506.6 501.956C1506.6 508.044 1504.18 513.883 1499.87 518.188C1495.57 522.493 1489.73 524.912 1483.64 524.912V524.739C1469.35 524.905 1455.41 529.219 1443.52 537.166C1431.39 545.271 1421.93 556.792 1416.35 570.271C1410.77 583.75 1409.31 598.582 1412.15 612.891C1415 627.2 1422.02 640.344 1432.34 650.66C1442.66 660.977 1455.8 668.002 1470.11 670.849C1484.42 673.695 1499.25 672.234 1512.73 666.651C1526.21 661.068 1537.73 651.613 1545.83 639.482C1553.94 627.351 1558.27 613.09 1558.27 598.5H1558.09C1558.09 592.412 1560.51 586.573 1564.81 582.268C1569.12 577.963 1574.96 575.544 1581.04 575.544C1587.13 575.544 1592.97 577.963 1597.28 582.268C1601.58 586.573 1604 592.412 1604 598.5L1592.85 598.5C1592.85 595.368 1591.61 592.364 1589.39 590.15C1587.18 587.935 1584.18 586.691 1581.04 586.691C1577.91 586.691 1574.91 587.935 1572.69 590.15C1570.48 592.364 1569.23 595.368 1569.23 598.5H1569.24C1569.24 615.261 1564.27 631.645 1554.96 645.581C1545.65 659.517 1532.42 670.379 1516.93 676.793C1501.45 683.208 1484.41 684.886 1467.97 681.616C1451.53 678.346 1436.43 670.275 1424.58 658.423C1412.73 646.572 1404.65 631.472 1401.38 615.033C1398.11 598.594 1399.79 581.555 1406.21 566.07C1412.62 550.585 1423.48 537.35 1437.42 528.038C1451.24 518.803 1467.47 513.838 1484.09 513.757C1487.06 513.645 1489.88 512.416 1491.99 510.306C1494.21 508.092 1495.45 505.088 1495.45 501.956C1495.45 498.824 1494.21 495.82 1491.99 493.606C1489.98 491.594 1487.32 490.383 1484.5 490.178V490.33C1463.11 490.33 1442.19 496.674 1424.4 508.56C1406.62 520.445 1392.75 537.339 1384.56 557.105C1376.38 576.871 1374.23 598.62 1378.41 619.603C1382.58 640.586 1392.88 659.86 1408.01 674.988C1423.14 690.116 1442.41 700.418 1463.4 704.592C1484.38 708.766 1506.13 706.624 1525.9 698.436C1545.66 690.249 1562.55 676.385 1574.44 658.596C1586.33 640.808 1592.67 619.894 1592.67 598.5H1604Z" fill="#FF74B3"/>
<g filter="url(#filter8_d_28_47)">
<circle cx="908.5" cy="295.5" r="32.5" fill="#FF74B3"/>
</g>
<path d="M977 435.5C977 473.332 946.332 504 908.5 504C870.668 504 840 473.332 840 435.5C840 397.668 870.668 367 908.5 367C946.332 367 977 397.668 977 435.5ZM855 435.5C855 460.711 883.289 489.5 908.5 489.5C933.711 489.5 959.5 460.711 959.5 435.5C959.5 410.289 933.711 383.5 908.5 383.5C883.289 383.5 855 410.289 855 435.5Z" fill="#FF74B3"/>
<path d="M1252 636C1252 687.362 1210.36 729 1159 729C1107.64 729 1066 687.362 1066 636C1066 584.638 1107.64 543 1159 543C1210.36 543 1252 584.638 1252 636ZM1097.03 636C1097.03 670.228 1124.77 697.975 1159 697.975C1193.23 697.975 1220.97 670.228 1220.97 636C1220.97 601.772 1193.23 574.025 1159 574.025C1124.77 574.025 1097.03 601.772 1097.03 636Z" fill="#0E0A1D"/>
<g filter="url(#filter9_d_28_47)">
<circle cx="1159" cy="869" r="93" fill="#0E0A1D"/>
</g>
<g filter="url(#filter10_d_28_47)">
<circle cx="1158.5" cy="295.5" r="32.5" fill="#0E0A1D"/>
</g>
<path d="M1227 435.5C1227 473.332 1196.33 504 1158.5 504C1120.67 504 1090 473.332 1090 435.5C1090 397.668 1120.67 367 1158.5 367C1196.33 367 1227 397.668 1227 435.5ZM1105 435.5C1105 460.711 1133.29 489.5 1158.5 489.5C1183.71 489.5 1209.5 460.711 1209.5 435.5C1209.5 410.289 1183.71 383.5 1158.5 383.5C1133.29 383.5 1105 410.289 1105 435.5Z" fill="#0E0A1D"/>
<path d="M1422.06 331.818C1421.97 331.75 1421.89 331.688 1421.82 331.632C1422.01 331.576 1422.24 331.512 1422.52 331.432C1423.44 331.177 1424.8 330.796 1426.55 330.125C1430.06 328.783 1435.1 326.285 1441.3 321.309C1453.51 311.519 1470.19 292.149 1488.5 253.14C1489.25 268.286 1497.86 284.956 1509.13 299.229C1520.37 313.462 1534.34 325.403 1546.04 331.146C1541.29 331.764 1535.98 334.531 1530.58 338.692C1524.41 343.449 1518.05 350.083 1512.2 357.61C1501.47 371.402 1492.37 388.271 1489.17 402.212C1488.13 394.86 1484.18 387.349 1478.73 380.12C1472.32 371.634 1463.8 363.476 1455.29 356.337C1446.78 349.196 1438.28 343.062 1431.9 338.628C1429.88 337.221 1428.06 335.981 1426.54 334.936C1425.66 334.337 1424.88 333.802 1424.2 333.337C1423.27 332.695 1422.55 332.187 1422.06 331.818Z" fill="#FF74B3" stroke="#FF74B3"/>
</g>
<defs>
<filter id="filter0_d_28_47" x="306" y="533" width="206" height="206" filterUnits="userSpaceOnUse" color-interpolation-filters="sRGB">
<feFlood flood-opacity="0" result="BackgroundImageFix"/>
<feColorMatrix in="SourceAlpha" type="matrix" values="0 0 0 0 0 0 0 0 0 0 0 0 0 0 0 0 0 0 127 0" result="hardAlpha"/>
<feOffset/>
<feGaussianBlur stdDeviation="5"/>
<feComposite in2="hardAlpha" operator="out"/>
<feColorMatrix type="matrix" values="0 0 0 0 0 0 0 0 0 0 0 0 0 0 0 0 0 0 0.25 0"/>
<feBlend mode="normal" in2="BackgroundImageFix" result="effect1_dropShadow_28_47"/>
<feBlend mode="normal" in="SourceGraphic" in2="effect1_dropShadow_28_47" result="shape"/>
</filter>
<filter id="filter1_d_28_47" x="306" y="766" width="206" height="206" filterUnits="userSpaceOnUse" color-interpolation-filters="sRGB">
<feFlood flood-opacity="0" result="BackgroundImageFix"/>
<feColorMatrix in="SourceAlpha" type="matrix" values="0 0 0 0 0 0 0 0 0 0 0 0 0 0 0 0 0 0 127 0" result="hardAlpha"/>
<feOffset/>
<feGaussianBlur stdDeviation="5"/>
<feComposite in2="hardAlpha" operator="out"/>
<feColorMatrix type="matrix" values="0 0 0 0 0 0 0 0 0 0 0 0 0 0 0 0 0 0 0.25 0"/>
<feBlend mode="normal" in2="BackgroundImageFix" result="effect1_dropShadow_28_47"/>
<feBlend mode="normal" in="SourceGraphic" in2="effect1_dropShadow_28_47" result="shape"/>
</filter>
<filter id="filter2_d_28_47" x="366" y="253" width="85" height="85" filterUnits="userSpaceOnUse" color-interpolation-filters="sRGB">
<feFlood flood-opacity="0" result="BackgroundImageFix"/>
<feColorMatrix in="SourceAlpha" type="matrix" values="0 0 0 0 0 0 0 0 0 0 0 0 0 0 0 0 0 0 127 0" result="hardAlpha"/>
<feOffset/>
<feGaussianBlur stdDeviation="5"/>
<feComposite in2="hardAlpha" operator="out"/>
<feColorMatrix type="matrix" values="0 0 0 0 0 0 0 0 0 0 0 0 0 0 0 0 0 0 0.25 0"/>
<feBlend mode="normal" in2="BackgroundImageFix" result="effect1_dropShadow_28_47"/>
<feBlend mode="normal" in="SourceGraphic" in2="effect1_dropShadow_28_47" result="shape"/>
</filter>
<filter id="filter3_d_28_47" x="330" y="357" width="157" height="157" filterUnits="userSpaceOnUse" color-interpolation-filters="sRGB">
<feFlood flood-opacity="0" result="BackgroundImageFix"/>
<feColorMatrix in="SourceAlpha" type="matrix" values="0 0 0 0 0 0 0 0 0 0 0 0 0 0 0 0 0 0 127 0" result="hardAlpha"/>
<feOffset/>
<feGaussianBlur stdDeviation="5"/>
<feComposite in2="hardAlpha" operator="out"/>
<feColorMatrix type="matrix" values="0 0 0 0 0 0 0 0 0 0 0 0 0 0 0 0 0 0 0.25 0"/>
<feBlend mode="normal" in2="BackgroundImageFix" result="effect1_dropShadow_28_47"/>
<feBlend mode="normal" in="SourceGraphic" in2="effect1_dropShadow_28_47" result="shape"/>
</filter>
<filter id="filter4_d_28_47" x="562" y="776" width="194" height="194" filterUnits="userSpaceOnUse" color-interpolation-filters="sRGB">
<feFlood flood-opacity="0" result="BackgroundImageFix"/>
<feColorMatrix in="SourceAlpha" type="matrix" values="0 0 0 0 0 0 0 0 0 0 0 0 0 0 0 0 0 0 127 0" result="hardAlpha"/>
<feOffset dy="4"/>
<feGaussianBlur stdDeviation="2"/>
<feComposite in2="hardAlpha" operator="out"/>
<feColorMatrix type="matrix" values="0 0 0 0 0 0 0 0 0 0 0 0 0 0 0 0 0 0 0.25 0"/>
<feBlend mode="normal" in2="BackgroundImageFix" result="effect1_dropShadow_28_47"/>
<feBlend mode="normal" in="SourceGraphic" in2="effect1_dropShadow_28_47" result="shape"/>
</filter>
<filter id="filter5_d_28_47" x="622" y="263" width="73" height="73" filterUnits="userSpaceOnUse" color-interpolation-filters="sRGB">
<feFlood flood-opacity="0" result="BackgroundImageFix"/>
<feColorMatrix in="SourceAlpha" type="matrix" values="0 0 0 0 0 0 0 0 0 0 0 0 0 0 0 0 0 0 127 0" result="hardAlpha"/>
<feOffset dy="4"/>
<feGaussianBlur stdDeviation="2"/>
<feComposite in2="hardAlpha" operator="out"/>
<feColorMatrix type="matrix" values="0 0 0 0 0 0 0 0 0 0 0 0 0 0 0 0 0 0 0.25 0"/>
<feBlend mode="normal" in2="BackgroundImageFix" result="effect1_dropShadow_28_47"/>
<feBlend mode="normal" in="SourceGraphic" in2="effect1_dropShadow_28_47" result="shape"/>
</filter>
<filter id="filter6_d_28_47" x="812" y="776" width="194" height="194" filterUnits="userSpaceOnUse" color-interpolation-filters="sRGB">
<feFlood flood-opacity="0" result="BackgroundImageFix"/>
<feColorMatrix in="SourceAlpha" type="matrix" values="0 0 0 0 0 0 0 0 0 0 0 0 0 0 0 0 0 0 127 0" result="hardAlpha"/>
<feOffset dy="4"/>
<feGaussianBlur stdDeviation="2"/>
<feComposite in2="hardAlpha" operator="out"/>
<feColorMatrix type="matrix" values="0 0 0 0 0 0 0 0 0 0 0 0 0 0 0 0 0 0 0.25 0"/>
<feBlend mode="normal" in2="BackgroundImageFix" result="effect1_dropShadow_28_47"/>
<feBlend mode="normal" in="SourceGraphic" in2="effect1_dropShadow_28_47" result="shape"/>
</filter>
<filter id="filter7_d_28_47" x="1384" y="777.256" width="201.744" height="201.744" filterUnits="userSpaceOnUse" color-interpolation-filters="sRGB">
<feFlood flood-opacity="0" result="BackgroundImageFix"/>
<feColorMatrix in="SourceAlpha" type="matrix" values="0 0 0 0 0 0 0 0 0 0 0 0 0 0 0 0 0 0 127 0" result="hardAlpha"/>
<feOffset dy="4"/>
<feGaussianBlur stdDeviation="2"/>
<feComposite in2="hardAlpha" operator="out"/>
<feColorMatrix type="matrix" values="0 0 0 0 0 0 0 0 0 0 0 0 0 0 0 0 0 0 0.25 0"/>
<feBlend mode="normal" in2="BackgroundImageFix" result="effect1_dropShadow_28_47"/>
<feBlend mode="normal" in="SourceGraphic" in2="effect1_dropShadow_28_47" result="shape"/>
</filter>
<filter id="filter8_d_28_47" x="872" y="263" width="73" height="73" filterUnits="userSpaceOnUse" color-interpolation-filters="sRGB">
<feFlood flood-opacity="0" result="BackgroundImageFix"/>
<feColorMatrix in="SourceAlpha" type="matrix" values="0 0 0 0 0 0 0 0 0 0 0 0 0 0 0 0 0 0 127 0" result="hardAlpha"/>
<feOffset dy="4"/>
<feGaussianBlur stdDeviation="2"/>
<feComposite in2="hardAlpha" operator="out"/>
<feColorMatrix type="matrix" values="0 0 0 0 0 0 0 0 0 0 0 0 0 0 0 0 0 0 0.25 0"/>
<feBlend mode="normal" in2="BackgroundImageFix" result="effect1_dropShadow_28_47"/>
<feBlend mode="normal" in="SourceGraphic" in2="effect1_dropShadow_28_47" result="shape"/>
</filter>
<filter id="filter9_d_28_47" x="1062" y="776" width="194" height="194" filterUnits="userSpaceOnUse" color-interpolation-filters="sRGB">
<feFlood flood-opacity="0" result="BackgroundImageFix"/>
<feColorMatrix in="SourceAlpha" type="matrix" values="0 0 0 0 0 0 0 0 0 0 0 0 0 0 0 0 0 0 127 0" result="hardAlpha"/>
<feOffset dy="4"/>
<feGaussianBlur stdDeviation="2"/>
<feComposite in2="hardAlpha" operator="out"/>
<feColorMatrix type="matrix" values="0 0 0 0 0 0 0 0 0 0 0 0 0 0 0 0 0 0 0.25 0"/>
<feBlend mode="normal" in2="BackgroundImageFix" result="effect1_dropShadow_28_47"/>
<feBlend mode="normal" in="SourceGraphic" in2="effect1_dropShadow_28_47" result="shape"/>
</filter>
<filter id="filter10_d_28_47" x="1122" y="263" width="73" height="73" filterUnits="userSpaceOnUse" color-interpolation-filters="sRGB">
<feFlood flood-opacity="0" result="BackgroundImageFix"/>
<feColorMatrix in="SourceAlpha" type="matrix" values="0 0 0 0 0 0 0 0 0 0 0 0 0 0 0 0 0 0 127 0" result="hardAlpha"/>
<feOffset dy="4"/>
<feGaussianBlur stdDeviation="2"/>
<feComposite in2="hardAlpha" operator="out"/>
<feColorMatrix type="matrix" values="0 0 0 0 0 0 0 0 0 0 0 0 0 0 0 0 0 0 0.25 0"/>
<feBlend mode="normal" in2="BackgroundImageFix" result="effect1_dropShadow_28_47"/>
<feBlend mode="normal" in="SourceGraphic" in2="effect1_dropShadow_28_47" result="shape"/>
</filter>
<clipPath id="clip0_28_47">
<rect width="1920" height="1080" fill="white"/>
</clipPath>
</defs>
</svg>
