<svg width="1920" height="1080" viewBox="0 0 1920 1080" fill="none" xmlns="http://www.w3.org/2000/svg">
<g clip-path="url(#clip0_28_87)">
<rect width="1920" height="1080" fill="white"/>
<path d="M93 25C93 76.3625 51.3625 118 0 118C-51.3625 118 -93 76.3625 -93 25C-93 -26.3625 -51.3625 -68 0 -68C51.3625 -68 93 -26.3625 93 25ZM-61.975 25C-61.975 59.2278 -34.2278 86.975 0 86.975C34.2278 86.975 61.975 59.2278 61.975 25C61.975 -9.22783 34.2278 -36.975 0 -36.975C-34.2278 -36.975 -61.975 -9.22783 -61.975 25Z" fill="#FCBAD0"/>
<circle cx="1676.5" cy="475.5" r="32.5" fill="white"/>
<path d="M670 930.5C670 968.332 639.332 999 601.5 999C563.668 999 533 968.332 533 930.5C533 892.668 563.668 862 601.5 862C639.332 862 670 892.668 670 930.5ZM548 930.5C548 955.711 576.289 984.5 601.5 984.5C626.711 984.5 652.5 955.711 652.5 930.5C652.5 905.289 626.711 878.5 601.5 878.5C576.289 878.5 548 905.289 548 930.5Z" fill="white"/>
<path d="M1894 836C1894 870.794 1865.79 899 1831 899C1796.21 899 1768 870.794 1768 836C1768 801.206 1796.21 773 1831 773C1865.79 773 1894 801.206 1894 836ZM1789.02 836C1789.02 859.187 1807.81 877.983 1831 877.983C1854.19 877.983 1872.98 859.187 1872.98 836C1872.98 812.813 1854.19 794.017 1831 794.017C1807.81 794.017 1789.02 812.813 1789.02 836Z" fill="#FF74B3"/>
<circle cx="1584" cy="52" r="93" fill="#FF74B3"/>
<circle cx="1657.57" cy="1414" r="435" fill="#FF74B3"/>
<path fill-rule="evenodd" clip-rule="evenodd" d="M362.184 1562.43C296.871 1634.03 211.795 1684.64 117.715 1707.88C23.6349 1731.13 -75.2245 1725.95 -166.361 1693C-257.498 1660.06 -336.82 1600.83 -394.295 1522.8C-451.77 1444.78 -484.817 1351.46 -489.257 1254.66C-493.698 1157.85 -469.332 1061.9 -419.241 978.942C-369.15 895.983 -295.584 829.741 -207.846 788.592C-120.107 747.444 -22.1369 733.236 73.6759 747.767C168.329 762.122 256.676 803.887 327.825 867.865L327.834 867.856C328.097 868.096 328.359 868.338 328.619 868.581C329.225 869.128 329.83 869.677 330.434 870.228L330.389 870.276C347.29 886.893 357.333 909.316 358.423 933.079C359.567 958.016 350.757 982.387 333.933 1000.83C317.108 1019.27 293.647 1030.27 268.71 1031.42C243.772 1032.56 219.402 1023.75 200.96 1006.93L201.438 1006.4C157.693 967.418 103.542 941.961 45.5578 933.167C-13.5863 924.198 -74.0622 932.967 -128.222 958.368C-182.382 983.769 -227.794 1024.66 -258.714 1075.87C-289.635 1127.08 -304.675 1186.31 -301.934 1246.06C-299.193 1305.82 -278.794 1363.42 -243.315 1411.59C-207.836 1459.75 -158.872 1496.31 -102.614 1516.65C-46.3567 1536.99 14.668 1540.18 72.7428 1525.84C130.817 1511.49 183.334 1480.24 223.651 1436.05L223.111 1435.56C239.936 1417.12 263.397 1406.11 288.335 1404.97C313.272 1403.83 337.642 1412.64 356.084 1429.46C374.527 1446.28 385.53 1469.75 386.674 1494.68C387.818 1519.62 379.008 1543.99 362.184 1562.43L328.419 1531.63C337.074 1522.14 341.605 1509.61 341.017 1496.78C340.429 1483.95 334.768 1471.88 325.281 1463.22C315.794 1454.57 303.257 1450.04 290.429 1450.63C277.601 1451.22 265.531 1456.88 256.876 1466.36L256.905 1466.39C210.588 1517.16 150.256 1553.05 83.538 1569.54C16.8204 1586.02 -53.2863 1582.34 -117.917 1558.98C-182.547 1535.62 -238.798 1493.62 -279.557 1438.29C-320.316 1382.95 -343.751 1316.78 -346.9 1248.13C-350.049 1179.48 -332.77 1111.43 -297.248 1052.6C-261.725 993.771 -209.556 946.795 -147.335 917.614C-85.1151 888.433 -15.6389 878.358 52.3073 888.663C119.693 898.883 182.572 928.692 233.129 974.363C242.436 982.235 254.394 986.322 266.615 985.762C279.444 985.173 291.513 979.513 300.168 970.026C308.823 960.538 313.355 948.002 312.766 935.173C312.232 923.522 307.513 912.497 299.544 904.087L299.125 904.546C234.32 845.426 153.439 806.85 66.7104 793.696C-20.0186 780.543 -108.7 793.403 -188.121 830.65C-267.541 867.898 -334.132 927.86 -379.474 1002.95C-424.816 1078.05 -446.872 1164.9 -442.852 1252.53C-438.833 1340.16 -408.919 1424.63 -356.893 1495.25C-304.867 1565.88 -233.066 1619.49 -150.569 1649.32C-68.073 1679.14 21.4136 1683.82 106.574 1662.79C191.735 1641.75 268.745 1595.93 327.865 1531.12L362.184 1562.43Z" fill="#FEDFEA"/>
<path fill-rule="evenodd" clip-rule="evenodd" d="M2455.18 330.433C2389.87 402.026 2304.8 452.643 2210.72 475.884C2116.63 499.125 2017.78 493.946 1926.64 461.002C1835.5 428.059 1756.18 368.829 1698.71 290.804C1641.23 212.779 1608.18 119.463 1603.74 22.6567C1599.3 -74.15 1623.67 -170.099 1673.76 -253.058C1723.85 -336.017 1797.42 -402.259 1885.15 -443.408C1972.89 -484.556 2070.86 -498.764 2166.68 -484.233C2261.33 -469.878 2349.68 -428.113 2420.83 -364.135L2420.83 -364.144C2421.1 -363.904 2421.36 -363.662 2421.62 -363.419C2422.23 -362.872 2422.83 -362.323 2423.43 -361.772L2423.39 -361.724C2440.29 -345.107 2450.33 -322.684 2451.42 -298.921C2452.57 -273.984 2443.76 -249.613 2426.93 -231.171C2410.11 -212.729 2386.65 -201.726 2361.71 -200.582C2336.77 -199.438 2312.4 -208.247 2293.96 -225.072L2294.44 -225.596C2250.69 -264.582 2196.54 -290.039 2138.56 -298.833C2079.41 -307.802 2018.94 -299.033 1964.78 -273.632C1910.62 -248.231 1865.21 -207.341 1834.29 -156.131C1803.37 -104.922 1788.32 -45.6934 1791.07 14.0643C1793.81 73.8219 1814.21 131.425 1849.68 179.589C1885.16 227.753 1934.13 264.314 1990.39 284.65C2046.64 304.986 2107.67 308.183 2165.74 293.836C2223.82 279.49 2276.33 248.244 2316.65 204.051L2316.11 203.559C2332.94 185.117 2356.4 174.114 2381.33 172.97C2406.27 171.826 2430.64 180.635 2449.08 197.46C2467.53 214.284 2478.53 237.746 2479.67 262.683C2480.82 287.62 2472.01 311.991 2455.18 330.433L2421.42 299.63C2430.07 290.142 2434.61 277.606 2434.02 264.777C2433.43 251.949 2427.77 239.88 2418.28 231.225C2408.79 222.57 2396.26 218.038 2383.43 218.627C2370.6 219.215 2358.53 224.875 2349.88 234.362L2349.9 234.388C2303.59 285.159 2243.26 321.054 2176.54 337.536C2109.82 354.017 2039.71 350.345 1975.08 326.982C1910.45 303.62 1854.2 261.617 1813.44 206.285C1772.68 150.953 1749.25 84.7779 1746.1 16.1268C1742.95 -52.5243 1760.23 -120.567 1795.75 -179.398C1831.27 -238.229 1883.44 -285.205 1945.66 -314.386C2007.88 -343.567 2077.36 -353.642 2145.31 -343.337C2212.69 -333.117 2275.57 -303.308 2326.13 -257.637C2335.44 -249.765 2347.39 -245.678 2359.62 -246.238C2372.44 -246.827 2384.51 -252.487 2393.17 -261.974C2401.82 -271.462 2406.35 -283.998 2405.77 -296.827C2405.23 -308.478 2400.51 -319.503 2392.54 -327.913L2392.13 -327.454C2327.32 -386.574 2246.44 -425.15 2159.71 -438.304C2072.98 -451.457 1984.3 -438.597 1904.88 -401.35C1825.46 -364.102 1758.87 -304.14 1713.53 -229.047C1668.18 -153.953 1646.13 -67.1004 1650.15 20.5282C1654.17 108.157 1684.08 192.626 1736.11 263.253C1788.13 333.881 1859.93 387.495 1942.43 417.315C2024.93 447.136 2114.41 451.823 2199.57 430.786C2284.74 409.748 2361.74 363.93 2420.87 299.125L2455.18 330.433Z" fill="#FEDFEA"/>
<path d="M197.832 102.76C198.515 104.04 198.899 105.192 198.984 106.216C199.155 107.24 199.24 108.733 199.24 110.696V181.736C199.24 187.624 197.619 191.08 194.376 192.104C192.755 192.616 190.707 192.872 188.232 192.872C185.757 192.872 183.795 192.659 182.344 192.232C180.893 191.805 179.784 191.293 179.016 190.696C178.248 190.099 177.651 189.245 177.224 188.136C176.797 186.685 176.584 184.467 176.584 181.48V138.6C174.451 141.245 171.336 145.469 167.24 151.272C163.144 156.989 160.541 160.573 159.432 162.024C158.323 163.475 157.555 164.499 157.128 165.096C156.701 165.608 155.635 166.376 153.928 167.4C152.307 168.339 150.515 168.808 148.552 168.808C146.675 168.808 144.925 168.381 143.304 167.528C141.768 166.589 140.659 165.693 139.976 164.84L138.952 163.432C137.245 161.299 133.875 156.776 128.84 149.864C123.805 142.867 121.075 139.112 120.648 138.6V181.736C120.648 183.699 120.563 185.192 120.392 186.216C120.307 187.155 119.923 188.221 119.24 189.416C117.96 191.72 114.632 192.872 109.256 192.872C104.051 192.872 100.808 191.72 99.528 189.416C98.8453 188.221 98.4187 187.112 98.248 186.088C98.1627 185.064 98.12 183.528 98.12 181.48V110.44C98.12 108.477 98.1627 107.027 98.248 106.088C98.4187 105.064 98.8453 103.912 99.528 102.632C100.808 100.413 104.136 99.304 109.512 99.304C111.816 99.304 113.779 99.6027 115.4 100.2C117.107 100.712 118.216 101.267 118.728 101.864L119.496 102.632L148.552 140.776C163.059 121.576 172.744 108.904 177.608 102.76C179.059 100.456 182.472 99.304 187.848 99.304C193.309 99.304 196.637 100.456 197.832 102.76ZM209.495 136.808C209.495 134.845 209.538 133.395 209.623 132.456C209.794 131.432 210.178 130.28 210.775 129C211.97 126.781 215.298 125.672 220.759 125.672C224.855 125.672 227.756 126.397 229.463 127.848C230.914 129.043 231.682 130.877 231.767 133.352C231.852 134.205 231.895 135.443 231.895 137.064V181.864C231.895 183.827 231.81 185.32 231.639 186.344C231.554 187.283 231.17 188.392 230.487 189.672C229.378 191.891 226.092 193 220.631 193C215.255 193 211.97 191.848 210.775 189.544C210.178 188.264 209.794 187.155 209.623 186.216C209.538 185.277 209.495 183.784 209.495 181.736V136.808ZM230.487 113.128C229.89 114.323 228.78 115.176 227.159 115.688C225.538 116.2 223.362 116.456 220.631 116.456C217.986 116.456 215.852 116.2 214.231 115.688C212.61 115.176 211.458 114.28 210.775 113C210.178 111.72 209.794 110.611 209.623 109.672C209.538 108.648 209.495 107.155 209.495 105.192C209.495 103.229 209.538 101.779 209.623 100.84C209.794 99.816 210.178 98.7067 210.775 97.512C211.97 95.208 215.298 94.056 220.759 94.056C226.135 94.056 229.378 95.208 230.487 97.512C231.17 98.792 231.554 99.944 231.639 100.968C231.81 101.907 231.895 103.357 231.895 105.32C231.895 107.283 231.81 108.776 231.639 109.8C231.554 110.739 231.17 111.848 230.487 113.128ZM242.632 186.984C241.011 185.96 240.2 184.339 240.2 182.12C240.2 179.901 241.821 176.531 245.064 172.008C246.003 170.557 247.496 169.832 249.544 169.832C251.677 169.832 254.536 170.899 258.12 173.032C261.704 175.08 264.947 176.104 267.848 176.104C273.053 176.104 275.656 175.08 275.656 173.032C275.656 171.411 272.797 170.216 267.08 169.448C261.704 168.68 256.371 166.675 251.08 163.432C248.605 161.896 246.557 159.507 244.936 156.264C243.315 152.936 242.504 149.011 242.504 144.488C242.504 131.005 251.763 124.264 270.28 124.264C276.339 124.264 282.568 125.715 288.968 128.616C291.955 129.981 293.448 131.688 293.448 133.736C293.448 135.784 292.509 138.301 290.632 141.288C288.755 144.275 286.835 145.768 284.872 145.768C283.848 145.768 281.928 145.128 279.112 143.848C276.381 142.568 273.395 141.928 270.152 141.928C265.117 141.928 262.6 142.867 262.6 144.744C262.6 147.304 265.501 148.968 271.304 149.736C276.936 150.333 282.397 151.955 287.688 154.6C290.163 155.795 292.211 157.885 293.832 160.872C295.539 163.773 296.392 167.443 296.392 171.88C296.392 176.317 295.539 180.115 293.832 183.272C292.211 186.344 289.907 188.648 286.92 190.184C281.459 192.829 274.589 194.152 266.312 194.152C258.12 194.152 250.227 191.763 242.632 186.984ZM305.257 186.984C303.636 185.96 302.825 184.339 302.825 182.12C302.825 179.901 304.446 176.531 307.689 172.008C308.628 170.557 310.121 169.832 312.169 169.832C314.302 169.832 317.161 170.899 320.745 173.032C324.329 175.08 327.572 176.104 330.473 176.104C335.678 176.104 338.281 175.08 338.281 173.032C338.281 171.411 335.422 170.216 329.705 169.448C324.329 168.68 318.996 166.675 313.705 163.432C311.23 161.896 309.182 159.507 307.561 156.264C305.94 152.936 305.129 149.011 305.129 144.488C305.129 131.005 314.388 124.264 332.905 124.264C338.964 124.264 345.193 125.715 351.593 128.616C354.58 129.981 356.073 131.688 356.073 133.736C356.073 135.784 355.134 138.301 353.257 141.288C351.38 144.275 349.46 145.768 347.497 145.768C346.473 145.768 344.553 145.128 341.737 143.848C339.006 142.568 336.02 141.928 332.777 141.928C327.742 141.928 325.225 142.867 325.225 144.744C325.225 147.304 328.126 148.968 333.929 149.736C339.561 150.333 345.022 151.955 350.313 154.6C352.788 155.795 354.836 157.885 356.457 160.872C358.164 163.773 359.017 167.443 359.017 171.88C359.017 176.317 358.164 180.115 356.457 183.272C354.836 186.344 352.532 188.648 349.545 190.184C344.084 192.829 337.214 194.152 328.937 194.152C320.745 194.152 312.852 191.763 305.257 186.984ZM367.37 136.808C367.37 134.845 367.413 133.395 367.498 132.456C367.669 131.432 368.053 130.28 368.65 129C369.845 126.781 373.173 125.672 378.634 125.672C382.73 125.672 385.631 126.397 387.338 127.848C388.789 129.043 389.557 130.877 389.642 133.352C389.727 134.205 389.77 135.443 389.77 137.064V181.864C389.77 183.827 389.685 185.32 389.514 186.344C389.429 187.283 389.045 188.392 388.362 189.672C387.253 191.891 383.967 193 378.506 193C373.13 193 369.845 191.848 368.65 189.544C368.053 188.264 367.669 187.155 367.498 186.216C367.413 185.277 367.37 183.784 367.37 181.736V136.808ZM388.362 113.128C387.765 114.323 386.655 115.176 385.034 115.688C383.413 116.2 381.237 116.456 378.506 116.456C375.861 116.456 373.727 116.2 372.106 115.688C370.485 115.176 369.333 114.28 368.65 113C368.053 111.72 367.669 110.611 367.498 109.672C367.413 108.648 367.37 107.155 367.37 105.192C367.37 103.229 367.413 101.779 367.498 100.84C367.669 99.816 368.053 98.7067 368.65 97.512C369.845 95.208 373.173 94.056 378.634 94.056C384.01 94.056 387.253 95.208 388.362 97.512C389.045 98.792 389.429 99.944 389.514 100.968C389.685 101.907 389.77 103.357 389.77 105.32C389.77 107.283 389.685 108.776 389.514 109.8C389.429 110.739 389.045 111.848 388.362 113.128ZM398.075 159.336C398.075 149.096 401.659 140.648 408.827 133.992C415.995 127.336 424.187 124.008 433.403 124.008C442.619 124.008 450.768 127.336 457.851 133.992C464.934 140.563 468.475 148.968 468.475 159.208C468.475 166.291 466.64 172.605 462.971 178.152C459.302 183.613 454.822 187.667 449.531 190.312C444.326 192.872 438.907 194.152 433.275 194.152C427.643 194.152 422.182 192.787 416.891 190.056C411.6 187.24 407.12 183.144 403.451 177.768C399.867 172.307 398.075 166.163 398.075 159.336ZM424.827 168.552C427.558 170.6 430.331 171.624 433.147 171.624C435.963 171.624 438.779 170.557 441.595 168.424C444.411 166.291 445.819 163.133 445.819 158.952C445.819 154.771 444.496 151.656 441.851 149.608C439.206 147.56 436.347 146.536 433.275 146.536C430.203 146.536 427.344 147.603 424.699 149.736C422.054 151.869 420.731 155.027 420.731 159.208C420.731 163.304 422.096 166.419 424.827 168.552ZM514.249 125.544C522.782 125.544 529.865 128.829 535.497 135.4C541.214 141.885 544.073 149.821 544.073 159.208V181.736C544.073 183.699 543.988 185.192 543.817 186.216C543.732 187.155 543.39 188.221 542.793 189.416C541.598 191.72 538.27 192.872 532.809 192.872C526.75 192.872 523.252 191.293 522.313 188.136C521.801 186.685 521.545 184.509 521.545 181.608V159.08C521.545 155.581 520.521 152.851 518.473 150.888C516.51 148.925 513.822 147.944 510.409 147.944C507.081 147.944 504.35 148.968 502.217 151.016C500.169 153.064 499.145 155.752 499.145 159.08V181.736C499.145 183.699 499.06 185.192 498.889 186.216C498.804 187.155 498.42 188.221 497.737 189.416C496.628 191.72 493.342 192.872 487.881 192.872C482.505 192.872 479.22 191.72 478.025 189.416C477.428 188.136 477.044 187.027 476.873 186.088C476.788 185.064 476.745 183.571 476.745 181.608V136.296C476.745 134.419 476.788 133.011 476.873 132.072C477.044 131.048 477.47 129.939 478.153 128.744C479.348 126.611 482.633 125.544 488.009 125.544C493.214 125.544 496.414 126.525 497.609 128.488C498.462 129.939 498.889 131.688 498.889 133.736C499.23 133.139 499.998 132.285 501.193 131.176C502.388 130.067 503.54 129.171 504.649 128.488C507.55 126.525 510.75 125.544 514.249 125.544Z" fill="#FF74B3"/>
<path d="M632.831 466.249C633.834 466.249 634.783 466.328 635.68 466.486C636.577 466.644 637.315 467.146 637.895 467.989C638.528 468.833 638.845 470.284 638.845 472.341C638.845 474.345 638.528 475.796 637.895 476.693C637.315 477.537 636.55 478.038 635.601 478.196C634.704 478.354 633.755 478.433 632.752 478.433H621.834V514.67C621.834 515.831 621.728 516.965 621.517 518.073C621.306 519.127 620.7 519.998 619.698 520.684C618.748 521.369 617.06 521.712 614.634 521.712C612.313 521.712 610.651 521.369 609.649 520.684C608.647 519.945 608.04 519.048 607.83 517.993C607.671 516.886 607.592 515.752 607.592 514.591V478.433H596.594C595.645 478.433 594.696 478.354 593.746 478.196C592.849 477.985 592.085 477.458 591.452 476.614C590.871 475.77 590.581 474.319 590.581 472.262C590.581 470.258 590.871 468.833 591.452 467.989C592.085 467.146 592.876 466.644 593.825 466.486C594.775 466.328 595.724 466.249 596.674 466.249H632.831ZM649.34 521.712C646.966 521.712 645.278 521.369 644.276 520.684C643.274 519.945 642.667 519.022 642.456 517.914C642.298 516.807 642.219 515.673 642.219 514.512V470.521C642.219 469.308 642.324 468.174 642.535 467.119C642.746 466.011 643.353 465.115 644.355 464.429C645.357 463.743 647.045 463.4 649.419 463.4C651.793 463.4 653.454 463.77 654.403 464.508C655.406 465.194 656.012 466.091 656.223 467.198C656.434 468.253 656.54 469.387 656.54 470.6V485C657.331 484.262 658.386 483.523 659.705 482.785C661.076 481.994 662.658 481.598 664.452 481.598C667.828 481.598 670.86 482.495 673.551 484.288C676.241 486.029 678.377 488.402 679.959 491.409C681.542 494.416 682.333 497.818 682.333 501.616V514.591C682.333 515.752 682.227 516.886 682.016 517.993C681.805 519.048 681.199 519.945 680.197 520.684C679.247 521.369 677.559 521.712 675.133 521.712C672.812 521.712 671.124 521.369 670.069 520.684C669.067 519.998 668.461 519.101 668.25 517.993C668.039 516.886 667.933 515.699 667.933 514.433V501.536C667.933 500.376 667.722 499.4 667.3 498.609C666.878 497.765 666.272 497.106 665.48 496.631C664.689 496.156 663.74 495.919 662.632 495.919C661.208 495.919 659.889 496.367 658.676 497.264C657.463 498.161 656.751 499.189 656.54 500.35V514.591C656.54 515.752 656.434 516.886 656.223 517.993C656.012 519.101 655.406 519.998 654.403 520.684C653.454 521.369 651.766 521.712 649.34 521.712ZM694.476 521.712C692.102 521.712 690.415 521.369 689.412 520.684C688.41 519.945 687.804 519.022 687.593 517.914C687.434 516.807 687.355 515.673 687.355 514.512V488.719C687.355 487.559 687.461 486.451 687.672 485.396C687.883 484.288 688.489 483.392 689.491 482.706C690.494 481.967 692.182 481.598 694.555 481.598C696.929 481.598 698.59 481.967 699.54 482.706C700.542 483.392 701.148 484.288 701.359 485.396C701.57 486.504 701.676 487.664 701.676 488.877V514.591C701.676 515.752 701.57 516.886 701.359 517.993C701.148 519.101 700.542 519.998 699.54 520.684C698.59 521.369 696.902 521.712 694.476 521.712ZM694.476 477.721C692.102 477.721 690.415 477.378 689.412 476.693C688.41 475.954 687.804 475.031 687.593 473.923C687.434 472.816 687.355 471.682 687.355 470.521C687.355 469.308 687.461 468.174 687.672 467.119C687.883 466.011 688.489 465.115 689.491 464.429C690.494 463.743 692.182 463.4 694.555 463.4C696.929 463.4 698.59 463.77 699.54 464.508C700.542 465.194 701.148 466.091 701.359 467.198C701.57 468.306 701.676 469.44 701.676 470.6C701.676 471.761 701.57 472.895 701.359 474.003C701.148 475.11 700.542 476.007 699.54 476.693C698.59 477.378 696.902 477.721 694.476 477.721ZM713.938 521.633C711.564 521.633 709.876 521.29 708.874 520.604C707.872 519.866 707.265 518.943 707.054 517.835C706.896 516.728 706.817 515.593 706.817 514.433V488.402C706.817 487.242 706.922 486.134 707.133 485.079C707.344 484.024 707.951 483.181 708.953 482.548C709.955 481.862 711.643 481.519 714.017 481.519C716.179 481.519 717.735 481.809 718.685 482.389C719.687 482.917 720.32 483.576 720.584 484.367C720.848 485.159 720.953 485.897 720.9 486.583C720.9 487.216 720.953 487.611 721.059 487.77L720.426 488.244C720.373 487.453 720.663 486.662 721.296 485.871C721.982 485.079 722.852 484.367 723.907 483.734C725.015 483.049 726.175 482.521 727.388 482.152C728.654 481.73 729.841 481.519 730.949 481.519C733.586 481.519 735.907 482.02 737.911 483.022C739.916 484.024 741.577 485.449 742.896 487.295C744.267 489.088 745.296 491.198 745.981 493.624C746.667 496.051 747.01 498.688 747.01 501.536V514.512C747.01 515.673 746.904 516.807 746.693 517.914C746.483 519.022 745.876 519.919 744.874 520.604C743.924 521.29 742.236 521.633 739.81 521.633C737.384 521.633 735.669 521.29 734.667 520.604C733.665 519.866 733.058 518.943 732.847 517.835C732.636 516.728 732.531 515.593 732.531 514.433V501.536C732.531 500.323 732.294 499.295 731.819 498.451C731.397 497.607 730.764 496.974 729.92 496.552C729.129 496.077 728.127 495.84 726.913 495.84C725.753 495.84 724.724 496.077 723.828 496.552C722.984 497.027 722.324 497.686 721.85 498.53C721.375 499.374 721.138 500.376 721.138 501.536V514.512C721.138 515.673 721.032 516.807 720.821 517.914C720.61 519.022 720.004 519.919 719.001 520.604C718.052 521.29 716.364 521.633 713.938 521.633ZM785.89 508.657C787.842 510.398 788.87 512.059 788.976 513.642C789.134 515.171 788.264 516.938 786.365 518.943C784.941 520.42 783.701 521.369 782.646 521.791C781.644 522.266 780.642 522.266 779.64 521.791C778.637 521.369 777.451 520.552 776.079 519.338L766.347 510.24V514.591C766.347 515.752 766.242 516.886 766.031 517.993C765.82 519.101 765.213 519.998 764.211 520.684C763.262 521.369 761.574 521.712 759.148 521.712C756.774 521.712 755.086 521.369 754.084 520.684C753.082 519.945 752.475 519.022 752.264 517.914C752.106 516.807 752.027 515.673 752.027 514.512V470.442C752.027 469.229 752.132 468.095 752.343 467.04C752.554 465.932 753.161 465.036 754.163 464.35C755.165 463.611 756.853 463.242 759.227 463.242C761.6 463.242 763.262 463.611 764.211 464.35C765.213 465.036 765.82 465.932 766.031 467.04C766.242 468.148 766.347 469.308 766.347 470.521V492.358L773.073 485.792C774.339 484.578 775.525 483.761 776.633 483.339C777.741 482.864 778.822 482.838 779.877 483.26C780.985 483.629 782.145 484.473 783.358 485.792C785.415 488.007 786.391 489.8 786.286 491.172C786.233 492.543 785.257 494.178 783.358 496.077L776.95 501.695L785.89 508.657ZM830.223 522.108C828.061 522.108 825.766 521.686 823.34 520.842C820.966 519.945 818.725 518.653 816.615 516.965C814.505 515.224 812.791 513.062 811.472 510.477C810.153 507.892 809.494 504.886 809.494 501.457C809.494 498.082 810.153 495.128 811.472 492.596C812.791 490.011 814.479 487.875 816.536 486.187C818.646 484.499 820.887 483.233 823.261 482.389C825.687 481.493 827.955 481.044 830.065 481.044C832.07 481.044 833.81 481.255 835.287 481.677C836.764 482.099 837.977 482.574 838.927 483.101C839.876 483.576 840.562 483.945 840.984 484.209C842.039 484.842 843.015 485.581 843.911 486.424C844.861 487.216 845.335 488.297 845.335 489.668C845.335 490.354 845.204 491.066 844.94 491.805C844.676 492.49 844.254 493.282 843.674 494.178C841.775 497.079 839.876 498.53 837.977 498.53C837.133 498.53 836.395 498.398 835.762 498.134C835.129 497.818 834.549 497.475 834.021 497.106C833.494 496.736 832.914 496.42 832.281 496.156C831.7 495.84 830.962 495.682 830.065 495.682C829.01 495.682 828.034 495.945 827.138 496.473C826.241 497 825.529 497.712 825.001 498.609C824.474 499.453 824.21 500.429 824.21 501.536C824.21 502.644 824.474 503.646 825.001 504.543C825.529 505.44 826.215 506.152 827.059 506.679C827.955 507.207 828.905 507.47 829.907 507.47C830.645 507.47 831.252 507.391 831.727 507.233C832.254 507.075 832.65 506.917 832.914 506.758C833.177 506.547 833.335 506.442 833.388 506.442C834.127 506.02 834.812 505.624 835.445 505.255C836.131 504.886 836.817 504.701 837.502 504.701C838.399 504.701 839.322 505.044 840.272 505.73C841.221 506.363 842.276 507.418 843.437 508.895C844.544 510.266 845.151 511.558 845.256 512.771C845.415 513.932 845.124 515.04 844.386 516.095C843.647 517.097 842.513 518.073 840.984 519.022C840.826 519.127 840.272 519.444 839.322 519.971C838.426 520.446 837.212 520.921 835.683 521.396C834.153 521.87 832.333 522.108 830.223 522.108ZM856.802 521.712C854.429 521.712 852.741 521.369 851.739 520.684C850.736 519.945 850.13 519.022 849.919 517.914C849.761 516.754 849.681 515.593 849.681 514.433V488.64C849.681 487.427 849.787 486.293 849.998 485.238C850.209 484.13 850.815 483.233 851.818 482.548C852.82 481.862 854.508 481.519 856.881 481.519C859.202 481.519 860.837 481.835 861.787 482.468C862.789 483.101 863.396 483.814 863.607 484.605C863.818 485.343 863.923 485.923 863.923 486.345L862.657 485.871C862.657 485.871 862.868 485.633 863.29 485.159C863.712 484.684 864.319 484.13 865.11 483.497C865.954 482.864 866.93 482.31 868.037 481.835C869.198 481.361 870.49 481.123 871.914 481.123C872.389 481.123 872.969 481.176 873.655 481.282C874.393 481.334 875.158 481.466 875.949 481.677C876.793 481.888 877.558 482.205 878.244 482.627C878.982 483.049 879.562 483.603 879.984 484.288C880.459 484.974 880.697 485.818 880.697 486.82C880.697 489.457 880.116 491.699 878.956 493.545C877.848 495.391 876.371 496.314 874.525 496.314C873.523 496.314 872.811 496.262 872.389 496.156C871.967 495.998 871.65 495.866 871.439 495.761C871.281 495.602 871.07 495.471 870.807 495.365C870.596 495.207 870.174 495.128 869.541 495.128C868.749 495.128 868.011 495.233 867.325 495.444C866.692 495.602 866.112 495.866 865.585 496.235C865.11 496.605 864.741 497.053 864.477 497.58C864.213 498.055 864.081 498.583 864.081 499.163V514.591C864.081 515.752 863.976 516.886 863.765 517.993C863.554 519.101 862.947 519.998 861.945 520.684C860.943 521.369 859.229 521.712 856.802 521.712ZM901.851 522.582C897.895 522.582 894.545 521.949 891.802 520.684C889.06 519.365 886.844 517.677 885.156 515.62C883.468 513.51 882.229 511.242 881.438 508.815C880.646 506.389 880.251 504.042 880.251 501.774C880.251 497.607 881.174 493.941 883.02 490.776C884.866 487.611 887.424 485.132 890.695 483.339C893.965 481.545 897.71 480.649 901.93 480.649C905.2 480.649 907.996 481.176 910.317 482.231C912.637 483.286 914.51 484.631 915.934 486.266C917.411 487.901 918.492 489.642 919.178 491.488C919.864 493.334 920.207 495.049 920.207 496.631C920.207 499.638 919.468 501.932 917.991 503.514C916.514 505.097 914.615 505.888 912.295 505.888H895.442C895.653 506.732 896.075 507.47 896.708 508.103C897.394 508.684 898.238 509.158 899.24 509.528C900.242 509.844 901.323 510.002 902.484 510.002C903.644 510.002 904.673 509.95 905.569 509.844C906.466 509.686 907.231 509.501 907.864 509.29C908.55 509.079 909.156 508.868 909.684 508.657C910.264 508.446 910.765 508.288 911.187 508.183C911.662 508.024 912.11 507.945 912.532 507.945C913.481 507.945 914.352 508.262 915.143 508.895C915.934 509.528 916.646 510.477 917.279 511.743C917.648 512.429 917.912 513.088 918.07 513.721C918.229 514.301 918.308 514.855 918.308 515.382C918.308 516.965 917.648 518.284 916.33 519.338C915.064 520.393 913.218 521.185 910.791 521.712C908.365 522.292 905.385 522.582 901.851 522.582ZM895.442 498.451H904.303C905.042 498.451 905.569 498.293 905.886 497.976C906.255 497.66 906.44 497.185 906.44 496.552C906.44 495.866 906.229 495.286 905.807 494.811C905.437 494.336 904.91 493.994 904.224 493.783C903.539 493.519 902.721 493.387 901.772 493.387C900.506 493.387 899.398 493.651 898.449 494.178C897.499 494.653 896.761 495.286 896.233 496.077C895.758 496.816 895.495 497.607 895.442 498.451ZM955.902 521.554C953.529 521.554 951.762 521.158 950.601 520.367C949.493 519.576 948.966 518.679 949.019 517.677H950.126C949.863 518.046 949.335 518.547 948.544 519.18C947.806 519.76 946.803 520.314 945.537 520.842C944.271 521.316 942.715 521.554 940.869 521.554C938.496 521.554 936.201 521.026 933.986 519.971C931.823 518.864 929.872 517.36 928.131 515.462C926.443 513.563 925.098 511.426 924.096 509.053C923.094 506.626 922.593 504.095 922.593 501.457C922.593 498.873 923.094 496.394 924.096 494.02C925.098 491.646 926.469 489.537 928.21 487.69C929.951 485.792 931.902 484.315 934.065 483.26C936.228 482.152 938.496 481.598 940.869 481.598C942.663 481.598 944.166 481.862 945.379 482.389C946.645 482.917 947.647 483.497 948.386 484.13C949.177 484.763 949.704 485.29 949.968 485.712H949.098C949.045 484.394 949.573 483.365 950.68 482.627C951.841 481.888 953.608 481.519 955.981 481.519C958.355 481.519 960.016 481.888 960.966 482.627C961.968 483.312 962.575 484.209 962.786 485.317C962.997 486.424 963.102 487.559 963.102 488.719V514.433C963.102 515.593 962.997 516.728 962.786 517.835C962.575 518.943 961.968 519.84 960.966 520.525C960.016 521.211 958.328 521.554 955.902 521.554ZM942.847 507.233C943.849 507.233 944.746 506.969 945.537 506.442C946.381 505.914 947.041 505.229 947.515 504.385C948.043 503.488 948.307 502.539 948.307 501.536C948.307 500.481 948.043 499.532 947.515 498.688C947.041 497.844 946.381 497.158 945.537 496.631C944.693 496.104 943.744 495.84 942.689 495.84C941.634 495.84 940.658 496.104 939.762 496.631C938.918 497.158 938.232 497.871 937.704 498.767C937.177 499.611 936.913 500.561 936.913 501.616C936.913 502.618 937.177 503.541 937.704 504.385C938.285 505.229 939.023 505.914 939.92 506.442C940.817 506.969 941.792 507.233 942.847 507.233ZM989.342 521.712C986.546 521.712 984.12 521.396 982.062 520.763C980.005 520.13 978.291 519.154 976.92 517.835C975.601 516.517 974.599 514.855 973.913 512.851C973.28 510.846 972.964 508.499 972.964 505.809V475.11C972.964 473.897 973.069 472.789 973.28 471.787C973.491 470.732 974.098 469.888 975.1 469.255C976.102 468.57 977.79 468.227 980.164 468.227C982.484 468.227 984.146 468.596 985.148 469.335C986.15 470.02 986.757 470.917 986.968 472.025C987.179 473.132 987.284 474.266 987.284 475.427V505.097C987.284 505.677 987.311 506.178 987.364 506.6C987.469 506.969 987.601 507.259 987.759 507.47C987.917 507.681 988.128 507.84 988.392 507.945C988.656 508.051 988.999 508.103 989.421 508.103C990.792 508.103 992.005 508.209 993.06 508.42C994.168 508.631 995.012 509.185 995.592 510.081C996.225 510.978 996.541 512.481 996.541 514.591C996.541 516.965 996.172 518.653 995.434 519.655C994.695 520.657 993.772 521.237 992.665 521.396C991.557 521.607 990.449 521.712 989.342 521.712ZM971.302 481.994H980.559L991.478 481.598C992.638 481.598 993.746 481.704 994.801 481.915C995.909 482.126 996.805 482.732 997.491 483.734C998.229 484.737 998.599 486.451 998.599 488.877C998.599 491.093 998.229 492.701 997.491 493.704C996.805 494.706 995.909 495.339 994.801 495.602C993.746 495.866 992.612 495.998 991.399 495.998L981.35 495.761H970.986C969.192 495.655 967.953 495.075 967.267 494.02C966.581 492.965 966.238 491.224 966.238 488.798C966.238 486.53 966.66 484.842 967.504 483.734C968.348 482.574 969.614 481.994 971.302 481.994ZM1009.26 521.712C1006.88 521.712 1005.2 521.369 1004.19 520.684C1003.19 519.945 1002.58 519.022 1002.37 517.914C1002.22 516.807 1002.14 515.673 1002.14 514.512V488.719C1002.14 487.559 1002.24 486.451 1002.45 485.396C1002.66 484.288 1003.27 483.392 1004.27 482.706C1005.27 481.967 1006.96 481.598 1009.34 481.598C1011.71 481.598 1013.37 481.967 1014.32 482.706C1015.32 483.392 1015.93 484.288 1016.14 485.396C1016.35 486.504 1016.46 487.664 1016.46 488.877V514.591C1016.46 515.752 1016.35 516.886 1016.14 517.993C1015.93 519.101 1015.32 519.998 1014.32 520.684C1013.37 521.369 1011.68 521.712 1009.26 521.712ZM1009.26 477.721C1006.88 477.721 1005.2 477.378 1004.19 476.693C1003.19 475.954 1002.58 475.031 1002.37 473.923C1002.22 472.816 1002.14 471.682 1002.14 470.521C1002.14 469.308 1002.24 468.174 1002.45 467.119C1002.66 466.011 1003.27 465.115 1004.27 464.429C1005.27 463.743 1006.96 463.4 1009.34 463.4C1011.71 463.4 1013.37 463.77 1014.32 464.508C1015.32 465.194 1015.93 466.091 1016.14 467.198C1016.35 468.306 1016.46 469.44 1016.46 470.6C1016.46 471.761 1016.35 472.895 1016.14 474.003C1015.93 475.11 1015.32 476.007 1014.32 476.693C1013.37 477.378 1011.68 477.721 1009.26 477.721ZM1042.01 522.108C1040.53 522.108 1039.24 521.818 1038.13 521.237C1037.08 520.657 1036.26 519.787 1035.68 518.626L1021.68 491.963C1020.52 489.695 1020.15 487.796 1020.57 486.266C1020.99 484.737 1022.42 483.392 1024.84 482.231C1027.32 481.018 1029.27 480.596 1030.7 480.965C1032.12 481.334 1033.41 482.838 1034.57 485.475L1042.01 502.407L1049.45 485.475C1050.66 482.732 1051.98 481.203 1053.4 480.886C1054.83 480.57 1056.75 481.018 1059.18 482.231C1061.66 483.444 1063.08 484.842 1063.45 486.424C1063.82 487.954 1063.45 489.8 1062.34 491.963L1048.34 518.626C1047.76 519.787 1046.94 520.657 1045.89 521.237C1044.83 521.818 1043.54 522.108 1042.01 522.108ZM1085.28 522.582C1081.32 522.582 1077.97 521.949 1075.23 520.684C1072.49 519.365 1070.27 517.677 1068.59 515.62C1066.9 513.51 1065.66 511.242 1064.87 508.815C1064.08 506.389 1063.68 504.042 1063.68 501.774C1063.68 497.607 1064.6 493.941 1066.45 490.776C1068.3 487.611 1070.85 485.132 1074.12 483.339C1077.39 481.545 1081.14 480.649 1085.36 480.649C1088.63 480.649 1091.42 481.176 1093.75 482.231C1096.07 483.286 1097.94 484.631 1099.36 486.266C1100.84 487.901 1101.92 489.642 1102.61 491.488C1103.29 493.334 1103.64 495.049 1103.64 496.631C1103.64 499.638 1102.9 501.932 1101.42 503.514C1099.94 505.097 1098.04 505.888 1095.72 505.888H1078.87C1079.08 506.732 1079.5 507.47 1080.14 508.103C1080.82 508.684 1081.67 509.158 1082.67 509.528C1083.67 509.844 1084.75 510.002 1085.91 510.002C1087.07 510.002 1088.1 509.95 1089 509.844C1089.9 509.686 1090.66 509.501 1091.29 509.29C1091.98 509.079 1092.59 508.868 1093.11 508.657C1093.69 508.446 1094.19 508.288 1094.62 508.183C1095.09 508.024 1095.54 507.945 1095.96 507.945C1096.91 507.945 1097.78 508.262 1098.57 508.895C1099.36 509.528 1100.08 510.477 1100.71 511.743C1101.08 512.429 1101.34 513.088 1101.5 513.721C1101.66 514.301 1101.74 514.855 1101.74 515.382C1101.74 516.965 1101.08 518.284 1099.76 519.338C1098.49 520.393 1096.65 521.185 1094.22 521.712C1091.79 522.292 1088.81 522.582 1085.28 522.582ZM1078.87 498.451H1087.73C1088.47 498.451 1089 498.293 1089.31 497.976C1089.68 497.66 1089.87 497.185 1089.87 496.552C1089.87 495.866 1089.66 495.286 1089.24 494.811C1088.87 494.336 1088.34 493.994 1087.65 493.783C1086.97 493.519 1086.15 493.387 1085.2 493.387C1083.93 493.387 1082.83 493.651 1081.88 494.178C1080.93 494.653 1080.19 495.286 1079.66 496.077C1079.19 496.816 1078.92 497.607 1078.87 498.451ZM1113.54 521.791C1110.74 521.791 1108.76 521.237 1107.6 520.13C1106.5 519.022 1105.94 517.097 1105.94 514.354C1105.94 512.402 1106.18 510.873 1106.65 509.765C1107.18 508.657 1108 507.866 1109.11 507.391C1110.22 506.864 1111.72 506.6 1113.62 506.6C1116.41 506.6 1118.36 507.18 1119.47 508.341C1120.58 509.448 1121.13 511.426 1121.13 514.275C1121.13 516.121 1120.9 517.598 1120.42 518.706C1119.95 519.813 1119.16 520.604 1118.05 521.079C1116.94 521.554 1115.44 521.791 1113.54 521.791ZM1150.41 521.633C1148.04 521.633 1146.35 521.29 1145.35 520.604C1144.35 519.866 1143.74 518.943 1143.53 517.835C1143.32 516.675 1143.21 515.488 1143.21 514.275V473.449C1143.21 472.288 1143.32 471.154 1143.53 470.047C1143.74 468.939 1144.35 468.042 1145.35 467.357C1146.35 466.618 1148.07 466.249 1150.49 466.249H1169.01C1172.23 466.249 1175.1 467.04 1177.63 468.622C1180.16 470.152 1182.17 472.209 1183.64 474.794C1185.12 477.378 1185.86 480.174 1185.86 483.181C1185.86 484.183 1185.75 485.211 1185.54 486.266C1185.39 487.268 1185.1 488.271 1184.67 489.273C1184.3 490.222 1183.83 491.145 1183.25 492.042C1184.15 493.15 1184.91 494.363 1185.54 495.682C1186.18 496.947 1186.65 498.266 1186.97 499.638C1187.28 500.956 1187.44 502.301 1187.44 503.673C1187.39 506.205 1186.89 508.578 1185.94 510.793C1185.04 512.956 1183.78 514.855 1182.14 516.49C1180.51 518.073 1178.63 519.338 1176.52 520.288C1174.41 521.185 1172.17 521.633 1169.8 521.633H1150.41ZM1157.69 507.154H1169.01C1169.38 507.154 1169.88 507.101 1170.51 506.996C1171.14 506.837 1171.7 506.468 1172.17 505.888C1172.7 505.255 1172.96 504.227 1172.96 502.802C1172.96 502.064 1172.88 501.457 1172.73 500.983C1172.62 500.455 1172.44 500.06 1172.17 499.796C1171.91 499.479 1171.59 499.268 1171.22 499.163C1170.91 499.005 1170.51 498.899 1170.04 498.846C1169.61 498.794 1169.14 498.767 1168.61 498.767H1167.58C1165.47 498.767 1163.97 498.319 1163.07 497.422C1162.18 496.525 1161.73 494.943 1161.73 492.675C1161.73 490.512 1162.2 489.009 1163.15 488.165C1164.15 487.268 1165.76 486.82 1167.98 486.82H1168.93C1169.35 486.82 1169.72 486.794 1170.04 486.741C1170.35 486.688 1170.59 486.556 1170.75 486.345C1170.96 486.134 1171.12 485.844 1171.22 485.475C1171.33 485.053 1171.38 484.499 1171.38 483.814C1171.38 482.6 1171.09 481.783 1170.51 481.361C1169.98 480.939 1168.9 480.728 1167.27 480.728H1157.69V507.154ZM1209.39 521.554C1206.86 521.554 1204.48 521.053 1202.27 520.051C1200.11 519.048 1198.21 517.651 1196.57 515.857C1194.94 514.011 1193.67 511.875 1192.77 509.448C1191.88 507.022 1191.43 504.385 1191.43 501.536V488.64C1191.43 487.427 1191.53 486.293 1191.74 485.238C1191.96 484.13 1192.56 483.233 1193.56 482.548C1194.57 481.809 1196.25 481.44 1198.63 481.44C1201.05 481.44 1202.74 481.809 1203.69 482.548C1204.69 483.233 1205.3 484.13 1205.51 485.238C1205.72 486.345 1205.83 487.506 1205.83 488.719V501.536C1205.83 502.75 1206.04 503.778 1206.46 504.622C1206.94 505.466 1207.6 506.125 1208.44 506.6C1209.34 507.022 1210.36 507.233 1211.52 507.233C1212.69 507.233 1213.69 506.996 1214.53 506.521C1215.38 506.046 1216.03 505.387 1216.51 504.543C1216.98 503.699 1217.22 502.697 1217.22 501.536V488.561C1217.22 487.348 1217.33 486.213 1217.54 485.159C1217.75 484.051 1218.36 483.154 1219.36 482.468C1220.36 481.783 1222.05 481.44 1224.42 481.44C1226.85 481.44 1228.54 481.809 1229.48 482.548C1230.49 483.233 1231.09 484.13 1231.3 485.238C1231.52 486.345 1231.62 487.479 1231.62 488.64V514.67C1231.62 515.831 1231.52 516.938 1231.3 517.993C1231.09 519.048 1230.49 519.919 1229.48 520.604C1228.48 521.29 1226.79 521.633 1224.42 521.633C1222.68 521.633 1221.31 521.422 1220.31 521C1219.36 520.631 1218.67 520.156 1218.25 519.576C1217.83 518.943 1217.56 518.336 1217.46 517.756C1217.41 517.123 1217.38 516.596 1217.38 516.174L1218.72 516.569C1218.72 516.569 1218.51 516.833 1218.09 517.36C1217.67 517.835 1217.04 518.415 1216.19 519.101C1215.4 519.734 1214.43 520.314 1213.27 520.842C1212.16 521.316 1210.87 521.554 1209.39 521.554ZM1257.92 521.712C1255.12 521.712 1252.7 521.396 1250.64 520.763C1248.58 520.13 1246.87 519.154 1245.5 517.835C1244.18 516.517 1243.17 514.855 1242.49 512.851C1241.86 510.846 1241.54 508.499 1241.54 505.809V475.11C1241.54 473.897 1241.65 472.789 1241.86 471.787C1242.07 470.732 1242.67 469.888 1243.68 469.255C1244.68 468.57 1246.37 468.227 1248.74 468.227C1251.06 468.227 1252.72 468.596 1253.72 469.335C1254.73 470.02 1255.33 470.917 1255.54 472.025C1255.75 473.132 1255.86 474.266 1255.86 475.427V505.097C1255.86 505.677 1255.89 506.178 1255.94 506.6C1256.04 506.969 1256.18 507.259 1256.34 507.47C1256.49 507.681 1256.7 507.84 1256.97 507.945C1257.23 508.051 1257.57 508.103 1258 508.103C1259.37 508.103 1260.58 508.209 1261.64 508.42C1262.74 508.631 1263.59 509.185 1264.17 510.081C1264.8 510.978 1265.12 512.481 1265.12 514.591C1265.12 516.965 1264.75 518.653 1264.01 519.655C1263.27 520.657 1262.35 521.237 1261.24 521.396C1260.13 521.607 1259.03 521.712 1257.92 521.712ZM1239.88 481.994H1249.14L1260.05 481.598C1261.21 481.598 1262.32 481.704 1263.38 481.915C1264.48 482.126 1265.38 482.732 1266.07 483.734C1266.81 484.737 1267.17 486.451 1267.17 488.877C1267.17 491.093 1266.81 492.701 1266.07 493.704C1265.38 494.706 1264.48 495.339 1263.38 495.602C1262.32 495.866 1261.19 495.998 1259.97 495.998L1249.93 495.761H1239.56C1237.77 495.655 1236.53 495.075 1235.84 494.02C1235.16 492.965 1234.81 491.224 1234.81 488.798C1234.81 486.53 1235.24 484.842 1236.08 483.734C1236.92 482.574 1238.19 481.994 1239.88 481.994ZM1321.06 521.554C1318.69 521.554 1316.92 521.158 1315.76 520.367C1314.65 519.576 1314.12 518.679 1314.18 517.677H1315.28C1315.02 518.046 1314.49 518.547 1313.7 519.18C1312.96 519.76 1311.96 520.314 1310.7 520.842C1309.43 521.316 1307.87 521.554 1306.03 521.554C1303.65 521.554 1301.36 521.026 1299.14 519.971C1296.98 518.864 1295.03 517.36 1293.29 515.462C1291.6 513.563 1290.26 511.426 1289.25 509.053C1288.25 506.626 1287.75 504.095 1287.75 501.457C1287.75 498.873 1288.25 496.394 1289.25 494.02C1290.26 491.646 1291.63 489.537 1293.37 487.69C1295.11 485.792 1297.06 484.315 1299.22 483.26C1301.39 482.152 1303.65 481.598 1306.03 481.598C1307.82 481.598 1309.32 481.862 1310.54 482.389C1311.8 482.917 1312.81 483.497 1313.54 484.13C1314.34 484.763 1314.86 485.29 1315.13 485.712H1314.26C1314.2 484.394 1314.73 483.365 1315.84 482.627C1317 481.888 1318.77 481.519 1321.14 481.519C1323.51 481.519 1325.17 481.888 1326.12 482.627C1327.13 483.312 1327.73 484.209 1327.94 485.317C1328.15 486.424 1328.26 487.559 1328.26 488.719V514.433C1328.26 515.593 1328.15 516.728 1327.94 517.835C1327.73 518.943 1327.13 519.84 1326.12 520.525C1325.17 521.211 1323.49 521.554 1321.06 521.554ZM1308.01 507.233C1309.01 507.233 1309.9 506.969 1310.7 506.442C1311.54 505.914 1312.2 505.229 1312.67 504.385C1313.2 503.488 1313.46 502.539 1313.46 501.536C1313.46 500.481 1313.2 499.532 1312.67 498.688C1312.2 497.844 1311.54 497.158 1310.7 496.631C1309.85 496.104 1308.9 495.84 1307.85 495.84C1306.79 495.84 1305.82 496.104 1304.92 496.631C1304.08 497.158 1303.39 497.871 1302.86 498.767C1302.34 499.611 1302.07 500.561 1302.07 501.616C1302.07 502.618 1302.34 503.541 1302.86 504.385C1303.44 505.229 1304.18 505.914 1305.08 506.442C1305.97 506.969 1306.95 507.233 1308.01 507.233ZM605.028 617.712C602.654 617.712 600.966 617.369 599.964 616.684C598.962 615.945 598.355 615.022 598.144 613.914C597.986 612.807 597.907 611.673 597.907 610.512V566.521C597.907 565.308 598.013 564.174 598.223 563.119C598.434 562.011 599.041 561.115 600.043 560.429C601.045 559.743 602.733 559.4 605.107 559.4C607.481 559.4 609.142 559.77 610.092 560.508C611.094 561.194 611.7 562.091 611.911 563.198C612.122 564.253 612.228 565.387 612.228 566.6V581C613.019 580.262 614.074 579.523 615.393 578.785C616.764 577.994 618.346 577.598 620.14 577.598C623.516 577.598 626.549 578.495 629.239 580.288C631.929 582.029 634.065 584.402 635.647 587.409C637.23 590.416 638.021 593.818 638.021 597.616V610.591C638.021 611.752 637.915 612.886 637.704 613.993C637.493 615.048 636.887 615.945 635.885 616.684C634.935 617.369 633.247 617.712 630.821 617.712C628.5 617.712 626.812 617.369 625.757 616.684C624.755 615.998 624.149 615.101 623.938 613.993C623.727 612.886 623.621 611.699 623.621 610.433V597.536C623.621 596.376 623.41 595.4 622.988 594.609C622.566 593.765 621.96 593.106 621.168 592.631C620.377 592.156 619.428 591.919 618.32 591.919C616.896 591.919 615.577 592.367 614.364 593.264C613.151 594.161 612.439 595.189 612.228 596.35V610.591C612.228 611.752 612.122 612.886 611.911 613.993C611.7 615.101 611.094 615.998 610.092 616.684C609.142 617.369 607.454 617.712 605.028 617.712ZM660.608 617.554C658.076 617.554 655.702 617.053 653.487 616.051C651.324 615.048 649.426 613.651 647.79 611.857C646.155 610.011 644.889 607.875 643.993 605.448C643.096 603.022 642.648 600.385 642.648 597.536V584.64C642.648 583.427 642.753 582.293 642.964 581.238C643.175 580.13 643.782 579.233 644.784 578.548C645.786 577.809 647.474 577.44 649.848 577.44C652.274 577.44 653.962 577.809 654.911 578.548C655.913 579.233 656.52 580.13 656.731 581.238C656.942 582.345 657.048 583.506 657.048 584.719V597.536C657.048 598.75 657.259 599.778 657.68 600.622C658.155 601.466 658.815 602.125 659.658 602.6C660.555 603.022 661.584 603.233 662.744 603.233C663.905 603.233 664.907 602.996 665.751 602.521C666.595 602.046 667.254 601.387 667.729 600.543C668.203 599.699 668.441 598.697 668.441 597.536V584.561C668.441 583.348 668.546 582.213 668.757 581.159C668.968 580.051 669.575 579.154 670.577 578.468C671.579 577.783 673.267 577.44 675.641 577.44C678.067 577.44 679.755 577.809 680.704 578.548C681.707 579.233 682.313 580.13 682.524 581.238C682.735 582.345 682.841 583.479 682.841 584.64V610.67C682.841 611.831 682.735 612.938 682.524 613.993C682.313 615.048 681.707 615.919 680.704 616.604C679.702 617.29 678.014 617.633 675.641 617.633C673.9 617.633 672.529 617.422 671.527 617C670.577 616.631 669.891 616.156 669.469 615.576C669.047 614.943 668.784 614.336 668.678 613.756C668.625 613.123 668.599 612.596 668.599 612.174L669.944 612.569C669.944 612.569 669.733 612.833 669.311 613.36C668.889 613.835 668.256 614.415 667.412 615.101C666.621 615.734 665.645 616.314 664.485 616.842C663.377 617.316 662.085 617.554 660.608 617.554ZM694.737 617.633C692.364 617.633 690.676 617.29 689.673 616.604C688.671 615.866 688.065 614.943 687.854 613.835C687.695 612.728 687.616 611.593 687.616 610.433V584.402C687.616 583.242 687.722 582.134 687.933 581.079C688.144 580.024 688.75 579.181 689.753 578.548C690.755 577.862 692.443 577.519 694.816 577.519C696.979 577.519 698.535 577.809 699.484 578.389C700.487 578.917 701.12 579.576 701.383 580.367C701.647 581.159 701.752 581.897 701.7 582.583C701.7 583.216 701.752 583.611 701.858 583.77L701.225 584.244C701.172 583.453 701.462 582.662 702.095 581.871C702.781 581.079 703.651 580.367 704.706 579.734C705.814 579.049 706.974 578.521 708.188 578.152C709.454 577.73 710.64 577.519 711.748 577.519C714.385 577.519 716.706 578.02 718.711 579.022C720.715 580.024 722.376 581.449 723.695 583.295C725.067 585.088 726.095 587.198 726.781 589.624C727.467 592.051 727.809 594.688 727.809 597.536V610.512C727.809 611.673 727.704 612.807 727.493 613.914C727.282 615.022 726.675 615.919 725.673 616.604C724.724 617.29 723.036 617.633 720.609 617.633C718.183 617.633 716.469 617.29 715.467 616.604C714.464 615.866 713.858 614.943 713.647 613.835C713.436 612.728 713.33 611.593 713.33 610.433V597.536C713.33 596.323 713.093 595.295 712.618 594.451C712.196 593.607 711.563 592.974 710.719 592.552C709.928 592.077 708.926 591.84 707.713 591.84C706.552 591.84 705.524 592.077 704.627 592.552C703.783 593.027 703.124 593.686 702.649 594.53C702.174 595.374 701.937 596.376 701.937 597.536V610.512C701.937 611.673 701.832 612.807 701.621 613.914C701.41 615.022 700.803 615.919 699.801 616.604C698.851 617.29 697.164 617.633 694.737 617.633ZM749.52 617.554C747.147 617.554 744.852 617.026 742.637 615.971C740.474 614.864 738.523 613.387 736.782 611.541C735.094 609.642 733.749 607.479 732.747 605.053C731.745 602.626 731.244 600.095 731.244 597.457C731.244 594.925 731.745 592.473 732.747 590.099C733.749 587.726 735.121 585.616 736.861 583.77C738.602 581.871 740.554 580.367 742.716 579.26C744.932 578.152 747.2 577.598 749.52 577.598C752.052 577.598 754.241 578.152 756.087 579.26C757.934 580.315 759.463 581.765 760.676 583.611C761.89 585.457 762.786 587.567 763.367 589.941C763.999 592.314 764.342 594.767 764.395 597.299C764.448 599.884 764.184 602.389 763.604 604.815C763.024 607.189 762.127 609.352 760.914 611.303C759.701 613.202 758.145 614.732 756.246 615.892C754.4 617 752.158 617.554 749.52 617.554ZM751.419 603.312C752.422 603.312 753.345 603.048 754.189 602.521C755.033 601.994 755.718 601.308 756.246 600.464C756.773 599.567 757.037 598.618 757.037 597.616C757.037 596.561 756.773 595.611 756.246 594.767C755.771 593.923 755.112 593.238 754.268 592.71C753.424 592.183 752.448 591.919 751.34 591.919C750.285 591.919 749.309 592.183 748.413 592.71C747.569 593.185 746.883 593.871 746.356 594.767C745.881 595.611 745.644 596.561 745.644 597.616C745.644 598.618 745.907 599.567 746.435 600.464C746.962 601.308 747.674 601.994 748.571 602.521C749.468 603.048 750.417 603.312 751.419 603.312ZM764.395 617.633C762.285 617.633 760.703 617.316 759.648 616.684C758.593 616.051 757.881 615.048 757.512 613.677V566.6C757.512 565.44 757.564 564.306 757.67 563.198C757.828 562.091 758.382 561.194 759.331 560.508C760.281 559.77 761.942 559.4 764.316 559.4C766.742 559.4 768.43 559.743 769.38 560.429C770.382 561.115 770.988 562.011 771.199 563.119C771.41 564.174 771.516 565.308 771.516 566.521V610.433C771.516 611.593 771.41 612.728 771.199 613.835C770.988 614.943 770.382 615.866 769.38 616.604C768.43 617.29 766.769 617.633 764.395 617.633ZM783.361 617.712C780.987 617.712 779.3 617.369 778.297 616.684C777.295 615.945 776.689 615.022 776.478 613.914C776.319 612.754 776.24 611.593 776.24 610.433V584.64C776.24 583.427 776.346 582.293 776.557 581.238C776.768 580.13 777.374 579.233 778.376 578.548C779.379 577.862 781.067 577.519 783.44 577.519C785.761 577.519 787.396 577.835 788.346 578.468C789.348 579.101 789.954 579.814 790.165 580.605C790.376 581.343 790.482 581.923 790.482 582.345L789.216 581.871C789.216 581.871 789.427 581.633 789.849 581.159C790.271 580.684 790.877 580.13 791.669 579.497C792.513 578.864 793.488 578.31 794.596 577.835C795.757 577.361 797.049 577.123 798.473 577.123C798.948 577.123 799.528 577.176 800.214 577.282C800.952 577.334 801.717 577.466 802.508 577.677C803.352 577.888 804.117 578.205 804.803 578.627C805.541 579.049 806.121 579.603 806.543 580.288C807.018 580.974 807.255 581.818 807.255 582.82C807.255 585.457 806.675 587.699 805.515 589.545C804.407 591.391 802.93 592.314 801.084 592.314C800.082 592.314 799.37 592.262 798.948 592.156C798.526 591.998 798.209 591.866 797.998 591.761C797.84 591.602 797.629 591.471 797.365 591.365C797.154 591.207 796.732 591.128 796.099 591.128C795.308 591.128 794.57 591.233 793.884 591.444C793.251 591.602 792.671 591.866 792.143 592.235C791.669 592.605 791.299 593.053 791.036 593.58C790.772 594.055 790.64 594.583 790.64 595.163V610.591C790.64 611.752 790.535 612.886 790.324 613.993C790.113 615.101 789.506 615.998 788.504 616.684C787.502 617.369 785.787 617.712 783.361 617.712ZM828.409 618.582C824.453 618.582 821.104 617.949 818.361 616.684C815.618 615.365 813.403 613.677 811.715 611.62C810.027 609.51 808.788 607.242 807.996 604.815C807.205 602.389 806.81 600.042 806.81 597.774C806.81 593.607 807.733 589.941 809.579 586.776C811.425 583.611 813.983 581.132 817.254 579.339C820.524 577.545 824.269 576.649 828.489 576.649C831.759 576.649 834.554 577.176 836.875 578.231C839.196 579.286 841.069 580.631 842.493 582.266C843.97 583.901 845.051 585.642 845.737 587.488C846.423 589.334 846.765 591.049 846.765 592.631C846.765 595.638 846.027 597.932 844.55 599.514C843.073 601.097 841.174 601.888 838.853 601.888H822.001C822.212 602.732 822.634 603.47 823.267 604.103C823.952 604.684 824.796 605.158 825.799 605.528C826.801 605.844 827.882 606.002 829.042 606.002C830.203 606.002 831.231 605.95 832.128 605.844C833.025 605.686 833.79 605.501 834.423 605.29C835.108 605.079 835.715 604.868 836.242 604.657C836.823 604.446 837.324 604.288 837.746 604.183C838.22 604.024 838.669 603.945 839.091 603.945C840.04 603.945 840.91 604.262 841.702 604.895C842.493 605.528 843.205 606.477 843.838 607.743C844.207 608.429 844.471 609.088 844.629 609.721C844.787 610.301 844.866 610.855 844.866 611.382C844.866 612.965 844.207 614.284 842.888 615.338C841.623 616.393 839.776 617.185 837.35 617.712C834.924 618.292 831.944 618.582 828.409 618.582ZM822.001 594.451H830.862C831.601 594.451 832.128 594.293 832.445 593.976C832.814 593.66 832.998 593.185 832.998 592.552C832.998 591.866 832.787 591.286 832.365 590.811C831.996 590.336 831.469 589.994 830.783 589.783C830.097 589.519 829.28 589.387 828.33 589.387C827.064 589.387 825.957 589.651 825.007 590.178C824.058 590.653 823.319 591.286 822.792 592.077C822.317 592.816 822.053 593.607 822.001 594.451ZM867.428 617.554C865.055 617.554 862.76 617.026 860.545 615.971C858.382 614.864 856.43 613.387 854.69 611.541C853.002 609.642 851.657 607.479 850.655 605.053C849.652 602.626 849.151 600.095 849.151 597.457C849.151 594.925 849.652 592.473 850.655 590.099C851.657 587.726 853.028 585.616 854.769 583.77C856.51 581.871 858.461 580.367 860.624 579.26C862.839 578.152 865.107 577.598 867.428 577.598C869.96 577.598 872.149 578.152 873.995 579.26C875.841 580.315 877.371 581.765 878.584 583.611C879.797 585.457 880.694 587.567 881.274 589.941C881.907 592.314 882.25 594.767 882.303 597.299C882.355 599.884 882.092 602.389 881.512 604.815C880.931 607.189 880.035 609.352 878.821 611.303C877.608 613.202 876.052 614.732 874.153 615.892C872.307 617 870.065 617.554 867.428 617.554ZM869.327 603.312C870.329 603.312 871.252 603.048 872.096 602.521C872.94 601.994 873.626 601.308 874.153 600.464C874.681 599.567 874.945 598.618 874.945 597.616C874.945 596.561 874.681 595.611 874.153 594.767C873.679 593.923 873.019 593.238 872.175 592.71C871.331 592.183 870.356 591.919 869.248 591.919C868.193 591.919 867.217 592.183 866.32 592.71C865.476 593.185 864.791 593.871 864.263 594.767C863.789 595.611 863.551 596.561 863.551 597.616C863.551 598.618 863.815 599.567 864.342 600.464C864.87 601.308 865.582 601.994 866.479 602.521C867.375 603.048 868.325 603.312 869.327 603.312ZM882.303 617.633C880.193 617.633 878.61 617.316 877.555 616.684C876.501 616.051 875.788 615.048 875.419 613.677V566.6C875.419 565.44 875.472 564.306 875.577 563.198C875.736 562.091 876.29 561.194 877.239 560.508C878.188 559.77 879.85 559.4 882.224 559.4C884.65 559.4 886.338 559.743 887.287 560.429C888.289 561.115 888.896 562.011 889.107 563.119C889.318 564.174 889.424 565.308 889.424 566.521V610.433C889.424 611.593 889.318 612.728 889.107 613.835C888.896 614.943 888.289 615.866 887.287 616.604C886.338 617.29 884.676 617.633 882.303 617.633ZM934.29 617.712C931.494 617.712 929.068 617.396 927.011 616.763C924.953 616.13 923.239 615.154 921.868 613.835C920.549 612.517 919.547 610.855 918.861 608.851C918.228 606.846 917.912 604.499 917.912 601.809V571.11C917.912 569.897 918.017 568.789 918.228 567.787C918.439 566.732 919.046 565.888 920.048 565.255C921.05 564.57 922.738 564.227 925.112 564.227C927.433 564.227 929.094 564.596 930.096 565.335C931.098 566.02 931.705 566.917 931.916 568.025C932.127 569.132 932.233 570.266 932.233 571.427V601.097C932.233 601.677 932.259 602.178 932.312 602.6C932.417 602.969 932.549 603.259 932.707 603.47C932.865 603.681 933.076 603.84 933.34 603.945C933.604 604.051 933.947 604.103 934.369 604.103C935.74 604.103 936.953 604.209 938.008 604.42C939.116 604.631 939.96 605.185 940.54 606.081C941.173 606.978 941.49 608.481 941.49 610.591C941.49 612.965 941.12 614.653 940.382 615.655C939.643 616.657 938.72 617.237 937.613 617.396C936.505 617.607 935.397 617.712 934.29 617.712ZM916.25 577.994H925.507L936.426 577.598C937.586 577.598 938.694 577.704 939.749 577.915C940.857 578.126 941.753 578.732 942.439 579.734C943.177 580.737 943.547 582.451 943.547 584.877C943.547 587.093 943.177 588.701 942.439 589.704C941.753 590.706 940.857 591.339 939.749 591.602C938.694 591.866 937.56 591.998 936.347 591.998L926.298 591.761H915.934C914.14 591.655 912.901 591.075 912.215 590.02C911.529 588.965 911.187 587.224 911.187 584.798C911.187 582.53 911.609 580.842 912.452 579.734C913.296 578.574 914.562 577.994 916.25 577.994ZM954.205 617.712C951.831 617.712 950.144 617.369 949.141 616.684C948.139 615.945 947.533 615.022 947.322 613.914C947.163 612.807 947.084 611.673 947.084 610.512V584.719C947.084 583.559 947.19 582.451 947.401 581.396C947.612 580.288 948.218 579.392 949.22 578.706C950.223 577.967 951.911 577.598 954.284 577.598C956.658 577.598 958.319 577.967 959.269 578.706C960.271 579.392 960.878 580.288 961.089 581.396C961.3 582.504 961.405 583.664 961.405 584.877V610.591C961.405 611.752 961.3 612.886 961.089 613.993C960.878 615.101 960.271 615.998 959.269 616.684C958.319 617.369 956.631 617.712 954.205 617.712ZM954.205 573.721C951.831 573.721 950.144 573.378 949.141 572.693C948.139 571.954 947.533 571.031 947.322 569.923C947.163 568.816 947.084 567.682 947.084 566.521C947.084 565.308 947.19 564.174 947.401 563.119C947.612 562.011 948.218 561.115 949.22 560.429C950.223 559.743 951.911 559.4 954.284 559.4C956.658 559.4 958.319 559.77 959.269 560.508C960.271 561.194 960.878 562.091 961.089 563.198C961.3 564.306 961.405 565.44 961.405 566.6C961.405 567.761 961.3 568.895 961.089 570.003C960.878 571.11 960.271 572.007 959.269 572.693C958.319 573.378 956.631 573.721 954.205 573.721ZM973.509 617.712C971.135 617.712 969.447 617.369 968.445 616.684C967.443 615.945 966.836 615.022 966.625 613.914C966.467 612.807 966.388 611.673 966.388 610.512V584.64C966.388 583.427 966.493 582.293 966.704 581.238C966.915 580.13 967.522 579.233 968.524 578.548C969.526 577.862 971.24 577.519 973.667 577.519C976.04 577.519 977.755 577.994 978.81 578.943C979.917 579.84 980.471 581.317 980.471 583.374L979.126 582.978C979.126 582.978 979.311 582.715 979.68 582.187C980.102 581.607 980.682 580.948 981.421 580.209C982.212 579.471 983.161 578.838 984.269 578.31C985.377 577.73 986.643 577.44 988.067 577.44C989.702 577.44 991.205 577.651 992.577 578.073C993.948 578.495 995.187 579.154 996.295 580.051C997.456 580.895 998.458 581.95 999.302 583.216C999.882 582.53 1000.67 581.739 1001.68 580.842C1002.68 579.945 1003.86 579.154 1005.24 578.468C1006.66 577.783 1008.24 577.44 1009.98 577.44C1013.1 577.44 1015.73 578.231 1017.89 579.814C1020.11 581.396 1021.77 583.69 1022.88 586.697C1024.04 589.704 1024.62 593.343 1024.62 597.616V610.512C1024.62 611.673 1024.51 612.807 1024.3 613.914C1024.09 615.022 1023.49 615.945 1022.48 616.684C1021.48 617.369 1019.77 617.712 1017.34 617.712C1014.97 617.712 1013.28 617.343 1012.28 616.604C1011.28 615.866 1010.67 614.943 1010.46 613.835C1010.3 612.728 1010.22 611.593 1010.22 610.433V597.536C1010.22 596.271 1010.06 595.242 1009.75 594.451C1009.48 593.607 1009.06 592.974 1008.48 592.552C1007.95 592.13 1007.27 591.919 1006.42 591.919C1005.53 591.919 1004.79 592.104 1004.21 592.473C1003.68 592.842 1003.28 593.449 1003.02 594.293C1002.81 595.084 1002.7 596.191 1002.7 597.616V610.512C1002.7 611.673 1002.6 612.807 1002.39 613.914C1002.18 615.022 1001.57 615.945 1000.57 616.684C999.565 617.369 997.851 617.712 995.425 617.712C993.051 617.712 991.363 617.343 990.361 616.604C989.359 615.866 988.752 614.943 988.541 613.835C988.383 612.728 988.304 611.593 988.304 610.433V597.536C988.304 596.271 988.172 595.216 987.908 594.372C987.645 593.528 987.223 592.921 986.643 592.552C986.115 592.13 985.403 591.919 984.506 591.919C983.451 591.919 982.66 592.183 982.133 592.71C981.605 593.238 981.236 593.923 981.025 594.767C980.867 595.611 980.788 596.534 980.788 597.536V610.591C980.788 611.752 980.682 612.886 980.471 613.993C980.26 615.101 979.654 615.998 978.651 616.684C977.649 617.369 975.935 617.712 973.509 617.712ZM1049.54 618.582C1045.59 618.582 1042.24 617.949 1039.5 616.684C1036.75 615.365 1034.54 613.677 1032.85 611.62C1031.16 609.51 1029.92 607.242 1029.13 604.815C1028.34 602.389 1027.94 600.042 1027.94 597.774C1027.94 593.607 1028.87 589.941 1030.71 586.776C1032.56 583.611 1035.12 581.132 1038.39 579.339C1041.66 577.545 1045.4 576.649 1049.62 576.649C1052.89 576.649 1055.69 577.176 1058.01 578.231C1060.33 579.286 1062.2 580.631 1063.63 582.266C1065.1 583.901 1066.19 585.642 1066.87 587.488C1067.56 589.334 1067.9 591.049 1067.9 592.631C1067.9 595.638 1067.16 597.932 1065.68 599.514C1064.21 601.097 1062.31 601.888 1059.99 601.888H1043.14C1043.35 602.732 1043.77 603.47 1044.4 604.103C1045.09 604.684 1045.93 605.158 1046.93 605.528C1047.94 605.844 1049.02 606.002 1050.18 606.002C1051.34 606.002 1052.37 605.95 1053.26 605.844C1054.16 605.686 1054.92 605.501 1055.56 605.29C1056.24 605.079 1056.85 604.868 1057.38 604.657C1057.96 604.446 1058.46 604.288 1058.88 604.183C1059.36 604.024 1059.8 603.945 1060.23 603.945C1061.17 603.945 1062.05 604.262 1062.84 604.895C1063.63 605.528 1064.34 606.477 1064.97 607.743C1065.34 608.429 1065.61 609.088 1065.76 609.721C1065.92 610.301 1066 610.855 1066 611.382C1066 612.965 1065.34 614.284 1064.02 615.338C1062.76 616.393 1060.91 617.185 1058.48 617.712C1056.06 618.292 1053.08 618.582 1049.54 618.582ZM1043.14 594.451H1052C1052.74 594.451 1053.26 594.293 1053.58 593.976C1053.95 593.66 1054.13 593.185 1054.13 592.552C1054.13 591.866 1053.92 591.286 1053.5 590.811C1053.13 590.336 1052.6 589.994 1051.92 589.783C1051.23 589.519 1050.41 589.387 1049.47 589.387C1048.2 589.387 1047.09 589.651 1046.14 590.178C1045.19 590.653 1044.45 591.286 1043.93 592.077C1043.45 592.816 1043.19 593.607 1043.14 594.451ZM1086.43 618.424C1084.95 618.424 1083.29 618.24 1081.44 617.87C1079.65 617.554 1077.88 617.079 1076.14 616.446C1074.45 615.76 1073.06 614.969 1071.95 614.073C1070.84 613.176 1070.29 612.147 1070.29 610.987C1070.29 610.459 1070.39 609.879 1070.6 609.246C1070.87 608.561 1071.21 607.822 1071.63 607.031C1072.05 606.24 1072.58 605.396 1073.21 604.499C1073.58 603.972 1074 603.576 1074.48 603.312C1075.01 603.048 1075.61 602.917 1076.3 602.917C1077.25 602.917 1078.17 603.128 1079.07 603.55C1079.97 603.919 1080.86 604.367 1081.76 604.895C1082.66 605.369 1083.58 605.818 1084.53 606.24C1085.53 606.609 1086.58 606.793 1087.69 606.793C1088.69 606.793 1089.43 606.688 1089.91 606.477C1090.44 606.266 1090.7 605.95 1090.7 605.528C1090.7 605.106 1090.51 604.763 1090.15 604.499C1089.83 604.235 1089.35 604.024 1088.72 603.866C1088.14 603.655 1087.46 603.47 1086.66 603.312C1085.87 603.154 1085.03 602.969 1084.13 602.758C1083.24 602.547 1082.31 602.284 1081.36 601.967C1080.15 601.598 1078.96 601.123 1077.8 600.543C1076.64 599.91 1075.59 599.092 1074.64 598.09C1073.74 597.088 1073 595.875 1072.42 594.451C1071.89 593.027 1071.63 591.286 1071.63 589.229C1071.63 586.486 1072.26 584.191 1073.53 582.345C1074.8 580.499 1076.67 579.101 1079.15 578.152C1081.63 577.203 1084.69 576.728 1088.33 576.728C1089.22 576.728 1090.12 576.781 1091.02 576.886C1091.91 576.992 1092.81 577.15 1093.71 577.361C1094.66 577.572 1095.58 577.862 1096.47 578.231C1097.42 578.548 1098.37 578.917 1099.32 579.339C1101.27 580.183 1102.28 581.37 1102.33 582.899C1102.38 584.376 1101.83 585.932 1100.67 587.567C1100.04 588.569 1099.38 589.334 1098.69 589.862C1098.06 590.336 1097.4 590.574 1096.71 590.574C1095.87 590.574 1094.95 590.336 1093.94 589.862C1092.94 589.387 1091.89 588.912 1090.78 588.438C1089.67 587.963 1088.56 587.726 1087.46 587.726C1086.82 587.726 1086.27 587.805 1085.79 587.963C1085.37 588.068 1085.06 588.253 1084.84 588.517C1084.63 588.728 1084.53 588.991 1084.53 589.308C1084.53 589.888 1084.71 590.363 1085.08 590.732C1085.5 591.049 1086.03 591.312 1086.66 591.523C1087.35 591.734 1088.11 591.919 1088.96 592.077C1089.86 592.235 1090.8 592.394 1091.81 592.552C1093.18 592.763 1094.58 593.106 1096 593.58C1097.48 594.002 1098.82 594.635 1100.04 595.479C1101.25 596.323 1102.22 597.484 1102.96 598.961C1103.7 600.438 1104.07 602.363 1104.07 604.736C1104.07 609.22 1102.57 612.622 1099.56 614.943C1096.61 617.264 1092.23 618.424 1086.43 618.424ZM1133.22 617.712C1130.84 617.712 1129.16 617.369 1128.15 616.684C1127.15 615.945 1126.54 615.022 1126.33 613.914C1126.18 612.807 1126.1 611.673 1126.1 610.512V584.64C1126.1 583.427 1126.2 582.293 1126.41 581.238C1126.62 580.13 1127.23 579.233 1128.23 578.548C1129.23 577.862 1130.95 577.519 1133.38 577.519C1135.75 577.519 1137.46 577.994 1138.52 578.943C1139.63 579.84 1140.18 581.317 1140.18 583.374L1138.83 582.978C1138.83 582.978 1139.02 582.715 1139.39 582.187C1139.81 581.607 1140.39 580.948 1141.13 580.209C1141.92 579.471 1142.87 578.838 1143.98 578.31C1145.09 577.73 1146.35 577.44 1147.78 577.44C1149.41 577.44 1150.91 577.651 1152.28 578.073C1153.66 578.495 1154.9 579.154 1156 580.051C1157.16 580.895 1158.17 581.95 1159.01 583.216C1159.59 582.53 1160.38 581.739 1161.38 580.842C1162.39 579.945 1163.57 579.154 1164.94 578.468C1166.37 577.783 1167.95 577.44 1169.69 577.44C1172.8 577.44 1175.44 578.231 1177.6 579.814C1179.82 581.396 1181.48 583.69 1182.59 586.697C1183.75 589.704 1184.33 593.343 1184.33 597.616V610.512C1184.33 611.673 1184.22 612.807 1184.01 613.914C1183.8 615.022 1183.19 615.945 1182.19 616.684C1181.19 617.369 1179.48 617.712 1177.05 617.712C1174.68 617.712 1172.99 617.343 1171.99 616.604C1170.98 615.866 1170.38 614.943 1170.17 613.835C1170.01 612.728 1169.93 611.593 1169.93 610.433V597.536C1169.93 596.271 1169.77 595.242 1169.45 594.451C1169.19 593.607 1168.77 592.974 1168.19 592.552C1167.66 592.13 1166.97 591.919 1166.13 591.919C1165.23 591.919 1164.5 592.104 1163.92 592.473C1163.39 592.842 1162.99 593.449 1162.73 594.293C1162.52 595.084 1162.41 596.191 1162.41 597.616V610.512C1162.41 611.673 1162.31 612.807 1162.1 613.914C1161.88 615.022 1161.28 615.945 1160.28 616.684C1159.27 617.369 1157.56 617.712 1155.13 617.712C1152.76 617.712 1151.07 617.343 1150.07 616.604C1149.07 615.866 1148.46 614.943 1148.25 613.835C1148.09 612.728 1148.01 611.593 1148.01 610.433V597.536C1148.01 596.271 1147.88 595.216 1147.62 594.372C1147.35 593.528 1146.93 592.921 1146.35 592.552C1145.82 592.13 1145.11 591.919 1144.21 591.919C1143.16 591.919 1142.37 592.183 1141.84 592.71C1141.31 593.238 1140.94 593.923 1140.73 594.767C1140.58 595.611 1140.5 596.534 1140.5 597.536V610.591C1140.5 611.752 1140.39 612.886 1140.18 613.993C1139.97 615.101 1139.36 615.998 1138.36 616.684C1137.36 617.369 1135.64 617.712 1133.22 617.712ZM1208.62 618.424C1206.19 618.424 1203.74 617.949 1201.26 617C1198.78 615.998 1196.49 614.6 1194.38 612.807C1192.32 610.96 1190.66 608.771 1189.39 606.24C1188.18 603.655 1187.57 600.78 1187.57 597.616C1187.57 594.714 1188.13 591.998 1189.24 589.466C1190.34 586.934 1191.85 584.719 1193.75 582.82C1195.7 580.868 1197.91 579.339 1200.39 578.231C1202.92 577.123 1205.61 576.57 1208.46 576.57C1212.36 576.57 1215.9 577.519 1219.06 579.418C1222.23 581.264 1224.76 583.77 1226.66 586.934C1228.56 590.099 1229.51 593.633 1229.51 597.536C1229.51 600.859 1228.87 603.813 1227.61 606.398C1226.34 608.982 1224.68 611.171 1222.62 612.965C1220.57 614.758 1218.3 616.103 1215.82 617C1213.39 617.949 1210.99 618.424 1208.62 618.424ZM1208.46 603.945C1209.25 603.945 1210.15 603.761 1211.15 603.391C1212.21 602.969 1213.1 602.284 1213.84 601.334C1214.63 600.385 1215.03 599.092 1215.03 597.457C1215.03 596.139 1214.74 595.005 1214.16 594.055C1213.63 593.106 1212.87 592.367 1211.86 591.84C1210.86 591.312 1209.7 591.049 1208.38 591.049C1207.22 591.049 1206.17 591.339 1205.22 591.919C1204.27 592.446 1203.5 593.211 1202.92 594.213C1202.34 595.163 1202.05 596.271 1202.05 597.536C1202.05 599.119 1202.42 600.385 1203.16 601.334C1203.9 602.284 1204.77 602.969 1205.77 603.391C1206.77 603.761 1207.67 603.945 1208.46 603.945ZM1240.08 617.712C1237.71 617.712 1236.02 617.369 1235.02 616.684C1234.01 615.945 1233.41 615.022 1233.2 613.914C1233.04 612.754 1232.96 611.593 1232.96 610.433V584.64C1232.96 583.427 1233.06 582.293 1233.27 581.238C1233.49 580.13 1234.09 579.233 1235.09 578.548C1236.1 577.862 1237.78 577.519 1240.16 577.519C1242.48 577.519 1244.11 577.835 1245.06 578.468C1246.07 579.101 1246.67 579.814 1246.88 580.605C1247.09 581.343 1247.2 581.923 1247.2 582.345L1245.93 581.871C1245.93 581.871 1246.15 581.633 1246.57 581.159C1246.99 580.684 1247.6 580.13 1248.39 579.497C1249.23 578.864 1250.21 578.31 1251.31 577.835C1252.47 577.361 1253.77 577.123 1255.19 577.123C1255.67 577.123 1256.25 577.176 1256.93 577.282C1257.67 577.334 1258.44 577.466 1259.23 577.677C1260.07 577.888 1260.84 578.205 1261.52 578.627C1262.26 579.049 1262.84 579.603 1263.26 580.288C1263.74 580.974 1263.97 581.818 1263.97 582.82C1263.97 585.457 1263.39 587.699 1262.23 589.545C1261.13 591.391 1259.65 592.314 1257.8 592.314C1256.8 592.314 1256.09 592.262 1255.67 592.156C1255.24 591.998 1254.93 591.866 1254.72 591.761C1254.56 591.602 1254.35 591.471 1254.08 591.365C1253.87 591.207 1253.45 591.128 1252.82 591.128C1252.03 591.128 1251.29 591.233 1250.6 591.444C1249.97 591.602 1249.39 591.866 1248.86 592.235C1248.39 592.605 1248.02 593.053 1247.75 593.58C1247.49 594.055 1247.36 594.583 1247.36 595.163V610.591C1247.36 611.752 1247.25 612.886 1247.04 613.993C1246.83 615.101 1246.22 615.998 1245.22 616.684C1244.22 617.369 1242.51 617.712 1240.08 617.712ZM1285.13 618.582C1281.17 618.582 1277.82 617.949 1275.08 616.684C1272.34 615.365 1270.12 613.677 1268.43 611.62C1266.75 609.51 1265.51 607.242 1264.71 604.815C1263.92 602.389 1263.53 600.042 1263.53 597.774C1263.53 593.607 1264.45 589.941 1266.3 586.776C1268.14 583.611 1270.7 581.132 1273.97 579.339C1277.24 577.545 1280.99 576.649 1285.21 576.649C1288.48 576.649 1291.27 577.176 1293.59 578.231C1295.91 579.286 1297.79 580.631 1299.21 582.266C1300.69 583.901 1301.77 585.642 1302.46 587.488C1303.14 589.334 1303.48 591.049 1303.48 592.631C1303.48 595.638 1302.75 597.932 1301.27 599.514C1299.79 601.097 1297.89 601.888 1295.57 601.888H1278.72C1278.93 602.732 1279.35 603.47 1279.98 604.103C1280.67 604.684 1281.51 605.158 1282.52 605.528C1283.52 605.844 1284.6 606.002 1285.76 606.002C1286.92 606.002 1287.95 605.95 1288.85 605.844C1289.74 605.686 1290.51 605.501 1291.14 605.29C1291.83 605.079 1292.43 604.868 1292.96 604.657C1293.54 604.446 1294.04 604.288 1294.46 604.183C1294.94 604.024 1295.39 603.945 1295.81 603.945C1296.76 603.945 1297.63 604.262 1298.42 604.895C1299.21 605.528 1299.92 606.477 1300.56 607.743C1300.93 608.429 1301.19 609.088 1301.35 609.721C1301.51 610.301 1301.58 610.855 1301.58 611.382C1301.58 612.965 1300.93 614.284 1299.61 615.338C1298.34 616.393 1296.49 617.185 1294.07 617.712C1291.64 618.292 1288.66 618.582 1285.13 618.582ZM1278.72 594.451H1287.58C1288.32 594.451 1288.85 594.293 1289.16 593.976C1289.53 593.66 1289.72 593.185 1289.72 592.552C1289.72 591.866 1289.51 591.286 1289.08 590.811C1288.71 590.336 1288.19 589.994 1287.5 589.783C1286.82 589.519 1286 589.387 1285.05 589.387C1283.78 589.387 1282.68 589.651 1281.73 590.178C1280.78 590.653 1280.04 591.286 1279.51 592.077C1279.04 592.816 1278.77 593.607 1278.72 594.451ZM1314.49 598.328C1312.12 598.328 1310.43 598.011 1309.43 597.378C1308.43 596.745 1307.82 595.954 1307.61 595.005C1307.4 594.002 1307.29 592.974 1307.29 591.919V568.578C1307.29 567.523 1307.4 566.495 1307.61 565.493C1307.82 564.491 1308.43 563.673 1309.43 563.04C1310.43 562.354 1312.15 562.011 1314.57 562.011C1317 562.011 1318.69 562.354 1319.64 563.04C1320.64 563.673 1321.25 564.517 1321.46 565.572C1321.67 566.574 1321.77 567.603 1321.77 568.658V591.998C1321.77 593.053 1321.67 594.082 1321.46 595.084C1321.25 596.033 1320.64 596.824 1319.64 597.457C1318.63 598.038 1316.92 598.328 1314.49 598.328ZM1314.49 617.791C1311.43 617.791 1309.4 617.211 1308.4 616.051C1307.4 614.837 1306.9 612.859 1306.9 610.117C1306.9 608.956 1307 607.796 1307.21 606.635C1307.48 605.475 1308.14 604.525 1309.19 603.787C1310.25 602.996 1312.04 602.6 1314.57 602.6C1317.68 602.6 1319.72 603.18 1320.67 604.341C1321.61 605.501 1322.09 607.479 1322.09 610.275C1322.09 611.435 1321.98 612.596 1321.77 613.756C1321.56 614.917 1320.93 615.892 1319.87 616.684C1318.82 617.422 1317.03 617.791 1314.49 617.791Z" fill="#0E0A1D"/>
</g>
<defs>
<clipPath id="clip0_28_87">
<rect width="1920" height="1080" fill="white"/>
</clipPath>
</defs>
</svg>
