<svg width="1920" height="1080" viewBox="0 0 1920 1080" fill="none" xmlns="http://www.w3.org/2000/svg">
<g clip-path="url(#clip0_33_610)">
<rect width="1920" height="1080" fill="white"/>
<path d="M93 25C93 76.3625 51.3625 118 0 118C-51.3625 118 -93 76.3625 -93 25C-93 -26.3625 -51.3625 -68 0 -68C51.3625 -68 93 -26.3625 93 25ZM-61.975 25C-61.975 59.2278 -34.2278 86.975 0 86.975C34.2278 86.975 61.975 59.2278 61.975 25C61.975 -9.22783 34.2278 -36.975 0 -36.975C-34.2278 -36.975 -61.975 -9.22783 -61.975 25Z" fill="#FCBAD0"/>
<circle cx="1676.5" cy="475.5" r="32.5" fill="white"/>
<path d="M670 930.5C670 968.332 639.332 999 601.5 999C563.668 999 533 968.332 533 930.5C533 892.668 563.668 862 601.5 862C639.332 862 670 892.668 670 930.5ZM548 930.5C548 955.711 576.289 984.5 601.5 984.5C626.711 984.5 652.5 955.711 652.5 930.5C652.5 905.289 626.711 878.5 601.5 878.5C576.289 878.5 548 905.289 548 930.5Z" fill="white"/>
<path d="M1894 836C1894 870.794 1865.79 899 1831 899C1796.21 899 1768 870.794 1768 836C1768 801.206 1796.21 773 1831 773C1865.79 773 1894 801.206 1894 836ZM1789.02 836C1789.02 859.187 1807.81 877.983 1831 877.983C1854.19 877.983 1872.98 859.187 1872.98 836C1872.98 812.813 1854.19 794.017 1831 794.017C1807.81 794.017 1789.02 812.813 1789.02 836Z" fill="#FF74B3"/>
<circle cx="1584" cy="52" r="93" fill="#FF74B3"/>
<circle cx="1657.57" cy="1414" r="435" fill="#FF74B3"/>
<path fill-rule="evenodd" clip-rule="evenodd" d="M362.184 1562.43C296.871 1634.03 211.795 1684.64 117.715 1707.88C23.6349 1731.13 -75.2245 1725.95 -166.361 1693C-257.498 1660.06 -336.82 1600.83 -394.295 1522.8C-451.77 1444.78 -484.817 1351.46 -489.257 1254.66C-493.698 1157.85 -469.332 1061.9 -419.241 978.942C-369.15 895.983 -295.584 829.741 -207.846 788.592C-120.107 747.444 -22.1369 733.236 73.6759 747.767C168.329 762.122 256.676 803.887 327.825 867.865L327.834 867.856C328.097 868.096 328.359 868.338 328.619 868.581C329.225 869.128 329.83 869.677 330.434 870.228L330.389 870.276C347.29 886.893 357.333 909.316 358.423 933.079C359.567 958.016 350.757 982.387 333.933 1000.83C317.108 1019.27 293.647 1030.27 268.71 1031.42C243.772 1032.56 219.402 1023.75 200.96 1006.93L201.438 1006.4C157.693 967.418 103.542 941.961 45.5578 933.167C-13.5863 924.198 -74.0622 932.967 -128.222 958.368C-182.382 983.769 -227.794 1024.66 -258.714 1075.87C-289.635 1127.08 -304.675 1186.31 -301.934 1246.06C-299.193 1305.82 -278.794 1363.42 -243.315 1411.59C-207.836 1459.75 -158.872 1496.31 -102.614 1516.65C-46.3567 1536.99 14.668 1540.18 72.7428 1525.84C130.817 1511.49 183.334 1480.24 223.651 1436.05L223.111 1435.56C239.936 1417.12 263.397 1406.11 288.335 1404.97C313.272 1403.83 337.642 1412.64 356.084 1429.46C374.527 1446.28 385.53 1469.75 386.674 1494.68C387.818 1519.62 379.008 1543.99 362.184 1562.43L328.419 1531.63C337.074 1522.14 341.605 1509.61 341.017 1496.78C340.429 1483.95 334.768 1471.88 325.281 1463.22C315.794 1454.57 303.257 1450.04 290.429 1450.63C277.601 1451.22 265.531 1456.88 256.876 1466.36L256.905 1466.39C210.588 1517.16 150.256 1553.05 83.538 1569.54C16.8204 1586.02 -53.2863 1582.34 -117.917 1558.98C-182.547 1535.62 -238.798 1493.62 -279.557 1438.29C-320.316 1382.95 -343.751 1316.78 -346.9 1248.13C-350.049 1179.48 -332.77 1111.43 -297.248 1052.6C-261.725 993.771 -209.556 946.795 -147.335 917.614C-85.1151 888.433 -15.6389 878.358 52.3073 888.663C119.693 898.883 182.572 928.692 233.129 974.363C242.436 982.235 254.394 986.322 266.615 985.762C279.444 985.173 291.513 979.513 300.168 970.026C308.823 960.538 313.355 948.002 312.766 935.173C312.232 923.522 307.513 912.497 299.544 904.087L299.125 904.546C234.32 845.426 153.439 806.85 66.7104 793.696C-20.0186 780.543 -108.7 793.403 -188.121 830.65C-267.541 867.898 -334.132 927.86 -379.474 1002.95C-424.816 1078.05 -446.872 1164.9 -442.852 1252.53C-438.833 1340.16 -408.919 1424.63 -356.893 1495.25C-304.867 1565.88 -233.066 1619.49 -150.569 1649.32C-68.073 1679.14 21.4136 1683.82 106.574 1662.79C191.735 1641.75 268.745 1595.93 327.865 1531.12L362.184 1562.43Z" fill="#FEDFEA"/>
<path fill-rule="evenodd" clip-rule="evenodd" d="M2455.18 330.433C2389.87 402.026 2304.8 452.643 2210.72 475.884C2116.63 499.125 2017.78 493.946 1926.64 461.002C1835.5 428.059 1756.18 368.829 1698.71 290.804C1641.23 212.779 1608.18 119.463 1603.74 22.6567C1599.3 -74.15 1623.67 -170.099 1673.76 -253.058C1723.85 -336.017 1797.42 -402.259 1885.15 -443.408C1972.89 -484.556 2070.86 -498.764 2166.68 -484.233C2261.33 -469.878 2349.68 -428.113 2420.83 -364.135L2420.83 -364.144C2421.1 -363.904 2421.36 -363.662 2421.62 -363.419C2422.23 -362.872 2422.83 -362.323 2423.43 -361.772L2423.39 -361.724C2440.29 -345.107 2450.33 -322.684 2451.42 -298.921C2452.57 -273.984 2443.76 -249.613 2426.93 -231.171C2410.11 -212.729 2386.65 -201.726 2361.71 -200.582C2336.77 -199.438 2312.4 -208.247 2293.96 -225.072L2294.44 -225.596C2250.69 -264.582 2196.54 -290.039 2138.56 -298.833C2079.41 -307.802 2018.94 -299.033 1964.78 -273.632C1910.62 -248.231 1865.21 -207.341 1834.29 -156.131C1803.37 -104.922 1788.32 -45.6934 1791.07 14.0643C1793.81 73.8219 1814.21 131.425 1849.68 179.589C1885.16 227.753 1934.13 264.314 1990.39 284.65C2046.64 304.986 2107.67 308.183 2165.74 293.836C2223.82 279.49 2276.33 248.244 2316.65 204.051L2316.11 203.559C2332.94 185.117 2356.4 174.114 2381.33 172.97C2406.27 171.826 2430.64 180.635 2449.08 197.46C2467.53 214.284 2478.53 237.746 2479.67 262.683C2480.82 287.62 2472.01 311.991 2455.18 330.433L2421.42 299.63C2430.07 290.142 2434.61 277.606 2434.02 264.777C2433.43 251.949 2427.77 239.88 2418.28 231.225C2408.79 222.57 2396.26 218.038 2383.43 218.627C2370.6 219.215 2358.53 224.875 2349.88 234.362L2349.9 234.388C2303.59 285.159 2243.26 321.054 2176.54 337.536C2109.82 354.017 2039.71 350.345 1975.08 326.982C1910.45 303.62 1854.2 261.617 1813.44 206.285C1772.68 150.953 1749.25 84.7779 1746.1 16.1268C1742.95 -52.5243 1760.23 -120.567 1795.75 -179.398C1831.27 -238.229 1883.44 -285.205 1945.66 -314.386C2007.88 -343.567 2077.36 -353.642 2145.31 -343.337C2212.69 -333.117 2275.57 -303.308 2326.13 -257.637C2335.44 -249.765 2347.39 -245.678 2359.62 -246.238C2372.44 -246.827 2384.51 -252.487 2393.17 -261.974C2401.82 -271.462 2406.35 -283.998 2405.77 -296.827C2405.23 -308.478 2400.51 -319.503 2392.54 -327.913L2392.13 -327.454C2327.32 -386.574 2246.44 -425.15 2159.71 -438.304C2072.98 -451.457 1984.3 -438.597 1904.88 -401.35C1825.46 -364.102 1758.87 -304.14 1713.53 -229.047C1668.18 -153.953 1646.13 -67.1004 1650.15 20.5282C1654.17 108.157 1684.08 192.626 1736.11 263.253C1788.13 333.881 1859.93 387.495 1942.43 417.315C2024.93 447.136 2114.41 451.823 2199.57 430.786C2284.74 409.748 2361.74 363.93 2420.87 299.125L2455.18 330.433Z" fill="#FEDFEA"/>
<path d="M696.528 574.816C694.309 572.085 693.2 569.653 693.2 567.52C693.2 565.301 695.035 562.4 698.704 558.816C700.837 556.768 703.099 555.744 705.488 555.744C707.877 555.744 711.205 557.877 715.472 562.144C716.667 563.595 718.373 565.003 720.592 566.368C722.811 567.648 724.859 568.288 726.736 568.288C734.672 568.288 738.64 565.045 738.64 558.56C738.64 556.597 737.531 554.976 735.312 553.696C733.179 552.331 730.491 551.349 727.248 550.752C724.005 550.155 720.507 549.216 716.752 547.936C712.997 546.571 709.499 544.992 706.256 543.2C703.013 541.408 700.283 538.592 698.064 534.752C695.931 530.827 694.864 526.133 694.864 520.672C694.864 513.163 697.637 506.635 703.184 501.088C708.816 495.456 716.453 492.64 726.096 492.64C731.216 492.64 735.867 493.323 740.048 494.688C744.315 495.968 747.259 497.291 748.88 498.656L752.08 501.088C754.725 503.563 756.048 505.653 756.048 507.36C756.048 509.067 755.024 511.413 752.976 514.4C750.075 518.667 747.088 520.8 744.016 520.8C742.224 520.8 740.005 519.947 737.36 518.24C737.104 518.069 736.592 517.643 735.824 516.96C735.141 516.277 734.501 515.723 733.904 515.296C732.112 514.187 729.808 513.632 726.992 513.632C724.261 513.632 721.957 514.315 720.08 515.68C718.288 516.96 717.392 518.795 717.392 521.184C717.392 523.488 718.459 525.365 720.592 526.816C722.811 528.267 725.541 529.248 728.784 529.76C732.027 530.272 735.568 531.083 739.408 532.192C743.248 533.216 746.789 534.496 750.032 536.032C753.275 537.568 755.963 540.256 758.096 544.096C760.315 547.851 761.424 552.501 761.424 558.048C761.424 563.595 760.315 568.501 758.096 572.768C755.877 576.949 752.976 580.192 749.392 582.496C742.48 587.019 735.099 589.28 727.248 589.28C723.237 589.28 719.44 588.811 715.856 587.872C712.272 586.848 709.371 585.611 707.152 584.16C702.629 581.429 699.472 578.784 697.68 576.224L696.528 574.816ZM806.413 543.2L798.093 542.688V560.352C798.093 562.656 798.434 564.32 799.117 565.344C799.885 566.368 801.25 566.88 803.213 566.88C805.261 566.88 806.797 566.965 807.821 567.136C808.93 567.221 810.082 567.605 811.277 568.288C813.24 569.397 814.221 572.256 814.221 576.864C814.221 582.24 813.026 585.525 810.637 586.72C809.357 587.317 808.205 587.701 807.181 587.872C806.242 587.957 804.834 588 802.957 588C794.082 588 787.341 585.995 782.733 581.984C778.125 577.973 775.821 571.189 775.821 561.632V542.688C774.2 542.944 772.45 543.072 770.573 543.072C768.696 543.072 767.117 542.347 765.837 540.896C764.642 539.445 764.045 536.971 764.045 533.472C764.045 529.973 764.258 527.456 764.685 525.92C765.112 524.299 765.709 523.147 766.477 522.464C767.842 521.355 769.549 520.8 771.597 520.8L775.821 521.312V508.128C775.821 506.165 775.864 504.715 775.949 503.776C776.12 502.837 776.546 501.813 777.229 500.704C778.338 498.571 781.624 497.504 787.085 497.504C792.888 497.504 796.344 499.083 797.453 502.24C797.88 503.605 798.093 505.781 798.093 508.768V521.312C801.848 520.971 804.664 520.8 806.541 520.8C808.504 520.8 809.954 520.885 810.893 521.056C811.917 521.141 813.069 521.525 814.349 522.208C816.568 523.317 817.677 526.603 817.677 532.064C817.677 537.44 816.525 540.725 814.221 541.92C812.941 542.517 811.789 542.901 810.765 543.072C809.826 543.157 808.376 543.2 806.413 543.2ZM870.569 521.312C872.19 521.824 873.513 522.72 874.537 524C875.646 525.195 876.201 527.157 876.201 529.888C876.201 532.619 875.39 535.605 873.769 538.848C872.148 542.091 869.801 543.712 866.729 543.712C865.193 543.712 863.7 543.371 862.249 542.688C860.884 542.005 859.049 541.664 856.745 541.664C854.441 541.664 852.265 542.475 850.217 544.096C848.254 545.717 847.273 547.68 847.273 549.984V576.864C847.273 578.827 847.188 580.32 847.017 581.344C846.932 582.283 846.548 583.392 845.865 584.672C844.585 586.891 841.257 588 835.881 588C831.785 588 828.841 587.275 827.049 585.824C825.684 584.629 824.916 582.795 824.745 580.32C824.745 579.467 824.745 578.229 824.745 576.608V531.68C824.745 529.717 824.788 528.267 824.873 527.328C825.044 526.304 825.428 525.195 826.025 524C827.22 521.696 830.548 520.544 836.009 520.544C841.129 520.544 844.329 521.525 845.609 523.488C846.548 524.853 847.017 526.261 847.017 527.712C847.444 527.115 848.041 526.389 848.809 525.536C849.662 524.683 851.412 523.531 854.057 522.08C856.702 520.629 859.006 519.904 860.969 519.904C863.017 519.904 864.724 520.032 866.089 520.288C867.454 520.459 868.948 520.8 870.569 521.312ZM923.146 527.712C923.658 522.933 927.029 520.544 933.258 520.544C936.586 520.544 939.061 520.8 940.682 521.312C942.303 521.824 943.413 522.72 944.01 524C944.693 525.28 945.077 526.432 945.162 527.456C945.333 528.395 945.418 529.845 945.418 531.808V576.608C945.418 578.571 945.333 580.064 945.162 581.088C945.077 582.027 944.735 583.136 944.138 584.416C942.943 586.635 939.999 587.744 935.306 587.744C930.698 587.744 927.583 587.189 925.962 586.08C924.426 584.885 923.53 583.179 923.274 580.96C920.117 585.483 914.826 587.744 907.402 587.744C900.063 587.744 893.237 584.373 886.922 577.632C880.607 570.891 877.45 563.083 877.45 554.208C877.45 545.248 880.607 537.44 886.922 530.784C893.322 524.043 900.319 520.672 907.914 520.672C910.815 520.672 913.461 521.184 915.85 522.208C918.239 523.232 919.903 524.213 920.842 525.152C921.781 526.005 922.549 526.859 923.146 527.712ZM899.85 554.336C899.85 557.152 900.959 559.712 903.178 562.016C905.397 564.235 908.085 565.344 911.242 565.344C914.399 565.344 917.002 564.192 919.05 561.888C921.183 559.584 922.25 557.067 922.25 554.336C922.25 551.52 921.226 548.917 919.178 546.528C917.215 544.139 914.527 542.944 911.114 542.944C907.786 542.944 905.055 544.139 902.922 546.528C900.874 548.917 899.85 551.52 899.85 554.336ZM994.788 543.2L986.468 542.688V560.352C986.468 562.656 986.809 564.32 987.492 565.344C988.26 566.368 989.625 566.88 991.588 566.88C993.636 566.88 995.172 566.965 996.196 567.136C997.305 567.221 998.457 567.605 999.652 568.288C1001.61 569.397 1002.6 572.256 1002.6 576.864C1002.6 582.24 1001.4 585.525 999.012 586.72C997.732 587.317 996.58 587.701 995.556 587.872C994.617 587.957 993.209 588 991.332 588C982.457 588 975.716 585.995 971.108 581.984C966.5 577.973 964.196 571.189 964.196 561.632V542.688C962.575 542.944 960.825 543.072 958.948 543.072C957.071 543.072 955.492 542.347 954.212 540.896C953.017 539.445 952.42 536.971 952.42 533.472C952.42 529.973 952.633 527.456 953.06 525.92C953.487 524.299 954.084 523.147 954.852 522.464C956.217 521.355 957.924 520.8 959.972 520.8L964.196 521.312V508.128C964.196 506.165 964.239 504.715 964.324 503.776C964.495 502.837 964.921 501.813 965.604 500.704C966.713 498.571 969.999 497.504 975.46 497.504C981.263 497.504 984.719 499.083 985.828 502.24C986.255 503.605 986.468 505.781 986.468 508.768V521.312C990.223 520.971 993.039 520.8 994.916 520.8C996.879 520.8 998.329 520.885 999.268 521.056C1000.29 521.141 1001.44 521.525 1002.72 522.208C1004.94 523.317 1006.05 526.603 1006.05 532.064C1006.05 537.44 1004.9 540.725 1002.6 541.92C1001.32 542.517 1000.16 542.901 999.14 543.072C998.201 543.157 996.751 543.2 994.788 543.2ZM1075.64 546.272C1075.64 551.477 1074.32 555.36 1071.68 557.92C1069.12 560.395 1066.26 561.632 1063.1 561.632H1032.76C1032.76 564.021 1034.17 566.027 1036.99 567.648C1039.8 569.269 1042.62 570.08 1045.44 570.08C1050.39 570.08 1054.27 569.568 1057.08 568.544L1058.49 568.032C1060.54 567.093 1062.25 566.624 1063.61 566.624C1066.34 566.624 1068.69 568.544 1070.65 572.384C1071.76 574.688 1072.32 576.651 1072.32 578.272C1072.32 585.867 1063.23 589.664 1045.05 589.664C1038.74 589.664 1033.11 588.597 1028.16 586.464C1023.29 584.245 1019.49 581.344 1016.76 577.76C1011.39 570.848 1008.7 563.125 1008.7 554.592C1008.7 543.84 1012.16 535.264 1019.07 528.864C1026.07 522.379 1034.77 519.136 1045.18 519.136C1057.04 519.136 1065.75 523.317 1071.29 531.68C1074.19 536.117 1075.64 540.981 1075.64 546.272ZM1048.64 549.984C1051.88 549.984 1053.5 548.619 1053.5 545.888C1053.5 543.925 1052.73 542.347 1051.2 541.152C1049.75 539.957 1047.61 539.36 1044.8 539.36C1042.07 539.36 1039.33 540.512 1036.6 542.816C1033.87 545.035 1032.51 547.424 1032.51 549.984H1048.64ZM1126.75 579.552C1123.5 583.819 1118.34 585.952 1111.26 585.952C1104.18 585.952 1097.52 582.709 1091.29 576.224C1085.15 569.653 1082.08 562.016 1082.08 553.312C1082.08 544.608 1085.19 536.971 1091.42 530.4C1097.65 523.829 1104.48 520.544 1111.9 520.544C1114.8 520.544 1117.45 521.099 1119.84 522.208C1122.22 523.232 1123.85 524.213 1124.7 525.152C1125.64 526.005 1126.36 526.816 1126.88 527.584C1127.13 525.195 1127.98 523.403 1129.44 522.208C1130.97 520.928 1133.4 520.288 1136.73 520.288C1140.06 520.288 1142.49 520.544 1144.03 521.056C1145.56 521.568 1146.63 522.464 1147.23 523.744C1147.91 524.939 1148.29 526.005 1148.38 526.944C1148.55 527.883 1148.64 529.333 1148.64 531.296V584.288C1148.64 594.101 1145.22 601.995 1138.4 607.968C1131.57 614.027 1123.89 617.056 1115.36 617.056C1108.87 617.056 1102.68 615.477 1096.8 612.32C1090.91 609.163 1087.96 606.304 1087.96 603.744C1087.96 600.416 1089.24 597.472 1091.8 594.912C1093.42 593.12 1094.66 591.883 1095.52 591.2C1096.45 590.517 1097.52 590.176 1098.72 590.176C1099.91 590.176 1101.15 590.688 1102.43 591.712C1106.52 594.869 1110.96 596.448 1115.74 596.448C1118.98 596.448 1121.63 595.168 1123.68 592.608C1125.72 590.048 1126.75 586.976 1126.75 583.392V579.552ZM1103.96 553.44C1103.96 556.171 1105.03 558.645 1107.16 560.864C1109.38 563.083 1112.03 564.192 1115.1 564.192C1118.26 564.192 1120.86 563.083 1122.91 560.864C1124.96 558.56 1125.98 556.085 1125.98 553.44C1125.98 550.709 1125 548.192 1123.04 545.888C1121.07 543.499 1118.43 542.304 1115.1 542.304C1111.77 542.304 1109.08 543.456 1107.04 545.76C1104.99 548.064 1103.96 550.624 1103.96 553.44ZM1220.59 521.312C1225.62 523.531 1228.14 526.219 1228.14 529.376C1228.14 530.912 1227.8 532.363 1227.12 533.728C1226.44 535.093 1226.09 535.819 1226.09 535.904L1192.56 610.912C1191.88 612.533 1191.28 613.771 1190.77 614.624C1190.34 615.477 1189.61 616.288 1188.59 617.056C1187.57 617.824 1186.29 618.208 1184.75 618.208C1183.21 618.208 1180.95 617.568 1177.97 616.288C1172.93 614.069 1170.41 611.424 1170.41 608.352C1170.41 606.304 1174.51 596.533 1182.7 579.04L1157.23 536.16C1155.52 533.344 1154.67 531.253 1154.67 529.888C1154.67 527.157 1156.97 524.427 1161.58 521.696C1164.48 519.989 1166.74 519.136 1168.37 519.136C1169.99 519.136 1171.31 519.477 1172.33 520.16C1173.36 520.843 1174.08 521.568 1174.51 522.336C1175.02 523.019 1177.37 526.987 1181.55 534.24C1185.82 541.408 1189.87 548.107 1193.71 554.336C1194.14 552.971 1196.44 547.723 1200.62 538.592C1204.8 529.376 1207.02 524.469 1207.28 523.872C1207.62 523.275 1208.13 522.549 1208.81 521.696C1209.92 520.245 1211.46 519.52 1213.42 519.52C1215.47 519.52 1217.86 520.117 1220.59 521.312Z" fill="#FF74B3"/>
<path d="M870.097 624.151C870.399 624.151 870.661 624.181 870.883 624.241C871.124 624.302 871.316 624.453 871.457 624.695C871.598 624.916 871.668 625.279 871.668 625.782C871.668 626.286 871.598 626.659 871.457 626.9C871.316 627.122 871.124 627.263 870.883 627.323C870.641 627.364 870.369 627.384 870.067 627.384H864.507V643.489C864.507 643.832 864.467 644.144 864.386 644.426C864.326 644.688 864.164 644.899 863.903 645.06C863.661 645.222 863.248 645.302 862.664 645.302C862.12 645.302 861.717 645.212 861.455 645.03C861.193 644.869 861.032 644.658 860.972 644.396C860.911 644.114 860.881 643.801 860.881 643.459V627.384H855.261C854.979 627.384 854.717 627.354 854.475 627.293C854.233 627.233 854.032 627.092 853.871 626.87C853.73 626.649 853.659 626.286 853.659 625.782C853.659 625.279 853.73 624.916 853.871 624.695C854.012 624.453 854.203 624.302 854.445 624.241C854.707 624.181 854.979 624.151 855.261 624.151H870.097ZM876.087 645.302C875.543 645.302 875.141 645.212 874.879 645.03C874.617 644.869 874.456 644.658 874.395 644.396C874.335 644.114 874.305 643.801 874.305 643.459V632.218C874.305 631.896 874.335 631.604 874.395 631.342C874.476 631.06 874.637 630.839 874.879 630.677C875.141 630.516 875.553 630.436 876.118 630.436C876.682 630.436 877.084 630.516 877.326 630.677C877.588 630.839 877.749 631.06 877.81 631.342C877.87 631.624 877.9 631.936 877.9 632.279V643.489C877.9 643.832 877.87 644.144 877.81 644.426C877.749 644.688 877.588 644.899 877.326 645.06C877.084 645.222 876.671 645.302 876.087 645.302ZM876.087 627.505C875.503 627.505 875.07 627.424 874.788 627.263C874.526 627.082 874.355 626.84 874.274 626.538C874.214 626.236 874.184 625.903 874.184 625.541C874.184 625.158 874.214 624.826 874.274 624.544C874.355 624.262 874.536 624.04 874.818 623.879C875.1 623.697 875.533 623.607 876.118 623.607C876.722 623.607 877.155 623.697 877.417 623.879C877.679 624.06 877.85 624.302 877.93 624.604C878.011 624.886 878.051 625.218 878.051 625.601C878.051 625.944 878.011 626.266 877.93 626.568C877.85 626.87 877.679 627.102 877.417 627.263C877.155 627.424 876.712 627.505 876.087 627.505ZM882.958 645.272C882.415 645.272 882.012 645.191 881.75 645.03C881.508 644.869 881.357 644.647 881.297 644.365C881.236 644.083 881.206 643.781 881.206 643.459V632.158C881.206 631.836 881.236 631.544 881.297 631.282C881.357 631.02 881.518 630.808 881.78 630.647C882.042 630.486 882.455 630.406 883.019 630.406C883.603 630.406 884.026 630.526 884.288 630.768C884.57 631.01 884.711 631.393 884.711 631.916L884.439 632.762C884.54 632.541 884.711 632.299 884.953 632.037C885.194 631.775 885.487 631.513 885.829 631.252C886.192 630.99 886.594 630.778 887.038 630.617C887.481 630.456 887.944 630.375 888.428 630.375C889.092 630.375 889.697 630.486 890.241 630.708C890.805 630.929 891.298 631.252 891.721 631.675C892.164 632.098 892.547 632.611 892.869 633.216C893.212 632.692 893.595 632.218 894.018 631.795C894.441 631.352 894.934 631.01 895.498 630.768C896.062 630.506 896.697 630.375 897.402 630.375C898.57 630.375 899.547 630.667 900.333 631.252C901.139 631.836 901.743 632.672 902.146 633.76C902.569 634.827 902.78 636.106 902.78 637.597V643.459C902.78 643.801 902.74 644.114 902.659 644.396C902.599 644.658 902.438 644.869 902.176 645.03C901.934 645.191 901.531 645.272 900.967 645.272C900.403 645.272 899.99 645.181 899.728 645C899.467 644.839 899.305 644.627 899.245 644.365C899.185 644.083 899.154 643.771 899.154 643.429V637.567C899.154 636.821 899.064 636.177 898.882 635.633C898.701 635.089 898.429 634.666 898.067 634.364C897.724 634.062 897.271 633.911 896.707 633.911C896.103 633.911 895.579 634.062 895.136 634.364C894.713 634.646 894.38 635.059 894.138 635.603C893.897 636.147 893.776 636.811 893.776 637.597V643.489C893.776 643.832 893.726 644.154 893.625 644.456C893.524 644.738 893.323 644.95 893.02 645.091C892.738 645.252 892.325 645.312 891.782 645.272C891.278 645.252 890.905 645.151 890.664 644.97C890.442 644.788 890.301 644.567 890.241 644.305C890.2 644.023 890.18 643.731 890.18 643.429V637.567C890.18 636.821 890.089 636.177 889.908 635.633C889.727 635.069 889.455 634.646 889.092 634.364C888.75 634.062 888.287 633.911 887.702 633.911C887.078 633.911 886.544 634.072 886.101 634.394C885.678 634.716 885.356 635.149 885.134 635.693C884.912 636.237 884.802 636.862 884.802 637.567V643.489C884.802 643.811 884.761 644.114 884.681 644.396C884.62 644.678 884.459 644.889 884.197 645.03C883.956 645.191 883.543 645.272 882.958 645.272ZM913.007 645.483C911.698 645.483 910.55 645.272 909.562 644.849C908.596 644.426 907.78 643.852 907.115 643.127C906.47 642.381 905.977 641.555 905.634 640.649C905.312 639.722 905.151 638.765 905.151 637.778C905.151 636.328 905.483 635.039 906.148 633.911C906.813 632.783 907.729 631.896 908.898 631.252C910.086 630.607 911.446 630.285 912.977 630.285C914.065 630.285 915.022 630.456 915.847 630.798C916.673 631.141 917.358 631.594 917.902 632.158C918.466 632.702 918.889 633.306 919.171 633.971C919.473 634.636 919.625 635.28 919.625 635.905C919.625 636.973 919.363 637.748 918.839 638.232C918.335 638.715 917.701 638.957 916.935 638.957H908.958C908.978 639.642 909.19 640.236 909.593 640.739C910.016 641.243 910.539 641.636 911.164 641.918C911.809 642.18 912.463 642.311 913.128 642.311C913.632 642.311 914.075 642.281 914.458 642.22C914.86 642.16 915.203 642.089 915.485 642.009C915.767 641.908 916.009 641.807 916.21 641.706C916.432 641.606 916.633 641.515 916.814 641.434C916.996 641.354 917.167 641.304 917.328 641.283C917.55 641.263 917.771 641.314 917.993 641.434C918.214 641.555 918.396 641.767 918.537 642.069C918.658 642.27 918.738 642.462 918.778 642.643C918.839 642.804 918.869 642.965 918.869 643.127C918.869 643.529 918.627 643.912 918.144 644.275C917.66 644.617 916.976 644.899 916.089 645.121C915.223 645.363 914.196 645.483 913.007 645.483ZM908.958 636.811H915.152C915.495 636.811 915.757 636.761 915.938 636.66C916.119 636.539 916.21 636.298 916.21 635.935C916.21 635.472 916.069 635.059 915.787 634.696C915.505 634.313 915.122 634.021 914.639 633.82C914.155 633.598 913.591 633.488 912.947 633.488C912.201 633.488 911.527 633.639 910.922 633.941C910.318 634.223 909.834 634.616 909.472 635.119C909.129 635.623 908.958 636.187 908.958 636.811ZM932.721 645.302C932.177 645.302 931.774 645.222 931.512 645.06C931.27 644.899 931.119 644.678 931.059 644.396C930.998 644.094 930.968 643.781 930.968 643.459V628.774C930.968 628.029 931.069 627.344 931.27 626.719C931.472 626.075 931.794 625.521 932.237 625.057C932.68 624.594 933.255 624.231 933.96 623.969C934.665 623.687 935.521 623.546 936.528 623.546C936.87 623.546 937.173 623.587 937.434 623.667C937.716 623.728 937.938 623.879 938.099 624.121C938.28 624.362 938.371 624.775 938.371 625.359C938.371 625.903 938.28 626.306 938.099 626.568C937.938 626.83 937.716 626.991 937.434 627.052C937.152 627.112 936.84 627.142 936.498 627.142C936.155 627.142 935.853 627.162 935.591 627.203C935.35 627.223 935.148 627.283 934.987 627.384C934.846 627.485 934.735 627.646 934.655 627.867C934.594 628.089 934.564 628.371 934.564 628.713V643.519C934.564 643.842 934.524 644.144 934.443 644.426C934.383 644.688 934.221 644.899 933.96 645.06C933.698 645.222 933.285 645.302 932.721 645.302ZM929.729 630.708L932.842 630.738L937.011 630.617C937.354 630.617 937.656 630.657 937.918 630.738C938.2 630.798 938.422 630.959 938.583 631.221C938.744 631.463 938.824 631.866 938.824 632.43C938.824 632.954 938.744 633.347 938.583 633.608C938.422 633.87 938.21 634.042 937.948 634.122C937.686 634.183 937.384 634.213 937.042 634.213L932.993 634.152L929.639 634.183C929.135 634.162 928.782 634.021 928.581 633.76C928.4 633.478 928.309 633.024 928.309 632.4C928.309 631.816 928.42 631.393 928.641 631.131C928.883 630.849 929.246 630.708 929.729 630.708ZM947.172 645.483C946.205 645.483 945.258 645.302 944.332 644.94C943.425 644.557 942.599 644.023 941.854 643.338C941.129 642.653 940.544 641.847 940.101 640.921C939.678 639.994 939.467 638.977 939.467 637.869C939.467 636.801 939.668 635.804 940.071 634.878C940.474 633.951 941.028 633.135 941.733 632.43C942.438 631.725 943.244 631.181 944.15 630.798C945.077 630.395 946.064 630.194 947.111 630.194C948.522 630.194 949.801 630.536 950.949 631.221C952.097 631.886 953.014 632.793 953.699 633.941C954.384 635.089 954.726 636.388 954.726 637.839C954.726 638.987 954.514 640.034 954.091 640.981C953.668 641.908 953.094 642.714 952.369 643.399C951.644 644.063 950.828 644.577 949.922 644.94C949.035 645.302 948.119 645.483 947.172 645.483ZM947.111 641.918C947.776 641.918 948.411 641.757 949.015 641.434C949.64 641.092 950.143 640.609 950.526 639.984C950.929 639.36 951.13 638.624 951.13 637.778C951.13 636.993 950.949 636.298 950.586 635.693C950.244 635.089 949.77 634.616 949.166 634.273C948.562 633.931 947.867 633.76 947.081 633.76C946.336 633.76 945.661 633.941 945.057 634.303C944.452 634.646 943.969 635.129 943.606 635.754C943.264 636.358 943.093 637.043 943.093 637.809C943.093 638.655 943.284 639.39 943.667 640.014C944.05 640.619 944.543 641.092 945.147 641.434C945.772 641.757 946.427 641.918 947.111 641.918ZM958.884 645.302C958.34 645.302 957.937 645.212 957.675 645.03C957.433 644.869 957.282 644.647 957.222 644.365C957.161 644.083 957.131 643.771 957.131 643.429V632.218C957.131 631.856 957.161 631.544 957.222 631.282C957.282 631 957.433 630.788 957.675 630.647C957.937 630.486 958.35 630.406 958.914 630.406C959.458 630.406 959.85 630.476 960.092 630.617C960.354 630.758 960.515 630.939 960.576 631.161C960.656 631.362 960.697 631.564 960.697 631.765L960.455 632.309C960.555 632.148 960.697 631.957 960.878 631.735C961.059 631.493 961.301 631.262 961.603 631.04C961.905 630.798 962.268 630.607 962.691 630.466C963.114 630.305 963.617 630.224 964.202 630.224C964.443 630.224 964.695 630.254 964.957 630.315C965.239 630.355 965.511 630.426 965.773 630.526C966.055 630.607 966.307 630.718 966.528 630.859C966.75 631 966.921 631.171 967.042 631.372C967.163 631.554 967.223 631.765 967.223 632.007C967.223 632.652 967.062 633.195 966.74 633.639C966.417 634.082 966.035 634.303 965.592 634.303C965.289 634.303 965.068 634.273 964.927 634.213C964.786 634.152 964.665 634.082 964.564 634.001C964.484 633.921 964.353 633.85 964.171 633.79C964.01 633.729 963.748 633.699 963.386 633.699C963.084 633.699 962.771 633.749 962.449 633.85C962.147 633.951 961.865 634.102 961.603 634.303C961.341 634.505 961.13 634.767 960.968 635.089C960.807 635.391 960.727 635.744 960.727 636.147V643.489C960.727 643.832 960.697 644.144 960.636 644.426C960.576 644.688 960.414 644.899 960.153 645.06C959.891 645.222 959.468 645.302 958.884 645.302ZM989.23 645.242C988.646 645.242 988.213 645.131 987.931 644.909C987.649 644.688 987.508 644.386 987.508 644.003L987.72 643.006C987.558 643.268 987.286 643.58 986.904 643.942C986.521 644.285 986.017 644.597 985.393 644.879C984.768 645.141 984.013 645.272 983.127 645.272C982.18 645.272 981.283 645.081 980.437 644.698C979.612 644.295 978.876 643.751 978.232 643.066C977.607 642.361 977.104 641.565 976.721 640.679C976.358 639.773 976.177 638.806 976.177 637.778C976.177 636.791 976.358 635.865 976.721 634.998C977.104 634.112 977.617 633.326 978.262 632.642C978.906 631.957 979.642 631.423 980.468 631.04C981.314 630.637 982.2 630.436 983.127 630.436C983.953 630.436 984.648 630.547 985.212 630.768C985.796 630.99 986.289 631.272 986.692 631.614C987.095 631.936 987.427 632.279 987.689 632.642L987.508 631.765C987.508 631.322 987.649 630.99 987.931 630.768C988.213 630.526 988.656 630.406 989.261 630.406C989.825 630.406 990.228 630.496 990.469 630.677C990.711 630.839 990.862 631.07 990.922 631.372C990.983 631.654 991.013 631.977 991.013 632.339V643.399C991.013 643.741 990.983 644.053 990.922 644.335C990.862 644.617 990.701 644.839 990.439 645C990.197 645.161 989.794 645.242 989.23 645.242ZM983.671 641.737C984.355 641.737 984.97 641.565 985.514 641.223C986.058 640.881 986.491 640.417 986.813 639.833C987.156 639.229 987.327 638.564 987.327 637.839C987.327 637.053 987.156 636.368 986.813 635.784C986.471 635.2 986.017 634.747 985.453 634.424C984.909 634.082 984.295 633.911 983.61 633.911C982.865 633.911 982.2 634.092 981.616 634.455C981.032 634.797 980.568 635.27 980.226 635.875C979.904 636.459 979.742 637.124 979.742 637.869C979.742 638.594 979.914 639.249 980.256 639.833C980.599 640.417 981.062 640.881 981.646 641.223C982.25 641.565 982.925 641.737 983.671 641.737ZM1001.24 645.363C1000.27 645.363 999.323 645.201 998.396 644.879C997.49 644.537 996.664 644.043 995.918 643.399C995.193 642.754 994.609 641.968 994.166 641.042C993.743 640.095 993.531 639.027 993.531 637.839C993.531 636.65 993.743 635.593 994.166 634.666C994.609 633.739 995.193 632.954 995.918 632.309C996.644 631.665 997.459 631.171 998.366 630.829C999.272 630.486 1000.21 630.315 1001.18 630.315C1001.88 630.315 1002.55 630.416 1003.17 630.617C1003.81 630.818 1004.37 631.06 1004.83 631.342C1005.3 631.624 1005.63 631.906 1005.83 632.188C1006.09 632.43 1006.31 632.662 1006.49 632.883C1006.68 633.105 1006.74 633.377 1006.68 633.699C1006.61 633.901 1006.52 634.092 1006.4 634.273C1006.28 634.434 1006.13 634.606 1005.95 634.787C1005.47 635.331 1004.99 635.532 1004.53 635.391C1004.27 635.25 1004.01 635.099 1003.74 634.938C1003.48 634.777 1003.21 634.626 1002.93 634.485C1002.67 634.324 1002.39 634.193 1002.11 634.092C1001.83 633.991 1001.52 633.941 1001.18 633.941C1000.41 633.941 999.726 634.112 999.121 634.455C998.537 634.777 998.074 635.23 997.731 635.814C997.409 636.398 997.248 637.073 997.248 637.839C997.248 638.604 997.409 639.289 997.731 639.893C998.074 640.478 998.537 640.941 999.121 641.283C999.705 641.606 1000.37 641.767 1001.12 641.767C1001.48 641.767 1001.82 641.727 1002.14 641.646C1002.49 641.545 1002.79 641.424 1003.05 641.283C1003.31 641.122 1003.52 640.961 1003.68 640.8C1003.91 640.659 1004.11 640.528 1004.29 640.407C1004.47 640.286 1004.66 640.226 1004.86 640.226C1005.1 640.226 1005.34 640.316 1005.56 640.498C1005.8 640.659 1006.06 640.921 1006.34 641.283C1006.6 641.586 1006.75 641.878 1006.77 642.16C1006.81 642.442 1006.75 642.714 1006.58 642.976C1006.44 643.237 1006.2 643.479 1005.86 643.701C1005.62 643.942 1005.26 644.194 1004.77 644.456C1004.31 644.698 1003.76 644.909 1003.14 645.091C1002.54 645.272 1001.9 645.363 1001.24 645.363ZM1016.41 645.302C1015.42 645.302 1014.57 645.201 1013.87 645C1013.16 644.799 1012.59 644.486 1012.15 644.063C1011.7 643.64 1011.37 643.096 1011.15 642.432C1010.95 641.747 1010.85 640.941 1010.85 640.014V627.203C1010.85 626.84 1010.88 626.528 1010.94 626.266C1011.02 626.004 1011.18 625.803 1011.42 625.662C1011.68 625.5 1012.09 625.42 1012.63 625.42C1013.19 625.42 1013.6 625.5 1013.84 625.662C1014.1 625.823 1014.26 626.044 1014.32 626.326C1014.4 626.588 1014.44 626.88 1014.44 627.203V639.893C1014.44 640.316 1014.47 640.659 1014.53 640.921C1014.61 641.183 1014.73 641.384 1014.87 641.525C1015.03 641.646 1015.23 641.737 1015.47 641.797C1015.73 641.837 1016.04 641.858 1016.41 641.858C1016.79 641.858 1017.11 641.888 1017.37 641.948C1017.66 642.009 1017.87 642.16 1018.01 642.401C1018.15 642.623 1018.22 642.996 1018.22 643.519C1018.22 644.083 1018.13 644.496 1017.95 644.758C1017.79 645 1017.57 645.151 1017.28 645.212C1017.02 645.272 1016.73 645.302 1016.41 645.302ZM1009.61 630.708L1012.72 630.738L1016.89 630.617C1017.23 630.617 1017.54 630.657 1017.8 630.738C1018.08 630.798 1018.3 630.959 1018.46 631.221C1018.62 631.463 1018.7 631.866 1018.7 632.43C1018.7 632.954 1018.62 633.347 1018.46 633.608C1018.3 633.87 1018.09 634.042 1017.83 634.122C1017.57 634.183 1017.26 634.213 1016.92 634.213L1012.87 634.152L1009.52 634.183C1009.01 634.162 1008.66 634.021 1008.46 633.76C1008.28 633.478 1008.19 633.024 1008.19 632.4C1008.19 631.816 1008.3 631.393 1008.52 631.131C1008.76 630.849 1009.12 630.708 1009.61 630.708ZM1022.89 645.302C1022.35 645.302 1021.94 645.212 1021.68 645.03C1021.42 644.869 1021.26 644.658 1021.2 644.396C1021.14 644.114 1021.11 643.801 1021.11 643.459V632.218C1021.11 631.896 1021.14 631.604 1021.2 631.342C1021.28 631.06 1021.44 630.839 1021.68 630.677C1021.94 630.516 1022.36 630.436 1022.92 630.436C1023.48 630.436 1023.89 630.516 1024.13 630.677C1024.39 630.839 1024.55 631.06 1024.61 631.342C1024.67 631.624 1024.7 631.936 1024.7 632.279V643.489C1024.7 643.832 1024.67 644.144 1024.61 644.426C1024.55 644.688 1024.39 644.899 1024.13 645.06C1023.89 645.222 1023.47 645.302 1022.89 645.302ZM1022.89 627.505C1022.31 627.505 1021.87 627.424 1021.59 627.263C1021.33 627.082 1021.16 626.84 1021.08 626.538C1021.02 626.236 1020.99 625.903 1020.99 625.541C1020.99 625.158 1021.02 624.826 1021.08 624.544C1021.16 624.262 1021.34 624.04 1021.62 623.879C1021.9 623.697 1022.34 623.607 1022.92 623.607C1023.52 623.607 1023.96 623.697 1024.22 623.879C1024.48 624.06 1024.65 624.302 1024.73 624.604C1024.81 624.886 1024.85 625.218 1024.85 625.601C1024.85 625.944 1024.81 626.266 1024.73 626.568C1024.65 626.87 1024.48 627.102 1024.22 627.263C1023.96 627.424 1023.51 627.505 1022.89 627.505ZM1034.81 645.483C1033.84 645.483 1032.9 645.302 1031.97 644.94C1031.06 644.557 1030.24 644.023 1029.49 643.338C1028.77 642.653 1028.18 641.847 1027.74 640.921C1027.32 639.994 1027.11 638.977 1027.11 637.869C1027.11 636.801 1027.31 635.804 1027.71 634.878C1028.11 633.951 1028.67 633.135 1029.37 632.43C1030.08 631.725 1030.88 631.181 1031.79 630.798C1032.72 630.395 1033.7 630.194 1034.75 630.194C1036.16 630.194 1037.44 630.536 1038.59 631.221C1039.74 631.886 1040.65 632.793 1041.34 633.941C1042.02 635.089 1042.37 636.388 1042.37 637.839C1042.37 638.987 1042.15 640.034 1041.73 640.981C1041.31 641.908 1040.73 642.714 1040.01 643.399C1039.28 644.063 1038.47 644.577 1037.56 644.94C1036.67 645.302 1035.76 645.483 1034.81 645.483ZM1034.75 641.918C1035.42 641.918 1036.05 641.757 1036.65 641.434C1037.28 641.092 1037.78 640.609 1038.16 639.984C1038.57 639.36 1038.77 638.624 1038.77 637.778C1038.77 636.993 1038.59 636.298 1038.23 635.693C1037.88 635.089 1037.41 634.616 1036.81 634.273C1036.2 633.931 1035.51 633.76 1034.72 633.76C1033.97 633.76 1033.3 633.941 1032.7 634.303C1032.09 634.646 1031.61 635.129 1031.25 635.754C1030.9 636.358 1030.73 637.043 1030.73 637.809C1030.73 638.655 1030.92 639.39 1031.31 640.014C1031.69 640.619 1032.18 641.092 1032.79 641.434C1033.41 641.757 1034.07 641.918 1034.75 641.918ZM1046.52 645.272C1045.98 645.272 1045.58 645.181 1045.31 645C1045.07 644.839 1044.92 644.627 1044.86 644.365C1044.8 644.083 1044.77 643.771 1044.77 643.429V632.128C1044.77 631.806 1044.8 631.513 1044.86 631.252C1044.92 630.99 1045.08 630.788 1045.34 630.647C1045.61 630.486 1046.01 630.406 1046.55 630.406C1047.04 630.406 1047.4 630.466 1047.64 630.587C1047.88 630.708 1048.04 630.859 1048.12 631.04C1048.2 631.221 1048.24 631.403 1048.24 631.584C1048.27 631.765 1048.29 631.906 1048.31 632.007L1048.18 632.974C1048.31 632.652 1048.51 632.339 1048.79 632.037C1049.07 631.735 1049.41 631.463 1049.82 631.221C1050.22 630.959 1050.65 630.758 1051.12 630.617C1051.6 630.456 1052.09 630.375 1052.6 630.375C1053.54 630.375 1054.39 630.547 1055.13 630.889C1055.88 631.231 1056.51 631.715 1057.04 632.339C1057.58 632.964 1057.99 633.709 1058.28 634.575C1058.56 635.421 1058.7 636.378 1058.7 637.446V643.459C1058.7 643.801 1058.66 644.114 1058.58 644.396C1058.52 644.658 1058.37 644.869 1058.13 645.03C1057.88 645.191 1057.47 645.272 1056.89 645.272C1056.32 645.272 1055.91 645.181 1055.65 645C1055.39 644.839 1055.22 644.627 1055.16 644.365C1055.1 644.083 1055.07 643.771 1055.07 643.429V637.416C1055.07 636.691 1054.94 636.066 1054.68 635.542C1054.44 635.019 1054.08 634.616 1053.59 634.334C1053.13 634.052 1052.54 633.911 1051.81 633.911C1051.11 633.911 1050.49 634.062 1049.97 634.364C1049.44 634.646 1049.04 635.049 1048.76 635.573C1048.48 636.096 1048.34 636.711 1048.34 637.416V643.459C1048.34 643.801 1048.31 644.114 1048.24 644.396C1048.18 644.658 1048.02 644.869 1047.76 645.03C1047.52 645.191 1047.11 645.272 1046.52 645.272ZM1063.67 638.866C1063.11 638.866 1062.7 638.796 1062.43 638.655C1062.17 638.493 1062.01 638.292 1061.95 638.05C1061.89 637.788 1061.86 637.506 1061.86 637.204V625.813C1061.86 625.51 1061.89 625.228 1061.95 624.967C1062.01 624.705 1062.17 624.503 1062.43 624.362C1062.7 624.201 1063.11 624.121 1063.67 624.121C1064.24 624.121 1064.64 624.201 1064.88 624.362C1065.14 624.503 1065.3 624.705 1065.36 624.967C1065.45 625.228 1065.49 625.51 1065.49 625.813V637.174C1065.49 637.496 1065.45 637.788 1065.36 638.05C1065.3 638.292 1065.14 638.493 1064.88 638.655C1064.64 638.796 1064.24 638.866 1063.67 638.866ZM1063.67 645.302C1062.87 645.302 1062.32 645.151 1062.04 644.849C1061.78 644.547 1061.65 644.023 1061.65 643.278C1061.65 642.915 1061.69 642.583 1061.77 642.281C1061.85 641.958 1062.03 641.706 1062.31 641.525C1062.59 641.344 1063.05 641.253 1063.67 641.253C1064.48 641.253 1065.01 641.404 1065.27 641.706C1065.54 642.009 1065.67 642.532 1065.67 643.278C1065.67 643.64 1065.63 643.983 1065.55 644.305C1065.49 644.607 1065.31 644.849 1065.03 645.03C1064.75 645.212 1064.3 645.302 1063.67 645.302Z" fill="#0E0A1D"/>
</g>
<defs>
<clipPath id="clip0_33_610">
<rect width="1920" height="1080" fill="white"/>
</clipPath>
</defs>
</svg>
