<svg width="1920" height="1080" viewBox="0 0 1920 1080" fill="none" xmlns="http://www.w3.org/2000/svg">
<g clip-path="url(#clip0_28_67)">
<rect width="1920" height="1080" fill="white"/>
<path d="M93 25C93 76.3625 51.3625 118 0 118C-51.3625 118 -93 76.3625 -93 25C-93 -26.3625 -51.3625 -68 0 -68C51.3625 -68 93 -26.3625 93 25ZM-61.975 25C-61.975 59.2278 -34.2278 86.975 0 86.975C34.2278 86.975 61.975 59.2278 61.975 25C61.975 -9.22783 34.2278 -36.975 0 -36.975C-34.2278 -36.975 -61.975 -9.22783 -61.975 25Z" fill="#FCBAD0"/>
<circle cx="1676.5" cy="475.5" r="32.5" fill="white"/>
<path d="M670 930.5C670 968.332 639.332 999 601.5 999C563.668 999 533 968.332 533 930.5C533 892.668 563.668 862 601.5 862C639.332 862 670 892.668 670 930.5ZM548 930.5C548 955.711 576.289 984.5 601.5 984.5C626.711 984.5 652.5 955.711 652.5 930.5C652.5 905.289 626.711 878.5 601.5 878.5C576.289 878.5 548 905.289 548 930.5Z" fill="white"/>
<path d="M1894 836C1894 870.794 1865.79 899 1831 899C1796.21 899 1768 870.794 1768 836C1768 801.206 1796.21 773 1831 773C1865.79 773 1894 801.206 1894 836ZM1789.02 836C1789.02 859.187 1807.81 877.983 1831 877.983C1854.19 877.983 1872.98 859.187 1872.98 836C1872.98 812.813 1854.19 794.017 1831 794.017C1807.81 794.017 1789.02 812.813 1789.02 836Z" fill="#FF74B3"/>
<circle cx="1584" cy="52" r="93" fill="#FF74B3"/>
<circle cx="1657.57" cy="1414" r="435" fill="#FF74B3"/>
<path fill-rule="evenodd" clip-rule="evenodd" d="M362.184 1562.43C296.871 1634.03 211.795 1684.64 117.715 1707.88C23.6348 1731.13 -75.2245 1725.95 -166.362 1693C-257.499 1660.06 -336.82 1600.83 -394.295 1522.8C-451.77 1444.78 -484.817 1351.46 -489.257 1254.66C-493.698 1157.85 -469.332 1061.9 -419.241 978.942C-369.15 895.983 -295.584 829.741 -207.846 788.592C-120.107 747.444 -22.137 733.236 73.6759 747.767C168.329 762.122 256.676 803.887 327.825 867.865L327.833 867.856C328.097 868.096 328.359 868.338 328.619 868.581C329.225 869.128 329.83 869.677 330.433 870.228L330.389 870.276C347.29 886.893 357.333 909.316 358.423 933.079C359.567 958.016 350.757 982.387 333.933 1000.83C317.108 1019.27 293.647 1030.27 268.71 1031.42C243.772 1032.56 219.402 1023.75 200.96 1006.93L201.438 1006.4C157.693 967.418 103.542 941.961 45.5578 933.167C-13.5864 924.198 -74.0622 932.967 -128.222 958.368C-182.382 983.769 -227.794 1024.66 -258.714 1075.87C-289.635 1127.08 -304.675 1186.31 -301.934 1246.06C-299.193 1305.82 -278.794 1363.42 -243.315 1411.59C-207.837 1459.75 -158.872 1496.31 -102.615 1516.65C-46.3567 1536.99 14.668 1540.18 72.7427 1525.84C130.817 1511.49 183.334 1480.24 223.651 1436.05L223.111 1435.56C239.936 1417.12 263.397 1406.11 288.335 1404.97C313.272 1403.83 337.642 1412.64 356.084 1429.46C374.526 1446.28 385.53 1469.75 386.674 1494.68C387.818 1519.62 379.008 1543.99 362.184 1562.43L328.419 1531.63C337.074 1522.14 341.605 1509.61 341.017 1496.78C340.429 1483.95 334.768 1471.88 325.281 1463.22C315.794 1454.57 303.257 1450.04 290.429 1450.63C277.6 1451.22 265.531 1456.88 256.876 1466.36L256.905 1466.39C210.588 1517.16 150.256 1553.05 83.538 1569.54C16.8204 1586.02 -53.2863 1582.34 -117.917 1558.98C-182.547 1535.62 -238.798 1493.62 -279.557 1438.29C-320.316 1382.95 -343.751 1316.78 -346.9 1248.13C-350.049 1179.48 -332.77 1111.43 -297.248 1052.6C-261.726 993.771 -209.556 946.795 -147.335 917.614C-85.1151 888.433 -15.639 878.358 52.3073 888.663C119.693 898.883 182.572 928.692 233.129 974.363C242.436 982.235 254.393 986.322 266.615 985.762C279.444 985.173 291.513 979.513 300.168 970.026C308.823 960.538 313.355 948.002 312.766 935.173C312.232 923.522 307.513 912.497 299.544 904.087L299.125 904.546C234.32 845.426 153.439 806.85 66.7103 793.696C-20.0187 780.543 -108.7 793.403 -188.121 830.65C-267.541 867.898 -334.132 927.86 -379.474 1002.95C-424.816 1078.05 -446.872 1164.9 -442.852 1252.53C-438.833 1340.16 -408.919 1424.63 -356.893 1495.25C-304.867 1565.88 -233.066 1619.49 -150.57 1649.32C-68.0731 1679.14 21.4135 1683.82 106.574 1662.79C191.735 1641.75 268.745 1595.93 327.865 1531.12L362.184 1562.43Z" fill="#FEDFEA"/>
<path fill-rule="evenodd" clip-rule="evenodd" d="M2455.18 330.433C2389.87 402.026 2304.8 452.643 2210.72 475.884C2116.63 499.125 2017.78 493.946 1926.64 461.002C1835.5 428.059 1756.18 368.829 1698.71 290.804C1641.23 212.779 1608.18 119.463 1603.74 22.6567C1599.3 -74.15 1623.67 -170.099 1673.76 -253.058C1723.85 -336.017 1797.42 -402.259 1885.15 -443.408C1972.89 -484.556 2070.86 -498.764 2166.68 -484.233C2261.33 -469.878 2349.68 -428.113 2420.83 -364.135L2420.83 -364.144C2421.1 -363.904 2421.36 -363.662 2421.62 -363.419C2422.23 -362.872 2422.83 -362.323 2423.43 -361.772L2423.39 -361.724C2440.29 -345.107 2450.33 -322.684 2451.42 -298.921C2452.57 -273.984 2443.76 -249.613 2426.93 -231.171C2410.11 -212.729 2386.65 -201.726 2361.71 -200.582C2336.77 -199.438 2312.4 -208.247 2293.96 -225.072L2294.44 -225.596C2250.69 -264.582 2196.54 -290.039 2138.56 -298.833C2079.41 -307.802 2018.94 -299.033 1964.78 -273.632C1910.62 -248.231 1865.21 -207.341 1834.29 -156.131C1803.37 -104.922 1788.32 -45.6934 1791.07 14.0643C1793.81 73.8219 1814.21 131.425 1849.68 179.589C1885.16 227.753 1934.13 264.314 1990.39 284.65C2046.64 304.986 2107.67 308.183 2165.74 293.836C2223.82 279.49 2276.33 248.244 2316.65 204.051L2316.11 203.559C2332.94 185.117 2356.4 174.114 2381.33 172.97C2406.27 171.826 2430.64 180.635 2449.08 197.46C2467.53 214.284 2478.53 237.746 2479.67 262.683C2480.82 287.62 2472.01 311.991 2455.18 330.433L2421.42 299.63C2430.07 290.142 2434.61 277.606 2434.02 264.777C2433.43 251.949 2427.77 239.88 2418.28 231.225C2408.79 222.57 2396.26 218.038 2383.43 218.627C2370.6 219.215 2358.53 224.875 2349.88 234.362L2349.9 234.388C2303.59 285.159 2243.26 321.054 2176.54 337.536C2109.82 354.017 2039.71 350.345 1975.08 326.982C1910.45 303.62 1854.2 261.617 1813.44 206.285C1772.68 150.953 1749.25 84.7779 1746.1 16.1268C1742.95 -52.5243 1760.23 -120.567 1795.75 -179.398C1831.27 -238.229 1883.44 -285.205 1945.66 -314.386C2007.88 -343.567 2077.36 -353.642 2145.31 -343.337C2212.69 -333.117 2275.57 -303.308 2326.13 -257.637C2335.44 -249.765 2347.39 -245.678 2359.62 -246.238C2372.44 -246.827 2384.51 -252.487 2393.17 -261.974C2401.82 -271.462 2406.35 -283.998 2405.77 -296.827C2405.23 -308.478 2400.51 -319.503 2392.54 -327.913L2392.13 -327.454C2327.32 -386.574 2246.44 -425.15 2159.71 -438.304C2072.98 -451.457 1984.3 -438.597 1904.88 -401.35C1825.46 -364.102 1758.87 -304.14 1713.53 -229.047C1668.18 -153.953 1646.13 -67.1004 1650.15 20.5282C1654.17 108.157 1684.08 192.626 1736.11 263.253C1788.13 333.881 1859.93 387.495 1942.43 417.315C2024.93 447.136 2114.41 451.823 2199.57 430.786C2284.74 409.748 2361.74 363.93 2420.87 299.125L2455.18 330.433Z" fill="#FEDFEA"/>
<path d="M659.145 497.76C659.827 499.04 660.211 500.192 660.297 501.216C660.467 502.24 660.553 503.733 660.553 505.696V576.736C660.553 582.624 658.931 586.08 655.689 587.104C654.067 587.616 652.019 587.872 649.545 587.872C647.07 587.872 645.107 587.659 643.657 587.232C642.206 586.805 641.097 586.293 640.329 585.696C639.561 585.099 638.963 584.245 638.537 583.136C638.11 581.685 637.897 579.467 637.897 576.48V533.6C635.763 536.245 632.649 540.469 628.553 546.272C624.457 551.989 621.854 555.573 620.745 557.024C619.635 558.475 618.867 559.499 618.441 560.096C618.014 560.608 616.947 561.376 615.241 562.4C613.619 563.339 611.827 563.808 609.865 563.808C607.987 563.808 606.238 563.381 604.617 562.528C603.081 561.589 601.971 560.693 601.289 559.84L600.265 558.432C598.558 556.299 595.187 551.776 590.153 544.864C585.118 537.867 582.387 534.112 581.961 533.6V576.736C581.961 578.699 581.875 580.192 581.705 581.216C581.619 582.155 581.235 583.221 580.553 584.416C579.273 586.72 575.945 587.872 570.569 587.872C565.363 587.872 562.121 586.72 560.841 584.416C560.158 583.221 559.731 582.112 559.561 581.088C559.475 580.064 559.433 578.528 559.433 576.48V505.44C559.433 503.477 559.475 502.027 559.561 501.088C559.731 500.064 560.158 498.912 560.841 497.632C562.121 495.413 565.449 494.304 570.825 494.304C573.129 494.304 575.091 494.603 576.713 495.2C578.419 495.712 579.529 496.267 580.041 496.864L580.809 497.632L609.865 535.776C624.371 516.576 634.057 503.904 638.921 497.76C640.371 495.456 643.785 494.304 649.161 494.304C654.622 494.304 657.95 495.456 659.145 497.76ZM668.888 554.336C668.888 544.096 672.472 535.648 679.64 528.992C686.808 522.336 695 519.008 704.216 519.008C713.432 519.008 721.581 522.336 728.664 528.992C735.746 535.563 739.288 543.968 739.288 554.208C739.288 561.291 737.453 567.605 733.784 573.152C730.114 578.613 725.634 582.667 720.344 585.312C715.138 587.872 709.72 589.152 704.088 589.152C698.456 589.152 692.994 587.787 687.704 585.056C682.413 582.24 677.933 578.144 674.264 572.768C670.68 567.307 668.888 561.163 668.888 554.336ZM695.64 563.552C698.37 565.6 701.144 566.624 703.96 566.624C706.776 566.624 709.592 565.557 712.408 563.424C715.224 561.291 716.632 558.133 716.632 553.952C716.632 549.771 715.309 546.656 712.664 544.608C710.018 542.56 707.16 541.536 704.088 541.536C701.016 541.536 698.157 542.603 695.512 544.736C692.866 546.869 691.544 550.027 691.544 554.208C691.544 558.304 692.909 561.419 695.64 563.552ZM785.062 520.544C793.595 520.544 800.678 523.829 806.31 530.4C812.027 536.885 814.886 544.821 814.886 554.208V576.736C814.886 578.699 814.8 580.192 814.63 581.216C814.544 582.155 814.203 583.221 813.606 584.416C812.411 586.72 809.083 587.872 803.622 587.872C797.563 587.872 794.064 586.293 793.126 583.136C792.614 581.685 792.358 579.509 792.358 576.608V554.08C792.358 550.581 791.334 547.851 789.286 545.888C787.323 543.925 784.635 542.944 781.222 542.944C777.894 542.944 775.163 543.968 773.03 546.016C770.982 548.064 769.958 550.752 769.958 554.08V576.736C769.958 578.699 769.872 580.192 769.702 581.216C769.616 582.155 769.232 583.221 768.55 584.416C767.44 586.72 764.155 587.872 758.694 587.872C753.318 587.872 750.032 586.72 748.838 584.416C748.24 583.136 747.856 582.027 747.686 581.088C747.6 580.064 747.558 578.571 747.558 576.608V531.296C747.558 529.419 747.6 528.011 747.686 527.072C747.856 526.048 748.283 524.939 748.966 523.744C750.16 521.611 753.446 520.544 758.822 520.544C764.027 520.544 767.227 521.525 768.422 523.488C769.275 524.939 769.702 526.688 769.702 528.736C770.043 528.139 770.811 527.285 772.006 526.176C773.2 525.067 774.352 524.171 775.462 523.488C778.363 521.525 781.563 520.544 785.062 520.544ZM890.207 546.272C890.207 551.477 888.884 555.36 886.239 557.92C883.679 560.395 880.82 561.632 877.663 561.632H847.327C847.327 564.021 848.735 566.027 851.551 567.648C854.367 569.269 857.183 570.08 859.999 570.08C864.948 570.08 868.831 569.568 871.647 568.544L873.055 568.032C875.103 567.093 876.809 566.624 878.175 566.624C880.905 566.624 883.252 568.544 885.215 572.384C886.324 574.688 886.879 576.651 886.879 578.272C886.879 585.867 877.791 589.664 859.615 589.664C853.3 589.664 847.668 588.597 842.719 586.464C837.855 584.245 834.057 581.344 831.327 577.76C825.951 570.848 823.263 563.125 823.263 554.592C823.263 543.84 826.719 535.264 833.631 528.864C840.628 522.379 849.332 519.136 859.743 519.136C871.604 519.136 880.308 523.317 885.854 531.68C888.756 536.117 890.207 540.981 890.207 546.272ZM863.199 549.984C866.441 549.984 868.063 548.619 868.063 545.888C868.063 543.925 867.295 542.347 865.759 541.152C864.308 539.957 862.175 539.36 859.359 539.36C856.628 539.36 853.897 540.512 851.167 542.816C848.436 545.035 847.071 547.424 847.071 549.984H863.199ZM936.476 543.2L928.156 542.688V560.352C928.156 562.656 928.497 564.32 929.18 565.344C929.948 566.368 931.313 566.88 933.276 566.88C935.324 566.88 936.86 566.965 937.884 567.136C938.993 567.221 940.145 567.605 941.34 568.288C943.302 569.397 944.284 572.256 944.284 576.864C944.284 582.24 943.089 585.525 940.7 586.72C939.42 587.317 938.268 587.701 937.244 587.872C936.305 587.957 934.897 588 933.02 588C924.145 588 917.404 585.995 912.796 581.984C908.188 577.973 905.884 571.189 905.884 561.632V542.688C904.262 542.944 902.513 543.072 900.635 543.072C898.758 543.072 897.18 542.347 895.9 540.896C894.705 539.445 894.108 536.971 894.108 533.472C894.108 529.973 894.321 527.456 894.748 525.92C895.174 524.299 895.772 523.147 896.54 522.464C897.905 521.355 899.612 520.8 901.66 520.8L905.884 521.312V508.128C905.884 506.165 905.926 504.715 906.012 503.776C906.182 502.837 906.609 501.813 907.292 500.704C908.401 498.571 911.686 497.504 917.148 497.504C922.95 497.504 926.406 499.083 927.516 502.24C927.942 503.605 928.156 505.781 928.156 508.768V521.312C931.91 520.971 934.726 520.8 936.604 520.8C938.566 520.8 940.017 520.885 940.956 521.056C941.98 521.141 943.132 521.525 944.412 522.208C946.63 523.317 947.74 526.603 947.74 532.064C947.74 537.44 946.588 540.725 944.284 541.92C943.004 542.517 941.852 542.901 940.828 543.072C939.889 543.157 938.438 543.2 936.476 543.2ZM954.808 531.808C954.808 529.845 954.85 528.395 954.936 527.456C955.106 526.432 955.49 525.28 956.088 524C957.282 521.781 960.61 520.672 966.072 520.672C970.168 520.672 973.069 521.397 974.776 522.848C976.226 524.043 976.994 525.877 977.08 528.352C977.165 529.205 977.208 530.443 977.208 532.064V576.864C977.208 578.827 977.122 580.32 976.952 581.344C976.866 582.283 976.482 583.392 975.8 584.672C974.69 586.891 971.405 588 965.944 588C960.568 588 957.282 586.848 956.088 584.544C955.49 583.264 955.106 582.155 954.936 581.216C954.85 580.277 954.808 578.784 954.808 576.736V531.808ZM975.8 508.128C975.202 509.323 974.093 510.176 972.472 510.688C970.85 511.2 968.674 511.456 965.944 511.456C963.298 511.456 961.165 511.2 959.544 510.688C957.922 510.176 956.77 509.28 956.088 508C955.49 506.72 955.106 505.611 954.936 504.672C954.85 503.648 954.808 502.155 954.808 500.192C954.808 498.229 954.85 496.779 954.936 495.84C955.106 494.816 955.49 493.707 956.088 492.512C957.282 490.208 960.61 489.056 966.072 489.056C971.448 489.056 974.69 490.208 975.8 492.512C976.482 493.792 976.866 494.944 976.952 495.968C977.122 496.907 977.208 498.357 977.208 500.32C977.208 502.283 977.122 503.776 976.952 504.8C976.866 505.739 976.482 506.848 975.8 508.128ZM987.945 581.984C986.323 580.96 985.513 579.339 985.513 577.12C985.513 574.901 987.134 571.531 990.377 567.008C991.315 565.557 992.809 564.832 994.857 564.832C996.99 564.832 999.849 565.899 1003.43 568.032C1007.02 570.08 1010.26 571.104 1013.16 571.104C1018.37 571.104 1020.97 570.08 1020.97 568.032C1020.97 566.411 1018.11 565.216 1012.39 564.448C1007.02 563.68 1001.68 561.675 996.393 558.432C993.918 556.896 991.87 554.507 990.249 551.264C988.627 547.936 987.817 544.011 987.817 539.488C987.817 526.005 997.075 519.264 1015.59 519.264C1021.65 519.264 1027.88 520.715 1034.28 523.616C1037.27 524.981 1038.76 526.688 1038.76 528.736C1038.76 530.784 1037.82 533.301 1035.94 536.288C1034.07 539.275 1032.15 540.768 1030.18 540.768C1029.16 540.768 1027.24 540.128 1024.42 538.848C1021.69 537.568 1018.71 536.928 1015.46 536.928C1010.43 536.928 1007.91 537.867 1007.91 539.744C1007.91 542.304 1010.81 543.968 1016.62 544.736C1022.25 545.333 1027.71 546.955 1033 549.6C1035.48 550.795 1037.52 552.885 1039.14 555.872C1040.85 558.773 1041.7 562.443 1041.7 566.88C1041.7 571.317 1040.85 575.115 1039.14 578.272C1037.52 581.344 1035.22 583.648 1032.23 585.184C1026.77 587.829 1019.9 589.152 1011.62 589.152C1003.43 589.152 995.539 586.763 987.945 581.984ZM1093.83 527.712C1094.35 522.933 1097.72 520.544 1103.95 520.544C1107.27 520.544 1109.75 520.8 1111.37 521.312C1112.99 521.824 1114.1 522.72 1114.7 524C1115.38 525.28 1115.76 526.432 1115.85 527.456C1116.02 528.395 1116.11 529.845 1116.11 531.808V576.608C1116.11 578.571 1116.02 580.064 1115.85 581.088C1115.76 582.027 1115.42 583.136 1114.83 584.416C1113.63 586.635 1110.69 587.744 1105.99 587.744C1101.39 587.744 1098.27 587.189 1096.65 586.08C1095.11 584.885 1094.22 583.179 1093.96 580.96C1090.8 585.483 1085.51 587.744 1078.09 587.744C1070.75 587.744 1063.92 584.373 1057.61 577.632C1051.29 570.891 1048.14 563.083 1048.14 554.208C1048.14 545.248 1051.29 537.44 1057.61 530.784C1064.01 524.043 1071.01 520.672 1078.6 520.672C1081.5 520.672 1084.15 521.184 1086.54 522.208C1088.93 523.232 1090.59 524.213 1091.53 525.152C1092.47 526.005 1093.24 526.859 1093.83 527.712ZM1070.54 554.336C1070.54 557.152 1071.65 559.712 1073.87 562.016C1076.08 564.235 1078.77 565.344 1081.93 565.344C1085.09 565.344 1087.69 564.192 1089.74 561.888C1091.87 559.584 1092.94 557.067 1092.94 554.336C1092.94 551.52 1091.91 548.917 1089.87 546.528C1087.9 544.139 1085.21 542.944 1081.8 542.944C1078.47 542.944 1075.74 544.139 1073.61 546.528C1071.56 548.917 1070.54 551.52 1070.54 554.336ZM1165.48 543.2L1157.16 542.688V560.352C1157.16 562.656 1157.5 564.32 1158.18 565.344C1158.95 566.368 1160.31 566.88 1162.28 566.88C1164.32 566.88 1165.86 566.965 1166.88 567.136C1167.99 567.221 1169.14 567.605 1170.34 568.288C1172.3 569.397 1173.28 572.256 1173.28 576.864C1173.28 582.24 1172.09 585.525 1169.7 586.72C1168.42 587.317 1167.27 587.701 1166.24 587.872C1165.3 587.957 1163.9 588 1162.02 588C1153.14 588 1146.4 585.995 1141.8 581.984C1137.19 577.973 1134.88 571.189 1134.88 561.632V542.688C1133.26 542.944 1131.51 543.072 1129.64 543.072C1127.76 543.072 1126.18 542.347 1124.9 540.896C1123.7 539.445 1123.11 536.971 1123.11 533.472C1123.11 529.973 1123.32 527.456 1123.75 525.92C1124.17 524.299 1124.77 523.147 1125.54 522.464C1126.9 521.355 1128.61 520.8 1130.66 520.8L1134.88 521.312V508.128C1134.88 506.165 1134.93 504.715 1135.01 503.776C1135.18 502.837 1135.61 501.813 1136.29 500.704C1137.4 498.571 1140.69 497.504 1146.15 497.504C1151.95 497.504 1155.41 499.083 1156.52 502.24C1156.94 503.605 1157.16 505.781 1157.16 508.768V521.312C1160.91 520.971 1163.73 520.8 1165.6 520.8C1167.57 520.8 1169.02 520.885 1169.96 521.056C1170.98 521.141 1172.13 521.525 1173.41 522.208C1175.63 523.317 1176.74 526.603 1176.74 532.064C1176.74 537.44 1175.59 540.725 1173.28 541.92C1172 542.517 1170.85 542.901 1169.83 543.072C1168.89 543.157 1167.44 543.2 1165.48 543.2ZM1183.81 531.808C1183.81 529.845 1183.85 528.395 1183.94 527.456C1184.11 526.432 1184.49 525.28 1185.09 524C1186.28 521.781 1189.61 520.672 1195.07 520.672C1199.17 520.672 1202.07 521.397 1203.78 522.848C1205.23 524.043 1205.99 525.877 1206.08 528.352C1206.16 529.205 1206.21 530.443 1206.21 532.064V576.864C1206.21 578.827 1206.12 580.32 1205.95 581.344C1205.87 582.283 1205.48 583.392 1204.8 584.672C1203.69 586.891 1200.4 588 1194.94 588C1189.57 588 1186.28 586.848 1185.09 584.544C1184.49 583.264 1184.11 582.155 1183.94 581.216C1183.85 580.277 1183.81 578.784 1183.81 576.736V531.808ZM1204.8 508.128C1204.2 509.323 1203.09 510.176 1201.47 510.688C1199.85 511.2 1197.67 511.456 1194.94 511.456C1192.3 511.456 1190.16 511.2 1188.54 510.688C1186.92 510.176 1185.77 509.28 1185.09 508C1184.49 506.72 1184.11 505.611 1183.94 504.672C1183.85 503.648 1183.81 502.155 1183.81 500.192C1183.81 498.229 1183.85 496.779 1183.94 495.84C1184.11 494.816 1184.49 493.707 1185.09 492.512C1186.28 490.208 1189.61 489.056 1195.07 489.056C1200.45 489.056 1203.69 490.208 1204.8 492.512C1205.48 493.792 1205.87 494.944 1205.95 495.968C1206.12 496.907 1206.21 498.357 1206.21 500.32C1206.21 502.283 1206.12 503.776 1205.95 504.8C1205.87 505.739 1205.48 506.848 1204.8 508.128ZM1214.51 554.336C1214.51 544.096 1218.1 535.648 1225.26 528.992C1232.43 522.336 1240.62 519.008 1249.84 519.008C1259.06 519.008 1267.21 522.336 1274.29 528.992C1281.37 535.563 1284.91 543.968 1284.91 554.208C1284.91 561.291 1283.08 567.605 1279.41 573.152C1275.74 578.613 1271.26 582.667 1265.97 585.312C1260.76 587.872 1255.34 589.152 1249.71 589.152C1244.08 589.152 1238.62 587.787 1233.33 585.056C1228.04 582.24 1223.56 578.144 1219.89 572.768C1216.3 567.307 1214.51 561.163 1214.51 554.336ZM1241.26 563.552C1244 565.6 1246.77 566.624 1249.58 566.624C1252.4 566.624 1255.22 565.557 1258.03 563.424C1260.85 561.291 1262.26 558.133 1262.26 553.952C1262.26 549.771 1260.93 546.656 1258.29 544.608C1255.64 542.56 1252.78 541.536 1249.71 541.536C1246.64 541.536 1243.78 542.603 1241.14 544.736C1238.49 546.869 1237.17 550.027 1237.17 554.208C1237.17 558.304 1238.53 561.419 1241.26 563.552ZM1330.69 520.544C1339.22 520.544 1346.3 523.829 1351.93 530.4C1357.65 536.885 1360.51 544.821 1360.51 554.208V576.736C1360.51 578.699 1360.43 580.192 1360.25 581.216C1360.17 582.155 1359.83 583.221 1359.23 584.416C1358.04 586.72 1354.71 587.872 1349.25 587.872C1343.19 587.872 1339.69 586.293 1338.75 583.136C1338.24 581.685 1337.98 579.509 1337.98 576.608V554.08C1337.98 550.581 1336.96 547.851 1334.91 545.888C1332.95 543.925 1330.26 542.944 1326.85 542.944C1323.52 542.944 1320.79 543.968 1318.65 546.016C1316.61 548.064 1315.58 550.752 1315.58 554.08V576.736C1315.58 578.699 1315.5 580.192 1315.33 581.216C1315.24 582.155 1314.86 583.221 1314.17 584.416C1313.07 586.72 1309.78 587.872 1304.32 587.872C1298.94 587.872 1295.66 586.72 1294.46 584.416C1293.87 583.136 1293.48 582.027 1293.31 581.088C1293.23 580.064 1293.18 578.571 1293.18 576.608V531.296C1293.18 529.419 1293.23 528.011 1293.31 527.072C1293.48 526.048 1293.91 524.939 1294.59 523.744C1295.79 521.611 1299.07 520.544 1304.45 520.544C1309.65 520.544 1312.85 521.525 1314.05 523.488C1314.9 524.939 1315.33 526.688 1315.33 528.736C1315.67 528.139 1316.44 527.285 1317.63 526.176C1318.83 525.067 1319.98 524.171 1321.09 523.488C1323.99 521.525 1327.19 520.544 1330.69 520.544Z" fill="#FF74B3"/>
<path d="M867.23 650.046C866.283 650.046 865.417 649.794 864.632 649.291C863.866 648.787 863.191 648.082 862.607 647.176C862.043 646.269 861.56 645.222 861.157 644.033C860.754 642.845 860.452 641.565 860.25 640.196C860.069 638.806 859.978 637.396 859.978 635.965C859.978 634.535 860.069 633.135 860.25 631.765C860.452 630.375 860.744 629.076 861.126 627.867C861.529 626.659 862.013 625.601 862.577 624.695C863.161 623.768 863.846 623.043 864.632 622.519C865.417 621.995 866.293 621.733 867.26 621.733C867.563 621.733 867.824 621.774 868.046 621.854C868.268 621.915 868.439 622.056 868.56 622.277C868.701 622.479 868.771 622.801 868.771 623.244C868.771 623.708 868.711 624.05 868.59 624.272C868.469 624.473 868.298 624.604 868.076 624.664C867.875 624.725 867.643 624.755 867.381 624.755H867.23C866.586 624.755 865.961 625.178 865.357 626.024C864.752 626.87 864.259 628.119 863.876 629.771C863.514 631.403 863.332 633.447 863.332 635.905C863.332 637.557 863.423 639.068 863.604 640.437C863.806 641.787 864.078 642.955 864.42 643.942C864.783 644.929 865.206 645.695 865.689 646.239C866.173 646.783 866.696 647.055 867.26 647.055C867.563 647.055 867.824 647.085 868.046 647.145C868.268 647.206 868.439 647.337 868.56 647.538C868.701 647.76 868.771 648.102 868.771 648.566C868.771 649.029 868.701 649.361 868.56 649.563C868.419 649.784 868.227 649.915 867.986 649.955C867.764 650.016 867.512 650.046 867.23 650.046ZM878.422 645.302C877.435 645.302 876.589 645.201 875.884 645C875.179 644.799 874.605 644.486 874.162 644.063C873.719 643.64 873.386 643.096 873.165 642.432C872.963 641.747 872.862 640.941 872.862 640.014V627.203C872.862 626.84 872.893 626.528 872.953 626.266C873.034 626.004 873.195 625.803 873.437 625.662C873.698 625.5 874.101 625.42 874.645 625.42C875.209 625.42 875.612 625.5 875.854 625.662C876.116 625.823 876.277 626.044 876.337 626.326C876.418 626.588 876.458 626.88 876.458 627.203V639.893C876.458 640.316 876.488 640.659 876.549 640.921C876.629 641.183 876.74 641.384 876.881 641.525C877.042 641.646 877.244 641.737 877.486 641.797C877.747 641.837 878.06 641.858 878.422 641.858C878.805 641.858 879.127 641.888 879.389 641.948C879.671 642.009 879.883 642.16 880.024 642.401C880.165 642.623 880.235 642.996 880.235 643.519C880.235 644.083 880.145 644.496 879.963 644.758C879.802 645 879.581 645.151 879.298 645.212C879.037 645.272 878.745 645.302 878.422 645.302ZM871.624 630.708L874.736 630.738L878.906 630.617C879.248 630.617 879.55 630.657 879.812 630.738C880.094 630.798 880.316 630.959 880.477 631.221C880.638 631.463 880.719 631.866 880.719 632.43C880.719 632.954 880.638 633.347 880.477 633.608C880.316 633.87 880.104 634.042 879.842 634.122C879.581 634.183 879.278 634.213 878.936 634.213L874.887 634.152L871.533 634.183C871.029 634.162 870.677 634.021 870.475 633.76C870.294 633.478 870.203 633.024 870.203 632.4C870.203 631.816 870.314 631.393 870.536 631.131C870.777 630.849 871.14 630.708 871.624 630.708ZM884.603 645.302C884.039 645.302 883.626 645.212 883.364 645.03C883.122 644.869 882.971 644.647 882.911 644.365C882.851 644.083 882.82 643.781 882.82 643.459V625.42C882.82 625.077 882.851 624.775 882.911 624.513C882.992 624.231 883.153 624.01 883.394 623.849C883.656 623.687 884.069 623.607 884.633 623.607C885.197 623.607 885.6 623.697 885.842 623.879C886.104 624.04 886.265 624.262 886.325 624.544C886.406 624.805 886.446 625.108 886.446 625.45V632.279C886.849 631.816 887.363 631.393 887.987 631.01C888.632 630.607 889.407 630.406 890.314 630.406C891.543 630.406 892.641 630.708 893.608 631.312C894.574 631.896 895.34 632.712 895.904 633.76C896.468 634.807 896.75 636.036 896.75 637.446V643.489C896.75 643.811 896.72 644.114 896.659 644.396C896.599 644.658 896.438 644.869 896.176 645.03C895.934 645.191 895.531 645.272 894.967 645.272C894.403 645.272 893.99 645.191 893.728 645.03C893.467 644.869 893.305 644.658 893.245 644.396C893.185 644.114 893.154 643.791 893.154 643.429V637.416C893.154 636.711 893.033 636.096 892.792 635.573C892.55 635.049 892.187 634.646 891.704 634.364C891.241 634.062 890.656 633.911 889.951 633.911C889.005 633.911 888.209 634.193 887.564 634.757C886.92 635.301 886.547 636.006 886.446 636.872V643.489C886.446 643.811 886.406 644.114 886.325 644.396C886.265 644.678 886.104 644.899 885.842 645.06C885.6 645.222 885.187 645.302 884.603 645.302ZM906.628 645.483C905.319 645.483 904.171 645.272 903.184 644.849C902.217 644.426 901.401 643.852 900.736 643.127C900.092 642.381 899.598 641.555 899.256 640.649C898.933 639.722 898.772 638.765 898.772 637.778C898.772 636.328 899.105 635.039 899.769 633.911C900.434 632.783 901.351 631.896 902.519 631.252C903.708 630.607 905.067 630.285 906.598 630.285C907.686 630.285 908.643 630.456 909.469 630.798C910.295 631.141 910.98 631.594 911.523 632.158C912.088 632.702 912.511 633.306 912.793 633.971C913.095 634.636 913.246 635.28 913.246 635.905C913.246 636.973 912.984 637.748 912.46 638.232C911.957 638.715 911.322 638.957 910.557 638.957H902.579C902.6 639.642 902.811 640.236 903.214 640.739C903.637 641.243 904.161 641.636 904.785 641.918C905.43 642.18 906.085 642.311 906.749 642.311C907.253 642.311 907.696 642.281 908.079 642.22C908.482 642.16 908.824 642.089 909.106 642.009C909.388 641.908 909.63 641.807 909.831 641.706C910.053 641.606 910.254 641.515 910.436 641.434C910.617 641.354 910.788 641.304 910.949 641.283C911.171 641.263 911.393 641.314 911.614 641.434C911.836 641.555 912.017 641.767 912.158 642.069C912.279 642.27 912.359 642.462 912.4 642.643C912.46 642.804 912.49 642.965 912.49 643.127C912.49 643.529 912.249 643.912 911.765 644.275C911.282 644.617 910.597 644.899 909.711 645.121C908.844 645.363 907.817 645.483 906.628 645.483ZM902.579 636.811H908.774C909.116 636.811 909.378 636.761 909.559 636.66C909.741 636.539 909.831 636.298 909.831 635.935C909.831 635.472 909.69 635.059 909.408 634.696C909.126 634.313 908.744 634.021 908.26 633.82C907.777 633.598 907.213 633.488 906.568 633.488C905.823 633.488 905.148 633.639 904.544 633.941C903.939 634.223 903.456 634.616 903.093 635.119C902.751 635.623 902.579 636.187 902.579 636.811ZM925.396 645.302C924.832 645.302 924.419 645.212 924.157 645.03C923.895 644.869 923.734 644.647 923.674 644.365C923.613 644.083 923.583 643.771 923.583 643.429V625.994C923.583 625.309 923.714 624.836 923.976 624.574C924.258 624.312 924.762 624.181 925.487 624.181H937.271C937.614 624.181 937.916 624.221 938.178 624.302C938.439 624.362 938.651 624.523 938.812 624.785C938.973 625.027 939.054 625.44 939.054 626.024C939.054 626.588 938.963 627.001 938.782 627.263C938.621 627.525 938.399 627.686 938.117 627.746C937.855 627.807 937.553 627.837 937.211 627.837H927.239V632.913H934.098C934.441 632.913 934.733 632.954 934.975 633.034C935.237 633.095 935.428 633.246 935.549 633.488C935.69 633.709 935.76 634.082 935.76 634.606C935.76 635.089 935.69 635.452 935.549 635.693C935.408 635.915 935.206 636.056 934.944 636.116C934.703 636.157 934.411 636.177 934.068 636.177H927.239V643.459C927.239 643.801 927.199 644.114 927.118 644.396C927.058 644.658 926.897 644.869 926.635 645.03C926.373 645.212 925.96 645.302 925.396 645.302ZM951.08 645.453C949.67 645.453 948.411 645.201 947.303 644.698C946.215 644.174 945.299 643.459 944.553 642.552C943.808 641.626 943.244 640.578 942.861 639.41C942.478 638.221 942.287 636.962 942.287 635.633V625.994C942.287 625.651 942.317 625.349 942.378 625.087C942.458 624.805 942.619 624.584 942.861 624.423C943.123 624.241 943.546 624.151 944.13 624.151C944.714 624.151 945.127 624.241 945.369 624.423C945.631 624.584 945.792 624.805 945.853 625.087C945.933 625.349 945.973 625.662 945.973 626.024V635.633C945.973 636.741 946.155 637.768 946.517 638.715C946.9 639.642 947.474 640.387 948.24 640.951C949.005 641.515 949.982 641.797 951.171 641.797C952.238 641.797 953.155 641.545 953.92 641.042C954.686 640.538 955.27 639.823 955.673 638.896C956.096 637.97 956.307 636.872 956.307 635.603V625.843C956.307 625.521 956.338 625.239 956.398 624.997C956.479 624.755 956.65 624.554 956.912 624.392C957.174 624.231 957.587 624.151 958.151 624.151C958.735 624.151 959.148 624.241 959.389 624.423C959.651 624.584 959.812 624.805 959.873 625.087C959.933 625.369 959.964 625.682 959.964 626.024V635.693C959.964 637.023 959.772 638.282 959.389 639.47C959.007 640.639 958.433 641.676 957.667 642.583C956.902 643.469 955.965 644.174 954.857 644.698C953.769 645.201 952.51 645.453 951.08 645.453ZM965.106 645.272C964.562 645.272 964.159 645.181 963.897 645C963.655 644.839 963.494 644.617 963.413 644.335C963.353 644.053 963.323 643.751 963.323 643.429V625.903C963.323 625.601 963.363 625.319 963.444 625.057C963.524 624.795 963.695 624.584 963.957 624.423C964.239 624.262 964.652 624.181 965.196 624.181C965.8 624.181 966.213 624.251 966.435 624.392C966.677 624.513 966.898 624.695 967.1 624.936L977.192 639.047V625.903C977.192 625.601 977.232 625.319 977.313 625.057C977.393 624.795 977.565 624.584 977.827 624.423C978.088 624.262 978.491 624.181 979.035 624.181C979.599 624.181 980.002 624.272 980.244 624.453C980.506 624.614 980.667 624.836 980.727 625.118C980.808 625.4 980.848 625.712 980.848 626.054V643.459C980.848 643.781 980.798 644.083 980.697 644.365C980.617 644.627 980.435 644.839 980.153 645C979.891 645.181 979.478 645.272 978.914 645.272C978.471 645.272 978.119 645.232 977.857 645.151C977.615 645.071 977.393 644.899 977.192 644.637L966.949 630.557V643.459C966.949 643.781 966.908 644.083 966.828 644.365C966.767 644.627 966.606 644.839 966.344 645C966.083 645.181 965.67 645.272 965.106 645.272ZM999.563 645.272C998.576 645.272 997.69 645.081 996.904 644.698C996.138 644.295 995.484 643.751 994.94 643.066C994.416 642.381 994.013 641.596 993.731 640.709C993.469 639.803 993.338 638.836 993.338 637.809C993.359 636.781 993.51 635.824 993.792 634.938C994.074 634.031 994.477 633.246 995 632.581C995.544 631.896 996.199 631.362 996.964 630.98C997.73 630.597 998.596 630.406 999.563 630.406C1000.49 630.406 1001.36 630.597 1002.16 630.98C1002.99 631.362 1003.71 631.896 1004.34 632.581C1004.98 633.246 1005.49 634.031 1005.85 634.938C1006.21 635.824 1006.39 636.771 1006.39 637.778C1006.39 638.826 1006.21 639.813 1005.85 640.739C1005.49 641.646 1004.99 642.442 1004.37 643.127C1003.74 643.791 1003.02 644.315 1002.19 644.698C1001.37 645.081 1000.49 645.272 999.563 645.272ZM999.08 641.737C999.785 641.737 1000.42 641.575 1000.98 641.253C1001.55 640.911 1001.99 640.447 1002.31 639.863C1002.66 639.279 1002.83 638.614 1002.83 637.869C1002.83 637.103 1002.66 636.429 1002.31 635.844C1001.99 635.24 1001.55 634.777 1000.98 634.455C1000.42 634.112 999.785 633.941 999.08 633.941C998.395 633.941 997.77 634.112 997.206 634.455C996.642 634.797 996.189 635.26 995.846 635.844C995.524 636.429 995.363 637.103 995.363 637.869C995.363 638.614 995.524 639.279 995.846 639.863C996.189 640.447 996.642 640.911 997.206 641.253C997.77 641.575 998.395 641.737 999.08 641.737ZM993.489 645.302C992.946 645.302 992.543 645.212 992.281 645.03C992.019 644.869 991.858 644.658 991.797 644.396C991.737 644.114 991.707 643.801 991.707 643.459V625.45C991.707 625.108 991.737 624.805 991.797 624.544C991.858 624.262 992.019 624.04 992.281 623.879C992.543 623.718 992.946 623.637 993.489 623.637C994.054 623.637 994.456 623.718 994.698 623.879C994.94 624.04 995.091 624.262 995.151 624.544C995.212 624.826 995.242 625.128 995.242 625.45V644.063C995.161 644.506 994.99 644.819 994.728 645C994.487 645.201 994.074 645.302 993.489 645.302ZM1011.05 645.302C1010.51 645.302 1010.11 645.212 1009.84 645.03C1009.58 644.869 1009.42 644.658 1009.36 644.396C1009.3 644.114 1009.27 643.801 1009.27 643.459V632.218C1009.27 631.896 1009.3 631.604 1009.36 631.342C1009.44 631.06 1009.6 630.839 1009.84 630.677C1010.11 630.516 1010.52 630.436 1011.08 630.436C1011.65 630.436 1012.05 630.516 1012.29 630.677C1012.55 630.839 1012.71 631.06 1012.77 631.342C1012.84 631.624 1012.87 631.936 1012.87 632.279V643.489C1012.87 643.832 1012.84 644.144 1012.77 644.426C1012.71 644.688 1012.55 644.899 1012.29 645.06C1012.05 645.222 1011.64 645.302 1011.05 645.302ZM1011.05 627.505C1010.47 627.505 1010.04 627.424 1009.75 627.263C1009.49 627.082 1009.32 626.84 1009.24 626.538C1009.18 626.236 1009.15 625.903 1009.15 625.541C1009.15 625.158 1009.18 624.826 1009.24 624.544C1009.32 624.262 1009.5 624.04 1009.78 623.879C1010.07 623.697 1010.5 623.607 1011.08 623.607C1011.69 623.607 1012.12 623.697 1012.38 623.879C1012.64 624.06 1012.82 624.302 1012.9 624.604C1012.98 624.886 1013.02 625.218 1013.02 625.601C1013.02 625.944 1012.98 626.266 1012.9 626.568C1012.82 626.87 1012.64 627.102 1012.38 627.263C1012.12 627.424 1011.68 627.505 1011.05 627.505ZM1023.13 645.302C1022.14 645.302 1021.3 645.201 1020.59 645C1019.89 644.799 1019.31 644.486 1018.87 644.063C1018.43 643.64 1018.09 643.096 1017.87 642.432C1017.67 641.747 1017.57 640.941 1017.57 640.014V627.203C1017.57 626.84 1017.6 626.528 1017.66 626.266C1017.74 626.004 1017.9 625.803 1018.14 625.662C1018.41 625.5 1018.81 625.42 1019.35 625.42C1019.92 625.42 1020.32 625.5 1020.56 625.662C1020.82 625.823 1020.98 626.044 1021.05 626.326C1021.13 626.588 1021.17 626.88 1021.17 627.203V639.893C1021.17 640.316 1021.2 640.659 1021.26 640.921C1021.34 641.183 1021.45 641.384 1021.59 641.525C1021.75 641.646 1021.95 641.737 1022.19 641.797C1022.46 641.837 1022.77 641.858 1023.13 641.858C1023.51 641.858 1023.84 641.888 1024.1 641.948C1024.38 642.009 1024.59 642.16 1024.73 642.401C1024.87 642.623 1024.94 642.996 1024.94 643.519C1024.94 644.083 1024.85 644.496 1024.67 644.758C1024.51 645 1024.29 645.151 1024.01 645.212C1023.74 645.272 1023.45 645.302 1023.13 645.302ZM1016.33 630.708L1019.44 630.738L1023.61 630.617C1023.96 630.617 1024.26 630.657 1024.52 630.738C1024.8 630.798 1025.02 630.959 1025.18 631.221C1025.35 631.463 1025.43 631.866 1025.43 632.43C1025.43 632.954 1025.35 633.347 1025.18 633.608C1025.02 633.87 1024.81 634.042 1024.55 634.122C1024.29 634.183 1023.99 634.213 1023.64 634.213L1019.59 634.152L1016.24 634.183C1015.74 634.162 1015.38 634.021 1015.18 633.76C1015 633.478 1014.91 633.024 1014.91 632.4C1014.91 631.816 1015.02 631.393 1015.24 631.131C1015.49 630.849 1015.85 630.708 1016.33 630.708ZM1028.71 650.046C1028.42 650.046 1028.16 650.016 1027.92 649.955C1027.7 649.915 1027.52 649.784 1027.38 649.563C1027.26 649.361 1027.2 649.029 1027.2 648.566C1027.2 648.102 1027.26 647.76 1027.38 647.538C1027.52 647.337 1027.7 647.206 1027.92 647.145C1028.16 647.085 1028.41 647.055 1028.68 647.055C1029.26 647.055 1029.78 646.783 1030.25 646.239C1030.73 645.695 1031.14 644.929 1031.49 643.942C1031.85 642.955 1032.13 641.787 1032.33 640.437C1032.53 639.068 1032.63 637.557 1032.63 635.905C1032.63 633.447 1032.44 631.403 1032.06 629.771C1031.68 628.119 1031.18 626.87 1030.58 626.024C1030 625.178 1029.37 624.755 1028.71 624.755H1028.56C1028.31 624.755 1028.08 624.725 1027.86 624.664C1027.66 624.604 1027.5 624.473 1027.38 624.272C1027.26 624.05 1027.2 623.708 1027.2 623.244C1027.2 622.801 1027.26 622.479 1027.38 622.277C1027.52 622.056 1027.7 621.915 1027.92 621.854C1028.16 621.774 1028.41 621.733 1028.68 621.733C1029.66 621.733 1030.54 621.995 1031.31 622.519C1032.09 623.043 1032.78 623.768 1033.36 624.695C1033.94 625.601 1034.43 626.659 1034.81 627.867C1035.21 629.076 1035.51 630.375 1035.69 631.765C1035.89 633.135 1035.99 634.535 1035.99 635.965C1035.99 637.396 1035.89 638.806 1035.69 640.196C1035.49 641.565 1035.18 642.845 1034.78 644.033C1034.4 645.222 1033.91 646.269 1033.33 647.176C1032.75 648.082 1032.07 648.787 1031.31 649.291C1030.54 649.794 1029.67 650.046 1028.71 650.046Z" fill="#0E0A1D"/>
</g>
<defs>
<clipPath id="clip0_28_67">
<rect width="1920" height="1080" fill="white"/>
</clipPath>
</defs>
</svg>
