<svg width="1920" height="1080" viewBox="0 0 1920 1080" fill="none" xmlns="http://www.w3.org/2000/svg">
<g clip-path="url(#clip0_33_747)">
<rect width="1920" height="1080" fill="white"/>
<path d="M93 25C93 76.3625 51.3625 118 0 118C-51.3625 118 -93 76.3625 -93 25C-93 -26.3625 -51.3625 -68 0 -68C51.3625 -68 93 -26.3625 93 25ZM-61.975 25C-61.975 59.2278 -34.2278 86.975 0 86.975C34.2278 86.975 61.975 59.2278 61.975 25C61.975 -9.22783 34.2278 -36.975 0 -36.975C-34.2278 -36.975 -61.975 -9.22783 -61.975 25Z" fill="#FCBAD0"/>
<circle cx="1676.5" cy="475.5" r="32.5" fill="white"/>
<path d="M670 930.5C670 968.332 639.332 999 601.5 999C563.668 999 533 968.332 533 930.5C533 892.668 563.668 862 601.5 862C639.332 862 670 892.668 670 930.5ZM548 930.5C548 955.711 576.289 984.5 601.5 984.5C626.711 984.5 652.5 955.711 652.5 930.5C652.5 905.289 626.711 878.5 601.5 878.5C576.289 878.5 548 905.289 548 930.5Z" fill="white"/>
<path d="M1894 836C1894 870.794 1865.79 899 1831 899C1796.21 899 1768 870.794 1768 836C1768 801.206 1796.21 773 1831 773C1865.79 773 1894 801.206 1894 836ZM1789.02 836C1789.02 859.187 1807.81 877.983 1831 877.983C1854.19 877.983 1872.98 859.187 1872.98 836C1872.98 812.813 1854.19 794.017 1831 794.017C1807.81 794.017 1789.02 812.813 1789.02 836Z" fill="#FF74B3"/>
<circle cx="1584" cy="52" r="93" fill="#FF74B3"/>
<circle cx="1657.57" cy="1414" r="435" fill="#FF74B3"/>
<path fill-rule="evenodd" clip-rule="evenodd" d="M362.184 1562.43C296.871 1634.03 211.795 1684.64 117.715 1707.88C23.6348 1731.13 -75.2245 1725.95 -166.362 1693C-257.499 1660.06 -336.82 1600.83 -394.295 1522.8C-451.77 1444.78 -484.817 1351.46 -489.257 1254.66C-493.698 1157.85 -469.332 1061.9 -419.241 978.942C-369.15 895.983 -295.584 829.741 -207.846 788.592C-120.107 747.444 -22.137 733.236 73.6759 747.767C168.329 762.122 256.676 803.887 327.825 867.865L327.833 867.856C328.097 868.096 328.359 868.338 328.619 868.581C329.225 869.128 329.83 869.677 330.433 870.228L330.389 870.276C347.29 886.893 357.333 909.316 358.423 933.079C359.567 958.016 350.757 982.387 333.933 1000.83C317.108 1019.27 293.647 1030.27 268.71 1031.42C243.772 1032.56 219.402 1023.75 200.96 1006.93L201.438 1006.4C157.693 967.418 103.542 941.961 45.5578 933.167C-13.5864 924.198 -74.0622 932.967 -128.222 958.368C-182.382 983.769 -227.794 1024.66 -258.714 1075.87C-289.635 1127.08 -304.675 1186.31 -301.934 1246.06C-299.193 1305.82 -278.794 1363.42 -243.315 1411.59C-207.837 1459.75 -158.872 1496.31 -102.615 1516.65C-46.3567 1536.99 14.668 1540.18 72.7427 1525.84C130.817 1511.49 183.334 1480.24 223.651 1436.05L223.111 1435.56C239.936 1417.12 263.397 1406.11 288.335 1404.97C313.272 1403.83 337.642 1412.64 356.084 1429.46C374.526 1446.28 385.53 1469.75 386.674 1494.68C387.818 1519.62 379.008 1543.99 362.184 1562.43L328.419 1531.63C337.074 1522.14 341.605 1509.61 341.017 1496.78C340.429 1483.95 334.768 1471.88 325.281 1463.22C315.794 1454.57 303.257 1450.04 290.429 1450.63C277.6 1451.22 265.531 1456.88 256.876 1466.36L256.905 1466.39C210.588 1517.16 150.256 1553.05 83.538 1569.54C16.8204 1586.02 -53.2863 1582.34 -117.917 1558.98C-182.547 1535.62 -238.798 1493.62 -279.557 1438.29C-320.316 1382.95 -343.751 1316.78 -346.9 1248.13C-350.049 1179.48 -332.77 1111.43 -297.248 1052.6C-261.726 993.771 -209.556 946.795 -147.335 917.614C-85.1151 888.433 -15.639 878.358 52.3073 888.663C119.693 898.883 182.572 928.692 233.129 974.363C242.436 982.235 254.393 986.322 266.615 985.762C279.444 985.173 291.513 979.513 300.168 970.026C308.823 960.538 313.355 948.002 312.766 935.173C312.232 923.522 307.513 912.497 299.544 904.087L299.125 904.546C234.32 845.426 153.439 806.85 66.7103 793.696C-20.0187 780.543 -108.7 793.403 -188.121 830.65C-267.541 867.898 -334.132 927.86 -379.474 1002.95C-424.816 1078.05 -446.872 1164.9 -442.852 1252.53C-438.833 1340.16 -408.919 1424.63 -356.893 1495.25C-304.867 1565.88 -233.066 1619.49 -150.57 1649.32C-68.0731 1679.14 21.4135 1683.82 106.574 1662.79C191.735 1641.75 268.745 1595.93 327.865 1531.12L362.184 1562.43Z" fill="#FEDFEA"/>
<path fill-rule="evenodd" clip-rule="evenodd" d="M2455.18 330.433C2389.87 402.026 2304.8 452.643 2210.72 475.884C2116.63 499.125 2017.78 493.946 1926.64 461.002C1835.5 428.059 1756.18 368.829 1698.71 290.804C1641.23 212.779 1608.18 119.463 1603.74 22.6567C1599.3 -74.15 1623.67 -170.099 1673.76 -253.058C1723.85 -336.017 1797.42 -402.259 1885.15 -443.408C1972.89 -484.556 2070.86 -498.764 2166.68 -484.233C2261.33 -469.878 2349.68 -428.113 2420.83 -364.135L2420.83 -364.144C2421.1 -363.904 2421.36 -363.662 2421.62 -363.419C2422.23 -362.872 2422.83 -362.323 2423.43 -361.772L2423.39 -361.724C2440.29 -345.107 2450.33 -322.684 2451.42 -298.921C2452.57 -273.984 2443.76 -249.613 2426.93 -231.171C2410.11 -212.729 2386.65 -201.726 2361.71 -200.582C2336.77 -199.438 2312.4 -208.247 2293.96 -225.072L2294.44 -225.596C2250.69 -264.582 2196.54 -290.039 2138.56 -298.833C2079.41 -307.802 2018.94 -299.033 1964.78 -273.632C1910.62 -248.231 1865.21 -207.341 1834.29 -156.131C1803.37 -104.922 1788.32 -45.6934 1791.07 14.0643C1793.81 73.8219 1814.21 131.425 1849.68 179.589C1885.16 227.753 1934.13 264.314 1990.39 284.65C2046.64 304.986 2107.67 308.183 2165.74 293.836C2223.82 279.49 2276.33 248.244 2316.65 204.051L2316.11 203.559C2332.94 185.117 2356.4 174.114 2381.33 172.97C2406.27 171.826 2430.64 180.635 2449.08 197.46C2467.53 214.284 2478.53 237.746 2479.67 262.683C2480.82 287.62 2472.01 311.991 2455.18 330.433L2421.42 299.63C2430.07 290.142 2434.61 277.606 2434.02 264.777C2433.43 251.949 2427.77 239.88 2418.28 231.225C2408.79 222.57 2396.26 218.038 2383.43 218.627C2370.6 219.215 2358.53 224.875 2349.88 234.362L2349.9 234.388C2303.59 285.159 2243.26 321.054 2176.54 337.536C2109.82 354.017 2039.71 350.345 1975.08 326.982C1910.45 303.62 1854.2 261.617 1813.44 206.285C1772.68 150.953 1749.25 84.7779 1746.1 16.1268C1742.95 -52.5243 1760.23 -120.567 1795.75 -179.398C1831.27 -238.229 1883.44 -285.205 1945.66 -314.386C2007.88 -343.567 2077.36 -353.642 2145.31 -343.337C2212.69 -333.117 2275.57 -303.308 2326.13 -257.637C2335.44 -249.765 2347.39 -245.678 2359.62 -246.238C2372.44 -246.827 2384.51 -252.487 2393.17 -261.974C2401.82 -271.462 2406.35 -283.998 2405.77 -296.827C2405.23 -308.478 2400.51 -319.503 2392.54 -327.913L2392.13 -327.454C2327.32 -386.574 2246.44 -425.15 2159.71 -438.304C2072.98 -451.457 1984.3 -438.597 1904.88 -401.35C1825.46 -364.102 1758.87 -304.14 1713.53 -229.047C1668.18 -153.953 1646.13 -67.1004 1650.15 20.5282C1654.17 108.157 1684.08 192.626 1736.11 263.253C1788.13 333.881 1859.93 387.495 1942.43 417.315C2024.93 447.136 2114.41 451.823 2199.57 430.786C2284.74 409.748 2361.74 363.93 2420.87 299.125L2455.18 330.433Z" fill="#FEDFEA"/>
<path d="M523.389 500.832L557.949 572.256C559.4 575.157 560.125 577.333 560.125 578.784C560.125 581.856 557.65 584.629 552.701 587.104C549.8 588.555 547.496 589.28 545.789 589.28C544.168 589.28 542.802 588.896 541.693 588.128C540.669 587.36 539.901 586.549 539.389 585.696C538.962 584.843 538.322 583.563 537.469 581.856L530.813 568.032H495.357L488.701 581.856C487.848 583.563 487.165 584.8 486.653 585.568C486.226 586.336 485.458 587.147 484.349 588C483.325 588.768 481.96 589.152 480.253 589.152C478.632 589.152 476.37 588.427 473.469 586.976C468.52 584.587 466.045 581.856 466.045 578.784C466.045 577.333 466.77 575.157 468.221 572.256L502.781 500.704C503.72 498.741 505.128 497.163 507.005 495.968C508.968 494.773 511.016 494.176 513.149 494.176C517.757 494.176 521.17 496.395 523.389 500.832ZM513.021 531.552L504.573 549.088H521.597L513.021 531.552ZM612.944 521.312C614.565 521.824 615.888 522.72 616.912 524C618.021 525.195 618.576 527.157 618.576 529.888C618.576 532.619 617.765 535.605 616.144 538.848C614.523 542.091 612.176 543.712 609.104 543.712C607.568 543.712 606.075 543.371 604.624 542.688C603.259 542.005 601.424 541.664 599.12 541.664C596.816 541.664 594.64 542.475 592.592 544.096C590.629 545.717 589.648 547.68 589.648 549.984V576.864C589.648 578.827 589.563 580.32 589.392 581.344C589.307 582.283 588.923 583.392 588.24 584.672C586.96 586.891 583.632 588 578.256 588C574.16 588 571.216 587.275 569.424 585.824C568.059 584.629 567.291 582.795 567.12 580.32C567.12 579.467 567.12 578.229 567.12 576.608V531.68C567.12 529.717 567.163 528.267 567.248 527.328C567.419 526.304 567.803 525.195 568.4 524C569.595 521.696 572.923 520.544 578.384 520.544C583.504 520.544 586.704 521.525 587.984 523.488C588.923 524.853 589.392 526.261 589.392 527.712C589.819 527.115 590.416 526.389 591.184 525.536C592.037 524.683 593.787 523.531 596.432 522.08C599.077 520.629 601.381 519.904 603.344 519.904C605.392 519.904 607.099 520.032 608.464 520.288C609.829 520.459 611.323 520.8 612.944 521.312ZM686.769 546.272C686.769 551.477 685.446 555.36 682.801 557.92C680.241 560.395 677.382 561.632 674.225 561.632H643.889C643.889 564.021 645.297 566.027 648.113 567.648C650.929 569.269 653.745 570.08 656.561 570.08C661.51 570.08 665.393 569.568 668.209 568.544L669.617 568.032C671.665 567.093 673.372 566.624 674.737 566.624C677.468 566.624 679.814 568.544 681.777 572.384C682.886 574.688 683.441 576.651 683.441 578.272C683.441 585.867 674.353 589.664 656.177 589.664C649.862 589.664 644.23 588.597 639.281 586.464C634.417 584.245 630.62 581.344 627.889 577.76C622.513 570.848 619.825 563.125 619.825 554.592C619.825 543.84 623.281 535.264 630.193 528.864C637.19 522.379 645.894 519.136 656.305 519.136C668.166 519.136 676.87 523.317 682.417 531.68C685.318 536.117 686.769 540.981 686.769 546.272ZM659.761 549.984C663.004 549.984 664.625 548.619 664.625 545.888C664.625 543.925 663.857 542.347 662.321 541.152C660.87 539.957 658.737 539.36 655.921 539.36C653.19 539.36 650.46 540.512 647.729 542.816C644.998 545.035 643.633 547.424 643.633 549.984H659.761ZM801.991 495.968C806.172 498.869 808.263 501.685 808.263 504.416C808.263 506.037 807.282 508.299 805.319 511.2L777.671 552.544V576.992C777.671 578.955 777.586 580.448 777.415 581.472C777.33 582.411 776.946 583.52 776.263 584.8C775.58 586.08 774.428 586.976 772.807 587.488C771.186 588 769.01 588.256 766.279 588.256C763.548 588.256 761.372 588 759.751 587.488C758.13 586.976 756.978 586.08 756.295 584.8C755.612 583.435 755.186 582.283 755.015 581.344C754.93 580.32 754.887 578.784 754.887 576.736V552.544L727.239 511.2C725.276 508.299 724.295 506.037 724.295 504.416C724.295 501.685 726.172 499.083 729.927 496.608C733.682 494.048 736.37 492.768 737.991 492.768C739.612 492.768 740.892 493.109 741.831 493.792C743.282 494.731 744.818 496.48 746.439 499.04L766.279 530.784L786.119 499.04C787.74 496.48 789.148 494.816 790.343 494.048C791.538 493.195 792.903 492.768 794.439 492.768C796.06 492.768 798.578 493.835 801.991 495.968ZM859.277 493.024C871.906 493.024 882.872 497.589 892.173 506.72C901.474 515.851 906.125 527.2 906.125 540.768C906.125 554.251 901.688 565.771 892.813 575.328C883.938 584.8 873.016 589.536 860.045 589.536C847.074 589.536 836.024 584.843 826.893 575.456C817.848 566.069 813.325 554.891 813.325 541.92C813.325 534.837 814.605 528.224 817.165 522.08C819.725 515.851 823.138 510.645 827.405 506.464C831.672 502.283 836.578 498.997 842.125 496.608C847.672 494.219 853.389 493.024 859.277 493.024ZM835.981 541.28C835.981 548.875 838.413 555.061 843.277 559.84C848.226 564.533 853.73 566.88 859.789 566.88C865.848 566.88 871.309 564.576 876.173 559.968C881.037 555.36 883.469 549.173 883.469 541.408C883.469 533.643 880.994 527.413 876.045 522.72C871.181 518.027 865.72 515.68 859.661 515.68C853.602 515.68 848.141 518.069 843.277 522.848C838.413 527.541 835.981 533.685 835.981 541.28ZM975.807 497.632C976.66 496.267 977.898 495.328 979.519 494.816C981.14 494.304 983.146 494.048 985.535 494.048C988.01 494.048 989.972 494.261 991.423 494.688C992.874 495.115 993.983 495.627 994.751 496.224C995.519 496.821 996.074 497.717 996.415 498.912C996.927 500.363 997.183 502.581 997.183 505.568V544.224C997.183 555.488 993.684 565.728 986.687 574.944C983.274 579.296 978.879 582.837 973.503 585.568C968.127 588.213 962.154 589.536 955.583 589.536C949.098 589.536 943.167 588.171 937.791 585.44C932.5 582.709 928.191 579.125 924.863 574.688C917.951 565.643 914.495 555.403 914.495 543.968V505.44C914.495 503.392 914.538 501.899 914.623 500.96C914.794 499.936 915.22 498.784 915.903 497.504C916.586 496.224 917.738 495.328 919.359 494.816C920.98 494.304 923.156 494.048 925.887 494.048C928.618 494.048 930.794 494.304 932.415 494.816C934.036 495.328 935.146 496.224 935.743 497.504C936.767 499.467 937.279 502.155 937.279 505.568V543.968C937.279 549.173 938.559 554.123 941.119 558.816C942.399 561.205 944.319 563.125 946.879 564.576C949.439 566.027 952.468 566.752 955.967 566.752C962.196 566.752 966.847 564.448 969.919 559.84C972.991 555.232 974.527 549.899 974.527 543.84V504.672C974.527 501.344 974.954 498.997 975.807 497.632ZM1085.57 521.312C1087.19 521.824 1088.51 522.72 1089.54 524C1090.65 525.195 1091.2 527.157 1091.2 529.888C1091.2 532.619 1090.39 535.605 1088.77 538.848C1087.15 542.091 1084.8 543.712 1081.73 543.712C1080.19 543.712 1078.7 543.371 1077.25 542.688C1075.88 542.005 1074.05 541.664 1071.75 541.664C1069.44 541.664 1067.27 542.475 1065.22 544.096C1063.25 545.717 1062.27 547.68 1062.27 549.984V576.864C1062.27 578.827 1062.19 580.32 1062.02 581.344C1061.93 582.283 1061.55 583.392 1060.87 584.672C1059.59 586.891 1056.26 588 1050.88 588C1046.79 588 1043.84 587.275 1042.05 585.824C1040.68 584.629 1039.92 582.795 1039.75 580.32C1039.75 579.467 1039.75 578.229 1039.75 576.608V531.68C1039.75 529.717 1039.79 528.267 1039.87 527.328C1040.04 526.304 1040.43 525.195 1041.03 524C1042.22 521.696 1045.55 520.544 1051.01 520.544C1056.13 520.544 1059.33 521.525 1060.61 523.488C1061.55 524.853 1062.02 526.261 1062.02 527.712C1062.44 527.115 1063.04 526.389 1063.81 525.536C1064.66 524.683 1066.41 523.531 1069.06 522.08C1071.7 520.629 1074.01 519.904 1075.97 519.904C1078.02 519.904 1079.72 520.032 1081.09 520.288C1082.45 520.459 1083.95 520.8 1085.57 521.312ZM1159.39 546.272C1159.39 551.477 1158.07 555.36 1155.43 557.92C1152.87 560.395 1150.01 561.632 1146.85 561.632H1116.51C1116.51 564.021 1117.92 566.027 1120.74 567.648C1123.55 569.269 1126.37 570.08 1129.19 570.08C1134.14 570.08 1138.02 569.568 1140.83 568.544L1142.24 568.032C1144.29 567.093 1146 566.624 1147.36 566.624C1150.09 566.624 1152.44 568.544 1154.4 572.384C1155.51 574.688 1156.07 576.651 1156.07 578.272C1156.07 585.867 1146.98 589.664 1128.8 589.664C1122.49 589.664 1116.86 588.597 1111.91 586.464C1107.04 584.245 1103.24 581.344 1100.51 577.76C1095.14 570.848 1092.45 563.125 1092.45 554.592C1092.45 543.84 1095.91 535.264 1102.82 528.864C1109.82 522.379 1118.52 519.136 1128.93 519.136C1140.79 519.136 1149.5 523.317 1155.04 531.68C1157.94 536.117 1159.39 540.981 1159.39 546.272ZM1132.39 549.984C1135.63 549.984 1137.25 548.619 1137.25 545.888C1137.25 543.925 1136.48 542.347 1134.95 541.152C1133.5 539.957 1131.36 539.36 1128.55 539.36C1125.82 539.36 1123.08 540.512 1120.35 542.816C1117.62 545.035 1116.26 547.424 1116.26 549.984H1132.39ZM1211.52 527.712C1212.03 522.933 1215.4 520.544 1221.63 520.544C1224.96 520.544 1227.44 520.8 1229.06 521.312C1230.68 521.824 1231.79 522.72 1232.39 524C1233.07 525.28 1233.45 526.432 1233.54 527.456C1233.71 528.395 1233.79 529.845 1233.79 531.808V576.608C1233.79 578.571 1233.71 580.064 1233.54 581.088C1233.45 582.027 1233.11 583.136 1232.51 584.416C1231.32 586.635 1228.37 587.744 1223.68 587.744C1219.07 587.744 1215.96 587.189 1214.34 586.08C1212.8 584.885 1211.91 583.179 1211.65 580.96C1208.49 585.483 1203.2 587.744 1195.78 587.744C1188.44 587.744 1181.61 584.373 1175.3 577.632C1168.98 570.891 1165.83 563.083 1165.83 554.208C1165.83 545.248 1168.98 537.44 1175.3 530.784C1181.7 524.043 1188.69 520.672 1196.29 520.672C1199.19 520.672 1201.84 521.184 1204.23 522.208C1206.61 523.232 1208.28 524.213 1209.22 525.152C1210.16 526.005 1210.92 526.859 1211.52 527.712ZM1188.23 554.336C1188.23 557.152 1189.33 559.712 1191.55 562.016C1193.77 564.235 1196.46 565.344 1199.62 565.344C1202.77 565.344 1205.38 564.192 1207.43 561.888C1209.56 559.584 1210.63 557.067 1210.63 554.336C1210.63 551.52 1209.6 548.917 1207.55 546.528C1205.59 544.139 1202.9 542.944 1199.49 542.944C1196.16 542.944 1193.43 544.139 1191.3 546.528C1189.25 548.917 1188.23 551.52 1188.23 554.336ZM1289.18 492.512C1289.86 491.232 1291.01 490.336 1292.64 489.824C1294.26 489.312 1296.39 489.056 1299.04 489.056C1301.77 489.056 1303.94 489.312 1305.56 489.824C1307.18 490.336 1308.29 491.232 1308.89 492.512C1309.57 493.792 1309.96 494.944 1310.04 495.968C1310.21 496.907 1310.3 498.357 1310.3 500.32V576.736C1310.3 578.699 1310.21 580.192 1310.04 581.216C1309.96 582.155 1309.57 583.221 1308.89 584.416C1307.61 586.72 1303.98 587.872 1298.01 587.872C1292.12 587.872 1288.84 585.781 1288.16 581.6C1284.57 585.696 1279.58 587.744 1273.18 587.744C1265.5 587.744 1258.5 584.416 1252.19 577.76C1245.87 571.019 1242.72 563.211 1242.72 554.336C1242.72 545.376 1245.87 537.525 1252.19 530.784C1258.59 524.043 1265.58 520.672 1273.18 520.672C1279.49 520.672 1284.4 522.805 1287.9 527.072V500.192C1287.9 498.229 1287.94 496.779 1288.03 495.84C1288.2 494.816 1288.58 493.707 1289.18 492.512ZM1268.44 562.016C1270.66 564.32 1273.35 565.472 1276.51 565.472C1279.66 565.472 1282.27 564.32 1284.32 562.016C1286.45 559.712 1287.52 557.195 1287.52 554.464C1287.52 551.648 1286.49 549.045 1284.44 546.656C1282.48 544.267 1279.79 543.072 1276.38 543.072C1272.97 543.072 1270.24 544.267 1268.19 546.656C1266.14 548.96 1265.12 551.52 1265.12 554.336C1265.12 557.152 1266.22 559.712 1268.44 562.016ZM1381.97 521.312C1387 523.531 1389.52 526.219 1389.52 529.376C1389.52 530.912 1389.18 532.363 1388.49 533.728C1387.81 535.093 1387.47 535.819 1387.47 535.904L1353.93 610.912C1353.25 612.533 1352.65 613.771 1352.14 614.624C1351.71 615.477 1350.99 616.288 1349.97 617.056C1348.94 617.824 1347.66 618.208 1346.12 618.208C1344.59 618.208 1342.33 617.568 1339.34 616.288C1334.31 614.069 1331.79 611.424 1331.79 608.352C1331.79 606.304 1335.89 596.533 1344.08 579.04L1318.61 536.16C1316.9 533.344 1316.05 531.253 1316.05 529.888C1316.05 527.157 1318.35 524.427 1322.96 521.696C1325.86 519.989 1328.12 519.136 1329.74 519.136C1331.36 519.136 1332.69 519.477 1333.71 520.16C1334.73 520.843 1335.46 521.568 1335.89 522.336C1336.4 523.019 1338.74 526.987 1342.93 534.24C1347.19 541.408 1351.25 548.107 1355.09 554.336C1355.51 552.971 1357.82 547.723 1362 538.592C1366.18 529.376 1368.4 524.469 1368.65 523.872C1368.99 523.275 1369.51 522.549 1370.19 521.696C1371.3 520.245 1372.83 519.52 1374.8 519.52C1376.85 519.52 1379.23 520.117 1381.97 521.312ZM1413.52 545.12L1413.65 544.096C1413.65 540.427 1414.67 537.525 1416.72 535.392C1418.85 533.259 1421.16 531.851 1423.63 531.168C1426.11 530.485 1428.37 529.333 1430.42 527.712C1432.55 526.091 1433.62 523.915 1433.62 521.184C1433.62 518.368 1432.8 516.192 1431.18 514.656C1429.65 513.12 1427.3 512.352 1424.14 512.352C1420.99 512.352 1418.64 512.864 1417.1 513.888C1415.65 514.827 1414.76 515.808 1414.42 516.832L1414.03 518.368C1413.26 520.587 1412.37 522.293 1411.34 523.488C1410.32 524.597 1409 525.152 1407.38 525.152C1405.75 525.152 1403.62 524.64 1400.98 523.616C1395.86 521.653 1393.3 519.221 1393.3 516.32C1393.3 515.04 1393.55 513.76 1394.06 512.48C1394.58 511.115 1395 510.005 1395.34 509.152C1395.68 508.213 1396.58 506.635 1398.03 504.416C1399.57 502.197 1401.27 500.277 1403.15 498.656C1405.11 496.949 1407.84 495.413 1411.34 494.048C1414.84 492.597 1418.72 491.872 1422.99 491.872C1432.04 491.872 1439.42 494.773 1445.14 500.576C1450.85 506.379 1453.71 513.12 1453.71 520.8C1453.71 524.469 1453.03 527.883 1451.66 531.04C1450.38 534.112 1448.8 536.544 1446.93 538.336C1443.17 541.92 1439.67 544.309 1436.43 545.504L1434.38 546.144C1434.38 547.595 1434.3 548.704 1434.13 549.472C1434.04 550.24 1433.66 551.093 1432.98 552.032C1432.38 552.885 1431.31 553.525 1429.78 553.952C1428.32 554.293 1426.36 554.464 1423.89 554.464C1421.41 554.464 1419.41 554.251 1417.87 553.824C1416.42 553.397 1415.4 552.672 1414.8 551.648C1414.2 550.624 1413.82 549.728 1413.65 548.96C1413.56 548.107 1413.52 546.827 1413.52 545.12ZM1413.01 568.032C1413.69 566.667 1414.88 565.685 1416.59 565.088C1418.38 564.491 1421.16 564.192 1424.91 564.192C1428.67 564.192 1431.35 565.045 1432.98 566.752C1434.68 568.373 1435.54 571.573 1435.54 576.352C1435.54 579.765 1435.11 582.325 1434.26 584.032C1433.4 585.653 1432.08 586.763 1430.29 587.36C1428.58 587.872 1425.89 588.128 1422.22 588.128C1418.55 588.128 1415.74 587.232 1413.78 585.44C1412.32 583.989 1411.6 581.515 1411.6 578.016V575.968C1411.6 574.005 1411.64 572.512 1411.73 571.488C1411.9 570.464 1412.32 569.312 1413.01 568.032Z" fill="#FF74B3"/>
<path d="M835.897 650.046C834.951 650.046 834.084 649.794 833.299 649.291C832.533 648.787 831.859 648.082 831.274 647.176C830.71 646.269 830.227 645.222 829.824 644.033C829.421 642.845 829.119 641.565 828.917 640.196C828.736 638.806 828.646 637.396 828.646 635.965C828.646 634.535 828.736 633.135 828.917 631.765C829.119 630.375 829.411 629.076 829.794 627.867C830.197 626.659 830.68 625.601 831.244 624.695C831.828 623.768 832.513 623.043 833.299 622.519C834.084 621.995 834.961 621.733 835.928 621.733C836.23 621.733 836.492 621.774 836.713 621.854C836.935 621.915 837.106 622.056 837.227 622.277C837.368 622.479 837.438 622.801 837.438 623.244C837.438 623.708 837.378 624.05 837.257 624.272C837.136 624.473 836.965 624.604 836.744 624.664C836.542 624.725 836.31 624.755 836.049 624.755H835.897C835.253 624.755 834.628 625.178 834.024 626.024C833.42 626.87 832.926 628.119 832.543 629.771C832.181 631.403 832 633.447 832 635.905C832 637.557 832.09 639.068 832.271 640.437C832.473 641.787 832.745 642.955 833.087 643.942C833.45 644.929 833.873 645.695 834.356 646.239C834.84 646.783 835.364 647.055 835.928 647.055C836.23 647.055 836.492 647.085 836.713 647.145C836.935 647.206 837.106 647.337 837.227 647.538C837.368 647.76 837.438 648.102 837.438 648.566C837.438 649.029 837.368 649.361 837.227 649.563C837.086 649.784 836.895 649.915 836.653 649.955C836.431 650.016 836.179 650.046 835.897 650.046ZM847.09 645.302C846.102 645.302 845.256 645.201 844.551 645C843.846 644.799 843.272 644.486 842.829 644.063C842.386 643.64 842.053 643.096 841.832 642.432C841.63 641.747 841.53 640.941 841.53 640.014V627.203C841.53 626.84 841.56 626.528 841.62 626.266C841.701 626.004 841.862 625.803 842.104 625.662C842.366 625.5 842.769 625.42 843.312 625.42C843.877 625.42 844.279 625.5 844.521 625.662C844.783 625.823 844.944 626.044 845.005 626.326C845.085 626.588 845.125 626.88 845.125 627.203V639.893C845.125 640.316 845.156 640.659 845.216 640.921C845.297 641.183 845.407 641.384 845.548 641.525C845.71 641.646 845.911 641.737 846.153 641.797C846.415 641.837 846.727 641.858 847.09 641.858C847.472 641.858 847.795 641.888 848.056 641.948C848.338 642.009 848.55 642.16 848.691 642.401C848.832 642.623 848.903 642.996 848.903 643.519C848.903 644.083 848.812 644.496 848.631 644.758C848.469 645 848.248 645.151 847.966 645.212C847.704 645.272 847.412 645.302 847.09 645.302ZM840.291 630.708L843.403 630.738L847.573 630.617C847.915 630.617 848.218 630.657 848.479 630.738C848.761 630.798 848.983 630.959 849.144 631.221C849.305 631.463 849.386 631.866 849.386 632.43C849.386 632.954 849.305 633.347 849.144 633.608C848.983 633.87 848.772 634.042 848.51 634.122C848.248 634.183 847.946 634.213 847.603 634.213L843.554 634.152L840.2 634.183C839.697 634.162 839.344 634.021 839.143 633.76C838.961 633.478 838.871 633.024 838.871 632.4C838.871 631.816 838.981 631.393 839.203 631.131C839.445 630.849 839.807 630.708 840.291 630.708ZM858.588 645.483C857.622 645.483 856.675 645.302 855.748 644.94C854.842 644.557 854.016 644.023 853.27 643.338C852.545 642.653 851.961 641.847 851.518 640.921C851.095 639.994 850.883 638.977 850.883 637.869C850.883 636.801 851.085 635.804 851.488 634.878C851.891 633.951 852.445 633.135 853.15 632.43C853.855 631.725 854.66 631.181 855.567 630.798C856.493 630.395 857.481 630.194 858.528 630.194C859.938 630.194 861.217 630.536 862.366 631.221C863.514 631.886 864.43 632.793 865.115 633.941C865.8 635.089 866.143 636.388 866.143 637.839C866.143 638.987 865.931 640.034 865.508 640.981C865.085 641.908 864.511 642.714 863.786 643.399C863.061 644.063 862.245 644.577 861.338 644.94C860.452 645.302 859.535 645.483 858.588 645.483ZM858.528 641.918C859.193 641.918 859.827 641.757 860.432 641.434C861.056 641.092 861.56 640.609 861.943 639.984C862.345 639.36 862.547 638.624 862.547 637.778C862.547 636.993 862.366 636.298 862.003 635.693C861.66 635.089 861.187 634.616 860.583 634.273C859.978 633.931 859.283 633.76 858.498 633.76C857.753 633.76 857.078 633.941 856.473 634.303C855.869 634.646 855.386 635.129 855.023 635.754C854.681 636.358 854.509 637.043 854.509 637.809C854.509 638.655 854.701 639.39 855.083 640.014C855.466 640.619 855.96 641.092 856.564 641.434C857.188 641.757 857.843 641.918 858.528 641.918ZM877.946 645.302C877.402 645.302 877 645.212 876.738 645.03C876.476 644.869 876.315 644.658 876.254 644.396C876.194 644.114 876.164 643.801 876.164 643.459V632.218C876.164 631.896 876.194 631.604 876.254 631.342C876.335 631.06 876.496 630.839 876.738 630.677C877 630.516 877.412 630.436 877.977 630.436C878.541 630.436 878.943 630.516 879.185 630.677C879.447 630.839 879.608 631.06 879.669 631.342C879.729 631.624 879.759 631.936 879.759 632.279V643.489C879.759 643.832 879.729 644.144 879.669 644.426C879.608 644.688 879.447 644.899 879.185 645.06C878.943 645.222 878.53 645.302 877.946 645.302ZM877.946 627.505C877.362 627.505 876.929 627.424 876.647 627.263C876.385 627.082 876.214 626.84 876.133 626.538C876.073 626.236 876.043 625.903 876.043 625.541C876.043 625.158 876.073 624.826 876.133 624.544C876.214 624.262 876.395 624.04 876.677 623.879C876.959 623.697 877.392 623.607 877.977 623.607C878.581 623.607 879.014 623.697 879.276 623.879C879.538 624.06 879.709 624.302 879.789 624.604C879.87 624.886 879.91 625.218 879.91 625.601C879.91 625.944 879.87 626.266 879.789 626.568C879.709 626.87 879.538 627.102 879.276 627.263C879.014 627.424 878.571 627.505 877.946 627.505ZM884.848 645.272C884.304 645.272 883.901 645.181 883.639 645C883.397 644.839 883.246 644.627 883.186 644.365C883.125 644.083 883.095 643.771 883.095 643.429V632.128C883.095 631.806 883.125 631.513 883.186 631.252C883.246 630.99 883.407 630.788 883.669 630.647C883.931 630.486 884.334 630.406 884.878 630.406C885.361 630.406 885.724 630.466 885.966 630.587C886.207 630.708 886.369 630.859 886.449 631.04C886.53 631.221 886.57 631.403 886.57 631.584C886.59 631.765 886.61 631.906 886.63 632.007L886.51 632.974C886.63 632.652 886.832 632.339 887.114 632.037C887.396 631.735 887.738 631.463 888.141 631.221C888.544 630.959 888.977 630.758 889.441 630.617C889.924 630.456 890.418 630.375 890.921 630.375C891.868 630.375 892.714 630.547 893.459 630.889C894.205 631.231 894.839 631.715 895.363 632.339C895.907 632.964 896.32 633.709 896.602 634.575C896.884 635.421 897.025 636.378 897.025 637.446V643.459C897.025 643.801 896.985 644.114 896.904 644.396C896.844 644.658 896.692 644.869 896.451 645.03C896.209 645.191 895.796 645.272 895.212 645.272C894.648 645.272 894.235 645.181 893.973 645C893.711 644.839 893.55 644.627 893.49 644.365C893.429 644.083 893.399 643.771 893.399 643.429V637.416C893.399 636.691 893.268 636.066 893.006 635.542C892.764 635.019 892.402 634.616 891.918 634.334C891.455 634.052 890.861 633.911 890.136 633.911C889.43 633.911 888.816 634.062 888.292 634.364C887.769 634.646 887.366 635.049 887.084 635.573C886.802 636.096 886.661 636.711 886.661 637.416V643.459C886.661 643.801 886.63 644.114 886.57 644.396C886.51 644.658 886.348 644.869 886.087 645.03C885.845 645.191 885.432 645.272 884.848 645.272ZM905.797 645.363C905.373 645.363 905.021 645.292 904.739 645.151C904.457 645.01 904.235 644.778 904.074 644.456L898.575 632.944C898.273 632.339 898.192 631.856 898.333 631.493C898.474 631.131 898.837 630.808 899.421 630.526C900.025 630.224 900.509 630.123 900.871 630.224C901.234 630.325 901.556 630.698 901.838 631.342L905.797 640.619L909.694 631.524C909.976 630.859 910.299 630.446 910.661 630.285C911.024 630.103 911.548 630.184 912.233 630.526C912.918 630.869 913.28 631.252 913.32 631.675C913.361 632.077 913.25 632.541 912.988 633.065L907.519 644.456C907.358 644.758 907.136 644.98 906.854 645.121C906.572 645.282 906.22 645.363 905.797 645.363ZM921.978 645.483C920.668 645.483 919.52 645.272 918.533 644.849C917.566 644.426 916.75 643.852 916.085 643.127C915.441 642.381 914.947 641.555 914.605 640.649C914.283 639.722 914.121 638.765 914.121 637.778C914.121 636.328 914.454 635.039 915.118 633.911C915.783 632.783 916.7 631.896 917.868 631.252C919.057 630.607 920.416 630.285 921.947 630.285C923.035 630.285 923.992 630.456 924.818 630.798C925.644 631.141 926.329 631.594 926.873 632.158C927.437 632.702 927.86 633.306 928.142 633.971C928.444 634.636 928.595 635.28 928.595 635.905C928.595 636.973 928.333 637.748 927.809 638.232C927.306 638.715 926.671 638.957 925.906 638.957H917.929C917.949 639.642 918.16 640.236 918.563 640.739C918.986 641.243 919.51 641.636 920.134 641.918C920.779 642.18 921.434 642.311 922.098 642.311C922.602 642.311 923.045 642.281 923.428 642.22C923.831 642.16 924.173 642.089 924.455 642.009C924.737 641.908 924.979 641.807 925.181 641.706C925.402 641.606 925.604 641.515 925.785 641.434C925.966 641.354 926.137 641.304 926.299 641.283C926.52 641.263 926.742 641.314 926.963 641.434C927.185 641.555 927.366 641.767 927.507 642.069C927.628 642.27 927.709 642.462 927.749 642.643C927.809 642.804 927.84 642.965 927.84 643.127C927.84 643.529 927.598 643.912 927.114 644.275C926.631 644.617 925.946 644.899 925.06 645.121C924.193 645.363 923.166 645.483 921.978 645.483ZM917.929 636.811H924.123C924.465 636.811 924.727 636.761 924.909 636.66C925.09 636.539 925.181 636.298 925.181 635.935C925.181 635.472 925.04 635.059 924.758 634.696C924.475 634.313 924.093 634.021 923.609 633.82C923.126 633.598 922.562 633.488 921.917 633.488C921.172 633.488 920.497 633.639 919.893 633.941C919.288 634.223 918.805 634.616 918.442 635.119C918.1 635.623 917.929 636.187 917.929 636.811ZM936.242 645.483C935.718 645.483 935.164 645.423 934.58 645.302C933.996 645.201 933.431 645.05 932.888 644.849C932.344 644.627 931.87 644.376 931.467 644.094C931.085 643.791 930.843 643.459 930.742 643.096C930.662 642.895 930.631 642.704 930.652 642.522C930.672 642.321 930.732 642.119 930.833 641.918C930.934 641.696 931.085 641.475 931.286 641.253C931.467 641.032 931.649 640.911 931.83 640.891C932.031 640.85 932.283 640.911 932.585 641.072C932.847 641.173 933.129 641.304 933.431 641.465C933.754 641.626 934.076 641.787 934.398 641.948C934.741 642.109 935.083 642.24 935.426 642.341C935.788 642.442 936.141 642.492 936.483 642.492C937.229 642.492 937.823 642.371 938.266 642.129C938.709 641.868 938.931 641.505 938.931 641.042C938.931 640.78 938.86 640.548 938.719 640.347C938.578 640.145 938.387 639.984 938.145 639.863C937.924 639.722 937.652 639.601 937.329 639.501C937.027 639.38 936.695 639.279 936.332 639.198C935.99 639.098 935.627 638.987 935.244 638.866C934.741 638.725 934.237 638.554 933.734 638.352C933.23 638.151 932.777 637.889 932.374 637.567C931.991 637.244 931.679 636.842 931.437 636.358C931.195 635.875 931.075 635.27 931.075 634.545C931.075 633.639 931.286 632.873 931.709 632.249C932.152 631.604 932.787 631.111 933.613 630.768C934.439 630.426 935.436 630.254 936.604 630.254C937.007 630.254 937.39 630.285 937.752 630.345C938.135 630.406 938.498 630.496 938.84 630.617C939.203 630.718 939.545 630.849 939.868 631.01C940.21 631.171 940.532 631.352 940.834 631.554C941.338 631.836 941.6 632.168 941.62 632.551C941.64 632.913 941.499 633.306 941.197 633.729C940.975 634.011 940.754 634.213 940.532 634.334C940.311 634.434 940.079 634.434 939.837 634.334C939.515 634.172 939.163 634.001 938.78 633.82C938.417 633.619 938.034 633.447 937.632 633.306C937.249 633.165 936.846 633.095 936.423 633.095C936.02 633.095 935.657 633.155 935.335 633.276C935.013 633.397 934.771 633.568 934.61 633.79C934.449 634.011 934.368 634.273 934.368 634.575C934.368 634.857 934.449 635.089 934.61 635.27C934.771 635.452 934.983 635.603 935.244 635.724C935.506 635.844 935.819 635.955 936.181 636.056C936.544 636.137 936.926 636.217 937.329 636.298C937.893 636.419 938.468 636.57 939.052 636.751C939.636 636.932 940.17 637.184 940.653 637.506C941.157 637.829 941.56 638.262 941.862 638.806C942.164 639.329 942.315 640.014 942.315 640.86C942.315 642.331 941.771 643.469 940.683 644.275C939.616 645.081 938.135 645.483 936.242 645.483ZM951.814 645.302C950.827 645.302 949.981 645.201 949.276 645C948.571 644.799 947.997 644.486 947.553 644.063C947.11 643.64 946.778 643.096 946.556 642.432C946.355 641.747 946.254 640.941 946.254 640.014V627.203C946.254 626.84 946.284 626.528 946.345 626.266C946.425 626.004 946.586 625.803 946.828 625.662C947.09 625.5 947.493 625.42 948.037 625.42C948.601 625.42 949.004 625.5 949.245 625.662C949.507 625.823 949.668 626.044 949.729 626.326C949.81 626.588 949.85 626.88 949.85 627.203V639.893C949.85 640.316 949.88 640.659 949.94 640.921C950.021 641.183 950.132 641.384 950.273 641.525C950.434 641.646 950.635 641.737 950.877 641.797C951.139 641.837 951.451 641.858 951.814 641.858C952.197 641.858 952.519 641.888 952.781 641.948C953.063 642.009 953.274 642.16 953.415 642.401C953.556 642.623 953.627 642.996 953.627 643.519C953.627 644.083 953.536 644.496 953.355 644.758C953.194 645 952.972 645.151 952.69 645.212C952.428 645.272 952.136 645.302 951.814 645.302ZM945.015 630.708L948.127 630.738L952.297 630.617C952.64 630.617 952.942 630.657 953.204 630.738C953.486 630.798 953.707 630.959 953.869 631.221C954.03 631.463 954.11 631.866 954.11 632.43C954.11 632.954 954.03 633.347 953.869 633.608C953.707 633.87 953.496 634.042 953.234 634.122C952.972 634.183 952.67 634.213 952.328 634.213L948.279 634.152L944.925 634.183C944.421 634.162 944.068 634.021 943.867 633.76C943.686 633.478 943.595 633.024 943.595 632.4C943.595 631.816 943.706 631.393 943.927 631.131C944.169 630.849 944.532 630.708 945.015 630.708ZM966.427 645.302C965.883 645.302 965.46 645.141 965.157 644.819C964.855 644.496 964.704 644.053 964.704 643.489C964.704 642.925 964.795 642.482 964.976 642.16C965.178 641.817 965.409 641.505 965.671 641.223C965.933 640.941 966.155 640.588 966.336 640.165C966.537 639.742 966.638 639.168 966.638 638.443C966.638 638.302 966.608 638.03 966.547 637.627C966.507 637.224 966.416 636.832 966.275 636.449H964.311C964.029 636.449 963.778 636.419 963.556 636.358C963.355 636.298 963.183 636.157 963.042 635.935C962.921 635.714 962.861 635.371 962.861 634.908C962.861 634.424 962.921 634.082 963.042 633.88C963.183 633.659 963.365 633.518 963.586 633.457C963.828 633.397 964.09 633.367 964.372 633.367H965.611V631.826C965.611 631.08 965.681 630.436 965.822 629.892C965.963 629.328 966.175 628.754 966.457 628.17C966.86 627.344 967.414 626.618 968.119 625.994C968.844 625.369 969.69 624.886 970.657 624.544C971.624 624.181 972.691 624 973.86 624C974.706 624 975.471 624.1 976.156 624.302C976.861 624.483 977.476 624.725 977.999 625.027C978.543 625.309 978.986 625.601 979.329 625.903C979.691 626.185 979.953 626.427 980.115 626.628C980.517 627.092 980.729 627.535 980.749 627.958C980.769 628.381 980.568 628.794 980.145 629.197C979.661 629.62 979.198 629.831 978.755 629.831C978.312 629.831 977.929 629.63 977.607 629.227C977.405 628.985 977.153 628.744 976.851 628.502C976.549 628.24 976.156 628.018 975.673 627.837C975.189 627.636 974.595 627.535 973.89 627.535C972.943 627.535 972.117 627.716 971.412 628.079C970.707 628.421 970.163 628.925 969.781 629.59C969.398 630.234 969.206 631 969.206 631.886V633.367H973.044C973.326 633.367 973.578 633.397 973.799 633.457C974.021 633.518 974.192 633.659 974.313 633.88C974.434 634.082 974.494 634.434 974.494 634.938C974.494 635.381 974.424 635.714 974.283 635.935C974.162 636.157 973.991 636.298 973.769 636.358C973.547 636.419 973.306 636.449 973.044 636.449H969.932C970.032 636.811 970.103 637.194 970.143 637.597C970.183 637.98 970.204 638.282 970.204 638.503C970.204 638.826 970.153 639.188 970.052 639.591C969.972 639.974 969.861 640.357 969.72 640.739C969.579 641.102 969.418 641.424 969.237 641.706H979.48C979.822 641.706 980.125 641.747 980.386 641.827C980.648 641.888 980.86 642.049 981.021 642.311C981.182 642.552 981.263 642.965 981.263 643.55C981.263 644.094 981.182 644.486 981.021 644.728C980.86 644.97 980.638 645.121 980.356 645.181C980.094 645.262 979.792 645.302 979.45 645.302H966.427ZM989.462 645.514C988.696 645.514 988.001 645.443 987.377 645.302C986.772 645.161 986.229 644.98 985.745 644.758C985.282 644.537 984.889 644.325 984.567 644.124C984.244 643.902 983.983 643.711 983.781 643.55C983.539 643.348 983.328 643.157 983.147 642.976C982.985 642.774 982.905 642.542 982.905 642.281C982.905 642.079 982.955 641.878 983.056 641.676C983.177 641.455 983.368 641.203 983.63 640.921C983.852 640.639 984.063 640.437 984.265 640.316C984.486 640.196 984.698 640.135 984.899 640.135C985.08 640.135 985.272 640.186 985.473 640.286C985.695 640.387 985.967 640.568 986.289 640.83C986.45 640.971 986.642 641.122 986.863 641.283C987.105 641.424 987.417 641.555 987.8 641.676C988.183 641.777 988.676 641.827 989.28 641.827C989.965 641.827 990.56 641.696 991.063 641.434C991.567 641.173 991.95 640.8 992.211 640.316C992.493 639.833 992.634 639.249 992.634 638.564C992.634 637.919 992.493 637.355 992.211 636.872C991.929 636.368 991.537 635.975 991.033 635.693C990.55 635.411 989.996 635.27 989.371 635.27C989.069 635.27 988.777 635.311 988.495 635.391C988.213 635.472 987.961 635.573 987.739 635.693C987.538 635.814 987.367 635.945 987.226 636.086C987.065 636.227 986.903 636.348 986.742 636.449C986.601 636.55 986.41 636.61 986.168 636.63C985.947 636.67 985.715 636.67 985.473 636.63C985.252 636.57 984.97 636.469 984.627 636.328C984.184 636.106 983.862 635.905 983.66 635.724C983.459 635.542 983.358 635.311 983.358 635.029L984.597 625.994C984.637 625.752 984.698 625.49 984.778 625.208C984.879 624.906 985.05 624.654 985.292 624.453C985.554 624.231 985.936 624.131 986.44 624.151H993.994C994.316 624.151 994.609 624.191 994.87 624.272C995.132 624.332 995.344 624.493 995.505 624.755C995.666 625.017 995.747 625.44 995.747 626.024C995.747 626.568 995.666 626.961 995.505 627.203C995.364 627.444 995.163 627.595 994.901 627.656C994.659 627.716 994.377 627.746 994.055 627.746H988.072L987.407 632.279C987.608 632.138 987.82 632.027 988.042 631.947C988.263 631.846 988.485 631.775 988.706 631.735C988.948 631.675 989.18 631.644 989.401 631.644H989.613C990.499 631.644 991.345 631.826 992.151 632.188C992.957 632.531 993.672 633.014 994.296 633.639C994.921 634.263 995.414 634.978 995.777 635.784C996.14 636.59 996.321 637.446 996.321 638.352C996.321 639.722 996.019 640.951 995.414 642.039C994.81 643.106 993.994 643.953 992.967 644.577C991.939 645.201 990.771 645.514 989.462 645.514ZM1006.26 645.514C1005.07 645.514 1004.03 645.322 1003.14 644.94C1002.26 644.537 1001.51 643.993 1000.91 643.308C1000.3 642.603 999.82 641.797 999.457 640.891C999.094 639.964 998.832 638.977 998.671 637.929C998.51 636.882 998.43 635.804 998.43 634.696C998.43 633.649 998.51 632.611 998.671 631.584C998.832 630.557 999.084 629.59 999.427 628.683C999.789 627.757 1000.27 626.941 1000.88 626.236C1001.48 625.51 1002.22 624.946 1003.08 624.544C1003.97 624.121 1005.01 623.909 1006.2 623.909C1007.34 623.909 1008.34 624.11 1009.19 624.513C1010.05 624.916 1010.78 625.47 1011.36 626.175C1011.97 626.88 1012.45 627.696 1012.81 628.623C1013.18 629.549 1013.44 630.536 1013.6 631.584C1013.76 632.611 1013.84 633.659 1013.84 634.726C1013.84 635.814 1013.76 636.882 1013.6 637.929C1013.44 638.977 1013.18 639.964 1012.81 640.891C1012.45 641.797 1011.97 642.603 1011.36 643.308C1010.78 643.993 1010.06 644.537 1009.22 644.94C1008.37 645.322 1007.38 645.514 1006.26 645.514ZM1006.1 641.827C1006.93 641.827 1007.6 641.656 1008.1 641.314C1008.6 640.951 1009 640.488 1009.28 639.924C1009.58 639.36 1009.79 638.755 1009.91 638.111C1010.03 637.466 1010.1 636.862 1010.12 636.298C1010.16 635.714 1010.18 635.24 1010.18 634.878V634.696C1010.18 633.185 1010.03 631.896 1009.73 630.829C1009.43 629.761 1008.98 628.955 1008.37 628.411C1007.79 627.847 1007.05 627.565 1006.16 627.565C1005.24 627.565 1004.47 627.847 1003.87 628.411C1003.26 628.955 1002.81 629.761 1002.51 630.829C1002.23 631.876 1002.09 633.175 1002.09 634.726C1002.09 636.237 1002.24 637.526 1002.54 638.594C1002.84 639.642 1003.28 640.447 1003.87 641.011C1004.47 641.555 1005.22 641.827 1006.1 641.827ZM1016.74 648.384C1016.74 648.384 1016.7 648.374 1016.62 648.354C1016.54 648.334 1016.46 648.253 1016.38 648.112C1016.3 647.991 1016.26 647.79 1016.26 647.508C1016.26 647.125 1016.32 646.873 1016.44 646.753C1016.56 646.632 1016.64 646.571 1016.68 646.571C1016.7 646.551 1016.84 646.43 1017.11 646.209C1017.37 646.007 1017.52 645.655 1017.56 645.151C1017.36 645.111 1017.18 645.06 1017.01 645C1016.87 644.919 1016.74 644.819 1016.62 644.698C1016.44 644.517 1016.33 644.285 1016.29 644.003C1016.25 643.701 1016.23 643.409 1016.23 643.127C1016.25 642.804 1016.28 642.492 1016.32 642.19C1016.38 641.888 1016.55 641.636 1016.83 641.434C1017.14 641.233 1017.62 641.132 1018.28 641.132C1019.05 641.132 1019.59 641.293 1019.92 641.616C1020.1 641.797 1020.21 642.039 1020.25 642.341C1020.29 642.623 1020.31 642.905 1020.31 643.187C1020.31 643.328 1020.3 643.469 1020.28 643.61C1020.28 643.751 1020.27 643.882 1020.25 644.003C1020.17 644.809 1019.96 645.544 1019.61 646.209C1019.29 646.873 1018.88 647.397 1018.37 647.78C1017.89 648.183 1017.35 648.384 1016.74 648.384ZM1030.57 645.514C1029.38 645.514 1028.34 645.322 1027.46 644.94C1026.57 644.537 1025.83 643.993 1025.22 643.308C1024.62 642.603 1024.13 641.797 1023.77 640.891C1023.41 639.964 1023.15 638.977 1022.99 637.929C1022.82 636.882 1022.74 635.804 1022.74 634.696C1022.74 633.649 1022.82 632.611 1022.99 631.584C1023.15 630.557 1023.4 629.59 1023.74 628.683C1024.1 627.757 1024.59 626.941 1025.19 626.236C1025.8 625.51 1026.53 624.946 1027.4 624.544C1028.28 624.121 1029.32 623.909 1030.51 623.909C1031.66 623.909 1032.66 624.11 1033.5 624.513C1034.37 624.916 1035.09 625.47 1035.68 626.175C1036.28 626.88 1036.76 627.696 1037.13 628.623C1037.49 629.549 1037.75 630.536 1037.91 631.584C1038.07 632.611 1038.15 633.659 1038.15 634.726C1038.15 635.814 1038.07 636.882 1037.91 637.929C1037.75 638.977 1037.49 639.964 1037.13 640.891C1036.76 641.797 1036.28 642.603 1035.68 643.308C1035.09 643.993 1034.38 644.537 1033.53 644.94C1032.69 645.322 1031.7 645.514 1030.57 645.514ZM1030.42 641.827C1031.25 641.827 1031.91 641.656 1032.41 641.314C1032.92 640.951 1033.31 640.488 1033.59 639.924C1033.89 639.36 1034.11 638.755 1034.23 638.111C1034.35 637.466 1034.42 636.862 1034.44 636.298C1034.48 635.714 1034.5 635.24 1034.5 634.878V634.696C1034.5 633.185 1034.35 631.896 1034.05 630.829C1033.74 629.761 1033.29 628.955 1032.69 628.411C1032.1 627.847 1031.37 627.565 1030.48 627.565C1029.55 627.565 1028.79 627.847 1028.18 628.411C1027.58 628.955 1027.13 629.761 1026.82 630.829C1026.54 631.876 1026.4 633.175 1026.4 634.726C1026.4 636.237 1026.55 637.526 1026.85 638.594C1027.16 639.642 1027.6 640.447 1028.18 641.011C1028.79 641.555 1029.53 641.827 1030.42 641.827ZM1048.1 645.514C1046.91 645.514 1045.87 645.322 1044.99 644.94C1044.1 644.537 1043.35 643.993 1042.75 643.308C1042.15 642.603 1041.66 641.797 1041.3 640.891C1040.94 639.964 1040.68 638.977 1040.51 637.929C1040.35 636.882 1040.27 635.804 1040.27 634.696C1040.27 633.649 1040.35 632.611 1040.51 631.584C1040.68 630.557 1040.93 629.59 1041.27 628.683C1041.63 627.757 1042.12 626.941 1042.72 626.236C1043.32 625.51 1044.06 624.946 1044.93 624.544C1045.81 624.121 1046.85 623.909 1048.04 623.909C1049.19 623.909 1050.18 624.11 1051.03 624.513C1051.9 624.916 1052.62 625.47 1053.2 626.175C1053.81 626.88 1054.29 627.696 1054.66 628.623C1055.02 629.549 1055.28 630.536 1055.44 631.584C1055.6 632.611 1055.68 633.659 1055.68 634.726C1055.68 635.814 1055.6 636.882 1055.44 637.929C1055.28 638.977 1055.02 639.964 1054.66 640.891C1054.29 641.797 1053.81 642.603 1053.2 643.308C1052.62 643.993 1051.91 644.537 1051.06 644.94C1050.21 645.322 1049.23 645.514 1048.1 645.514ZM1047.95 641.827C1048.77 641.827 1049.44 641.656 1049.94 641.314C1050.44 640.951 1050.84 640.488 1051.12 639.924C1051.42 639.36 1051.63 638.755 1051.75 638.111C1051.88 637.466 1051.95 636.862 1051.97 636.298C1052.01 635.714 1052.03 635.24 1052.03 634.878V634.696C1052.03 633.185 1051.88 631.896 1051.57 630.829C1051.27 629.761 1050.82 628.955 1050.21 628.411C1049.63 627.847 1048.89 627.565 1048.01 627.565C1047.08 627.565 1046.32 627.847 1045.71 628.411C1045.11 628.955 1044.65 629.761 1044.35 630.829C1044.07 631.876 1043.93 633.175 1043.93 634.726C1043.93 636.237 1044.08 637.526 1044.38 638.594C1044.68 639.642 1045.13 640.447 1045.71 641.011C1046.32 641.555 1047.06 641.827 1047.95 641.827ZM1065.63 645.514C1064.44 645.514 1063.4 645.322 1062.51 644.94C1061.63 644.537 1060.88 643.993 1060.28 643.308C1059.67 642.603 1059.19 641.797 1058.83 640.891C1058.46 639.964 1058.2 638.977 1058.04 637.929C1057.88 636.882 1057.8 635.804 1057.8 634.696C1057.8 633.649 1057.88 632.611 1058.04 631.584C1058.2 630.557 1058.45 629.59 1058.8 628.683C1059.16 627.757 1059.64 626.941 1060.25 626.236C1060.85 625.51 1061.59 624.946 1062.45 624.544C1063.34 624.121 1064.38 623.909 1065.57 623.909C1066.71 623.909 1067.71 624.11 1068.56 624.513C1069.42 624.916 1070.15 625.47 1070.73 626.175C1071.34 626.88 1071.82 627.696 1072.18 628.623C1072.55 629.549 1072.81 630.536 1072.97 631.584C1073.13 632.611 1073.21 633.659 1073.21 634.726C1073.21 635.814 1073.13 636.882 1072.97 637.929C1072.81 638.977 1072.55 639.964 1072.18 640.891C1071.82 641.797 1071.34 642.603 1070.73 643.308C1070.15 643.993 1069.43 644.537 1068.59 644.94C1067.74 645.322 1066.75 645.514 1065.63 645.514ZM1065.47 641.827C1066.3 641.827 1066.97 641.656 1067.47 641.314C1067.97 640.951 1068.37 640.488 1068.65 639.924C1068.95 639.36 1069.16 638.755 1069.28 638.111C1069.4 637.466 1069.47 636.862 1069.49 636.298C1069.53 635.714 1069.55 635.24 1069.55 634.878V634.696C1069.55 633.185 1069.4 631.896 1069.1 630.829C1068.8 629.761 1068.35 628.955 1067.74 628.411C1067.16 627.847 1066.42 627.565 1065.54 627.565C1064.61 627.565 1063.84 627.847 1063.24 628.411C1062.63 628.955 1062.18 629.761 1061.88 630.829C1061.6 631.876 1061.46 633.175 1061.46 634.726C1061.46 636.237 1061.61 637.526 1061.91 638.594C1062.21 639.642 1062.65 640.447 1063.24 641.011C1063.84 641.555 1064.59 641.827 1065.47 641.827ZM1077.87 638.866C1077.3 638.866 1076.89 638.796 1076.63 638.655C1076.37 638.493 1076.2 638.292 1076.14 638.05C1076.08 637.788 1076.05 637.506 1076.05 637.204V625.813C1076.05 625.51 1076.08 625.228 1076.14 624.967C1076.2 624.705 1076.37 624.503 1076.63 624.362C1076.89 624.201 1077.3 624.121 1077.87 624.121C1078.43 624.121 1078.83 624.201 1079.07 624.362C1079.34 624.503 1079.5 624.705 1079.56 624.967C1079.64 625.228 1079.68 625.51 1079.68 625.813V637.174C1079.68 637.496 1079.64 637.788 1079.56 638.05C1079.5 638.292 1079.34 638.493 1079.07 638.655C1078.83 638.796 1078.43 638.866 1077.87 638.866ZM1077.87 645.302C1077.06 645.302 1076.52 645.151 1076.23 644.849C1075.97 644.547 1075.84 644.023 1075.84 643.278C1075.84 642.915 1075.88 642.583 1075.96 642.281C1076.04 641.958 1076.22 641.706 1076.51 641.525C1076.79 641.344 1077.24 641.253 1077.87 641.253C1078.67 641.253 1079.21 641.404 1079.47 641.706C1079.73 642.009 1079.86 642.532 1079.86 643.278C1079.86 643.64 1079.82 643.983 1079.74 644.305C1079.68 644.607 1079.51 644.849 1079.23 645.03C1078.94 645.212 1078.49 645.302 1077.87 645.302ZM1084.04 650.046C1083.76 650.046 1083.5 650.016 1083.25 649.955C1083.03 649.915 1082.85 649.784 1082.71 649.563C1082.59 649.361 1082.53 649.029 1082.53 648.566C1082.53 648.102 1082.59 647.76 1082.71 647.538C1082.85 647.337 1083.03 647.206 1083.25 647.145C1083.5 647.085 1083.75 647.055 1084.01 647.055C1084.59 647.055 1085.12 646.783 1085.58 646.239C1086.06 645.695 1086.48 644.929 1086.82 643.942C1087.18 642.955 1087.46 641.787 1087.67 640.437C1087.87 639.068 1087.97 637.557 1087.97 635.905C1087.97 633.447 1087.78 631.403 1087.39 629.771C1087.01 628.119 1086.52 626.87 1085.91 626.024C1085.33 625.178 1084.7 624.755 1084.04 624.755H1083.89C1083.65 624.755 1083.41 624.725 1083.19 624.664C1082.99 624.604 1082.83 624.473 1082.71 624.272C1082.59 624.05 1082.53 623.708 1082.53 623.244C1082.53 622.801 1082.59 622.479 1082.71 622.277C1082.85 622.056 1083.03 621.915 1083.25 621.854C1083.5 621.774 1083.75 621.733 1084.01 621.733C1085 621.733 1085.87 621.995 1086.64 622.519C1087.42 623.043 1088.11 623.768 1088.69 624.695C1089.28 625.601 1089.76 626.659 1090.14 627.867C1090.55 629.076 1090.84 630.375 1091.02 631.765C1091.22 633.135 1091.32 634.535 1091.32 635.965C1091.32 637.396 1091.22 638.806 1091.02 640.196C1090.82 641.565 1090.52 642.845 1090.11 644.033C1089.73 645.222 1089.25 646.269 1088.66 647.176C1088.08 648.082 1087.4 648.787 1086.64 649.291C1085.87 649.794 1085.01 650.046 1084.04 650.046Z" fill="#0E0A1D"/>
</g>
<defs>
<clipPath id="clip0_33_747">
<rect width="1920" height="1080" fill="white"/>
</clipPath>
</defs>
</svg>
