<svg width="1920" height="1080" viewBox="0 0 1920 1080" fill="none" xmlns="http://www.w3.org/2000/svg">
<g clip-path="url(#clip0_33_369)">
<rect width="1920" height="1080" fill="white"/>
<path d="M93 25C93 76.3625 51.3625 118 0 118C-51.3625 118 -93 76.3625 -93 25C-93 -26.3625 -51.3625 -68 0 -68C51.3625 -68 93 -26.3625 93 25ZM-61.975 25C-61.975 59.2278 -34.2278 86.975 0 86.975C34.2278 86.975 61.975 59.2278 61.975 25C61.975 -9.22783 34.2278 -36.975 0 -36.975C-34.2278 -36.975 -61.975 -9.22783 -61.975 25Z" fill="#FCBAD0"/>
<circle cx="1676.5" cy="475.5" r="32.5" fill="white"/>
<path d="M670 930.5C670 968.332 639.332 999 601.5 999C563.668 999 533 968.332 533 930.5C533 892.668 563.668 862 601.5 862C639.332 862 670 892.668 670 930.5ZM548 930.5C548 955.711 576.289 984.5 601.5 984.5C626.711 984.5 652.5 955.711 652.5 930.5C652.5 905.289 626.711 878.5 601.5 878.5C576.289 878.5 548 905.289 548 930.5Z" fill="white"/>
<circle cx="1584" cy="52" r="93" fill="#FF74B3"/>
<path d="M643.182 563.424L645.486 561.76C648.387 560.053 650.435 559.2 651.63 559.2C654.275 559.2 657.134 561.589 660.206 566.368C662.083 569.355 663.022 571.744 663.022 573.536C663.022 575.328 662.424 576.821 661.23 578.016C660.12 579.211 658.798 580.277 657.262 581.216C655.726 582.155 654.232 583.051 652.782 583.904C651.416 584.757 648.558 585.867 644.206 587.232C639.854 588.597 635.63 589.28 631.534 589.28C627.523 589.28 623.427 588.768 619.246 587.744C615.15 586.635 610.883 584.843 606.446 582.368C602.094 579.808 598.168 576.736 594.67 573.152C591.171 569.483 588.27 564.832 585.966 559.2C583.747 553.483 582.638 547.296 582.638 540.64C582.638 533.984 583.747 527.968 585.966 522.592C588.184 517.131 591 512.651 594.414 509.152C597.912 505.568 601.88 502.581 606.318 500.192C614.68 495.584 623.086 493.28 631.534 493.28C635.544 493.28 639.598 493.92 643.694 495.2C647.875 496.395 651.032 497.632 653.166 498.912L656.238 500.704C657.774 501.643 658.968 502.411 659.822 503.008C662.04 504.8 663.15 506.848 663.15 509.152C663.15 511.371 662.254 513.717 660.462 516.192C657.134 520.8 654.147 523.104 651.502 523.104C649.966 523.104 647.79 522.165 644.974 520.288C641.39 517.387 636.611 515.936 630.638 515.936C625.091 515.936 619.63 517.856 614.254 521.696C611.694 523.573 609.56 526.219 607.854 529.632C606.147 533.045 605.294 536.928 605.294 541.28C605.294 545.547 606.147 549.387 607.854 552.8C609.56 556.213 611.736 558.901 614.382 560.864C619.587 564.619 625.006 566.496 630.638 566.496C633.283 566.496 635.758 566.155 638.062 565.472C640.451 564.789 642.158 564.107 643.182 563.424ZM669.513 554.336C669.513 544.096 673.097 535.648 680.265 528.992C687.433 522.336 695.625 519.008 704.841 519.008C714.057 519.008 722.206 522.336 729.289 528.992C736.371 535.563 739.913 543.968 739.913 554.208C739.913 561.291 738.078 567.605 734.409 573.152C730.739 578.613 726.259 582.667 720.969 585.312C715.763 587.872 710.345 589.152 704.713 589.152C699.081 589.152 693.619 587.787 688.329 585.056C683.038 582.24 678.558 578.144 674.889 572.768C671.305 567.307 669.513 561.163 669.513 554.336ZM696.265 563.552C698.995 565.6 701.769 566.624 704.585 566.624C707.401 566.624 710.217 565.557 713.033 563.424C715.849 561.291 717.257 558.133 717.257 553.952C717.257 549.771 715.934 546.656 713.289 544.608C710.643 542.56 707.785 541.536 704.713 541.536C701.641 541.536 698.782 542.603 696.137 544.736C693.491 546.869 692.169 550.027 692.169 554.208C692.169 558.304 693.534 561.419 696.265 563.552ZM770.199 529.504C774.209 523.445 779.031 520.416 784.663 520.416C793.367 520.416 799.852 524.128 804.119 531.552C805.057 530.272 806.167 528.949 807.447 527.584C808.812 526.133 810.945 524.597 813.847 522.976C816.748 521.269 819.735 520.416 822.807 520.416C829.633 520.416 835.351 523.061 839.959 528.352C844.567 533.557 846.871 542.219 846.871 554.336V576.736C846.871 578.699 846.785 580.192 846.615 581.216C846.529 582.155 846.145 583.264 845.463 584.544C844.353 586.848 841.068 588 835.607 588C830.231 588 826.945 586.805 825.751 584.416C825.153 583.136 824.769 582.027 824.599 581.088C824.513 580.064 824.471 578.571 824.471 576.608V554.208C824.471 546.784 821.825 543.072 816.535 543.072C813.548 543.072 811.5 544.053 810.391 546.016C809.367 547.979 808.854 550.752 808.854 554.336V576.736C808.854 578.784 808.769 580.277 808.599 581.216C808.513 582.155 808.129 583.264 807.447 584.544C806.252 586.848 802.924 588 797.463 588C792.087 588 788.801 586.805 787.607 584.416C787.009 583.136 786.625 582.027 786.455 581.088C786.369 580.064 786.327 578.571 786.327 576.608V554.208C786.327 546.784 783.681 543.072 778.391 543.072C773.271 543.072 770.711 546.784 770.711 554.208V576.864C770.711 578.827 770.625 580.32 770.455 581.344C770.369 582.283 769.985 583.392 769.303 584.672C768.023 586.891 764.695 588 759.319 588C753.943 588 750.657 586.848 749.463 584.544C748.865 583.264 748.481 582.155 748.311 581.216C748.225 580.277 748.183 578.784 748.183 576.736V531.68C748.183 529.717 748.225 528.267 748.311 527.328C748.481 526.304 748.908 525.195 749.591 524C750.871 521.696 753.9 520.544 758.679 520.544C763.457 520.544 766.572 521.312 768.023 522.848C769.473 524.384 770.199 526.603 770.199 529.504ZM857.058 606.304V531.552C857.058 529.589 857.1 528.139 857.186 527.2C857.356 526.261 857.74 525.195 858.338 524C859.532 521.696 862.391 520.544 866.914 520.544C871.436 520.544 874.466 521.141 876.002 522.336C877.623 523.445 878.562 525.109 878.818 527.328C882.06 522.891 887.138 520.672 894.05 520.672C901.047 520.672 907.66 523.957 913.89 530.528C920.119 537.099 923.234 544.736 923.234 553.44C923.234 562.144 920.119 569.781 913.89 576.352C907.746 582.923 901.175 586.208 894.178 586.208C887.18 586.208 882.103 584.245 878.946 580.32V606.176C878.946 608.139 878.86 609.589 878.69 610.528C878.604 611.467 878.22 612.533 877.538 613.728C876.94 615.008 875.874 615.904 874.338 616.416C872.802 616.928 870.711 617.184 868.066 617.184C865.42 617.184 863.287 616.928 861.666 616.416C860.13 615.904 859.02 615.051 858.338 613.856C857.74 612.661 857.356 611.595 857.186 610.656C857.1 609.717 857.058 608.267 857.058 606.304ZM882.402 546.016C880.439 548.32 879.458 550.837 879.458 553.568C879.458 556.299 880.439 558.816 882.402 561.12C884.45 563.339 887.01 564.448 890.082 564.448C893.239 564.448 895.884 563.339 898.018 561.12C900.236 558.901 901.346 556.384 901.346 553.568C901.346 550.752 900.322 548.235 898.274 546.016C896.226 543.712 893.538 542.56 890.21 542.56C886.967 542.56 884.364 543.712 882.402 546.016ZM996.582 546.272C996.582 551.477 995.259 555.36 992.614 557.92C990.054 560.395 987.195 561.632 984.038 561.632H953.702C953.702 564.021 955.11 566.027 957.926 567.648C960.742 569.269 963.558 570.08 966.374 570.08C971.323 570.08 975.206 569.568 978.022 568.544L979.43 568.032C981.478 567.093 983.184 566.624 984.55 566.624C987.28 566.624 989.627 568.544 991.59 572.384C992.699 574.688 993.254 576.651 993.254 578.272C993.254 585.867 984.166 589.664 965.99 589.664C959.675 589.664 954.043 588.597 949.094 586.464C944.23 584.245 940.432 581.344 937.702 577.76C932.326 570.848 929.638 563.125 929.638 554.592C929.638 543.84 933.094 535.264 940.006 528.864C947.003 522.379 955.707 519.136 966.118 519.136C977.979 519.136 986.683 523.317 992.229 531.68C995.131 536.117 996.582 540.981 996.582 546.272ZM969.574 549.984C972.816 549.984 974.438 548.619 974.438 545.888C974.438 543.925 973.67 542.347 972.134 541.152C970.683 539.957 968.55 539.36 965.734 539.36C963.003 539.36 960.272 540.512 957.542 542.816C954.811 545.035 953.446 547.424 953.446 549.984H969.574ZM1042.85 543.2L1034.53 542.688V560.352C1034.53 562.656 1034.87 564.32 1035.55 565.344C1036.32 566.368 1037.69 566.88 1039.65 566.88C1041.7 566.88 1043.23 566.965 1044.26 567.136C1045.37 567.221 1046.52 567.605 1047.71 568.288C1049.68 569.397 1050.66 572.256 1050.66 576.864C1050.66 582.24 1049.46 585.525 1047.07 586.72C1045.79 587.317 1044.64 587.701 1043.62 587.872C1042.68 587.957 1041.27 588 1039.39 588C1030.52 588 1023.78 585.995 1019.17 581.984C1014.56 577.973 1012.26 571.189 1012.26 561.632V542.688C1010.64 542.944 1008.89 543.072 1007.01 543.072C1005.13 543.072 1003.55 542.347 1002.27 540.896C1001.08 539.445 1000.48 536.971 1000.48 533.472C1000.48 529.973 1000.7 527.456 1001.12 525.92C1001.55 524.299 1002.15 523.147 1002.91 522.464C1004.28 521.355 1005.99 520.8 1008.03 520.8L1012.26 521.312V508.128C1012.26 506.165 1012.3 504.715 1012.39 503.776C1012.56 502.837 1012.98 501.813 1013.67 500.704C1014.78 498.571 1018.06 497.504 1023.52 497.504C1029.33 497.504 1032.78 499.083 1033.89 502.24C1034.32 503.605 1034.53 505.781 1034.53 508.768V521.312C1038.29 520.971 1041.1 520.8 1042.98 520.8C1044.94 520.8 1046.39 520.885 1047.33 521.056C1048.35 521.141 1049.51 521.525 1050.79 522.208C1053.01 523.317 1054.11 526.603 1054.11 532.064C1054.11 537.44 1052.96 540.725 1050.66 541.92C1049.38 542.517 1048.23 542.901 1047.2 543.072C1046.26 543.157 1044.81 543.2 1042.85 543.2ZM1061.18 531.808C1061.18 529.845 1061.23 528.395 1061.31 527.456C1061.48 526.432 1061.87 525.28 1062.46 524C1063.66 521.781 1066.99 520.672 1072.45 520.672C1076.54 520.672 1079.44 521.397 1081.15 522.848C1082.6 524.043 1083.37 525.877 1083.45 528.352C1083.54 529.205 1083.58 530.443 1083.58 532.064V576.864C1083.58 578.827 1083.5 580.32 1083.33 581.344C1083.24 582.283 1082.86 583.392 1082.17 584.672C1081.07 586.891 1077.78 588 1072.32 588C1066.94 588 1063.66 586.848 1062.46 584.544C1061.87 583.264 1061.48 582.155 1061.31 581.216C1061.23 580.277 1061.18 578.784 1061.18 576.736V531.808ZM1082.17 508.128C1081.58 509.323 1080.47 510.176 1078.85 510.688C1077.23 511.2 1075.05 511.456 1072.32 511.456C1069.67 511.456 1067.54 511.2 1065.92 510.688C1064.3 510.176 1063.15 509.28 1062.46 508C1061.87 506.72 1061.48 505.611 1061.31 504.672C1061.23 503.648 1061.18 502.155 1061.18 500.192C1061.18 498.229 1061.23 496.779 1061.31 495.84C1061.48 494.816 1061.87 493.707 1062.46 492.512C1063.66 490.208 1066.99 489.056 1072.45 489.056C1077.82 489.056 1081.07 490.208 1082.17 492.512C1082.86 493.792 1083.24 494.944 1083.33 495.968C1083.5 496.907 1083.58 498.357 1083.58 500.32C1083.58 502.283 1083.5 503.776 1083.33 504.8C1083.24 505.739 1082.86 506.848 1082.17 508.128ZM1132.98 543.2L1124.66 542.688V560.352C1124.66 562.656 1125 564.32 1125.68 565.344C1126.45 566.368 1127.81 566.88 1129.78 566.88C1131.82 566.88 1133.36 566.965 1134.38 567.136C1135.49 567.221 1136.64 567.605 1137.84 568.288C1139.8 569.397 1140.78 572.256 1140.78 576.864C1140.78 582.24 1139.59 585.525 1137.2 586.72C1135.92 587.317 1134.77 587.701 1133.74 587.872C1132.8 587.957 1131.4 588 1129.52 588C1120.64 588 1113.9 585.995 1109.3 581.984C1104.69 577.973 1102.38 571.189 1102.38 561.632V542.688C1100.76 542.944 1099.01 543.072 1097.14 543.072C1095.26 543.072 1093.68 542.347 1092.4 540.896C1091.2 539.445 1090.61 536.971 1090.61 533.472C1090.61 529.973 1090.82 527.456 1091.25 525.92C1091.67 524.299 1092.27 523.147 1093.04 522.464C1094.4 521.355 1096.11 520.8 1098.16 520.8L1102.38 521.312V508.128C1102.38 506.165 1102.43 504.715 1102.51 503.776C1102.68 502.837 1103.11 501.813 1103.79 500.704C1104.9 498.571 1108.19 497.504 1113.65 497.504C1119.45 497.504 1122.91 499.083 1124.02 502.24C1124.44 503.605 1124.66 505.781 1124.66 508.768V521.312C1128.41 520.971 1131.23 520.8 1133.1 520.8C1135.07 520.8 1136.52 520.885 1137.46 521.056C1138.48 521.141 1139.63 521.525 1140.91 522.208C1143.13 523.317 1144.24 526.603 1144.24 532.064C1144.24 537.44 1143.09 540.725 1140.78 541.92C1139.5 542.517 1138.35 542.901 1137.33 543.072C1136.39 543.157 1134.94 543.2 1132.98 543.2ZM1149.39 554.336C1149.39 544.096 1152.97 535.648 1160.14 528.992C1167.31 522.336 1175.5 519.008 1184.72 519.008C1193.93 519.008 1202.08 522.336 1209.16 528.992C1216.25 535.563 1219.79 543.968 1219.79 554.208C1219.79 561.291 1217.95 567.605 1214.28 573.152C1210.61 578.613 1206.13 582.667 1200.84 585.312C1195.64 587.872 1190.22 589.152 1184.59 589.152C1178.96 589.152 1173.49 587.787 1168.2 585.056C1162.91 582.24 1158.43 578.144 1154.76 572.768C1151.18 567.307 1149.39 561.163 1149.39 554.336ZM1176.14 563.552C1178.87 565.6 1181.64 566.624 1184.46 566.624C1187.28 566.624 1190.09 565.557 1192.91 563.424C1195.72 561.291 1197.13 558.133 1197.13 553.952C1197.13 549.771 1195.81 546.656 1193.16 544.608C1190.52 542.56 1187.66 541.536 1184.59 541.536C1181.52 541.536 1178.66 542.603 1176.01 544.736C1173.37 546.869 1172.04 550.027 1172.04 554.208C1172.04 558.304 1173.41 561.419 1176.14 563.552ZM1273.88 521.312C1275.5 521.824 1276.83 522.72 1277.85 524C1278.96 525.195 1279.51 527.157 1279.51 529.888C1279.51 532.619 1278.7 535.605 1277.08 538.848C1275.46 542.091 1273.11 543.712 1270.04 543.712C1268.51 543.712 1267.01 543.371 1265.56 542.688C1264.2 542.005 1262.36 541.664 1260.06 541.664C1257.75 541.664 1255.58 542.475 1253.53 544.096C1251.57 545.717 1250.59 547.68 1250.59 549.984V576.864C1250.59 578.827 1250.5 580.32 1250.33 581.344C1250.24 582.283 1249.86 583.392 1249.18 584.672C1247.9 586.891 1244.57 588 1239.19 588C1235.1 588 1232.15 587.275 1230.36 585.824C1229 584.629 1228.23 582.795 1228.06 580.32C1228.06 579.467 1228.06 578.229 1228.06 576.608V531.68C1228.06 529.717 1228.1 528.267 1228.19 527.328C1228.36 526.304 1228.74 525.195 1229.34 524C1230.53 521.696 1233.86 520.544 1239.32 520.544C1244.44 520.544 1247.64 521.525 1248.92 523.488C1249.86 524.853 1250.33 526.261 1250.33 527.712C1250.76 527.115 1251.35 526.389 1252.12 525.536C1252.97 524.683 1254.72 523.531 1257.37 522.08C1260.01 520.629 1262.32 519.904 1264.28 519.904C1266.33 519.904 1268.04 520.032 1269.4 520.288C1270.77 520.459 1272.26 520.8 1273.88 521.312ZM1284.57 581.984C1282.95 580.96 1282.14 579.339 1282.14 577.12C1282.14 574.901 1283.76 571.531 1287 567.008C1287.94 565.557 1289.43 564.832 1291.48 564.832C1293.61 564.832 1296.47 565.899 1300.06 568.032C1303.64 570.08 1306.88 571.104 1309.79 571.104C1314.99 571.104 1317.59 570.08 1317.59 568.032C1317.59 566.411 1314.73 565.216 1309.02 564.448C1303.64 563.68 1298.31 561.675 1293.02 558.432C1290.54 556.896 1288.49 554.507 1286.87 551.264C1285.25 547.936 1284.44 544.011 1284.44 539.488C1284.44 526.005 1293.7 519.264 1312.22 519.264C1318.28 519.264 1324.51 520.715 1330.91 523.616C1333.89 524.981 1335.39 526.688 1335.39 528.736C1335.39 530.784 1334.45 533.301 1332.57 536.288C1330.69 539.275 1328.77 540.768 1326.81 540.768C1325.79 540.768 1323.87 540.128 1321.05 538.848C1318.32 537.568 1315.33 536.928 1312.09 536.928C1307.05 536.928 1304.54 537.867 1304.54 539.744C1304.54 542.304 1307.44 543.968 1313.24 544.736C1318.87 545.333 1324.33 546.955 1329.63 549.6C1332.1 550.795 1334.15 552.885 1335.77 555.872C1337.48 558.773 1338.33 562.443 1338.33 566.88C1338.33 571.317 1337.48 575.115 1335.77 578.272C1334.15 581.344 1331.84 583.648 1328.86 585.184C1323.4 587.829 1316.53 589.152 1308.25 589.152C1300.06 589.152 1292.16 586.763 1284.57 581.984Z" fill="#FF74B3"/>
<path fill-rule="evenodd" clip-rule="evenodd" d="M2455.18 330.433C2389.87 402.026 2304.8 452.643 2210.72 475.884C2116.63 499.125 2017.78 493.946 1926.64 461.002C1835.5 428.059 1756.18 368.829 1698.71 290.804C1641.23 212.779 1608.18 119.463 1603.74 22.6567C1599.3 -74.15 1623.67 -170.099 1673.76 -253.058C1723.85 -336.017 1797.42 -402.259 1885.15 -443.408C1972.89 -484.556 2070.86 -498.764 2166.68 -484.233C2261.33 -469.878 2349.68 -428.113 2420.83 -364.135L2420.83 -364.144C2421.1 -363.904 2421.36 -363.662 2421.62 -363.419C2422.23 -362.872 2422.83 -362.323 2423.43 -361.772L2423.39 -361.724C2440.29 -345.107 2450.33 -322.684 2451.42 -298.921C2452.57 -273.984 2443.76 -249.613 2426.93 -231.171C2410.11 -212.729 2386.65 -201.726 2361.71 -200.582C2336.77 -199.438 2312.4 -208.247 2293.96 -225.072L2294.44 -225.596C2250.69 -264.582 2196.54 -290.039 2138.56 -298.833C2079.41 -307.802 2018.94 -299.033 1964.78 -273.632C1910.62 -248.231 1865.21 -207.341 1834.29 -156.131C1803.37 -104.922 1788.32 -45.6934 1791.07 14.0643C1793.81 73.8219 1814.21 131.425 1849.68 179.589C1885.16 227.753 1934.13 264.314 1990.39 284.65C2046.64 304.986 2107.67 308.183 2165.74 293.836C2223.82 279.49 2276.33 248.244 2316.65 204.051L2316.11 203.559C2332.94 185.117 2356.4 174.114 2381.33 172.97C2406.27 171.826 2430.64 180.635 2449.08 197.46C2467.53 214.284 2478.53 237.746 2479.67 262.683C2480.82 287.62 2472.01 311.991 2455.18 330.433L2421.42 299.63C2430.07 290.142 2434.61 277.606 2434.02 264.777C2433.43 251.949 2427.77 239.88 2418.28 231.225C2408.79 222.57 2396.26 218.038 2383.43 218.627C2370.6 219.215 2358.53 224.875 2349.88 234.362L2349.9 234.388C2303.59 285.159 2243.26 321.054 2176.54 337.536C2109.82 354.017 2039.71 350.345 1975.08 326.982C1910.45 303.62 1854.2 261.617 1813.44 206.285C1772.68 150.953 1749.25 84.7779 1746.1 16.1268C1742.95 -52.5243 1760.23 -120.567 1795.75 -179.398C1831.27 -238.229 1883.44 -285.205 1945.66 -314.386C2007.88 -343.567 2077.36 -353.642 2145.31 -343.337C2212.69 -333.117 2275.57 -303.308 2326.13 -257.637C2335.44 -249.765 2347.39 -245.678 2359.62 -246.238C2372.44 -246.827 2384.51 -252.487 2393.17 -261.974C2401.82 -271.462 2406.35 -283.998 2405.77 -296.827C2405.23 -308.478 2400.51 -319.503 2392.54 -327.913L2392.13 -327.454C2327.32 -386.574 2246.44 -425.15 2159.71 -438.304C2072.98 -451.457 1984.3 -438.597 1904.88 -401.35C1825.46 -364.102 1758.87 -304.14 1713.53 -229.047C1668.18 -153.953 1646.13 -67.1004 1650.15 20.5282C1654.17 108.157 1684.08 192.626 1736.11 263.253C1788.13 333.881 1859.93 387.495 1942.43 417.315C2024.93 447.136 2114.41 451.823 2199.57 430.786C2284.74 409.748 2361.74 363.93 2420.87 299.125L2455.18 330.433Z" fill="#FEDFEA"/>
<circle cx="1657.57" cy="1414" r="435" fill="#FF74B3"/>
<path d="M1894 836C1894 870.794 1865.79 899 1831 899C1796.21 899 1768 870.794 1768 836C1768 801.206 1796.21 773 1831 773C1865.79 773 1894 801.206 1894 836ZM1789.02 836C1789.02 859.187 1807.81 877.983 1831 877.983C1854.19 877.983 1872.98 859.187 1872.98 836C1872.98 812.813 1854.19 794.017 1831 794.017C1807.81 794.017 1789.02 812.813 1789.02 836Z" fill="#FF74B3"/>
<path fill-rule="evenodd" clip-rule="evenodd" d="M362.184 1562.43C296.871 1634.03 211.795 1684.64 117.715 1707.88C23.6348 1731.13 -75.2245 1725.95 -166.362 1693C-257.499 1660.06 -336.82 1600.83 -394.295 1522.8C-451.77 1444.78 -484.817 1351.46 -489.257 1254.66C-493.698 1157.85 -469.332 1061.9 -419.241 978.942C-369.15 895.983 -295.584 829.741 -207.846 788.592C-120.107 747.444 -22.137 733.236 73.6759 747.767C168.329 762.122 256.676 803.887 327.825 867.865L327.833 867.856C328.097 868.096 328.359 868.338 328.619 868.581C329.225 869.128 329.83 869.677 330.433 870.228L330.389 870.276C347.29 886.893 357.333 909.316 358.423 933.079C359.567 958.016 350.757 982.387 333.933 1000.83C317.108 1019.27 293.647 1030.27 268.71 1031.42C243.772 1032.56 219.402 1023.75 200.96 1006.93L201.438 1006.4C157.693 967.418 103.542 941.961 45.5578 933.167C-13.5864 924.198 -74.0622 932.967 -128.222 958.368C-182.382 983.769 -227.794 1024.66 -258.714 1075.87C-289.635 1127.08 -304.675 1186.31 -301.934 1246.06C-299.193 1305.82 -278.794 1363.42 -243.315 1411.59C-207.837 1459.75 -158.872 1496.31 -102.615 1516.65C-46.3567 1536.99 14.668 1540.18 72.7427 1525.84C130.817 1511.49 183.334 1480.24 223.651 1436.05L223.111 1435.56C239.936 1417.12 263.397 1406.11 288.335 1404.97C313.272 1403.83 337.642 1412.64 356.084 1429.46C374.526 1446.28 385.53 1469.75 386.674 1494.68C387.818 1519.62 379.008 1543.99 362.184 1562.43L328.419 1531.63C337.074 1522.14 341.605 1509.61 341.017 1496.78C340.429 1483.95 334.768 1471.88 325.281 1463.22C315.794 1454.57 303.257 1450.04 290.429 1450.63C277.6 1451.22 265.531 1456.88 256.876 1466.36L256.905 1466.39C210.588 1517.16 150.256 1553.05 83.538 1569.54C16.8204 1586.02 -53.2863 1582.34 -117.917 1558.98C-182.547 1535.62 -238.798 1493.62 -279.557 1438.29C-320.316 1382.95 -343.751 1316.78 -346.9 1248.13C-350.049 1179.48 -332.77 1111.43 -297.248 1052.6C-261.726 993.771 -209.556 946.795 -147.335 917.614C-85.1151 888.433 -15.639 878.358 52.3073 888.663C119.693 898.883 182.572 928.692 233.129 974.363C242.436 982.235 254.393 986.322 266.615 985.762C279.444 985.173 291.513 979.513 300.168 970.026C308.823 960.538 313.355 948.002 312.766 935.173C312.232 923.522 307.513 912.497 299.544 904.087L299.125 904.546C234.32 845.426 153.439 806.85 66.7103 793.696C-20.0187 780.543 -108.7 793.403 -188.121 830.65C-267.541 867.898 -334.132 927.86 -379.474 1002.95C-424.816 1078.05 -446.872 1164.9 -442.852 1252.53C-438.833 1340.16 -408.919 1424.63 -356.893 1495.25C-304.867 1565.88 -233.066 1619.49 -150.57 1649.32C-68.0731 1679.14 21.4135 1683.82 106.574 1662.79C191.735 1641.75 268.745 1595.93 327.865 1531.12L362.184 1562.43Z" fill="#FEDFEA"/>
<path d="M900.205 676.046C899.259 676.046 898.392 675.794 897.607 675.291C896.841 674.787 896.167 674.082 895.582 673.176C895.018 672.269 894.535 671.222 894.132 670.033C893.729 668.845 893.427 667.565 893.225 666.196C893.044 664.806 892.954 663.396 892.954 661.965C892.954 660.535 893.044 659.135 893.225 657.765C893.427 656.375 893.719 655.076 894.102 653.867C894.505 652.659 894.988 651.601 895.552 650.695C896.136 649.768 896.821 649.043 897.607 648.519C898.392 647.995 899.269 647.733 900.236 647.733C900.538 647.733 900.8 647.774 901.021 647.854C901.243 647.915 901.414 648.056 901.535 648.277C901.676 648.479 901.746 648.801 901.746 649.244C901.746 649.708 901.686 650.05 901.565 650.272C901.444 650.473 901.273 650.604 901.052 650.664C900.85 650.725 900.618 650.755 900.357 650.755H900.205C899.561 650.755 898.936 651.178 898.332 652.024C897.728 652.87 897.234 654.119 896.851 655.771C896.489 657.403 896.308 659.447 896.308 661.905C896.308 663.557 896.398 665.068 896.58 666.437C896.781 667.787 897.053 668.955 897.395 669.942C897.758 670.929 898.181 671.695 898.664 672.239C899.148 672.783 899.672 673.055 900.236 673.055C900.538 673.055 900.8 673.085 901.021 673.145C901.243 673.206 901.414 673.337 901.535 673.538C901.676 673.76 901.746 674.102 901.746 674.566C901.746 675.029 901.676 675.361 901.535 675.563C901.394 675.784 901.203 675.915 900.961 675.955C900.739 676.016 900.487 676.046 900.205 676.046ZM909.606 671.483C909.082 671.483 908.528 671.423 907.944 671.302C907.359 671.201 906.795 671.05 906.252 670.849C905.708 670.627 905.234 670.376 904.831 670.094C904.449 669.791 904.207 669.459 904.106 669.096C904.026 668.895 903.995 668.704 904.016 668.522C904.036 668.321 904.096 668.119 904.197 667.918C904.298 667.696 904.449 667.475 904.65 667.253C904.831 667.032 905.013 666.911 905.194 666.891C905.395 666.85 905.647 666.911 905.949 667.072C906.211 667.173 906.493 667.304 906.795 667.465C907.118 667.626 907.44 667.787 907.762 667.948C908.105 668.109 908.447 668.24 908.79 668.341C909.152 668.442 909.505 668.492 909.847 668.492C910.593 668.492 911.187 668.371 911.63 668.129C912.073 667.868 912.295 667.505 912.295 667.042C912.295 666.78 912.224 666.548 912.083 666.347C911.942 666.145 911.751 665.984 911.509 665.863C911.288 665.722 911.016 665.601 910.693 665.501C910.391 665.38 910.059 665.279 909.696 665.198C909.354 665.098 908.991 664.987 908.608 664.866C908.105 664.725 907.601 664.554 907.098 664.352C906.594 664.151 906.141 663.889 905.738 663.567C905.355 663.244 905.043 662.842 904.801 662.358C904.559 661.875 904.439 661.27 904.439 660.545C904.439 659.639 904.65 658.873 905.073 658.249C905.516 657.604 906.151 657.111 906.977 656.768C907.803 656.426 908.8 656.254 909.968 656.254C910.371 656.254 910.754 656.285 911.116 656.345C911.499 656.406 911.862 656.496 912.204 656.617C912.567 656.718 912.909 656.849 913.232 657.01C913.574 657.171 913.896 657.352 914.198 657.554C914.702 657.836 914.964 658.168 914.984 658.551C915.004 658.913 914.863 659.306 914.561 659.729C914.339 660.011 914.118 660.213 913.896 660.334C913.675 660.434 913.443 660.434 913.201 660.334C912.879 660.172 912.526 660.001 912.144 659.82C911.781 659.619 911.398 659.447 910.996 659.306C910.613 659.165 910.21 659.095 909.787 659.095C909.384 659.095 909.021 659.155 908.699 659.276C908.377 659.397 908.135 659.568 907.974 659.79C907.813 660.011 907.732 660.273 907.732 660.575C907.732 660.857 907.813 661.089 907.974 661.27C908.135 661.452 908.347 661.603 908.608 661.724C908.87 661.844 909.183 661.955 909.545 662.056C909.908 662.137 910.29 662.217 910.693 662.298C911.257 662.419 911.832 662.57 912.416 662.751C913 662.932 913.534 663.184 914.017 663.506C914.521 663.829 914.924 664.262 915.226 664.806C915.528 665.329 915.679 666.014 915.679 666.86C915.679 668.331 915.135 669.469 914.047 670.275C912.98 671.081 911.499 671.483 909.606 671.483ZM925.257 671.483C924.29 671.483 923.343 671.302 922.417 670.94C921.51 670.557 920.684 670.023 919.939 669.338C919.214 668.653 918.63 667.847 918.187 666.921C917.763 665.994 917.552 664.977 917.552 663.869C917.552 662.801 917.753 661.804 918.156 660.878C918.559 659.951 919.113 659.135 919.818 658.43C920.523 657.725 921.329 657.181 922.236 656.798C923.162 656.395 924.149 656.194 925.197 656.194C926.607 656.194 927.886 656.536 929.034 657.221C930.182 657.886 931.099 658.793 931.784 659.941C932.469 661.089 932.811 662.388 932.811 663.839C932.811 664.987 932.6 666.034 932.177 666.981C931.754 667.908 931.18 668.714 930.454 669.399C929.729 670.063 928.913 670.577 928.007 670.94C927.12 671.302 926.204 671.483 925.257 671.483ZM925.197 667.918C925.861 667.918 926.496 667.757 927.1 667.434C927.725 667.092 928.228 666.609 928.611 665.984C929.014 665.36 929.215 664.624 929.215 663.778C929.215 662.993 929.034 662.298 928.672 661.693C928.329 661.089 927.856 660.616 927.251 660.273C926.647 659.931 925.952 659.76 925.166 659.76C924.421 659.76 923.746 659.941 923.142 660.303C922.538 660.646 922.054 661.129 921.692 661.754C921.349 662.358 921.178 663.043 921.178 663.809C921.178 664.655 921.369 665.39 921.752 666.014C922.135 666.619 922.628 667.092 923.233 667.434C923.857 667.757 924.512 667.918 925.197 667.918ZM936.969 671.302C936.425 671.302 936.022 671.212 935.76 671.03C935.518 670.869 935.367 670.647 935.307 670.365C935.246 670.083 935.216 669.771 935.216 669.429V658.218C935.216 657.856 935.246 657.544 935.307 657.282C935.367 657 935.518 656.788 935.76 656.647C936.022 656.486 936.435 656.406 936.999 656.406C937.543 656.406 937.936 656.476 938.177 656.617C938.439 656.758 938.6 656.939 938.661 657.161C938.741 657.362 938.782 657.564 938.782 657.765L938.54 658.309C938.641 658.148 938.782 657.957 938.963 657.735C939.144 657.493 939.386 657.262 939.688 657.04C939.99 656.798 940.353 656.607 940.776 656.466C941.199 656.305 941.703 656.224 942.287 656.224C942.529 656.224 942.78 656.254 943.042 656.315C943.324 656.355 943.596 656.426 943.858 656.526C944.14 656.607 944.392 656.718 944.614 656.859C944.835 657 945.006 657.171 945.127 657.372C945.248 657.554 945.309 657.765 945.309 658.007C945.309 658.652 945.147 659.195 944.825 659.639C944.503 660.082 944.12 660.303 943.677 660.303C943.375 660.303 943.153 660.273 943.012 660.213C942.871 660.152 942.75 660.082 942.649 660.001C942.569 659.921 942.438 659.85 942.257 659.79C942.096 659.729 941.834 659.699 941.471 659.699C941.169 659.699 940.857 659.749 940.534 659.85C940.232 659.951 939.95 660.102 939.688 660.303C939.426 660.505 939.215 660.767 939.054 661.089C938.893 661.391 938.812 661.744 938.812 662.147V669.489C938.812 669.832 938.782 670.144 938.721 670.426C938.661 670.688 938.5 670.899 938.238 671.06C937.976 671.222 937.553 671.302 936.969 671.302ZM954.686 671.302C953.699 671.302 952.853 671.201 952.148 671C951.443 670.799 950.869 670.486 950.425 670.063C949.982 669.64 949.65 669.096 949.428 668.432C949.227 667.747 949.126 666.941 949.126 666.014V653.203C949.126 652.84 949.156 652.528 949.217 652.266C949.297 652.004 949.459 651.803 949.7 651.662C949.962 651.5 950.365 651.42 950.909 651.42C951.473 651.42 951.876 651.5 952.118 651.662C952.379 651.823 952.541 652.044 952.601 652.326C952.682 652.588 952.722 652.88 952.722 653.203V665.893C952.722 666.316 952.752 666.659 952.813 666.921C952.893 667.183 953.004 667.384 953.145 667.525C953.306 667.646 953.508 667.737 953.749 667.797C954.011 667.837 954.323 667.858 954.686 667.858C955.069 667.858 955.391 667.888 955.653 667.948C955.935 668.009 956.146 668.16 956.287 668.401C956.428 668.623 956.499 668.996 956.499 669.519C956.499 670.083 956.408 670.496 956.227 670.758C956.066 671 955.844 671.151 955.562 671.212C955.3 671.272 955.008 671.302 954.686 671.302ZM947.887 656.708L951 656.738L955.169 656.617C955.512 656.617 955.814 656.657 956.076 656.738C956.358 656.798 956.58 656.959 956.741 657.221C956.902 657.463 956.982 657.866 956.982 658.43C956.982 658.954 956.902 659.347 956.741 659.608C956.58 659.87 956.368 660.042 956.106 660.122C955.844 660.183 955.542 660.213 955.2 660.213L951.151 660.152L947.797 660.183C947.293 660.162 946.941 660.021 946.739 659.76C946.558 659.478 946.467 659.024 946.467 658.4C946.467 657.816 946.578 657.393 946.799 657.131C947.041 656.849 947.404 656.708 947.887 656.708ZM973.532 671.483C972.566 671.483 971.619 671.302 970.692 670.94C969.786 670.557 968.96 670.023 968.214 669.338C967.489 668.653 966.905 667.847 966.462 666.921C966.039 665.994 965.827 664.977 965.827 663.869C965.827 662.801 966.029 661.804 966.432 660.878C966.834 659.951 967.388 659.135 968.094 658.43C968.799 657.725 969.604 657.181 970.511 656.798C971.437 656.395 972.425 656.194 973.472 656.194C974.882 656.194 976.161 656.536 977.309 657.221C978.458 657.886 979.374 658.793 980.059 659.941C980.744 661.089 981.087 662.388 981.087 663.839C981.087 664.987 980.875 666.034 980.452 666.981C980.029 667.908 979.455 668.714 978.73 669.399C978.004 670.063 977.189 670.577 976.282 670.94C975.396 671.302 974.479 671.483 973.532 671.483ZM973.472 667.918C974.137 667.918 974.771 667.757 975.376 667.434C976 667.092 976.504 666.609 976.886 665.984C977.289 665.36 977.491 664.624 977.491 663.778C977.491 662.993 977.309 662.298 976.947 661.693C976.604 661.089 976.131 660.616 975.527 660.273C974.922 659.931 974.227 659.76 973.442 659.76C972.696 659.76 972.022 659.941 971.417 660.303C970.813 660.646 970.33 661.129 969.967 661.754C969.624 662.358 969.453 663.043 969.453 663.809C969.453 664.655 969.645 665.39 970.027 666.014C970.41 666.619 970.904 667.092 971.508 667.434C972.132 667.757 972.787 667.918 973.472 667.918ZM986.376 671.302C985.832 671.302 985.429 671.222 985.168 671.06C984.926 670.899 984.775 670.678 984.714 670.396C984.654 670.094 984.624 669.781 984.624 669.459V654.774C984.624 654.029 984.724 653.344 984.926 652.719C985.127 652.075 985.45 651.521 985.893 651.057C986.336 650.594 986.91 650.231 987.615 649.969C988.32 649.687 989.176 649.546 990.184 649.546C990.526 649.546 990.828 649.587 991.09 649.667C991.372 649.728 991.594 649.879 991.755 650.121C991.936 650.362 992.027 650.775 992.027 651.359C992.027 651.903 991.936 652.306 991.755 652.568C991.594 652.83 991.372 652.991 991.09 653.052C990.808 653.112 990.496 653.142 990.153 653.142C989.811 653.142 989.509 653.162 989.247 653.203C989.005 653.223 988.804 653.283 988.642 653.384C988.501 653.485 988.391 653.646 988.31 653.867C988.25 654.089 988.219 654.371 988.219 654.713V669.519C988.219 669.842 988.179 670.144 988.099 670.426C988.038 670.688 987.877 670.899 987.615 671.06C987.353 671.222 986.94 671.302 986.376 671.302ZM983.385 656.708L986.497 656.738L990.667 656.617C991.009 656.617 991.312 656.657 991.573 656.738C991.855 656.798 992.077 656.959 992.238 657.221C992.399 657.463 992.48 657.866 992.48 658.43C992.48 658.954 992.399 659.347 992.238 659.608C992.077 659.87 991.866 660.042 991.604 660.122C991.342 660.183 991.04 660.213 990.697 660.213L986.648 660.152L983.294 660.183C982.791 660.162 982.438 660.021 982.237 659.76C982.055 659.478 981.965 659.024 981.965 658.4C981.965 657.816 982.075 657.393 982.297 657.131C982.539 656.849 982.901 656.708 983.385 656.708ZM995.731 676.046C995.449 676.046 995.187 676.016 994.946 675.955C994.724 675.915 994.543 675.784 994.402 675.563C994.281 675.361 994.22 675.029 994.22 674.566C994.22 674.102 994.281 673.76 994.402 673.538C994.543 673.337 994.724 673.206 994.946 673.145C995.187 673.085 995.439 673.055 995.701 673.055C996.285 673.055 996.809 672.783 997.272 672.239C997.756 671.695 998.169 670.929 998.511 669.942C998.874 668.955 999.156 667.787 999.357 666.437C999.559 665.068 999.659 663.557 999.659 661.905C999.659 659.447 999.468 657.403 999.085 655.771C998.703 654.119 998.209 652.87 997.605 652.024C997.021 651.178 996.396 650.755 995.731 650.755H995.58C995.338 650.755 995.107 650.725 994.885 650.664C994.684 650.604 994.523 650.473 994.402 650.272C994.281 650.05 994.22 649.708 994.22 649.244C994.22 648.801 994.281 648.479 994.402 648.277C994.543 648.056 994.724 647.915 994.946 647.854C995.187 647.774 995.439 647.733 995.701 647.733C996.688 647.733 997.564 647.995 998.33 648.519C999.116 649.043 999.8 649.768 1000.38 650.695C1000.97 651.601 1001.45 652.659 1001.83 653.867C1002.24 655.076 1002.53 656.375 1002.71 657.765C1002.91 659.135 1003.01 660.535 1003.01 661.965C1003.01 663.396 1002.91 664.806 1002.71 666.196C1002.51 667.565 1002.21 668.845 1001.8 670.033C1001.42 671.222 1000.94 672.269 1000.35 673.176C999.77 674.082 999.095 674.787 998.33 675.291C997.564 675.794 996.698 676.046 995.731 676.046Z" fill="#0E0A1D"/>
</g>
<defs>
<clipPath id="clip0_33_369">
<rect width="1920" height="1080" fill="white"/>
</clipPath>
</defs>
</svg>
