<svg width="1920" height="1080" viewBox="0 0 1920 1080" fill="none" xmlns="http://www.w3.org/2000/svg">
<g clip-path="url(#clip0_33_392)">
<rect width="1920" height="1080" fill="white"/>
<path d="M93 25C93 76.3625 51.3625 118 0 118C-51.3625 118 -93 76.3625 -93 25C-93 -26.3625 -51.3625 -68 0 -68C51.3625 -68 93 -26.3625 93 25ZM-61.975 25C-61.975 59.2278 -34.2278 86.975 0 86.975C34.2278 86.975 61.975 59.2278 61.975 25C61.975 -9.22783 34.2278 -36.975 0 -36.975C-34.2278 -36.975 -61.975 -9.22783 -61.975 25Z" fill="#FCBAD0"/>
<circle cx="1676.5" cy="475.5" r="32.5" fill="white"/>
<path d="M670 930.5C670 968.332 639.332 999 601.5 999C563.668 999 533 968.332 533 930.5C533 892.668 563.668 862 601.5 862C639.332 862 670 892.668 670 930.5ZM548 930.5C548 955.711 576.289 984.5 601.5 984.5C626.711 984.5 652.5 955.711 652.5 930.5C652.5 905.289 626.711 878.5 601.5 878.5C576.289 878.5 548 905.289 548 930.5Z" fill="white"/>
<circle cx="1584" cy="52" r="93" fill="#FF74B3"/>
<path d="M755.999 537.696C761.033 543.669 763.551 550.368 763.551 557.792C763.38 566.325 760.436 573.493 754.719 579.296C749.087 585.013 742.217 587.872 734.111 587.872H700.447C694.473 587.872 690.975 586.251 689.951 583.008C689.439 581.557 689.183 579.339 689.183 576.352V505.312C689.183 503.264 689.225 501.771 689.311 500.832C689.481 499.893 689.908 498.784 690.591 497.504C691.785 495.2 695.113 494.048 700.575 494.048H732.831C740.681 494.048 747.252 496.779 752.543 502.24C758.089 507.787 760.863 514.443 760.863 522.208C760.863 527.84 759.241 533.003 755.999 537.696ZM740.895 556.512C740.895 554.464 740.639 552.843 740.127 551.648C739.7 550.453 738.932 549.6 737.823 549.088C736.116 548.405 733.727 548.064 730.655 548.064C727.583 548.064 725.279 547.467 723.743 546.272C722.207 545.077 721.439 542.645 721.439 538.976C721.439 535.221 722.207 532.747 723.743 531.552C725.364 530.357 728.009 529.76 731.679 529.76C735.092 529.76 737.14 528.864 737.823 527.072C738.079 526.133 738.207 524.597 738.207 522.464C738.207 520.331 737.481 518.837 736.031 517.984C734.665 517.131 732.575 516.704 729.759 516.704H711.839V565.216H732.831C738.207 565.216 740.895 562.315 740.895 556.512ZM817.757 521.312C819.378 521.824 820.701 522.72 821.725 524C822.834 525.195 823.389 527.157 823.389 529.888C823.389 532.619 822.578 535.605 820.957 538.848C819.335 542.091 816.989 543.712 813.917 543.712C812.381 543.712 810.887 543.371 809.437 542.688C808.071 542.005 806.237 541.664 803.933 541.664C801.629 541.664 799.453 542.475 797.405 544.096C795.442 545.717 794.461 547.68 794.461 549.984V576.864C794.461 578.827 794.375 580.32 794.205 581.344C794.119 582.283 793.735 583.392 793.053 584.672C791.773 586.891 788.445 588 783.069 588C778.973 588 776.029 587.275 774.237 585.824C772.871 584.629 772.103 582.795 771.933 580.32C771.933 579.467 771.933 578.229 771.933 576.608V531.68C771.933 529.717 771.975 528.267 772.061 527.328C772.231 526.304 772.615 525.195 773.213 524C774.407 521.696 777.735 520.544 783.197 520.544C788.317 520.544 791.517 521.525 792.797 523.488C793.735 524.853 794.205 526.261 794.205 527.712C794.631 527.115 795.229 526.389 795.997 525.536C796.85 524.683 798.599 523.531 801.245 522.08C803.89 520.629 806.194 519.904 808.157 519.904C810.205 519.904 811.911 520.032 813.277 520.288C814.642 520.459 816.135 520.8 817.757 521.312ZM870.334 527.712C870.846 522.933 874.216 520.544 880.446 520.544C883.774 520.544 886.248 520.8 887.87 521.312C889.491 521.824 890.6 522.72 891.198 524C891.88 525.28 892.264 526.432 892.35 527.456C892.52 528.395 892.606 529.845 892.606 531.808V576.608C892.606 578.571 892.52 580.064 892.35 581.088C892.264 582.027 891.923 583.136 891.326 584.416C890.131 586.635 887.187 587.744 882.494 587.744C877.886 587.744 874.771 587.189 873.15 586.08C871.614 584.885 870.718 583.179 870.462 580.96C867.304 585.483 862.014 587.744 854.59 587.744C847.251 587.744 840.424 584.373 834.11 577.632C827.795 570.891 824.638 563.083 824.638 554.208C824.638 545.248 827.795 537.44 834.11 530.784C840.51 524.043 847.507 520.672 855.102 520.672C858.003 520.672 860.648 521.184 863.038 522.208C865.427 523.232 867.091 524.213 868.03 525.152C868.968 526.005 869.736 526.859 870.334 527.712ZM847.038 554.336C847.038 557.152 848.147 559.712 850.366 562.016C852.584 564.235 855.272 565.344 858.43 565.344C861.587 565.344 864.19 564.192 866.238 561.888C868.371 559.584 869.438 557.067 869.438 554.336C869.438 551.52 868.414 548.917 866.366 546.528C864.403 544.139 861.715 542.944 858.302 542.944C854.974 542.944 852.243 544.139 850.11 546.528C848.062 548.917 847.038 551.52 847.038 554.336ZM940.312 520.544C948.845 520.544 955.928 523.829 961.56 530.4C967.277 536.885 970.136 544.821 970.136 554.208V576.736C970.136 578.699 970.05 580.192 969.88 581.216C969.794 582.155 969.453 583.221 968.856 584.416C967.661 586.72 964.333 587.872 958.872 587.872C952.813 587.872 949.314 586.293 948.376 583.136C947.864 581.685 947.608 579.509 947.608 576.608V554.08C947.608 550.581 946.584 547.851 944.536 545.888C942.573 543.925 939.885 542.944 936.472 542.944C933.144 542.944 930.413 543.968 928.28 546.016C926.232 548.064 925.208 550.752 925.208 554.08V576.736C925.208 578.699 925.122 580.192 924.952 581.216C924.866 582.155 924.482 583.221 923.8 584.416C922.69 586.72 919.405 587.872 913.944 587.872C908.568 587.872 905.282 586.72 904.088 584.416C903.49 583.136 903.106 582.027 902.936 581.088C902.85 580.064 902.808 578.571 902.808 576.608V531.296C902.808 529.419 902.85 528.011 902.936 527.072C903.106 526.048 903.533 524.939 904.216 523.744C905.41 521.611 908.696 520.544 914.072 520.544C919.277 520.544 922.477 521.525 923.672 523.488C924.525 524.939 924.952 526.688 924.952 528.736C925.293 528.139 926.061 527.285 927.256 526.176C928.45 525.067 929.602 524.171 930.712 523.488C933.613 521.525 936.813 520.544 940.312 520.544ZM1025.62 492.512C1026.3 491.232 1027.45 490.336 1029.07 489.824C1030.69 489.312 1032.83 489.056 1035.47 489.056C1038.2 489.056 1040.38 489.312 1042 489.824C1043.62 490.336 1044.73 491.232 1045.33 492.512C1046.01 493.792 1046.4 494.944 1046.48 495.968C1046.65 496.907 1046.74 498.357 1046.74 500.32V576.736C1046.74 578.699 1046.65 580.192 1046.48 581.216C1046.4 582.155 1046.01 583.221 1045.33 584.416C1044.05 586.72 1040.42 587.872 1034.45 587.872C1028.56 587.872 1025.28 585.781 1024.59 581.6C1021.01 585.696 1016.02 587.744 1009.62 587.744C1001.94 587.744 994.939 584.416 988.625 577.76C982.31 571.019 979.153 563.211 979.153 554.336C979.153 545.376 982.31 537.525 988.625 530.784C995.025 524.043 1002.02 520.672 1009.62 520.672C1015.93 520.672 1020.84 522.805 1024.34 527.072V500.192C1024.34 498.229 1024.38 496.779 1024.46 495.84C1024.64 494.816 1025.02 493.707 1025.62 492.512ZM1004.88 562.016C1007.1 564.32 1009.79 565.472 1012.94 565.472C1016.1 565.472 1018.7 564.32 1020.75 562.016C1022.89 559.712 1023.95 557.195 1023.95 554.464C1023.95 551.648 1022.93 549.045 1020.88 546.656C1018.92 544.267 1016.23 543.072 1012.82 543.072C1009.4 543.072 1006.67 544.267 1004.62 546.656C1002.58 548.96 1001.55 551.52 1001.55 554.336C1001.55 557.152 1002.66 559.712 1004.88 562.016ZM1056.93 531.808C1056.93 529.845 1056.98 528.395 1057.06 527.456C1057.23 526.432 1057.62 525.28 1058.21 524C1059.41 521.781 1062.74 520.672 1068.2 520.672C1072.29 520.672 1075.19 521.397 1076.9 522.848C1078.35 524.043 1079.12 525.877 1079.2 528.352C1079.29 529.205 1079.33 530.443 1079.33 532.064V576.864C1079.33 578.827 1079.25 580.32 1079.08 581.344C1078.99 582.283 1078.61 583.392 1077.92 584.672C1076.82 586.891 1073.53 588 1068.07 588C1062.69 588 1059.41 586.848 1058.21 584.544C1057.62 583.264 1057.23 582.155 1057.06 581.216C1056.98 580.277 1056.93 578.784 1056.93 576.736V531.808ZM1077.92 508.128C1077.33 509.323 1076.22 510.176 1074.6 510.688C1072.98 511.2 1070.8 511.456 1068.07 511.456C1065.42 511.456 1063.29 511.2 1061.67 510.688C1060.05 510.176 1058.9 509.28 1058.21 508C1057.62 506.72 1057.23 505.611 1057.06 504.672C1056.98 503.648 1056.93 502.155 1056.93 500.192C1056.93 498.229 1056.98 496.779 1057.06 495.84C1057.23 494.816 1057.62 493.707 1058.21 492.512C1059.41 490.208 1062.74 489.056 1068.2 489.056C1073.57 489.056 1076.82 490.208 1077.92 492.512C1078.61 493.792 1078.99 494.944 1079.08 495.968C1079.25 496.907 1079.33 498.357 1079.33 500.32C1079.33 502.283 1079.25 503.776 1079.08 504.8C1078.99 505.739 1078.61 506.848 1077.92 508.128ZM1127.06 520.544C1135.59 520.544 1142.68 523.829 1148.31 530.4C1154.03 536.885 1156.89 544.821 1156.89 554.208V576.736C1156.89 578.699 1156.8 580.192 1156.63 581.216C1156.54 582.155 1156.2 583.221 1155.61 584.416C1154.41 586.72 1151.08 587.872 1145.62 587.872C1139.56 587.872 1136.06 586.293 1135.13 583.136C1134.61 581.685 1134.36 579.509 1134.36 576.608V554.08C1134.36 550.581 1133.33 547.851 1131.29 545.888C1129.32 543.925 1126.63 542.944 1123.22 542.944C1119.89 542.944 1117.16 543.968 1115.03 546.016C1112.98 548.064 1111.96 550.752 1111.96 554.08V576.736C1111.96 578.699 1111.87 580.192 1111.7 581.216C1111.62 582.155 1111.23 583.221 1110.55 584.416C1109.44 586.72 1106.15 587.872 1100.69 587.872C1095.32 587.872 1092.03 586.72 1090.84 584.416C1090.24 583.136 1089.86 582.027 1089.69 581.088C1089.6 580.064 1089.56 578.571 1089.56 576.608V531.296C1089.56 529.419 1089.6 528.011 1089.69 527.072C1089.86 526.048 1090.28 524.939 1090.97 523.744C1092.16 521.611 1095.45 520.544 1100.82 520.544C1106.03 520.544 1109.23 521.525 1110.42 523.488C1111.27 524.939 1111.7 526.688 1111.7 528.736C1112.04 528.139 1112.81 527.285 1114.01 526.176C1115.2 525.067 1116.35 524.171 1117.46 523.488C1120.36 521.525 1123.56 520.544 1127.06 520.544ZM1209.93 579.552C1206.69 583.819 1201.53 585.952 1194.45 585.952C1187.36 585.952 1180.71 582.709 1174.48 576.224C1168.33 569.653 1165.26 562.016 1165.26 553.312C1165.26 544.608 1168.38 536.971 1174.61 530.4C1180.84 523.829 1187.66 520.544 1195.09 520.544C1197.99 520.544 1200.63 521.099 1203.02 522.208C1205.41 523.232 1207.03 524.213 1207.89 525.152C1208.83 526.005 1209.55 526.816 1210.06 527.584C1210.32 525.195 1211.17 523.403 1212.62 522.208C1214.16 520.928 1216.59 520.288 1219.92 520.288C1223.25 520.288 1225.68 520.544 1227.21 521.056C1228.75 521.568 1229.82 522.464 1230.41 523.744C1231.1 524.939 1231.48 526.005 1231.57 526.944C1231.74 527.883 1231.82 529.333 1231.82 531.296V584.288C1231.82 594.101 1228.41 601.995 1221.58 607.968C1214.76 614.027 1207.08 617.056 1198.54 617.056C1192.06 617.056 1185.87 615.477 1179.98 612.32C1174.09 609.163 1171.15 606.304 1171.15 603.744C1171.15 600.416 1172.43 597.472 1174.99 594.912C1176.61 593.12 1177.85 591.883 1178.7 591.2C1179.64 590.517 1180.71 590.176 1181.9 590.176C1183.1 590.176 1184.33 590.688 1185.61 591.712C1189.71 594.869 1194.15 596.448 1198.93 596.448C1202.17 596.448 1204.81 595.168 1206.86 592.608C1208.91 590.048 1209.93 586.976 1209.93 583.392V579.552ZM1187.15 553.44C1187.15 556.171 1188.22 558.645 1190.35 560.864C1192.57 563.083 1195.21 564.192 1198.29 564.192C1201.44 564.192 1204.05 563.083 1206.09 560.864C1208.14 558.56 1209.17 556.085 1209.17 553.44C1209.17 550.709 1208.19 548.192 1206.22 545.888C1204.26 543.499 1201.61 542.304 1198.29 542.304C1194.96 542.304 1192.27 543.456 1190.22 545.76C1188.17 548.064 1187.15 550.624 1187.15 553.44Z" fill="#FF74B3"/>
<path fill-rule="evenodd" clip-rule="evenodd" d="M2455.18 330.433C2389.87 402.026 2304.8 452.643 2210.72 475.884C2116.63 499.125 2017.78 493.946 1926.64 461.002C1835.5 428.059 1756.18 368.829 1698.71 290.804C1641.23 212.779 1608.18 119.463 1603.74 22.6567C1599.3 -74.15 1623.67 -170.099 1673.76 -253.058C1723.85 -336.017 1797.42 -402.259 1885.15 -443.408C1972.89 -484.556 2070.86 -498.764 2166.68 -484.233C2261.33 -469.878 2349.68 -428.113 2420.83 -364.135L2420.83 -364.144C2421.1 -363.904 2421.36 -363.662 2421.62 -363.419C2422.23 -362.872 2422.83 -362.323 2423.43 -361.772L2423.39 -361.724C2440.29 -345.107 2450.33 -322.684 2451.42 -298.921C2452.57 -273.984 2443.76 -249.613 2426.93 -231.171C2410.11 -212.729 2386.65 -201.726 2361.71 -200.582C2336.77 -199.438 2312.4 -208.247 2293.96 -225.072L2294.44 -225.596C2250.69 -264.582 2196.54 -290.039 2138.56 -298.833C2079.41 -307.802 2018.94 -299.033 1964.78 -273.632C1910.62 -248.231 1865.21 -207.341 1834.29 -156.131C1803.37 -104.922 1788.32 -45.6934 1791.07 14.0643C1793.81 73.8219 1814.21 131.425 1849.68 179.589C1885.16 227.753 1934.13 264.314 1990.39 284.65C2046.64 304.986 2107.67 308.183 2165.74 293.836C2223.82 279.49 2276.33 248.244 2316.65 204.051L2316.11 203.559C2332.94 185.117 2356.4 174.114 2381.33 172.97C2406.27 171.826 2430.64 180.635 2449.08 197.46C2467.53 214.284 2478.53 237.746 2479.67 262.683C2480.82 287.62 2472.01 311.991 2455.18 330.433L2421.42 299.63C2430.07 290.142 2434.61 277.606 2434.02 264.777C2433.43 251.949 2427.77 239.88 2418.28 231.225C2408.79 222.57 2396.26 218.038 2383.43 218.627C2370.6 219.215 2358.53 224.875 2349.88 234.362L2349.9 234.388C2303.59 285.159 2243.26 321.054 2176.54 337.536C2109.82 354.017 2039.71 350.345 1975.08 326.982C1910.45 303.62 1854.2 261.617 1813.44 206.285C1772.68 150.953 1749.25 84.7779 1746.1 16.1268C1742.95 -52.5243 1760.23 -120.567 1795.75 -179.398C1831.27 -238.229 1883.44 -285.205 1945.66 -314.386C2007.88 -343.567 2077.36 -353.642 2145.31 -343.337C2212.69 -333.117 2275.57 -303.308 2326.13 -257.637C2335.44 -249.765 2347.39 -245.678 2359.62 -246.238C2372.44 -246.827 2384.51 -252.487 2393.17 -261.974C2401.82 -271.462 2406.35 -283.998 2405.77 -296.827C2405.23 -308.478 2400.51 -319.503 2392.54 -327.913L2392.13 -327.454C2327.32 -386.574 2246.44 -425.15 2159.71 -438.304C2072.98 -451.457 1984.3 -438.597 1904.88 -401.35C1825.46 -364.102 1758.87 -304.14 1713.53 -229.047C1668.18 -153.953 1646.13 -67.1004 1650.15 20.5282C1654.17 108.157 1684.08 192.626 1736.11 263.253C1788.13 333.881 1859.93 387.495 1942.43 417.315C2024.93 447.136 2114.41 451.823 2199.57 430.786C2284.74 409.748 2361.74 363.93 2420.87 299.125L2455.18 330.433Z" fill="#FEDFEA"/>
<circle cx="1657.57" cy="1414" r="435" fill="#FF74B3"/>
<path d="M1894 836C1894 870.794 1865.79 899 1831 899C1796.21 899 1768 870.794 1768 836C1768 801.206 1796.21 773 1831 773C1865.79 773 1894 801.206 1894 836ZM1789.02 836C1789.02 859.187 1807.81 877.983 1831 877.983C1854.19 877.983 1872.98 859.187 1872.98 836C1872.98 812.813 1854.19 794.017 1831 794.017C1807.81 794.017 1789.02 812.813 1789.02 836Z" fill="#FF74B3"/>
<path fill-rule="evenodd" clip-rule="evenodd" d="M362.184 1562.43C296.871 1634.03 211.795 1684.64 117.715 1707.88C23.6348 1731.13 -75.2245 1725.95 -166.362 1693C-257.499 1660.06 -336.82 1600.83 -394.295 1522.8C-451.77 1444.78 -484.817 1351.46 -489.257 1254.66C-493.698 1157.85 -469.332 1061.9 -419.241 978.942C-369.15 895.983 -295.584 829.741 -207.846 788.592C-120.107 747.444 -22.137 733.236 73.6759 747.767C168.329 762.122 256.676 803.887 327.825 867.865L327.833 867.856C328.097 868.096 328.359 868.338 328.619 868.581C329.225 869.128 329.83 869.677 330.433 870.228L330.389 870.276C347.29 886.893 357.333 909.316 358.423 933.079C359.567 958.016 350.757 982.387 333.933 1000.83C317.108 1019.27 293.647 1030.27 268.71 1031.42C243.772 1032.56 219.402 1023.75 200.96 1006.93L201.438 1006.4C157.693 967.418 103.542 941.961 45.5578 933.167C-13.5864 924.198 -74.0622 932.967 -128.222 958.368C-182.382 983.769 -227.794 1024.66 -258.714 1075.87C-289.635 1127.08 -304.675 1186.31 -301.934 1246.06C-299.193 1305.82 -278.794 1363.42 -243.315 1411.59C-207.837 1459.75 -158.872 1496.31 -102.615 1516.65C-46.3567 1536.99 14.668 1540.18 72.7427 1525.84C130.817 1511.49 183.334 1480.24 223.651 1436.05L223.111 1435.56C239.936 1417.12 263.397 1406.11 288.335 1404.97C313.272 1403.83 337.642 1412.64 356.084 1429.46C374.526 1446.28 385.53 1469.75 386.674 1494.68C387.818 1519.62 379.008 1543.99 362.184 1562.43L328.419 1531.63C337.074 1522.14 341.605 1509.61 341.017 1496.78C340.429 1483.95 334.768 1471.88 325.281 1463.22C315.794 1454.57 303.257 1450.04 290.429 1450.63C277.6 1451.22 265.531 1456.88 256.876 1466.36L256.905 1466.39C210.588 1517.16 150.256 1553.05 83.538 1569.54C16.8204 1586.02 -53.2863 1582.34 -117.917 1558.98C-182.547 1535.62 -238.798 1493.62 -279.557 1438.29C-320.316 1382.95 -343.751 1316.78 -346.9 1248.13C-350.049 1179.48 -332.77 1111.43 -297.248 1052.6C-261.726 993.771 -209.556 946.795 -147.335 917.614C-85.1151 888.433 -15.639 878.358 52.3073 888.663C119.693 898.883 182.572 928.692 233.129 974.363C242.436 982.235 254.393 986.322 266.615 985.762C279.444 985.173 291.513 979.513 300.168 970.026C308.823 960.538 313.355 948.002 312.766 935.173C312.232 923.522 307.513 912.497 299.544 904.087L299.125 904.546C234.32 845.426 153.439 806.85 66.7103 793.696C-20.0187 780.543 -108.7 793.403 -188.121 830.65C-267.541 867.898 -334.132 927.86 -379.474 1002.95C-424.816 1078.05 -446.872 1164.9 -442.852 1252.53C-438.833 1340.16 -408.919 1424.63 -356.893 1495.25C-304.867 1565.88 -233.066 1619.49 -150.57 1649.32C-68.0731 1679.14 21.4135 1683.82 106.574 1662.79C191.735 1641.75 268.745 1595.93 327.865 1531.12L362.184 1562.43Z" fill="#FEDFEA"/>
<path d="M843.793 676.046C842.846 676.046 841.98 675.794 841.194 675.291C840.428 674.787 839.754 674.082 839.169 673.176C838.605 672.269 838.122 671.222 837.719 670.033C837.316 668.845 837.014 667.565 836.813 666.196C836.631 664.806 836.541 663.396 836.541 661.965C836.541 660.535 836.631 659.135 836.813 657.765C837.014 656.375 837.306 655.076 837.689 653.867C838.092 652.659 838.575 651.601 839.139 650.695C839.723 649.768 840.408 649.043 841.194 648.519C841.98 647.995 842.856 647.733 843.823 647.733C844.125 647.733 844.387 647.774 844.608 647.854C844.83 647.915 845.001 648.056 845.122 648.277C845.263 648.479 845.334 648.801 845.334 649.244C845.334 649.708 845.273 650.05 845.152 650.272C845.031 650.473 844.86 650.604 844.639 650.664C844.437 650.725 844.205 650.755 843.944 650.755H843.793C843.148 650.755 842.523 651.178 841.919 652.024C841.315 652.87 840.821 654.119 840.439 655.771C840.076 657.403 839.895 659.447 839.895 661.905C839.895 663.557 839.985 665.068 840.167 666.437C840.368 667.787 840.64 668.955 840.982 669.942C841.345 670.929 841.768 671.695 842.251 672.239C842.735 672.783 843.259 673.055 843.823 673.055C844.125 673.055 844.387 673.085 844.608 673.145C844.83 673.206 845.001 673.337 845.122 673.538C845.263 673.76 845.334 674.102 845.334 674.566C845.334 675.029 845.263 675.361 845.122 675.563C844.981 675.784 844.79 675.915 844.548 675.955C844.326 676.016 844.075 676.046 843.793 676.046ZM866.74 668.734C866.942 669.117 867.042 669.459 867.042 669.761C867.062 670.043 866.982 670.295 866.801 670.517C866.619 670.718 866.317 670.929 865.894 671.151C865.249 671.453 864.746 671.534 864.383 671.393C864.041 671.252 863.719 670.859 863.416 670.214L856.678 655.982L849.97 670.214C849.668 670.839 849.336 671.212 848.973 671.332C848.61 671.473 848.107 671.403 847.462 671.121C847.059 670.919 846.757 670.708 846.556 670.486C846.374 670.265 846.294 670.003 846.314 669.701C846.354 669.378 846.485 668.996 846.707 668.552L855.016 651.239C855.177 650.916 855.409 650.664 855.711 650.483C856.034 650.282 856.366 650.181 856.708 650.181C856.95 650.181 857.172 650.221 857.373 650.302C857.575 650.382 857.756 650.503 857.917 650.664C858.098 650.826 858.249 651.027 858.37 651.269L866.74 668.734ZM851.3 665.803L852.75 662.691H860.636L862.087 665.803H851.3ZM870.7 671.302C870.156 671.302 869.753 671.212 869.491 671.03C869.25 670.869 869.099 670.647 869.038 670.365C868.978 670.083 868.948 669.771 868.948 669.429V658.218C868.948 657.856 868.978 657.544 869.038 657.282C869.099 657 869.25 656.788 869.491 656.647C869.753 656.486 870.166 656.406 870.73 656.406C871.274 656.406 871.667 656.476 871.909 656.617C872.171 656.758 872.332 656.939 872.392 657.161C872.473 657.362 872.513 657.564 872.513 657.765L872.271 658.309C872.372 658.148 872.513 657.957 872.694 657.735C872.876 657.493 873.117 657.262 873.42 657.04C873.722 656.798 874.084 656.607 874.507 656.466C874.93 656.305 875.434 656.224 876.018 656.224C876.26 656.224 876.512 656.254 876.774 656.315C877.056 656.355 877.328 656.426 877.589 656.526C877.871 656.607 878.123 656.718 878.345 656.859C878.566 657 878.738 657.171 878.859 657.372C878.979 657.554 879.04 657.765 879.04 658.007C879.04 658.652 878.879 659.195 878.556 659.639C878.234 660.082 877.851 660.303 877.408 660.303C877.106 660.303 876.884 660.273 876.743 660.213C876.602 660.152 876.482 660.082 876.381 660.001C876.3 659.921 876.169 659.85 875.988 659.79C875.827 659.729 875.565 659.699 875.202 659.699C874.9 659.699 874.588 659.749 874.266 659.85C873.964 659.951 873.681 660.102 873.42 660.303C873.158 660.505 872.946 660.767 872.785 661.089C872.624 661.391 872.543 661.744 872.543 662.147V669.489C872.543 669.832 872.513 670.144 872.453 670.426C872.392 670.688 872.231 670.899 871.969 671.06C871.707 671.222 871.284 671.302 870.7 671.302ZM887.735 671.483C886.426 671.483 885.277 671.272 884.29 670.849C883.323 670.426 882.508 669.852 881.843 669.127C881.198 668.381 880.705 667.555 880.362 666.649C880.04 665.722 879.879 664.765 879.879 663.778C879.879 662.328 880.211 661.039 880.876 659.911C881.541 658.783 882.457 657.896 883.626 657.252C884.814 656.607 886.174 656.285 887.705 656.285C888.793 656.285 889.749 656.456 890.575 656.798C891.401 657.141 892.086 657.594 892.63 658.158C893.194 658.702 893.617 659.306 893.899 659.971C894.201 660.636 894.352 661.28 894.352 661.905C894.352 662.973 894.091 663.748 893.567 664.232C893.063 664.715 892.429 664.957 891.663 664.957H883.686C883.706 665.642 883.918 666.236 884.321 666.739C884.744 667.243 885.267 667.636 885.892 667.918C886.536 668.18 887.191 668.311 887.856 668.311C888.36 668.311 888.803 668.281 889.185 668.22C889.588 668.16 889.931 668.089 890.213 668.009C890.495 667.908 890.737 667.807 890.938 667.706C891.16 667.606 891.361 667.515 891.542 667.434C891.724 667.354 891.895 667.304 892.056 667.283C892.278 667.263 892.499 667.314 892.721 667.434C892.942 667.555 893.124 667.767 893.265 668.069C893.386 668.27 893.466 668.462 893.506 668.643C893.567 668.804 893.597 668.965 893.597 669.127C893.597 669.529 893.355 669.912 892.872 670.275C892.388 670.617 891.703 670.899 890.817 671.121C889.951 671.363 888.924 671.483 887.735 671.483ZM883.686 662.811H889.88C890.223 662.811 890.485 662.761 890.666 662.66C890.847 662.539 890.938 662.298 890.938 661.935C890.938 661.472 890.797 661.059 890.515 660.696C890.233 660.313 889.85 660.021 889.367 659.82C888.883 659.598 888.319 659.488 887.675 659.488C886.929 659.488 886.254 659.639 885.65 659.941C885.046 660.223 884.562 660.616 884.2 661.119C883.857 661.623 883.686 662.187 883.686 662.811ZM920.463 650.392C921.047 650.795 921.369 651.178 921.43 651.541C921.49 651.903 921.349 652.326 921.007 652.81L914.268 662.993V669.489C914.268 669.832 914.228 670.144 914.147 670.426C914.087 670.688 913.926 670.899 913.664 671.06C913.402 671.242 912.989 671.332 912.425 671.332C911.841 671.332 911.418 671.242 911.156 671.06C910.914 670.899 910.753 670.678 910.673 670.396C910.612 670.114 910.582 669.791 910.582 669.429V662.993L903.813 652.84C903.451 652.336 903.31 651.903 903.39 651.541C903.491 651.178 903.824 650.805 904.388 650.423C904.79 650.141 905.133 649.969 905.415 649.909C905.717 649.849 905.989 649.899 906.231 650.06C906.472 650.221 906.704 650.483 906.926 650.846L912.365 659.457L917.894 650.846C918.136 650.483 918.368 650.231 918.589 650.09C918.831 649.929 919.103 649.879 919.405 649.939C919.707 649.98 920.06 650.131 920.463 650.392ZM933.175 671.544C931.724 671.544 930.364 671.272 929.095 670.728C927.846 670.164 926.738 669.399 925.772 668.432C924.805 667.445 924.049 666.316 923.505 665.047C922.961 663.758 922.689 662.378 922.689 660.908C922.689 659.397 922.951 657.987 923.475 656.677C924.019 655.348 924.754 654.19 925.681 653.203C926.628 652.195 927.715 651.41 928.944 650.846C930.173 650.282 931.492 650 932.903 650C934.373 650 935.733 650.282 936.982 650.846C938.251 651.39 939.359 652.155 940.306 653.142C941.252 654.129 941.998 655.277 942.542 656.587C943.085 657.876 943.357 659.276 943.357 660.787C943.357 662.257 943.096 663.647 942.572 664.957C942.048 666.246 941.313 667.394 940.366 668.401C939.419 669.388 938.331 670.164 937.103 670.728C935.894 671.272 934.585 671.544 933.175 671.544ZM933.023 667.858C933.95 667.858 934.816 667.676 935.622 667.314C936.428 666.951 937.133 666.447 937.737 665.803C938.362 665.158 938.845 664.413 939.188 663.567C939.53 662.701 939.701 661.774 939.701 660.787C939.701 659.8 939.52 658.883 939.157 658.037C938.815 657.171 938.331 656.416 937.707 655.771C937.103 655.106 936.398 654.593 935.592 654.23C934.806 653.867 933.95 653.686 933.023 653.686C932.117 653.686 931.261 653.867 930.455 654.23C929.649 654.593 928.934 655.106 928.31 655.771C927.705 656.416 927.232 657.171 926.89 658.037C926.547 658.903 926.376 659.82 926.376 660.787C926.376 661.754 926.547 662.67 926.89 663.537C927.252 664.403 927.736 665.158 928.34 665.803C928.944 666.447 929.639 666.951 930.425 667.314C931.231 667.676 932.097 667.858 933.023 667.858ZM954.554 671.453C953.144 671.453 951.885 671.201 950.777 670.698C949.689 670.174 948.772 669.459 948.027 668.552C947.282 667.626 946.718 666.578 946.335 665.41C945.952 664.221 945.761 662.962 945.761 661.633V651.994C945.761 651.651 945.791 651.349 945.851 651.087C945.932 650.805 946.093 650.584 946.335 650.423C946.597 650.241 947.02 650.151 947.604 650.151C948.188 650.151 948.601 650.241 948.843 650.423C949.105 650.584 949.266 650.805 949.326 651.087C949.407 651.349 949.447 651.662 949.447 652.024V661.633C949.447 662.741 949.628 663.768 949.991 664.715C950.374 665.642 950.948 666.387 951.713 666.951C952.479 667.515 953.456 667.797 954.644 667.797C955.712 667.797 956.629 667.545 957.394 667.042C958.16 666.538 958.744 665.823 959.147 664.896C959.57 663.97 959.781 662.872 959.781 661.603V651.843C959.781 651.521 959.811 651.239 959.872 650.997C959.952 650.755 960.124 650.554 960.385 650.392C960.647 650.231 961.06 650.151 961.624 650.151C962.209 650.151 962.621 650.241 962.863 650.423C963.125 650.584 963.286 650.805 963.347 651.087C963.407 651.369 963.437 651.682 963.437 652.024V661.693C963.437 663.023 963.246 664.282 962.863 665.47C962.48 666.639 961.906 667.676 961.141 668.583C960.375 669.469 959.439 670.174 958.331 670.698C957.243 671.201 955.984 671.453 954.554 671.453ZM976.044 671.302C975.5 671.302 975.097 671.212 974.835 671.03C974.594 670.869 974.443 670.647 974.382 670.365C974.322 670.083 974.292 669.771 974.292 669.429V658.218C974.292 657.856 974.322 657.544 974.382 657.282C974.443 657 974.594 656.788 974.835 656.647C975.097 656.486 975.51 656.406 976.074 656.406C976.618 656.406 977.011 656.476 977.253 656.617C977.515 656.758 977.676 656.939 977.736 657.161C977.817 657.362 977.857 657.564 977.857 657.765L977.615 658.309C977.716 658.148 977.857 657.957 978.038 657.735C978.22 657.493 978.461 657.262 978.764 657.04C979.066 656.798 979.428 656.607 979.851 656.466C980.274 656.305 980.778 656.224 981.362 656.224C981.604 656.224 981.856 656.254 982.118 656.315C982.4 656.355 982.672 656.426 982.933 656.526C983.215 656.607 983.467 656.718 983.689 656.859C983.91 657 984.082 657.171 984.203 657.372C984.323 657.554 984.384 657.765 984.384 658.007C984.384 658.652 984.223 659.195 983.9 659.639C983.578 660.082 983.195 660.303 982.752 660.303C982.45 660.303 982.228 660.273 982.087 660.213C981.946 660.152 981.826 660.082 981.725 660.001C981.644 659.921 981.513 659.85 981.332 659.79C981.171 659.729 980.909 659.699 980.546 659.699C980.244 659.699 979.932 659.749 979.61 659.85C979.307 659.951 979.025 660.102 978.764 660.303C978.502 660.505 978.29 660.767 978.129 661.089C977.968 661.391 977.887 661.744 977.887 662.147V669.489C977.887 669.832 977.857 670.144 977.797 670.426C977.736 670.688 977.575 670.899 977.313 671.06C977.051 671.222 976.628 671.302 976.044 671.302ZM993.079 671.483C991.77 671.483 990.621 671.272 989.634 670.849C988.667 670.426 987.852 669.852 987.187 669.127C986.542 668.381 986.049 667.555 985.706 666.649C985.384 665.722 985.223 664.765 985.223 663.778C985.223 662.328 985.555 661.039 986.22 659.911C986.885 658.783 987.801 657.896 988.97 657.252C990.158 656.607 991.518 656.285 993.049 656.285C994.137 656.285 995.093 656.456 995.919 656.798C996.745 657.141 997.43 657.594 997.974 658.158C998.538 658.702 998.961 659.306 999.243 659.971C999.545 660.636 999.696 661.28 999.696 661.905C999.696 662.973 999.435 663.748 998.911 664.232C998.407 664.715 997.773 664.957 997.007 664.957H989.03C989.05 665.642 989.262 666.236 989.665 666.739C990.088 667.243 990.611 667.636 991.236 667.918C991.88 668.18 992.535 668.311 993.2 668.311C993.704 668.311 994.147 668.281 994.529 668.22C994.932 668.16 995.275 668.089 995.557 668.009C995.839 667.908 996.081 667.807 996.282 667.706C996.504 667.606 996.705 667.515 996.886 667.434C997.068 667.354 997.239 667.304 997.4 667.283C997.622 667.263 997.843 667.314 998.065 667.434C998.286 667.555 998.468 667.767 998.609 668.069C998.73 668.27 998.81 668.462 998.85 668.643C998.911 668.804 998.941 668.965 998.941 669.127C998.941 669.529 998.699 669.912 998.216 670.275C997.732 670.617 997.047 670.899 996.161 671.121C995.295 671.363 994.268 671.483 993.079 671.483ZM989.03 662.811H995.224C995.567 662.811 995.829 662.761 996.01 662.66C996.191 662.539 996.282 662.298 996.282 661.935C996.282 661.472 996.141 661.059 995.859 660.696C995.577 660.313 995.194 660.021 994.711 659.82C994.227 659.598 993.663 659.488 993.019 659.488C992.273 659.488 991.598 659.639 990.994 659.941C990.39 660.223 989.906 660.616 989.544 661.119C989.201 661.623 989.03 662.187 989.03 662.811ZM1014.56 671.242C1013.98 671.242 1013.55 671.131 1013.27 670.909C1012.98 670.688 1012.84 670.386 1012.84 670.003L1013.05 669.006C1012.89 669.268 1012.62 669.58 1012.24 669.942C1011.86 670.285 1011.35 670.597 1010.73 670.879C1010.1 671.141 1009.35 671.272 1008.46 671.272C1007.51 671.272 1006.62 671.081 1005.77 670.698C1004.95 670.295 1004.21 669.751 1003.57 669.066C1002.94 668.361 1002.44 667.565 1002.06 666.679C1001.69 665.773 1001.51 664.806 1001.51 663.778C1001.51 662.791 1001.69 661.865 1002.06 660.998C1002.44 660.112 1002.95 659.326 1003.6 658.642C1004.24 657.957 1004.98 657.423 1005.8 657.04C1006.65 656.637 1007.53 656.436 1008.46 656.436C1009.29 656.436 1009.98 656.547 1010.55 656.768C1011.13 656.99 1011.62 657.272 1012.03 657.614C1012.43 657.936 1012.76 658.279 1013.02 658.642L1012.84 657.765C1012.84 657.322 1012.98 656.99 1013.27 656.768C1013.55 656.526 1013.99 656.406 1014.59 656.406C1015.16 656.406 1015.56 656.496 1015.8 656.677C1016.05 656.839 1016.2 657.07 1016.26 657.372C1016.32 657.654 1016.35 657.977 1016.35 658.339V669.399C1016.35 669.741 1016.32 670.053 1016.26 670.335C1016.2 670.617 1016.04 670.839 1015.77 671C1015.53 671.161 1015.13 671.242 1014.56 671.242ZM1009 667.737C1009.69 667.737 1010.3 667.565 1010.85 667.223C1011.39 666.881 1011.83 666.417 1012.15 665.833C1012.49 665.229 1012.66 664.564 1012.66 663.839C1012.66 663.053 1012.49 662.368 1012.15 661.784C1011.8 661.2 1011.35 660.747 1010.79 660.424C1010.24 660.082 1009.63 659.911 1008.94 659.911C1008.2 659.911 1007.53 660.092 1006.95 660.455C1006.37 660.797 1005.9 661.27 1005.56 661.875C1005.24 662.459 1005.08 663.124 1005.08 663.869C1005.08 664.594 1005.25 665.249 1005.59 665.833C1005.93 666.417 1006.4 666.881 1006.98 667.223C1007.58 667.565 1008.26 667.737 1009 667.737ZM1025.79 671.272C1024.86 671.272 1023.98 671.081 1023.16 670.698C1022.33 670.315 1021.61 669.791 1020.98 669.127C1020.36 668.442 1019.86 667.646 1019.5 666.739C1019.14 665.813 1018.96 664.826 1018.96 663.778C1018.96 662.771 1019.14 661.824 1019.5 660.938C1019.86 660.031 1020.36 659.246 1020.98 658.581C1021.63 657.896 1022.36 657.362 1023.19 656.98C1024.01 656.597 1024.88 656.406 1025.79 656.406C1026.75 656.406 1027.62 656.597 1028.38 656.98C1029.15 657.362 1029.79 657.896 1030.32 658.581C1030.86 659.246 1031.27 660.031 1031.56 660.938C1031.84 661.824 1031.99 662.781 1032.01 663.809C1032.01 664.836 1031.87 665.803 1031.59 666.709C1031.32 667.596 1030.92 668.381 1030.38 669.066C1029.85 669.751 1029.2 670.295 1028.41 670.698C1027.65 671.081 1026.77 671.272 1025.79 671.272ZM1026.27 667.737C1026.97 667.737 1027.6 667.575 1028.14 667.253C1028.71 666.911 1029.15 666.447 1029.47 665.863C1029.81 665.279 1029.99 664.614 1029.99 663.869C1029.99 663.103 1029.81 662.429 1029.47 661.844C1029.15 661.26 1028.71 660.797 1028.14 660.455C1027.6 660.112 1026.97 659.941 1026.27 659.941C1025.56 659.941 1024.93 660.112 1024.36 660.455C1023.8 660.777 1023.35 661.24 1023.01 661.844C1022.68 662.429 1022.52 663.103 1022.52 663.869C1022.52 664.614 1022.68 665.279 1023.01 665.863C1023.35 666.447 1023.8 666.911 1024.36 667.253C1024.95 667.575 1025.58 667.737 1026.27 667.737ZM1031.86 671.272C1031.29 671.272 1030.88 671.181 1030.62 671C1030.36 670.799 1030.19 670.486 1030.11 670.063V651.45C1030.11 651.108 1030.13 650.805 1030.17 650.544C1030.23 650.262 1030.38 650.04 1030.62 649.879C1030.88 649.697 1031.28 649.607 1031.83 649.607C1032.41 649.607 1032.83 649.687 1033.07 649.849C1033.31 650.01 1033.46 650.231 1033.52 650.513C1033.6 650.775 1033.64 651.077 1033.64 651.42V669.429C1033.64 669.771 1033.61 670.083 1033.55 670.365C1033.49 670.647 1033.33 670.869 1033.07 671.03C1032.83 671.191 1032.42 671.272 1031.86 671.272ZM1039.59 677.255C1038.95 676.973 1038.57 676.65 1038.47 676.288C1038.37 675.945 1038.46 675.482 1038.75 674.898L1046.54 657.433C1046.82 656.788 1047.13 656.406 1047.45 656.285C1047.77 656.144 1048.26 656.214 1048.93 656.496C1049.55 656.778 1049.92 657.09 1050.02 657.433C1050.14 657.775 1050.07 658.239 1049.8 658.823L1041.95 676.379C1041.69 677.023 1041.39 677.396 1041.07 677.497C1040.75 677.617 1040.26 677.537 1039.59 677.255ZM1042.4 669.852L1035.42 659.125C1035.06 658.581 1034.91 658.128 1034.97 657.765C1035.05 657.403 1035.37 657.05 1035.94 656.708C1036.56 656.325 1037.04 656.174 1037.39 656.254C1037.75 656.335 1038.11 656.657 1038.47 657.221L1044 665.833L1042.4 669.852ZM1058.05 664.896C1057.53 664.896 1057.15 664.826 1056.9 664.685C1056.66 664.544 1056.51 664.352 1056.45 664.111C1056.41 663.849 1056.39 663.567 1056.39 663.265V661.301C1056.39 660.817 1056.5 660.434 1056.72 660.152C1056.94 659.87 1057.23 659.639 1057.57 659.457C1057.93 659.256 1058.3 659.075 1058.69 658.913C1059.09 658.732 1059.46 658.531 1059.81 658.309C1060.17 658.067 1060.46 657.755 1060.68 657.372C1060.9 656.99 1061.01 656.486 1061.01 655.862C1061.01 654.935 1060.75 654.23 1060.23 653.746C1059.72 653.243 1058.95 652.991 1057.9 652.991C1057.42 652.991 1056.99 653.072 1056.6 653.233C1056.22 653.374 1055.9 653.575 1055.64 653.837C1055.39 654.079 1055.21 654.371 1055.09 654.713C1054.97 655.096 1054.82 655.388 1054.64 655.59C1054.48 655.791 1054.27 655.912 1054 655.952C1053.76 655.993 1053.42 655.942 1052.98 655.801C1052.55 655.62 1052.24 655.449 1052.04 655.288C1051.84 655.126 1051.72 654.925 1051.68 654.683C1051.66 654.441 1051.71 654.129 1051.83 653.746C1051.89 653.485 1052.01 653.182 1052.19 652.84C1052.37 652.498 1052.61 652.145 1052.92 651.782C1053.24 651.4 1053.63 651.057 1054.09 650.755C1054.58 650.433 1055.13 650.181 1055.76 650C1056.38 649.798 1057.1 649.697 1057.9 649.697C1059.19 649.697 1060.32 649.959 1061.29 650.483C1062.25 650.987 1063 651.702 1063.52 652.628C1064.07 653.535 1064.34 654.593 1064.34 655.801C1064.34 656.526 1064.24 657.181 1064.04 657.765C1063.83 658.349 1063.55 658.863 1063.19 659.306C1062.85 659.749 1062.46 660.132 1062.04 660.455C1061.62 660.777 1061.2 661.039 1060.77 661.24C1060.35 661.442 1059.96 661.593 1059.59 661.693L1059.78 661.361V663.385C1059.78 663.668 1059.75 663.929 1059.68 664.171C1059.62 664.393 1059.47 664.574 1059.23 664.715C1058.99 664.836 1058.6 664.896 1058.05 664.896ZM1058.02 671.302C1057.2 671.302 1056.65 671.141 1056.39 670.819C1056.13 670.496 1056 669.973 1056 669.247C1056 668.945 1056.03 668.643 1056.09 668.341C1056.15 668.019 1056.32 667.757 1056.6 667.555C1056.88 667.334 1057.37 667.223 1058.05 667.223C1058.9 667.223 1059.44 667.384 1059.68 667.706C1059.95 668.029 1060.08 668.552 1060.08 669.278C1060.08 669.6 1060.05 669.922 1059.99 670.245C1059.95 670.547 1059.78 670.799 1059.47 671C1059.19 671.201 1058.71 671.302 1058.02 671.302ZM1068.97 664.866C1068.41 664.866 1067.99 664.796 1067.73 664.655C1067.47 664.493 1067.31 664.292 1067.25 664.05C1067.19 663.788 1067.16 663.506 1067.16 663.204V651.813C1067.16 651.51 1067.19 651.228 1067.25 650.967C1067.31 650.705 1067.47 650.503 1067.73 650.362C1067.99 650.201 1068.41 650.121 1068.97 650.121C1069.53 650.121 1069.94 650.201 1070.18 650.362C1070.44 650.503 1070.6 650.705 1070.66 650.967C1070.74 651.228 1070.78 651.51 1070.78 651.813V663.174C1070.78 663.496 1070.74 663.788 1070.66 664.05C1070.6 664.292 1070.44 664.493 1070.18 664.655C1069.94 664.796 1069.53 664.866 1068.97 664.866ZM1068.97 671.302C1068.17 671.302 1067.62 671.151 1067.34 670.849C1067.08 670.547 1066.95 670.023 1066.95 669.278C1066.95 668.915 1066.99 668.583 1067.07 668.281C1067.15 667.958 1067.33 667.706 1067.61 667.525C1067.89 667.344 1068.35 667.253 1068.97 667.253C1069.78 667.253 1070.31 667.404 1070.57 667.706C1070.83 668.009 1070.97 668.532 1070.97 669.278C1070.97 669.64 1070.92 669.983 1070.84 670.305C1070.78 670.607 1070.61 670.849 1070.33 671.03C1070.05 671.212 1069.6 671.302 1068.97 671.302ZM1075.14 676.046C1074.86 676.046 1074.6 676.016 1074.36 675.955C1074.14 675.915 1073.96 675.784 1073.81 675.563C1073.69 675.361 1073.63 675.029 1073.63 674.566C1073.63 674.102 1073.69 673.76 1073.81 673.538C1073.96 673.337 1074.14 673.206 1074.36 673.145C1074.6 673.085 1074.85 673.055 1075.11 673.055C1075.7 673.055 1076.22 672.783 1076.69 672.239C1077.17 671.695 1077.58 670.929 1077.92 669.942C1078.29 668.955 1078.57 667.787 1078.77 666.437C1078.97 665.068 1079.07 663.557 1079.07 661.905C1079.07 659.447 1078.88 657.403 1078.5 655.771C1078.12 654.119 1077.62 652.87 1077.02 652.024C1076.43 651.178 1075.81 650.755 1075.14 650.755H1074.99C1074.75 650.755 1074.52 650.725 1074.3 650.664C1074.1 650.604 1073.94 650.473 1073.81 650.272C1073.69 650.05 1073.63 649.708 1073.63 649.244C1073.63 648.801 1073.69 648.479 1073.81 648.277C1073.96 648.056 1074.14 647.915 1074.36 647.854C1074.6 647.774 1074.85 647.733 1075.11 647.733C1076.1 647.733 1076.98 647.995 1077.74 648.519C1078.53 649.043 1079.21 649.768 1079.8 650.695C1080.38 651.601 1080.87 652.659 1081.25 653.867C1081.65 655.076 1081.94 656.375 1082.12 657.765C1082.33 659.135 1082.43 660.535 1082.43 661.965C1082.43 663.396 1082.33 664.806 1082.12 666.196C1081.92 667.565 1081.62 668.845 1081.22 670.033C1080.83 671.222 1080.35 672.269 1079.77 673.176C1079.18 674.082 1078.51 674.787 1077.74 675.291C1076.98 675.794 1076.11 676.046 1075.14 676.046Z" fill="#0E0A1D"/>
</g>
<defs>
<clipPath id="clip0_33_392">
<rect width="1920" height="1080" fill="white"/>
</clipPath>
</defs>
</svg>
